<svg width="440" height="1098" viewBox="0 0 440 1098" fill="none" xmlns="http://www.w3.org/2000/svg">
<g clip-path="url(#clip0_149_2642)">
<rect width="440" height="1098" fill="#2C2D34"/>
<g clip-path="url(#clip1_149_2642)">
<g opacity="0.1">
<g opacity="0.4">
<path fill-rule="evenodd" clip-rule="evenodd" d="M-295.726 3485.48C-299.671 3493.14 -309.076 3496.13 -316.74 3492.17C-324.383 3488.24 -327.393 3478.82 -323.444 3471.18C-323.203 3470.7 -237.336 3304.76 -229.771 3241.31C-224.497 3197.04 -173.128 3047.23 -120.324 2893.24C-91.4389 2809.03 -62.125 2723.55 -39.516 2652.85C13.2685 2487.81 95.7955 2300.03 157.042 2160.68C168.575 2134.42 179.329 2109.95 190.074 2085.16C251.427 1943.5 419.57 1570.93 420.051 1569.86C421.442 1566.78 423.707 1564.37 426.414 1562.79L979.567 1203.06C986.787 1198.36 996.45 1200.41 1001.13 1207.63C1001.39 1208.02 1001.63 1208.43 1001.85 1208.86C1009.12 1221.06 1124.22 1409.39 1229.8 1269.14C1353.43 1104.93 1406.72 1041.7 1406.88 1041.51C1409.29 1038.62 1412.55 1036.81 1415.99 1036.17C1416.17 1036.12 1478.33 1025.58 1635.98 916.13C1713.92 861.996 1798.02 810.139 1870.23 765.62C1948.12 717.585 2012.09 678.139 2036.91 655.519C2067 628.106 2128.57 586.216 2194.16 559.289C2241.83 539.721 2292.03 527.881 2334.99 534.568C2381.6 541.814 2422.03 541.868 2459.05 538.154C2496.49 534.399 2530.71 526.811 2564.29 518.86C2599.8 510.455 2632.11 506.274 2665.17 507.355C2698.33 508.441 2731.87 514.788 2769.7 527.429C2832.62 548.459 2907.64 524.946 2922.48 520.29C2924.5 519.661 2925.07 519.447 2925.49 519.336C2929.64 518.224 2922.44 518.764 2924.11 516.189C2935 499.43 2956.08 466.984 2998.34 448.674C3001.39 447.356 3007.1 444.955 3012.07 442.854C3021.92 438.694 3024.91 439.222 3025.62 438.102C3026.84 435.825 3024.12 439.287 3023.73 437.307C3022.49 430.727 3020.65 421.057 3020.56 405.452C3020.44 387.744 3015.88 373.661 3011.75 360.883C3004.3 337.885 2997.95 318.243 3011.57 288.283C3028.18 251.839 3027.57 248.191 3024.97 232.327L3024.82 231.364C3023.27 221.824 3025.28 199.127 3027.66 172.357C3031.39 130.38 3036.08 77.4681 3030.08 66.151C3018.62 44.6115 3015.22 40.1451 2991.76 9.32411L2985.74 1.40957L2985.25 0.729235C2978.29 -8.33586 2968.34 -19.2302 2957.9 -30.6873C2924.06 -67.7814 2885.49 -110.064 2897.83 -148.246C2904.2 -167.975 2910.9 -184.025 2916.84 -198.292C2922.94 -212.91 2928.2 -225.531 2931.06 -237.361C2937.29 -263.064 2957.77 -330.785 2957.82 -330.99C2960.2 -338.645 2967.91 -343.149 2975.6 -341.693C2981.55 -341.029 3026.79 -338.422 3027.81 -413.956C3028.11 -435.988 3027.18 -453.288 3026.39 -467.687C3023.37 -523.421 3022.42 -540.894 3085.2 -597.615C3121.88 -630.739 3150.56 -658.01 3171.12 -679.901C3190.47 -700.509 3202.01 -715.519 3205.56 -725.291C3211.52 -741.658 3222.74 -744.104 3231.9 -745.05C3228.57 -746.227 3215.65 -746.636 3202.8 -762.116C3151.33 -824.148 3005.84 -1011.98 2989.82 -1032.7C2963.45 -1051.47 2641.51 -1275.31 2422.17 -1176.9C2314.78 -1128.73 2233.4 -1057.5 2161.41 -994.518C2074.48 -918.445 2000.74 -853.912 1908.52 -851.211L1907.81 -851.213C1826.1 -848.922 1755.24 -864.249 1694.04 -877.483C1634.86 -890.283 1585.17 -901.032 1546.56 -890.688C1523.81 -884.591 1511.11 -874.143 1499.15 -864.32C1466.28 -837.3 1438.02 -814.054 1286.21 -857.488C1180.92 -887.607 1101.37 -919.986 1041.71 -944.256C984.411 -967.589 946.199 -983.126 925.017 -981.084C891.281 -977.821 844.257 -1021.56 781.29 -1080.14C729.758 -1128.08 666.929 -1186.54 594.695 -1235.99C564.716 -1256.52 531.688 -1280.33 497.048 -1305.31C353.681 -1408.7 182.342 -1532.25 68.7928 -1535C60.1989 -1535.21 53.3814 -1542.35 53.6 -1550.96C53.8047 -1559.57 60.9482 -1566.38 69.5422 -1566.17C192.71 -1563.19 368.338 -1436.53 515.31 -1330.54C549.49 -1305.9 582.084 -1282.39 612.333 -1261.68C686.052 -1211.2 750.038 -1151.68 802.498 -1102.87C859.536 -1049.82 902.138 -1010.18 922.02 -1012.11C950.874 -1014.91 991.908 -998.21 1053.44 -973.173C1112.63 -949.076 1191.55 -916.956 1294.75 -887.442C1430.84 -848.513 1453.31 -866.985 1479.43 -888.461C1493.92 -900.379 1509.33 -913.046 1538.49 -920.861C1584.22 -933.114 1637.38 -921.624 1700.66 -907.931C1760.12 -895.073 1828.96 -880.192 1907.01 -882.391L1907.61 -882.419C1988.81 -884.795 2058.64 -945.916 2140.99 -1017.97C2214.63 -1082.41 2297.89 -1155.26 2409.51 -1205.33C2654.56 -1315.28 3008.79 -1057.49 3009.82 -1056.74C3011.03 -1055.87 3012.13 -1054.81 3013.08 -1053.57C3013.55 -1052.97 3173.78 -845.822 3226.79 -781.925C3258.84 -743.288 3262.81 -729.566 3252.61 -720.039C3252.28 -719.698 3251.92 -719.381 3251.55 -719.059C3246.69 -715.025 3242.43 -714.653 3237.36 -714.193C3236.16 -714.093 3235.06 -715.393 3234.79 -714.673C3229.72 -700.743 3216.01 -682.238 3193.76 -658.55C3172.7 -636.128 3143.41 -608.292 3106.03 -574.51C3054.32 -527.801 3055.08 -513.87 3057.49 -469.445C3058.29 -454.431 3059.28 -436.395 3058.97 -413.591C3057.79 -326.093 3008.79 -312.092 2984.2 -310.598C2978.17 -290.461 2965.75 -248.459 2961.3 -230.058C2957.84 -215.702 2952.14 -202.063 2945.55 -186.294C2939.82 -172.557 2933.38 -157.092 2927.41 -138.624C2920.65 -117.713 2952.77 -82.5207 2980.92 -51.6439C2991.55 -39.9996 3001.67 -28.9003 3009.91 -18.1539L3010.45 -17.4846L3016.47 -9.57011C3041.4 23.1745 3045.02 27.9349 3057.59 51.5565C3067.9 70.9657 3062.75 128.995 3058.66 175.013C3056.46 199.737 3054.6 220.694 3055.53 226.282L3055.68 227.245C3059.53 250.706 3060.41 256.097 3039.9 301.153C3031.28 320.081 3035.92 334.449 3041.38 351.289C3046.2 366.201 3051.52 382.635 3051.67 405.182C3051.75 417.671 3053.3 425.81 3054.36 431.361C3056.06 440.345 3057.05 445.544 3052.96 453.006L3052.91 453.079C3048.38 461.324 3041.18 464.363 3024.06 471.594C3021.32 472.74 3018.06 474.117 3010.69 477.318C2977.1 491.873 2959.4 519.112 2950.28 533.182C2944.63 541.843 2940.92 547.55 2933.57 549.519C2932.31 549.859 2932.07 549.922 2931.72 550.045C2915.3 555.184 2832.28 581.21 2759.83 557.004C2724.83 545.316 2694.14 539.446 2664.16 538.469C2634.12 537.48 2604.42 541.361 2571.53 549.154C2536.74 557.382 2501.28 565.243 2462.17 569.179C2422.64 573.139 2379.62 573.101 2330.25 565.428C2293.46 559.716 2248.91 570.485 2205.93 588.133C2143.99 613.562 2086.08 652.905 2057.87 678.618C2030.81 703.301 1965.76 743.405 1886.58 792.23C1814.09 836.928 1729.67 888.987 1653.69 941.756C1517.28 1036.48 1447.1 1060.23 1427.51 1065.53C1414.16 1081.66 1359.84 1148.22 1254.66 1287.93C1137.4 1443.7 1016.33 1287.06 983.388 1237.82L446.642 1586.9C428.09 1628.03 275.274 1966.95 218.665 2097.65C209.483 2118.84 197.939 2145.11 185.542 2173.32C124.606 2311.96 42.4945 2498.75 -9.83944 2662.39C-31.9916 2731.65 -61.6516 2818.15 -90.8628 2903.35C-143.109 3055.73 -193.937 3203.98 -198.845 3245.09C-207.089 3314.22 -295.488 3485.05 -295.735 3485.55L-295.726 3485.48Z" fill="white"/>
<path fill-rule="evenodd" clip-rule="evenodd" d="M399.331 -699.778C397.583 -702.663 396.895 -705.891 397.123 -709.01C390.768 -710.291 384.662 -711.964 379.572 -714.145C366.565 -719.744 353.083 -723.252 339.565 -724.859C309.015 -728.505 278.581 -722.345 253.036 -708.912C227.855 -695.665 207.564 -675.412 196.901 -650.648C193.171 -641.967 190.604 -632.638 189.424 -622.765C182.01 -560.628 161.871 -533.029 132.353 -492.578C118.036 -472.966 101.354 -450.105 82.5778 -417.584C66.3239 -389.431 59.6579 -369.875 54.1306 -353.622C39.7071 -311.306 31.9635 -288.551 -78.2311 -218.639C-189.813 -147.838 -322.818 -159.527 -391.133 -165.522C-401.331 -166.423 -410.014 -167.184 -416.54 -167.503C-403.625 -93.9442 -329.724 266.094 -326.837 280.122L-326.72 280.667C-325.048 289.111 -330.545 297.32 -338.989 298.992L-441.612 319.045C-430.405 376.251 -391.607 574.743 -390.062 587.623C-388.674 599.142 -323.031 809.008 -305.706 864.295L-252.619 854.251L-301.205 527.992C-302.327 521.542 -299.284 514.818 -293.185 511.559C-285.587 507.499 -276.135 510.359 -272.072 517.97L-129.148 784.547C-116.211 790.269 -80.9609 805.005 -74.8476 799.098C-67.3857 791.884 -52.4656 777.443 -38.4992 761.041C-25.334 745.563 -13.0137 728.421 -9.46826 714.915C-7.31175 706.7 -4.73267 692.124 -1.71281 674.948C6.52339 628.174 17.9939 562.986 38.1911 535.106C62.7311 501.218 174.509 322.161 174.83 321.647L327.525 68.5513C310.526 29.9728 233.675 -147.243 234.253 -198.065C234.743 -242.379 251.394 -249.366 280.748 -261.707C293.295 -266.975 308.974 -273.569 326.915 -286.989C350.654 -304.738 348.17 -311.695 345.584 -318.92C341.653 -329.95 337.604 -341.258 346.72 -358.783C355.246 -375.145 367.266 -376.593 381.761 -369.029C391.855 -363.771 402.215 -353.002 413.509 -341.286C429.868 -324.28 448.777 -304.648 458.193 -308.264C474.558 -314.555 490.089 -323.355 501.807 -336.406C510.803 -346.439 517.708 -359.205 521.231 -375.66C505.45 -359.304 486.349 -339.901 465.924 -338.343C440.725 -336.407 429.623 -350.389 427.264 -381.133C425.41 -405.364 429.794 -442.862 435.945 -495.488C436.814 -502.885 437.661 -510.143 440.228 -532.87L440.593 -536.026C446.571 -588.856 449.048 -610.761 445.631 -624.78C443.397 -633.945 437.768 -642.053 428.134 -655.898C420.732 -666.545 411.237 -680.205 399.354 -699.799L399.331 -699.778ZM432.651 -705.087C437.867 -704.86 441.173 -704.874 441.145 -704.867C438.546 -704.864 436.075 -704.217 433.913 -703.077L432.655 -705.073L432.651 -705.087ZM453.209 -674.287L453.688 -673.603C465.396 -656.754 472.249 -646.891 475.821 -632.234C480.61 -612.6 477.959 -589.142 471.562 -532.58L466.837 -491.888C460.904 -441.153 456.676 -404.997 458.325 -383.517C459.074 -373.776 460.598 -369.192 463.522 -369.414C472.527 -370.099 487.514 -385.666 499.791 -398.395C512.816 -411.915 523.763 -423.268 536.05 -422.232C549.422 -421.118 556.309 -411.234 554.311 -387.433C551.696 -356.288 540.654 -333.107 524.948 -315.589C509.476 -298.356 489.762 -287.032 469.284 -279.166C440.634 -268.166 414.024 -295.809 390.997 -319.729C384.248 -326.724 377.9 -333.325 372.897 -337.553C373.086 -334.753 374.052 -332.028 375.021 -329.348C381.534 -311.107 387.785 -293.623 345.602 -262.068C324.598 -246.351 306.913 -238.924 292.76 -232.975C275.487 -225.717 265.702 -221.604 265.425 -197.717C264.879 -147.495 359.016 62.6983 359.282 63.3064C361.433 68.1365 360.927 73.4718 358.392 77.6815L201.252 338.172C200.936 338.7 88.8579 518.236 63.4352 553.351C47.5645 575.27 36.7912 636.446 29.0571 680.352C25.9396 698.101 23.272 713.174 20.7321 722.88C15.8033 741.587 0.944631 762.762 -14.7629 781.211C-29.6793 798.754 -45.3283 813.893 -53.1647 821.473C-76.2417 843.787 -146.722 810.749 -146.924 810.656C-150.126 809.18 -152.593 806.754 -154.137 803.859L-154.178 803.87L-257.179 611.754L-219.553 864.476C-218.316 872.786 -223.875 880.539 -232.069 882.099L-313.512 897.511C-321.706 899.071 -329.605 893.905 -331.57 885.908C-336.99 868.659 -419.186 606.609 -421.027 591.356C-422.702 577.387 -475.069 310.505 -475.213 309.746C-476.885 301.301 -471.389 293.093 -462.944 291.421L-360.449 271.387C-376.554 192.76 -448.767 -160.596 -449.556 -178.702C-450.139 -192.343 -441.724 -198.039 -425.776 -198.723C-417.03 -199.102 -404.52 -198.007 -388.454 -196.596C-323.692 -190.905 -197.647 -179.832 -94.8903 -245.033C6.04765 -309.082 12.5688 -328.186 24.6631 -363.703C30.7254 -381.488 38.0113 -402.865 55.5465 -433.237C74.8069 -466.597 92.2568 -490.505 107.22 -511.015C133.876 -547.538 152.06 -572.456 158.505 -626.519C160.035 -639.278 163.408 -651.497 168.365 -662.988C181.938 -694.529 207.311 -720.073 238.592 -736.52C269.51 -752.781 306.349 -760.23 343.308 -755.819C359.591 -753.874 375.95 -749.602 391.897 -742.736C518.998 -688.03 477.345 -676.662 453.219 -674.304L453.209 -674.287ZM533.492 -391.205C533.19 -391.228 532.901 -391.151 532.61 -390.969C534.908 -390.994 536.06 -390.993 533.492 -391.205Z" fill="white"/>
<path fill-rule="evenodd" clip-rule="evenodd" d="M-432.38 -183.068C-424.147 -185.584 -415.451 -180.971 -412.935 -172.738C-410.422 -164.519 -415.045 -155.806 -423.264 -153.293C-435.312 -149.578 -452.347 -130.404 -476.926 -124.556C-508.296 -117.096 -542.24 -109.537 -560.728 -105.765C-572.855 -103.284 -595.684 -94.5967 -620.016 -84.3544C-658.009 -68.3688 -699.03 -48.795 -710.088 -42.6559C-711.516 -41.9189 -712.88 -41.1104 -714.307 -40.3734C-751.396 -20.0213 -979.692 105.511 -1119.33 239.814C-1189.36 307.178 -1265.99 397.154 -1339.18 493.651C-1419.55 599.59 -1495.74 713.333 -1554.55 813.69L-1578.73 854.986C-1669.15 1009.46 -1677.63 1023.94 -1745.55 1106.1C-1777.98 1145.33 -1844.91 1211.24 -1913.67 1275.44C-2000.88 1356.86 -2091.53 1435.88 -2118.45 1454.1C-2164.01 1484.95 -2202.61 1512.84 -2202.72 1512.93C-2203.61 1513.58 -2204.55 1514.11 -2205.51 1514.53C-2211.54 1517.72 -2256.94 1543.23 -2274.63 1598.55C-2285.05 1631.15 -2293.93 1660.83 -2300.24 1683.79C-2306.59 1706.9 -2310.46 1723.18 -2310.79 1728.65C-2311.04 1732.84 -2315.46 1752.53 -2322.15 1782.47C-2344.98 1884.48 -2395.29 2109.24 -2391.76 2182.93C-2388.34 2254.88 -2349.69 2440.86 -2321.43 2576.93C-2311.9 2622.77 -2303.54 2663.04 -2298.26 2690.38C-2294.55 2709.66 -2304.45 2783.33 -2304.43 2783.12C-2303.81 2778.3 -2301.02 2774.29 -2297.2 2771.92C-2295.7 2770.97 -1776.01 2448.14 -1540.13 2320.65C-1488.03 2292.48 -1433.38 2262.09 -1376.93 2230.68C-1170.15 2115.66 -939.377 1987.29 -794.548 1945.09C-690.616 1914.82 -575.895 1892.56 -469.641 1871.94C-388.046 1856.11 -311.487 1841.27 -248.985 1824.52C-191.21 1809.04 -151.192 1802.48 -119.179 1797.26C-73.8112 1789.83 -45.4492 1785.2 -1.48045 1758.82C34.0662 1737.51 150.409 1654.93 279.589 1563.25C432.183 1454.93 602.613 1333.96 679.945 1285.45C821.792 1196.45 910.373 1117.93 910.622 1117.7C912.422 1116.09 914.504 1114.99 916.685 1114.36C917.429 1114.16 1179.68 1039.62 1253.7 1007.07C1279.64 995.659 1300.16 982.435 1321.55 968.653C1361.68 942.788 1404.63 915.104 1488.55 892.618C1527.68 882.133 1552.47 877.677 1570.72 874.397C1608.98 867.513 1615.63 866.321 1681.59 814.407L1716.74 786.687C1808.81 714.082 1915.25 630.167 1989.75 579.583C2031.91 550.96 2094.92 534.194 2161.15 528.134C2232.68 521.597 2308.67 527.469 2366.23 544.322C2374.49 546.748 2379.2 555.411 2376.78 563.669C2374.35 571.912 2365.69 576.641 2357.43 574.215C2303.55 558.428 2231.89 552.992 2164.03 559.194C2102.52 564.804 2044.73 579.89 2007.27 605.319C1934.48 654.736 1828.1 738.619 1736.07 811.185L1700.81 838.934C1628.7 895.673 1620.93 897.074 1576.29 905.093C1558.64 908.27 1534.69 912.577 1496.62 922.777C1417.12 944.077 1376.43 970.315 1338.4 994.819C1315.75 1009.41 1294 1023.42 1266.17 1035.68C1195.78 1066.65 959.315 1134.53 928.524 1143.33C912.457 1157.24 826.038 1230.54 696.483 1311.83C619.494 1360.13 449.682 1480.66 297.622 1588.6C167.427 1681 50.1635 1764.23 14.5275 1785.6C-34.3964 1814.92 -65.0499 1819.93 -114.125 1827.97C-145.061 1833.02 -183.736 1839.35 -240.919 1854.68C-303.738 1871.51 -381.134 1886.53 -463.606 1902.51C-569.564 1923.08 -683.95 1945.26 -785.922 1974.96C-927.011 2016.08 -1156.32 2143.65 -1361.8 2257.93C-1419.49 2290.04 -1475.34 2321.1 -1525.32 2348.12C-1745.88 2467.32 -2216.55 2758.61 -2274.79 2794.71C-2279.14 2817.03 -2295.21 2871.01 -2328.89 2696.3C-2334.53 2667.04 -2342.68 2627.87 -2351.93 2583.31C-2380.45 2446.07 -2419.4 2258.51 -2422.94 2184.46C-2426.64 2106.9 -2375.66 1879.09 -2352.52 1775.69C-2346.14 1747.17 -2341.93 1728.42 -2341.85 1726.85C-2341.39 1719.13 -2337.14 1700.56 -2330.25 1675.54C-2323.61 1651.41 -2314.62 1621.25 -2304.34 1589.07C-2283.33 1523.41 -2229.43 1492.04 -2220.23 1487.07C-2214.74 1483.12 -2180.4 1458.47 -2135.85 1428.32C-2110.1 1410.89 -2021.16 1333.23 -1934.92 1252.7C-1867.07 1189.36 -1801.18 1124.5 -1769.55 1086.26C-1703.23 1006.03 -1694.85 991.717 -1605.56 839.191L-1581.38 797.895C-1522 696.573 -1445.07 581.731 -1363.93 474.772C-1289.77 377.009 -1212.05 285.751 -1140.88 217.302C-998.525 80.3783 -767.081 -46.9131 -729.258 -67.6686C-727.914 -68.4423 -726.538 -69.1507 -725.198 -69.9382C-713.7 -76.3131 -671.214 -96.5899 -631.991 -113.112C-606.04 -124.039 -581.25 -133.399 -566.99 -136.304C-548.04 -140.171 -514.386 -147.652 -484.14 -154.841C-460.184 -160.536 -443.825 -179.528 -432.38 -183.068Z" fill="white"/>
<path fill-rule="evenodd" clip-rule="evenodd" d="M-65.2783 1349C-67.704 1357.25 -118.668 1327.87 -126.929 1325.43C-135.169 1323.01 -139.901 1314.34 -137.475 1306.08C-135.93 1300.82 -133.141 1293.59 -122.718 1297.15C-107.795 1302.23 -83.8317 1319.45 -81.5502 1311.26C-58.2083 1227.75 -35.5721 1146.73 24.658 1089.97C56.2315 1060.22 97.5539 1030.42 135.186 1003.28C176.943 973.164 213.933 946.487 224.381 929.743C235.752 911.54 257.741 876.4 290.104 836.811C322.542 797.113 365.176 753.295 417.422 718.394C518.584 650.828 601.183 592.372 601.419 592.205C603.505 590.73 605.84 589.854 608.216 589.513C608.395 589.465 670.678 581.107 760.808 548.552C842.801 518.93 1020.32 460.079 1103.18 432.602L1125.96 425.051C1196.32 401.692 1210.02 405.113 1233.03 410.883L1233.68 411.049C1240.26 412.696 1245.18 412.634 1251.11 412.552C1261.62 412.41 1274.66 412.225 1301.63 418.337C1331.81 425.17 1340.9 401.714 1340.93 401.661C1344.17 393.674 1353.26 389.835 1361.23 393.062C1369.21 396.298 1373.07 405.385 1369.83 413.372C1369.78 413.504 1351.08 461.499 1294.74 448.737C1271.51 443.483 1260.51 443.641 1251.63 443.759C1243.54 443.874 1236.85 443.966 1226.09 441.281L1225.45 441.112C1207.99 436.75 1197.6 434.142 1135.79 454.665L1112.88 462.249C1030.83 489.449 855.081 547.724 771.323 577.981C691.081 606.971 631.464 617.509 616.327 619.896C600.583 630.984 525.434 683.78 434.721 744.366C385.367 777.325 344.976 818.873 314.196 856.546C283.329 894.331 261.872 928.589 250.795 946.344C237.142 968.216 197.775 996.608 153.331 1028.65C116.563 1055.17 76.1674 1084.29 46.0252 1112.71C-7.87116 1163.5 -29.3691 1240.39 -51.512 1319.66C-55.2203 1332.95 -61.0291 1334.53 -65.2847 1349.03L-65.2783 1349Z" fill="white"/>
<path fill-rule="evenodd" clip-rule="evenodd" d="M782.929 -218.208C785.748 -226.319 794.609 -230.629 802.721 -227.809C810.829 -225.004 815.142 -216.129 812.319 -208.032C807.7 -194.726 802.93 -182.871 798.541 -171.96C783.654 -134.956 774.076 -111.163 803.409 -96.1267C818.823 -88.2178 831.134 -83.5101 840.205 -80.032C869.738 -68.7127 876.688 -66.04 871.085 -33.5328C868.218 -16.944 859.829 -10.9295 851.283 -4.7842C844.727 -0.0879911 837.953 4.78496 847.617 40.853C849.969 49.6322 854.555 67.5182 859.166 85.4417C874.403 144.789 889.963 205.452 903.597 222.76C906.982 227.068 909.739 230.465 912.555 233.92C932.404 258.382 953.805 284.776 950.041 308.71C948.771 316.761 950.157 332.078 953.239 350.086C956.65 369.926 962.102 392.425 968.42 412.033C982.114 454.54 978.421 492.636 978.406 492.743C977.834 498.879 973.789 503.848 968.386 505.901C957.238 511.104 867.142 551.553 837.694 511.391C834.91 507.617 830.998 502.609 826.729 497.15C797.269 459.532 751.952 401.657 781.214 350.993C784.281 345.68 782.567 348.71 787.516 340.22C803.679 312.446 820.771 283.123 819.039 279.141C817.423 275.424 819.591 285.995 814.523 288.195C795.254 296.549 780.013 317.236 769.533 341.138C756.124 371.749 750.831 406.625 754.647 428.75C758.762 452.597 760.787 470.962 758.91 488.378C756.97 506.551 751.007 522.831 739.192 541.64C718.071 575.277 691.095 590.704 669.913 602.835L664.148 606.182C663.726 606.428 663.287 606.664 662.851 606.854C640.37 619.54 604.178 629.238 604.067 629.267C595.743 631.498 587.176 626.54 584.946 618.216C584.735 617.43 584.588 616.657 584.509 615.866C583.568 610.372 573.599 563.794 503.859 547.191C460.738 536.928 435.322 531.714 406.038 525.734C375.357 519.449 340.63 512.343 283.662 499.305C161.319 471.286 128.641 420.556 128.546 420.419C123.829 413.234 125.826 403.599 132.998 398.886C140.183 394.169 149.818 396.166 154.535 403.352C154.61 403.465 180.431 443.712 290.544 468.922C349.794 482.486 382.958 489.272 412.264 495.276C442.959 501.557 469.604 507.003 511.008 516.87C576.728 532.526 601.486 571.891 610.527 594.773C621.657 591.214 636.826 585.806 647.407 579.869C647.742 579.631 648.098 579.417 648.455 579.204L654.45 575.78C672.64 565.382 695.821 552.109 712.769 525.115C721.941 510.5 726.535 498.264 727.947 485.064C729.436 471.105 727.611 455.197 723.96 434.077C719.222 406.69 725.264 364.685 741.03 328.701C754.386 298.223 774.887 271.37 802.139 259.562C827.603 248.529 841.513 252.646 847.66 266.819C855.603 285.164 834.451 321.498 814.406 355.896C813.693 357.15 815.381 354.246 808.228 366.636C789.482 399.105 826.911 446.892 851.25 477.965C855.402 483.263 859.201 488.124 862.811 493.051C875.429 510.262 927.082 490.069 947.649 481.102C947.77 469.149 946.707 446.33 938.714 421.514C932.02 400.722 926.192 376.713 922.553 355.413C918.952 334.368 917.478 315.471 919.295 303.949C920.923 293.705 904.011 272.873 888.35 253.568C884.904 249.306 881.472 245.1 879.032 242.002C861.473 219.689 845.079 155.807 829.037 93.2929C825.871 80.9798 822.748 68.7731 817.442 48.968C802.205 -7.89733 817.939 -19.1891 833.112 -30.0941C836.423 -32.4583 839.668 -34.7902 840.352 -38.7993C841.611 -46.0645 839.221 -46.9899 829.049 -50.8821C819.633 -54.4894 806.859 -59.383 789.204 -68.4344C734.595 -96.4331 748.298 -130.52 769.633 -183.536C773.952 -194.265 778.643 -205.921 782.915 -218.204L782.929 -218.208Z" fill="white"/>
<path fill-rule="evenodd" clip-rule="evenodd" d="M752.984 627.703C604.497 728.084 569.042 745.221 564.532 747.242L71.2039 1067.22L131.496 1136.77L664.46 1329.45L1030.82 1066.55L1037 1075.19L666.09 1341.37C485.837 1276.18 305.584 1210.99 125.309 1145.87L55.1654 1064.98C223.249 955.917 391.236 846.663 559.48 737.871L559.958 737.669C560.041 737.647 587.563 726.742 747.029 618.929L752.961 627.725L752.984 627.703Z" fill="white"/>
<path fill-rule="evenodd" clip-rule="evenodd" d="M748.756 670.782C334.977 965.193 255.17 1019.24 239.776 1029.15L189.695 1147.33L179.928 1143.18L231.569 1021.29L234.497 1020.86C234.497 1020.86 234.105 1023.92 742.599 662.136L748.756 670.782Z" fill="white"/>
<path fill-rule="evenodd" clip-rule="evenodd" d="M147.161 1011.06L640.963 1208.97L713.028 1300.78L704.651 1307.34L634.334 1217.74L143.197 1020.91L147.161 1011.06Z" fill="white"/>
<path d="M377.345 836.959L368.573 842.938L618.444 1209.51L627.216 1203.53L377.345 836.959Z" fill="white"/>
<path d="M287.456 889.293L278.67 895.275L448.062 1144.06L456.848 1138.08L287.456 889.293Z" fill="white"/>
<path fill-rule="evenodd" clip-rule="evenodd" d="M423.844 808.021L732.941 1256.21L724.168 1262.23L415.071 814.035L423.844 808.021Z" fill="white"/>
<path fill-rule="evenodd" clip-rule="evenodd" d="M501.446 756.444L621.96 949.199L414.593 1089.72L408.662 1080.92L607.542 946.164L492.427 762.036L501.446 756.444Z" fill="white"/>
<path fill-rule="evenodd" clip-rule="evenodd" d="M50.6518 1693.28C69.2221 1682.27 75.9894 1679.02 77.3801 1678.37L562.064 1367.31L503.052 1314.44L-26.5674 1194.61L-74.0501 1227.94L-76.9786 1217.01L-28.8119 1183.21C150.159 1223.66 329.114 1264.16 508.073 1304.68L579.531 1368.71C413.742 1475.09 247.895 1581.36 82.2194 1687.88L81.9273 1688C81.9273 1688 75.8928 1690.57 53.4927 1703.94L50.6417 1693.3L50.6518 1693.28Z" fill="white"/>
<path fill-rule="evenodd" clip-rule="evenodd" d="M495.225 1420.08L4.51829 1292.66L-67.7925 1220.54L-60.2943 1213.02L9.99201 1283.1L497.893 1409.8L495.225 1420.08Z" fill="white"/>
<path fill-rule="evenodd" clip-rule="evenodd" d="M148.035 431.357C372.918 765.431 365.794 769.718 365.784 769.736C339.218 807.417 313.738 848.441 288.164 887.126L79.8872 523.181L17.6072 627.421L203.745 965.524L194.438 970.648L5.3653 627.215C30.2618 585.505 55.1832 543.833 80.0834 502.138L288.841 866.885L356.589 764.415C356.589 764.415 360.339 765.788 139.226 437.293L148.062 431.35L148.035 431.357Z" fill="white"/>
<path fill-rule="evenodd" clip-rule="evenodd" d="M141.023 613.465L379.114 500.066L383.663 509.66L145.573 623.059L141.023 613.465Z" fill="white"/>
<path fill-rule="evenodd" clip-rule="evenodd" d="M-82.0044 944.553C-64.9845 938.279 -24.8327 910.282 8.28025 869.798C30.1139 843.119 48.7224 811.13 55.2923 776.606C70.0339 699.093 90.6566 659.075 96.2064 649.301L55.8772 551.934L65.6938 547.886L108.08 650.227L106.634 652.549C106.574 652.654 82.5105 690.417 65.7504 778.59C58.8189 815.072 39.3336 848.64 16.5198 876.512C-17.8551 918.516 -60.2065 947.841 -78.3307 954.515L-81.9906 944.549L-82.0044 944.553Z" fill="white"/>
<path fill-rule="evenodd" clip-rule="evenodd" d="M-17.0258 899.341C-16.5476 899.582 149.222 983.989 206.14 946.403C262.084 909.477 425.241 722.99 441.629 704.211L436.374 512.213L446.988 511.91L452.361 708.101L451.016 709.643C450.511 710.237 272.157 915.537 211.986 955.265C149.895 996.261 -21.3027 909.07 -21.7846 908.815L-16.9946 899.348L-17.0258 899.341Z" fill="white"/>
<path d="M236.432 236.157L-299.944 379.878L-297.186 390.173L239.19 246.452L236.432 236.157Z" fill="white"/>
<path fill-rule="evenodd" clip-rule="evenodd" d="M-41.4199 774.453C-32.8935 742.049 -35.6381 672.708 -37.4714 626.89C-38.0713 611.806 -38.5698 599.251 -38.5299 591.13C-38.4676 577.139 -13.0295 514.959 20.9256 438.531C69.5606 329.07 135.89 189.445 169.549 121.723C224.997 10.1257 175.852 -58.0685 175.71 -58.2668L184.42 -64.3526C184.565 -64.1405 237.343 9.12197 179.042 126.447C145.501 193.945 79.3092 333.312 30.6402 442.812C-2.81801 518.117 -27.8757 578.851 -27.928 591.17C-27.9648 598.861 -27.4699 611.403 -26.8636 626.455C-25.0157 672.934 -22.2192 743.296 -31.1363 777.164L-41.4337 774.457L-41.4199 774.453Z" fill="white"/>
<path fill-rule="evenodd" clip-rule="evenodd" d="M-153.71 20.9782C-114.492 165.248 -9.99252 548.684 10.546 624.012L72.8499 505.363L-68.4296 -1.88741L-58.1755 -4.63497L84.2125 506.588C58.6001 555.328 33.0053 604.079 7.39668 652.833L3.84799 639.81C3.43439 638.267 -120.603 183.238 -163.999 23.7056L-153.718 20.9507L-153.71 20.9782Z" fill="white"/>
<path fill-rule="evenodd" clip-rule="evenodd" d="M231.315 251.133C242.399 278.386 300.982 381.69 344.606 447.744C355.974 464.98 366.331 479.65 374.527 489.729C380.917 497.589 384.943 502.36 385.554 502.713C399.392 493.495 471.381 442.743 489.057 430.266L308.939 112.751L318.171 107.515L503.066 433.425L499.125 436.195C498.866 436.383 406.476 501.628 390.863 511.941C390.411 512.24 390 512.468 389.611 512.616C384.256 514.79 376.141 508.544 366.292 496.427C357.919 486.129 347.35 471.161 335.754 453.573C291.799 387.001 232.674 282.72 221.456 255.134L231.333 251.143L231.315 251.133Z" fill="white"/>
<path fill-rule="evenodd" clip-rule="evenodd" d="M306.469 407.517L432.005 309.682L438.521 318.069L312.986 415.904L306.469 407.517Z" fill="white"/>
<path d="M384.047 217.492L250.339 317.519L256.706 326.03L390.415 226.004L384.047 217.492Z" fill="white"/>
<path fill-rule="evenodd" clip-rule="evenodd" d="M451.923 -141.524L726.33 506.872L647.102 604.811L340.284 66.3886L349.521 61.1661L648.613 586.03L714.062 505.137L441.559 -138.747L451.923 -141.524Z" fill="white"/>
<path d="M830.802 53.4333L414.062 316.885L419.75 325.882L836.49 62.4304L830.802 53.4333Z" fill="white"/>
</g>
<path d="M405.239 218.283C384.911 223.73 372.844 244.63 378.291 264.959C383.738 285.288 431.245 315.337 431.245 315.337C431.245 315.337 457.362 265.56 451.915 245.231C446.468 224.902 425.568 212.836 405.239 218.283ZM419.59 271.84C410.342 274.318 400.849 268.826 398.375 259.592C395.901 250.358 401.39 240.851 410.624 238.377C419.858 235.903 429.364 241.391 431.838 250.625C434.313 259.86 428.824 269.366 419.59 271.84Z" fill="white"/>
<path d="M107.788 731.418C127.996 719.751 153.822 726.671 165.489 746.879C177.156 767.086 163.466 827.855 163.466 827.855C163.466 827.855 103.988 809.317 92.327 789.119C80.6658 768.921 87.5803 743.085 107.788 731.418ZM138.505 784.621C147.688 779.32 150.842 767.579 145.535 758.386C140.228 749.193 128.482 746.055 119.3 751.356C110.117 756.658 106.969 768.409 112.27 777.591C117.572 786.774 129.313 789.928 138.505 784.621Z" fill="white"/>
</g>
</g>
<rect width="6" height="14.02" transform="matrix(1 0 -0.374606 0.927184 173.126 59.0005)" fill="#FDC501"/>
<rect width="2" height="14.02" transform="matrix(1 0 -0.374606 0.927184 182.126 59.0005)" fill="#FDC501"/>
<path d="M196.894 71L193.854 59.8H195.566L197.838 69.128L200.446 59.8H202.222L204.75 69.16L207.054 59.8H208.766L205.678 71H203.806L201.294 62.088L198.718 71H196.894ZM217.461 71V59.8H219.061V71H217.461ZM210.341 71V59.8H211.941V71H210.341ZM211.669 65.944V64.632H217.797V65.944H211.669ZM221.388 71V59.8H228.444V61.112H222.988V64.696H227.964V65.976H222.988V69.688H228.444V71H221.388ZM230.528 71V59.8H232.128L237.84 68.392V59.8H239.44V71H237.84L232.128 62.424V71H230.528ZM241.763 71V59.8H245.555C246.44 59.8 247.165 59.9493 247.731 60.248C248.296 60.5467 248.712 60.9467 248.979 61.448C249.256 61.9387 249.395 62.4987 249.395 63.128C249.395 63.7253 249.256 64.28 248.979 64.792C248.701 65.2933 248.275 65.6987 247.699 66.008C247.133 66.3067 246.403 66.456 245.507 66.456H243.363V71H241.763ZM247.635 71L245.235 66.024H246.995L249.507 71H247.635ZM243.363 65.24H245.443C246.232 65.24 246.813 65.048 247.187 64.664C247.56 64.2693 247.747 63.768 247.747 63.16C247.747 62.5413 247.565 62.0507 247.203 61.688C246.84 61.3253 246.248 61.144 245.427 61.144H243.363V65.24ZM250.73 71L254.842 59.8H256.586L260.682 71H258.986L255.706 61.72L252.394 71H250.73ZM252.586 68.232L253.034 66.952H258.298L258.746 68.232H252.586ZM262.294 71V59.8H263.894V64.664L268.374 59.8H270.358L266.214 64.248L270.454 71H268.502L265.078 65.496L263.894 66.76V71H262.294Z" fill="white"/>
<path d="M107 122L117.48 96.36H128.4L138.88 122H132.2L129.48 115.4H116.4L113.64 122H107ZM127.48 110.44L122.92 99.48L118.36 110.44H127.48ZM136.921 102.2H143.321L150.361 117.96L158.361 102.2H164.601L154.961 122H145.801L136.921 102.2ZM173.854 122.4C172.707 122.4 171.547 122.32 170.374 122.16C169.227 122.027 168.2 121.733 167.294 121.28C166.387 120.8 165.654 120.12 165.094 119.24C164.56 118.333 164.334 117.133 164.414 115.64C164.467 114.467 164.747 113.533 165.254 112.84C165.787 112.12 166.507 111.573 167.414 111.2C168.347 110.827 169.427 110.587 170.654 110.48C171.907 110.373 173.28 110.32 174.774 110.32L183.174 110.36V109.28C183.174 108.747 183.107 108.307 182.974 107.96C182.867 107.587 182.6 107.293 182.174 107.08C181.774 106.867 181.16 106.707 180.334 106.6C179.534 106.493 178.44 106.44 177.054 106.44C175.24 106.44 173.947 106.6 173.174 106.92C172.4 107.24 171.894 107.813 171.654 108.64H165.374C165.507 107.493 165.814 106.493 166.294 105.64C166.774 104.76 167.467 104.04 168.374 103.48C169.307 102.893 170.48 102.467 171.894 102.2C173.334 101.907 175.054 101.76 177.054 101.76C179.454 101.76 181.414 101.92 182.934 102.24C184.48 102.56 185.694 103.027 186.574 103.64C187.454 104.227 188.054 104.947 188.374 105.8C188.694 106.653 188.854 107.613 188.854 108.68V122H183.174V119.28C182.854 119.707 182.427 120.12 181.894 120.52C181.387 120.893 180.76 121.227 180.014 121.52C179.267 121.787 178.387 122 177.374 122.16C176.36 122.32 175.187 122.4 173.854 122.4ZM177.174 114.12C175.04 114.12 173.427 114.2 172.334 114.36C171.267 114.493 170.734 114.947 170.734 115.72C170.734 116.6 171.174 117.16 172.054 117.4C172.934 117.613 174.254 117.72 176.014 117.72C177.48 117.72 178.667 117.627 179.574 117.44C180.507 117.253 181.24 117.027 181.774 116.76C182.307 116.467 182.667 116.16 182.854 115.84C183.067 115.493 183.174 115.187 183.174 114.92V114.12H177.174ZM193.543 102.2H199.463V105.96C200.237 104.68 201.263 103.667 202.543 102.92C203.823 102.173 205.263 101.8 206.863 101.8C208.677 101.8 210.21 102 211.463 102.4C212.743 102.773 213.783 103.307 214.583 104C215.383 104.667 215.957 105.467 216.303 106.4C216.677 107.333 216.863 108.347 216.863 109.44V122H210.983V110.12C210.983 109.027 210.53 108.187 209.623 107.6C208.743 106.987 207.423 106.68 205.663 106.68C204.517 106.68 203.557 106.8 202.783 107.04C202.01 107.253 201.383 107.547 200.903 107.92C200.45 108.267 200.103 108.68 199.863 109.16C199.65 109.64 199.517 110.147 199.463 110.68V122H193.543V102.2ZM222.652 101.96V97.28H228.332V101.96H241.332V107.04H228.332V114.2C228.332 114.707 228.359 115.173 228.412 115.6C228.492 116.027 228.692 116.387 229.012 116.68C229.359 116.973 229.879 117.213 230.572 117.4C231.265 117.56 232.252 117.64 233.532 117.64C234.652 117.64 235.532 117.547 236.172 117.36C236.839 117.173 237.332 116.92 237.652 116.6C237.999 116.253 238.225 115.84 238.332 115.36C238.465 114.853 238.559 114.307 238.612 113.72H244.532C244.505 115.027 244.319 116.2 243.972 117.24C243.625 118.28 243.039 119.173 242.212 119.92C241.385 120.64 240.265 121.2 238.852 121.6C237.439 121.973 235.665 122.16 233.532 122.16C231.132 122.16 229.212 122 227.772 121.68C226.332 121.36 225.225 120.907 224.452 120.32C223.705 119.707 223.212 118.987 222.972 118.16C222.759 117.307 222.652 116.347 222.652 115.28V107.04H219.212V101.96H222.652ZM256.315 122.4C255.168 122.4 254.008 122.32 252.835 122.16C251.688 122.027 250.661 121.733 249.755 121.28C248.848 120.8 248.115 120.12 247.555 119.24C247.021 118.333 246.795 117.133 246.875 115.64C246.928 114.467 247.208 113.533 247.715 112.84C248.248 112.12 248.968 111.573 249.875 111.2C250.808 110.827 251.888 110.587 253.115 110.48C254.368 110.373 255.741 110.32 257.235 110.32L265.635 110.36V109.28C265.635 108.747 265.568 108.307 265.435 107.96C265.328 107.587 265.061 107.293 264.635 107.08C264.235 106.867 263.621 106.707 262.795 106.6C261.995 106.493 260.901 106.44 259.515 106.44C257.701 106.44 256.408 106.6 255.635 106.92C254.861 107.24 254.355 107.813 254.115 108.64H247.835C247.968 107.493 248.275 106.493 248.755 105.64C249.235 104.76 249.928 104.04 250.835 103.48C251.768 102.893 252.941 102.467 254.355 102.2C255.795 101.907 257.515 101.76 259.515 101.76C261.915 101.76 263.875 101.92 265.395 102.24C266.941 102.56 268.155 103.027 269.035 103.64C269.915 104.227 270.515 104.947 270.835 105.8C271.155 106.653 271.315 107.613 271.315 108.68V122H265.635V119.28C265.315 119.707 264.888 120.12 264.355 120.52C263.848 120.893 263.221 121.227 262.475 121.52C261.728 121.787 260.848 122 259.835 122.16C258.821 122.32 257.648 122.4 256.315 122.4ZM259.635 114.12C257.501 114.12 255.888 114.2 254.795 114.36C253.728 114.493 253.195 114.947 253.195 115.72C253.195 116.6 253.635 117.16 254.515 117.4C255.395 117.613 256.715 117.72 258.475 117.72C259.941 117.72 261.128 117.627 262.035 117.44C262.968 117.253 263.701 117.027 264.235 116.76C264.768 116.467 265.128 116.16 265.315 115.84C265.528 115.493 265.635 115.187 265.635 114.92V114.12H259.635ZM287.682 131.52C286.162 131.52 284.682 131.427 283.242 131.24C281.828 131.08 280.575 130.733 279.482 130.2C278.388 129.667 277.495 128.907 276.802 127.92C276.135 126.96 275.788 125.693 275.762 124.12H281.802C281.882 124.84 282.095 125.387 282.442 125.76C282.815 126.16 283.268 126.44 283.802 126.6C284.362 126.787 284.988 126.893 285.682 126.92C286.375 126.973 287.095 127 287.842 127C290.002 127 291.722 126.613 293.002 125.84C294.308 125.093 294.962 123.907 294.962 122.28V119.32C294.215 120.307 293.228 121.067 292.002 121.6C290.802 122.133 289.402 122.4 287.802 122.4C285.722 122.4 283.895 122.213 282.322 121.84C280.748 121.467 279.428 120.867 278.362 120.04C277.322 119.213 276.535 118.147 276.002 116.84C275.495 115.533 275.242 113.947 275.242 112.08C275.242 110.213 275.495 108.627 276.002 107.32C276.535 106.013 277.322 104.947 278.362 104.12C279.428 103.293 280.748 102.693 282.322 102.32C283.895 101.947 285.722 101.76 287.802 101.76C289.402 101.76 290.802 102.013 292.002 102.52C293.228 103.027 294.215 103.787 294.962 104.8V102.2H300.682V122.92C300.682 124.52 300.322 125.867 299.602 126.96C298.908 128.053 297.962 128.933 296.762 129.6C295.562 130.293 294.175 130.787 292.602 131.08C291.055 131.373 289.415 131.52 287.682 131.52ZM294.962 109.48C294.962 108.92 294.748 108.467 294.322 108.12C293.922 107.747 293.388 107.453 292.722 107.24C292.082 107.027 291.348 106.88 290.522 106.8C289.695 106.72 288.868 106.68 288.042 106.68C286.682 106.68 285.562 106.773 284.682 106.96C283.802 107.12 283.095 107.413 282.562 107.84C282.055 108.267 281.695 108.827 281.482 109.52C281.268 110.213 281.162 111.067 281.162 112.08C281.162 113.093 281.268 113.947 281.482 114.64C281.695 115.333 282.055 115.893 282.562 116.32C283.095 116.72 283.802 117.013 284.682 117.2C285.562 117.387 286.682 117.48 288.042 117.48C288.815 117.48 289.615 117.453 290.442 117.4C291.268 117.32 292.015 117.187 292.682 117C293.348 116.813 293.895 116.56 294.322 116.24C294.748 115.893 294.962 115.467 294.962 114.96V109.48ZM317.063 122.4C314.663 122.4 312.65 122.173 311.023 121.72C309.396 121.267 308.076 120.613 307.063 119.76C306.076 118.88 305.356 117.8 304.903 116.52C304.476 115.24 304.263 113.76 304.263 112.08C304.263 110.4 304.476 108.92 304.903 107.64C305.356 106.36 306.076 105.293 307.063 104.44C308.076 103.56 309.396 102.893 311.023 102.44C312.65 101.987 314.663 101.76 317.063 101.76C321.33 101.76 324.556 102.52 326.743 104.04C328.93 105.56 329.996 107.827 329.943 110.84L329.903 113.12H310.223C310.25 113.973 310.383 114.707 310.623 115.32C310.863 115.933 311.25 116.44 311.783 116.84C312.316 117.24 313.01 117.533 313.863 117.72C314.743 117.907 315.81 118 317.063 118C319.01 118 320.61 117.8 321.863 117.4C323.116 117 323.836 116.32 324.023 115.36H329.783C329.623 116.613 329.21 117.693 328.543 118.6C327.903 119.48 327.036 120.2 325.943 120.76C324.85 121.32 323.556 121.733 322.063 122C320.57 122.267 318.903 122.4 317.063 122.4ZM317.063 106.2C315.17 106.2 313.65 106.44 312.503 106.92C311.383 107.4 310.69 108.293 310.423 109.6H323.863C323.81 109.493 323.77 109.36 323.743 109.2C323.743 109.04 323.716 108.907 323.663 108.8C323.556 108.267 323.29 107.84 322.863 107.52C322.436 107.173 321.903 106.907 321.263 106.72C320.65 106.533 319.97 106.4 319.223 106.32C318.503 106.24 317.783 106.2 317.063 106.2Z" fill="white"/>
<circle cx="219.5" cy="277" r="93" stroke="#FDC500" stroke-width="10"/>
<path d="M228.082 317.351C245.635 317.351 259.865 303.121 259.865 285.568C259.865 268.014 245.635 253.784 228.082 253.784C210.528 253.784 196.298 268.014 196.298 285.568C196.298 303.121 210.528 317.351 228.082 317.351Z" fill="white"/>
<path d="M232.622 226.541H223.541V253.784H232.622V226.541Z" fill="#F4EBB9"/>
<path d="M228.081 249.243C220.897 249.243 213.874 251.374 207.9 255.365C201.927 259.356 197.271 265.029 194.522 271.667C191.773 278.304 191.053 285.608 192.455 292.654C193.856 299.7 197.316 306.173 202.396 311.253C207.476 316.333 213.948 319.792 220.995 321.194C228.041 322.596 235.344 321.876 241.982 319.127C248.619 316.378 254.292 311.722 258.284 305.748C262.275 299.775 264.406 292.752 264.406 285.568C264.406 275.934 260.578 266.695 253.766 259.882C246.954 253.07 237.715 249.243 228.081 249.243ZM232.622 312.402V308.27H223.541V312.402C217.972 311.456 212.835 308.802 208.841 304.808C204.847 300.814 202.193 295.677 201.247 290.108H205.378V281.027H201.247C202.193 275.458 204.847 270.321 208.841 266.327C212.835 262.333 217.972 259.679 223.541 258.733V262.865H232.622V258.733C238.19 259.679 243.327 262.333 247.321 266.327C251.316 270.321 253.969 275.458 254.916 281.027H250.784V290.108H254.916C253.969 295.677 251.316 300.814 247.321 304.808C243.327 308.802 238.19 311.456 232.622 312.402Z" fill="#FDC500"/>
<path d="M237.163 290.108H223.541V271.946H232.622V281.027H237.163V290.108Z" fill="#2C2D34"/>
<path d="M182.676 231.081V226.541H173.595V326.432H182.676V281.027C182.676 270.189 186.981 259.795 194.645 252.131C202.308 244.468 212.703 240.162 223.541 240.162H264.406V231.081H182.676ZM182.676 252.422V240.162H194.935C190.175 243.515 186.028 247.662 182.676 252.422Z" fill="#BCBCBC"/>
<path d="M168.891 416.18C168.061 416.18 167.296 416.05 166.596 415.79C165.906 415.52 165.301 415.14 164.781 414.65C164.271 414.16 163.871 413.585 163.581 412.925C163.301 412.265 163.161 411.54 163.161 410.75C163.161 409.96 163.301 409.235 163.581 408.575C163.871 407.915 164.276 407.34 164.796 406.85C165.316 406.36 165.926 405.985 166.626 405.725C167.326 405.455 168.096 405.32 168.936 405.32C169.866 405.32 170.701 405.475 171.441 405.785C172.191 406.095 172.821 406.545 173.331 407.135L171.771 408.575C171.391 408.175 170.976 407.88 170.526 407.69C170.076 407.49 169.586 407.39 169.056 407.39C168.546 407.39 168.081 407.47 167.661 407.63C167.241 407.79 166.876 408.02 166.566 408.32C166.266 408.62 166.031 408.975 165.861 409.385C165.701 409.795 165.621 410.25 165.621 410.75C165.621 411.24 165.701 411.69 165.861 412.1C166.031 412.51 166.266 412.87 166.566 413.18C166.876 413.48 167.236 413.71 167.646 413.87C168.066 414.03 168.526 414.11 169.026 414.11C169.506 414.11 169.971 414.035 170.421 413.885C170.881 413.725 171.326 413.46 171.756 413.09L173.136 414.845C172.566 415.275 171.901 415.605 171.141 415.835C170.391 416.065 169.641 416.18 168.891 416.18ZM170.916 414.53V410.585H173.136V414.845L170.916 414.53ZM180.178 416V414.425L180.028 414.08V411.26C180.028 410.76 179.873 410.37 179.563 410.09C179.263 409.81 178.798 409.67 178.168 409.67C177.738 409.67 177.313 409.74 176.893 409.88C176.483 410.01 176.133 410.19 175.843 410.42L175.003 408.785C175.443 408.475 175.973 408.235 176.593 408.065C177.213 407.895 177.843 407.81 178.483 407.81C179.713 407.81 180.668 408.1 181.348 408.68C182.028 409.26 182.368 410.165 182.368 411.395V416H180.178ZM177.718 416.12C177.088 416.12 176.548 416.015 176.098 415.805C175.648 415.585 175.303 415.29 175.063 414.92C174.823 414.55 174.703 414.135 174.703 413.675C174.703 413.195 174.818 412.775 175.048 412.415C175.288 412.055 175.663 411.775 176.173 411.575C176.683 411.365 177.348 411.26 178.168 411.26H180.313V412.625H178.423C177.873 412.625 177.493 412.715 177.283 412.895C177.083 413.075 176.983 413.3 176.983 413.57C176.983 413.87 177.098 414.11 177.328 414.29C177.568 414.46 177.893 414.545 178.303 414.545C178.693 414.545 179.043 414.455 179.353 414.275C179.663 414.085 179.888 413.81 180.028 413.45L180.388 414.53C180.218 415.05 179.908 415.445 179.458 415.715C179.008 415.985 178.428 416.12 177.718 416.12ZM184.486 416V407.93H186.826V416H184.486ZM185.656 406.805C185.226 406.805 184.876 406.68 184.606 406.43C184.336 406.18 184.201 405.87 184.201 405.5C184.201 405.13 184.336 404.82 184.606 404.57C184.876 404.32 185.226 404.195 185.656 404.195C186.086 404.195 186.436 404.315 186.706 404.555C186.976 404.785 187.111 405.085 187.111 405.455C187.111 405.845 186.976 406.17 186.706 406.43C186.446 406.68 186.096 406.805 185.656 406.805ZM193.903 407.81C194.543 407.81 195.113 407.94 195.613 408.2C196.123 408.45 196.523 408.84 196.813 409.37C197.103 409.89 197.248 410.56 197.248 411.38V416H194.908V411.74C194.908 411.09 194.763 410.61 194.473 410.3C194.193 409.99 193.793 409.835 193.273 409.835C192.903 409.835 192.568 409.915 192.268 410.075C191.978 410.225 191.748 410.46 191.578 410.78C191.418 411.1 191.338 411.51 191.338 412.01V416H188.998V407.93H191.233V410.165L190.813 409.49C191.103 408.95 191.518 408.535 192.058 408.245C192.598 407.955 193.213 407.81 193.903 407.81ZM207.082 416.12C206.322 416.12 205.637 415.95 205.027 415.61C204.417 415.26 203.932 414.775 203.572 414.155C203.222 413.535 203.047 412.805 203.047 411.965C203.047 411.115 203.222 410.38 203.572 409.76C203.932 409.14 204.417 408.66 205.027 408.32C205.637 407.98 206.322 407.81 207.082 407.81C207.762 407.81 208.357 407.96 208.867 408.26C209.377 408.56 209.772 409.015 210.052 409.625C210.332 410.235 210.472 411.015 210.472 411.965C210.472 412.905 210.337 413.685 210.067 414.305C209.797 414.915 209.407 415.37 208.897 415.67C208.397 415.97 207.792 416.12 207.082 416.12ZM207.487 414.2C207.867 414.2 208.212 414.11 208.522 413.93C208.832 413.75 209.077 413.495 209.257 413.165C209.447 412.825 209.542 412.425 209.542 411.965C209.542 411.495 209.447 411.095 209.257 410.765C209.077 410.435 208.832 410.18 208.522 410C208.212 409.82 207.867 409.73 207.487 409.73C207.097 409.73 206.747 409.82 206.437 410C206.127 410.18 205.877 410.435 205.687 410.765C205.507 411.095 205.417 411.495 205.417 411.965C205.417 412.425 205.507 412.825 205.687 413.165C205.877 413.495 206.127 413.75 206.437 413.93C206.747 414.11 207.097 414.2 207.487 414.2ZM209.602 416V414.35L209.647 411.95L209.497 409.565V404.87H211.837V416H209.602ZM218.008 416.12C217.088 416.12 216.278 415.94 215.578 415.58C214.888 415.22 214.353 414.73 213.973 414.11C213.593 413.48 213.403 412.765 213.403 411.965C213.403 411.155 213.588 410.44 213.958 409.82C214.338 409.19 214.853 408.7 215.503 408.35C216.153 407.99 216.888 407.81 217.708 407.81C218.498 407.81 219.208 407.98 219.838 408.32C220.478 408.65 220.983 409.13 221.353 409.76C221.723 410.38 221.908 411.125 221.908 411.995C221.908 412.085 221.903 412.19 221.893 412.31C221.883 412.42 221.873 412.525 221.863 412.625H215.308V411.26H220.633L219.733 411.665C219.733 411.245 219.648 410.88 219.478 410.57C219.308 410.26 219.073 410.02 218.773 409.85C218.473 409.67 218.123 409.58 217.723 409.58C217.323 409.58 216.968 409.67 216.658 409.85C216.358 410.02 216.123 410.265 215.953 410.585C215.783 410.895 215.698 411.265 215.698 411.695V412.055C215.698 412.495 215.793 412.885 215.983 413.225C216.183 413.555 216.458 413.81 216.808 413.99C217.168 414.16 217.588 414.245 218.068 414.245C218.498 414.245 218.873 414.18 219.193 414.05C219.523 413.92 219.823 413.725 220.093 413.465L221.338 414.815C220.968 415.235 220.503 415.56 219.943 415.79C219.383 416.01 218.738 416.12 218.008 416.12ZM231.014 416.12C230.064 416.12 229.324 415.88 228.794 415.4C228.264 414.91 227.999 414.185 227.999 413.225V406.145H230.339V413.195C230.339 413.535 230.429 413.8 230.609 413.99C230.789 414.17 231.034 414.26 231.344 414.26C231.714 414.26 232.029 414.16 232.289 413.96L232.919 415.61C232.679 415.78 232.389 415.91 232.049 416C231.719 416.08 231.374 416.12 231.014 416.12ZM226.754 409.91V408.11H232.349V409.91H226.754ZM237.988 416.12C237.068 416.12 236.258 415.94 235.558 415.58C234.868 415.22 234.333 414.73 233.953 414.11C233.573 413.48 233.383 412.765 233.383 411.965C233.383 411.155 233.568 410.44 233.938 409.82C234.318 409.19 234.833 408.7 235.483 408.35C236.133 407.99 236.868 407.81 237.688 407.81C238.478 407.81 239.188 407.98 239.818 408.32C240.458 408.65 240.963 409.13 241.333 409.76C241.703 410.38 241.888 411.125 241.888 411.995C241.888 412.085 241.883 412.19 241.873 412.31C241.863 412.42 241.853 412.525 241.843 412.625H235.288V411.26H240.613L239.713 411.665C239.713 411.245 239.628 410.88 239.458 410.57C239.288 410.26 239.053 410.02 238.753 409.85C238.453 409.67 238.103 409.58 237.703 409.58C237.303 409.58 236.948 409.67 236.638 409.85C236.338 410.02 236.103 410.265 235.933 410.585C235.763 410.895 235.678 411.265 235.678 411.695V412.055C235.678 412.495 235.773 412.885 235.963 413.225C236.163 413.555 236.438 413.81 236.788 413.99C237.148 414.16 237.568 414.245 238.048 414.245C238.478 414.245 238.853 414.18 239.173 414.05C239.503 413.92 239.803 413.725 240.073 413.465L241.318 414.815C240.948 415.235 240.483 415.56 239.923 415.79C239.363 416.01 238.718 416.12 237.988 416.12ZM253.781 407.81C254.421 407.81 254.986 407.94 255.476 408.2C255.976 408.45 256.366 408.84 256.646 409.37C256.936 409.89 257.081 410.56 257.081 411.38V416H254.741V411.74C254.741 411.09 254.606 410.61 254.336 410.3C254.066 409.99 253.686 409.835 253.196 409.835C252.856 409.835 252.551 409.915 252.281 410.075C252.011 410.225 251.801 410.455 251.651 410.765C251.501 411.075 251.426 411.47 251.426 411.95V416H249.086V411.74C249.086 411.09 248.951 410.61 248.681 410.3C248.421 409.99 248.046 409.835 247.556 409.835C247.216 409.835 246.911 409.915 246.641 410.075C246.371 410.225 246.161 410.455 246.011 410.765C245.861 411.075 245.786 411.47 245.786 411.95V416H243.446V407.93H245.681V410.135L245.261 409.49C245.541 408.94 245.936 408.525 246.446 408.245C246.966 407.955 247.556 407.81 248.216 407.81C248.956 407.81 249.601 408 250.151 408.38C250.711 408.75 251.081 409.32 251.261 410.09L250.436 409.865C250.706 409.235 251.136 408.735 251.726 408.365C252.326 407.995 253.011 407.81 253.781 407.81ZM263.949 416.12C263.269 416.12 262.674 415.97 262.164 415.67C261.654 415.37 261.254 414.915 260.964 414.305C260.684 413.685 260.544 412.905 260.544 411.965C260.544 411.015 260.679 410.235 260.949 409.625C261.219 409.015 261.609 408.56 262.119 408.26C262.629 407.96 263.239 407.81 263.949 407.81C264.709 407.81 265.389 407.985 265.989 408.335C266.599 408.675 267.079 409.155 267.429 409.775C267.789 410.395 267.969 411.125 267.969 411.965C267.969 412.815 267.789 413.55 267.429 414.17C267.079 414.79 266.599 415.27 265.989 415.61C265.389 415.95 264.709 416.12 263.949 416.12ZM259.179 418.91V407.93H261.414V409.58L261.369 411.98L261.519 414.365V418.91H259.179ZM263.544 414.2C263.934 414.2 264.279 414.11 264.579 413.93C264.889 413.75 265.134 413.495 265.314 413.165C265.504 412.825 265.599 412.425 265.599 411.965C265.599 411.495 265.504 411.095 265.314 410.765C265.134 410.435 264.889 410.18 264.579 410C264.279 409.82 263.934 409.73 263.544 409.73C263.154 409.73 262.804 409.82 262.494 410C262.184 410.18 261.939 410.435 261.759 410.765C261.579 411.095 261.489 411.495 261.489 411.965C261.489 412.425 261.579 412.825 261.759 413.165C261.939 413.495 262.184 413.75 262.494 413.93C262.804 414.11 263.154 414.2 263.544 414.2ZM272.25 416.12C271.56 416.12 270.895 416.04 270.255 415.88C269.625 415.71 269.125 415.5 268.755 415.25L269.535 413.57C269.905 413.8 270.34 413.99 270.84 414.14C271.35 414.28 271.85 414.35 272.34 414.35C272.88 414.35 273.26 414.285 273.48 414.155C273.71 414.025 273.825 413.845 273.825 413.615C273.825 413.425 273.735 413.285 273.555 413.195C273.385 413.095 273.155 413.02 272.865 412.97C272.575 412.92 272.255 412.87 271.905 412.82C271.565 412.77 271.22 412.705 270.87 412.625C270.52 412.535 270.2 412.405 269.91 412.235C269.62 412.065 269.385 411.835 269.205 411.545C269.035 411.255 268.95 410.88 268.95 410.42C268.95 409.91 269.095 409.46 269.385 409.07C269.685 408.68 270.115 408.375 270.675 408.155C271.235 407.925 271.905 407.81 272.685 407.81C273.235 407.81 273.795 407.87 274.365 407.99C274.935 408.11 275.41 408.285 275.79 408.515L275.01 410.18C274.62 409.95 274.225 409.795 273.825 409.715C273.435 409.625 273.055 409.58 272.685 409.58C272.165 409.58 271.785 409.65 271.545 409.79C271.305 409.93 271.185 410.11 271.185 410.33C271.185 410.53 271.27 410.68 271.44 410.78C271.62 410.88 271.855 410.96 272.145 411.02C272.435 411.08 272.75 411.135 273.09 411.185C273.44 411.225 273.79 411.29 274.14 411.38C274.49 411.47 274.805 411.6 275.085 411.77C275.375 411.93 275.61 412.155 275.79 412.445C275.97 412.725 276.06 413.095 276.06 413.555C276.06 414.055 275.91 414.5 275.61 414.89C275.31 415.27 274.875 415.57 274.305 415.79C273.745 416.01 273.06 416.12 272.25 416.12Z" fill="white"/>
<circle cx="219.5" cy="558" r="93" stroke="#FDC500" stroke-width="10"/>
<mask id="mask0_149_2642" style="mask-type:alpha" maskUnits="userSpaceOnUse" x="161" y="502" width="116" height="116">
<rect x="161.5" y="502.487" width="115" height="115" fill="#D9D9D9"/>
</mask>
<g mask="url(#mask0_149_2642)">
<path d="M228.584 564.778C224.591 564.778 221.197 563.381 218.401 560.585C215.606 557.79 214.209 554.396 214.209 550.403C214.209 546.41 215.606 543.016 218.401 540.221C221.197 537.426 224.591 536.028 228.584 536.028C232.577 536.028 235.971 537.426 238.766 540.221C241.561 543.016 242.959 546.41 242.959 550.403C242.959 554.396 241.561 557.79 238.766 560.585C235.971 563.381 232.577 564.778 228.584 564.778ZM185.459 579.153V521.653H271.709V579.153H185.459ZM204.625 569.57H252.542C252.542 566.934 253.48 564.678 255.357 562.802C257.234 560.925 259.49 559.987 262.125 559.987V540.82C259.49 540.82 257.234 539.881 255.357 538.005C253.48 536.128 252.542 533.872 252.542 531.237H204.625C204.625 533.872 203.687 536.128 201.81 538.005C199.933 539.881 197.677 540.82 195.042 540.82V559.987C197.677 559.987 199.933 560.925 201.81 562.802C203.687 564.678 204.625 566.934 204.625 569.57ZM166.292 598.32V536.028H175.875V588.737H257.334V598.32H166.292Z" fill="white"/>
<path d="M166.292 536.028V598.32H257.334V588.737H175.875V536.028H166.292Z" fill="#BCBCBC"/>
<path d="M218.402 560.585C221.197 563.381 224.591 564.778 228.584 564.778C232.577 564.778 235.971 563.381 238.766 560.585C241.561 557.79 242.959 554.396 242.959 550.403C242.959 546.41 241.561 543.016 238.766 540.221C235.971 537.426 232.577 536.028 228.584 536.028C224.591 536.028 221.197 537.426 218.402 540.221C215.607 543.016 214.209 546.41 214.209 550.403C214.209 554.396 215.607 557.79 218.402 560.585Z" fill="#FDC500"/>
</g>
<path d="M180.016 696.73H185.071V698.62H180.016V696.73ZM180.196 701.05H185.911V703H177.781V692.5H185.716V694.45H180.196V701.05ZM191.521 703.12C190.651 703.12 189.876 702.945 189.196 702.595C188.516 702.235 187.981 701.74 187.591 701.11C187.211 700.48 187.021 699.765 187.021 698.965C187.021 698.155 187.211 697.44 187.591 696.82C187.981 696.19 188.516 695.7 189.196 695.35C189.876 694.99 190.651 694.81 191.521 694.81C192.371 694.81 193.111 694.99 193.741 695.35C194.371 695.7 194.836 696.205 195.136 696.865L193.321 697.84C193.111 697.46 192.846 697.18 192.526 697C192.216 696.82 191.876 696.73 191.506 696.73C191.106 696.73 190.746 696.82 190.426 697C190.106 697.18 189.851 697.435 189.661 697.765C189.481 698.095 189.391 698.495 189.391 698.965C189.391 699.435 189.481 699.835 189.661 700.165C189.851 700.495 190.106 700.75 190.426 700.93C190.746 701.11 191.106 701.2 191.506 701.2C191.876 701.2 192.216 701.115 192.526 700.945C192.846 700.765 193.111 700.48 193.321 700.09L195.136 701.08C194.836 701.73 194.371 702.235 193.741 702.595C193.111 702.945 192.371 703.12 191.521 703.12ZM200.221 703.12C199.361 703.12 198.596 702.94 197.926 702.58C197.266 702.22 196.741 701.73 196.351 701.11C195.971 700.48 195.781 699.765 195.781 698.965C195.781 698.155 195.971 697.44 196.351 696.82C196.741 696.19 197.266 695.7 197.926 695.35C198.596 694.99 199.361 694.81 200.221 694.81C201.071 694.81 201.831 694.99 202.501 695.35C203.171 695.7 203.696 696.185 204.076 696.805C204.456 697.425 204.646 698.145 204.646 698.965C204.646 699.765 204.456 700.48 204.076 701.11C203.696 701.73 203.171 702.22 202.501 702.58C201.831 702.94 201.071 703.12 200.221 703.12ZM200.221 701.2C200.611 701.2 200.961 701.11 201.271 700.93C201.581 700.75 201.826 700.495 202.006 700.165C202.186 699.825 202.276 699.425 202.276 698.965C202.276 698.495 202.186 698.095 202.006 697.765C201.826 697.435 201.581 697.18 201.271 697C200.961 696.82 200.611 696.73 200.221 696.73C199.831 696.73 199.481 696.82 199.171 697C198.861 697.18 198.611 697.435 198.421 697.765C198.241 698.095 198.151 698.495 198.151 698.965C198.151 699.425 198.241 699.825 198.421 700.165C198.611 700.495 198.861 700.75 199.171 700.93C199.481 701.11 199.831 701.2 200.221 701.2ZM211.115 694.81C211.755 694.81 212.325 694.94 212.825 695.2C213.335 695.45 213.735 695.84 214.025 696.37C214.315 696.89 214.46 697.56 214.46 698.38V703H212.12V698.74C212.12 698.09 211.975 697.61 211.685 697.3C211.405 696.99 211.005 696.835 210.485 696.835C210.115 696.835 209.78 696.915 209.48 697.075C209.19 697.225 208.96 697.46 208.79 697.78C208.63 698.1 208.55 698.51 208.55 699.01V703H206.21V694.93H208.445V697.165L208.025 696.49C208.315 695.95 208.73 695.535 209.27 695.245C209.81 694.955 210.425 694.81 211.115 694.81ZM220.48 703.12C219.62 703.12 218.855 702.94 218.185 702.58C217.525 702.22 217 701.73 216.61 701.11C216.23 700.48 216.04 699.765 216.04 698.965C216.04 698.155 216.23 697.44 216.61 696.82C217 696.19 217.525 695.7 218.185 695.35C218.855 694.99 219.62 694.81 220.48 694.81C221.33 694.81 222.09 694.99 222.76 695.35C223.43 695.7 223.955 696.185 224.335 696.805C224.715 697.425 224.905 698.145 224.905 698.965C224.905 699.765 224.715 700.48 224.335 701.11C223.955 701.73 223.43 702.22 222.76 702.58C222.09 702.94 221.33 703.12 220.48 703.12ZM220.48 701.2C220.87 701.2 221.22 701.11 221.53 700.93C221.84 700.75 222.085 700.495 222.265 700.165C222.445 699.825 222.535 699.425 222.535 698.965C222.535 698.495 222.445 698.095 222.265 697.765C222.085 697.435 221.84 697.18 221.53 697C221.22 696.82 220.87 696.73 220.48 696.73C220.09 696.73 219.74 696.82 219.43 697C219.12 697.18 218.87 697.435 218.68 697.765C218.5 698.095 218.41 698.495 218.41 698.965C218.41 699.425 218.5 699.825 218.68 700.165C218.87 700.495 219.12 700.75 219.43 700.93C219.74 701.11 220.09 701.2 220.48 701.2ZM236.804 694.81C237.444 694.81 238.009 694.94 238.499 695.2C238.999 695.45 239.389 695.84 239.669 696.37C239.959 696.89 240.104 697.56 240.104 698.38V703H237.764V698.74C237.764 698.09 237.629 697.61 237.359 697.3C237.089 696.99 236.709 696.835 236.219 696.835C235.879 696.835 235.574 696.915 235.304 697.075C235.034 697.225 234.824 697.455 234.674 697.765C234.524 698.075 234.449 698.47 234.449 698.95V703H232.109V698.74C232.109 698.09 231.974 697.61 231.704 697.3C231.444 696.99 231.069 696.835 230.579 696.835C230.239 696.835 229.934 696.915 229.664 697.075C229.394 697.225 229.184 697.455 229.034 697.765C228.884 698.075 228.809 698.47 228.809 698.95V703H226.469V694.93H228.704V697.135L228.284 696.49C228.564 695.94 228.959 695.525 229.469 695.245C229.989 694.955 230.579 694.81 231.239 694.81C231.979 694.81 232.624 695 233.174 695.38C233.734 695.75 234.104 696.32 234.284 697.09L233.459 696.865C233.729 696.235 234.159 695.735 234.749 695.365C235.349 694.995 236.034 694.81 236.804 694.81ZM242.201 703V694.93H244.541V703H242.201ZM243.371 693.805C242.941 693.805 242.591 693.68 242.321 693.43C242.051 693.18 241.916 692.87 241.916 692.5C241.916 692.13 242.051 691.82 242.321 691.57C242.591 691.32 242.941 691.195 243.371 691.195C243.801 691.195 244.151 691.315 244.421 691.555C244.691 691.785 244.826 692.085 244.826 692.455C244.826 692.845 244.691 693.17 244.421 693.43C244.161 693.68 243.811 693.805 243.371 693.805ZM250.613 703.12C249.743 703.12 248.968 702.945 248.288 702.595C247.608 702.235 247.073 701.74 246.683 701.11C246.303 700.48 246.113 699.765 246.113 698.965C246.113 698.155 246.303 697.44 246.683 696.82C247.073 696.19 247.608 695.7 248.288 695.35C248.968 694.99 249.743 694.81 250.613 694.81C251.463 694.81 252.203 694.99 252.833 695.35C253.463 695.7 253.928 696.205 254.228 696.865L252.413 697.84C252.203 697.46 251.938 697.18 251.618 697C251.308 696.82 250.968 696.73 250.598 696.73C250.198 696.73 249.838 696.82 249.518 697C249.198 697.18 248.943 697.435 248.753 697.765C248.573 698.095 248.483 698.495 248.483 698.965C248.483 699.435 248.573 699.835 248.753 700.165C248.943 700.495 249.198 700.75 249.518 700.93C249.838 701.11 250.198 701.2 250.598 701.2C250.968 701.2 251.308 701.115 251.618 700.945C251.938 700.765 252.203 700.48 252.413 700.09L254.228 701.08C253.928 701.73 253.463 702.235 252.833 702.595C252.203 702.945 251.463 703.12 250.613 703.12ZM258.29 703.12C257.6 703.12 256.935 703.04 256.295 702.88C255.665 702.71 255.165 702.5 254.795 702.25L255.575 700.57C255.945 700.8 256.38 700.99 256.88 701.14C257.39 701.28 257.89 701.35 258.38 701.35C258.92 701.35 259.3 701.285 259.52 701.155C259.75 701.025 259.865 700.845 259.865 700.615C259.865 700.425 259.775 700.285 259.595 700.195C259.425 700.095 259.195 700.02 258.905 699.97C258.615 699.92 258.295 699.87 257.945 699.82C257.605 699.77 257.26 699.705 256.91 699.625C256.56 699.535 256.24 699.405 255.95 699.235C255.66 699.065 255.425 698.835 255.245 698.545C255.075 698.255 254.99 697.88 254.99 697.42C254.99 696.91 255.135 696.46 255.425 696.07C255.725 695.68 256.155 695.375 256.715 695.155C257.275 694.925 257.945 694.81 258.725 694.81C259.275 694.81 259.835 694.87 260.405 694.99C260.975 695.11 261.45 695.285 261.83 695.515L261.05 697.18C260.66 696.95 260.265 696.795 259.865 696.715C259.475 696.625 259.095 696.58 258.725 696.58C258.205 696.58 257.825 696.65 257.585 696.79C257.345 696.93 257.225 697.11 257.225 697.33C257.225 697.53 257.31 697.68 257.48 697.78C257.66 697.88 257.895 697.96 258.185 698.02C258.475 698.08 258.79 698.135 259.13 698.185C259.48 698.225 259.83 698.29 260.18 698.38C260.53 698.47 260.845 698.6 261.125 698.77C261.415 698.93 261.65 699.155 261.83 699.445C262.01 699.725 262.1 700.095 262.1 700.555C262.1 701.055 261.95 701.5 261.65 701.89C261.35 702.27 260.915 702.57 260.345 702.79C259.785 703.01 259.1 703.12 258.29 703.12Z" fill="white"/>
<circle cx="219.5" cy="845" r="93" stroke="#FDC500" stroke-width="10"/>
<path d="M250.784 796.081H187.217V886.892H250.784V796.081Z" fill="#2C2D34"/>
<path d="M255.324 891.432H182.676V791.541H255.324V891.432ZM191.757 882.351H246.243V800.622H191.757V882.351Z" fill="white"/>
<path d="M209.919 809.703H228.082L232.622 800.622H205.379L209.919 809.703Z" fill="#BCBCBC"/>
<path d="M219 823.324C214.183 823.324 209.564 825.238 206.157 828.644C202.751 832.05 200.838 836.67 200.838 841.487C200.838 859.649 219 868.73 219 868.73C219 868.73 237.162 859.649 237.162 841.487C237.162 836.67 235.249 832.05 231.843 828.644C228.437 825.238 223.817 823.324 219 823.324ZM219 850.568C217.204 850.568 215.448 850.035 213.955 849.037C212.462 848.039 211.298 846.621 210.61 844.962C209.923 843.302 209.743 841.476 210.093 839.715C210.444 837.953 211.309 836.335 212.579 835.065C213.849 833.795 215.467 832.93 217.228 832.58C218.99 832.23 220.816 832.409 222.475 833.097C224.135 833.784 225.553 834.948 226.551 836.441C227.549 837.935 228.081 839.69 228.081 841.487C228.081 843.895 227.124 846.205 225.421 847.908C223.718 849.611 221.409 850.568 219 850.568Z" fill="#FDC500"/>
<path d="M128.249 978.225H133.289V980.175H128.249V978.225ZM128.429 984H125.999V973.5H133.934V975.45H128.429V984ZM140.144 984V982.425L139.994 982.08V979.26C139.994 978.76 139.839 978.37 139.529 978.09C139.229 977.81 138.764 977.67 138.134 977.67C137.704 977.67 137.279 977.74 136.859 977.88C136.449 978.01 136.099 978.19 135.809 978.42L134.969 976.785C135.409 976.475 135.939 976.235 136.559 976.065C137.179 975.895 137.809 975.81 138.449 975.81C139.679 975.81 140.634 976.1 141.314 976.68C141.994 977.26 142.334 978.165 142.334 979.395V984H140.144ZM137.684 984.12C137.054 984.12 136.514 984.015 136.064 983.805C135.614 983.585 135.269 983.29 135.029 982.92C134.789 982.55 134.669 982.135 134.669 981.675C134.669 981.195 134.784 980.775 135.014 980.415C135.254 980.055 135.629 979.775 136.139 979.575C136.649 979.365 137.314 979.26 138.134 979.26H140.279V980.625H138.389C137.839 980.625 137.459 980.715 137.249 980.895C137.049 981.075 136.949 981.3 136.949 981.57C136.949 981.87 137.064 982.11 137.294 982.29C137.534 982.46 137.859 982.545 138.269 982.545C138.659 982.545 139.009 982.455 139.319 982.275C139.629 982.085 139.854 981.81 139.994 981.45L140.354 982.53C140.184 983.05 139.874 983.445 139.424 983.715C138.974 983.985 138.394 984.12 137.684 984.12ZM148.411 984.12C147.541 984.12 146.766 983.945 146.086 983.595C145.406 983.235 144.871 982.74 144.481 982.11C144.101 981.48 143.911 980.765 143.911 979.965C143.911 979.155 144.101 978.44 144.481 977.82C144.871 977.19 145.406 976.7 146.086 976.35C146.766 975.99 147.541 975.81 148.411 975.81C149.261 975.81 150.001 975.99 150.631 976.35C151.261 976.7 151.726 977.205 152.026 977.865L150.211 978.84C150.001 978.46 149.736 978.18 149.416 978C149.106 977.82 148.766 977.73 148.396 977.73C147.996 977.73 147.636 977.82 147.316 978C146.996 978.18 146.741 978.435 146.551 978.765C146.371 979.095 146.281 979.495 146.281 979.965C146.281 980.435 146.371 980.835 146.551 981.165C146.741 981.495 146.996 981.75 147.316 981.93C147.636 982.11 147.996 982.2 148.396 982.2C148.766 982.2 149.106 982.115 149.416 981.945C149.736 981.765 150.001 981.48 150.211 981.09L152.026 982.08C151.726 982.73 151.261 983.235 150.631 983.595C150.001 983.945 149.261 984.12 148.411 984.12ZM153.314 984V975.93H155.654V984H153.314ZM154.484 974.805C154.054 974.805 153.704 974.68 153.434 974.43C153.164 974.18 153.029 973.87 153.029 973.5C153.029 973.13 153.164 972.82 153.434 972.57C153.704 972.32 154.054 972.195 154.484 972.195C154.914 972.195 155.264 972.315 155.534 972.555C155.804 972.785 155.939 973.085 155.939 973.455C155.939 973.845 155.804 974.17 155.534 974.43C155.274 974.68 154.924 974.805 154.484 974.805ZM157.826 984V972.87H160.166V984H157.826ZM162.338 984V975.93H164.678V984H162.338ZM163.508 974.805C163.078 974.805 162.728 974.68 162.458 974.43C162.188 974.18 162.053 973.87 162.053 973.5C162.053 973.13 162.188 972.82 162.458 972.57C162.728 972.32 163.078 972.195 163.508 972.195C163.938 972.195 164.288 972.315 164.558 972.555C164.828 972.785 164.963 973.085 164.963 973.455C164.963 973.845 164.828 974.17 164.558 974.43C164.298 974.68 163.948 974.805 163.508 974.805ZM170.15 984.12C169.2 984.12 168.46 983.88 167.93 983.4C167.4 982.91 167.135 982.185 167.135 981.225V974.145H169.475V981.195C169.475 981.535 169.565 981.8 169.745 981.99C169.925 982.17 170.17 982.26 170.48 982.26C170.85 982.26 171.165 982.16 171.425 981.96L172.055 983.61C171.815 983.78 171.525 983.91 171.185 984C170.855 984.08 170.51 984.12 170.15 984.12ZM165.89 977.91V976.11H171.485V977.91H165.89ZM177.124 984.12C176.204 984.12 175.394 983.94 174.694 983.58C174.004 983.22 173.469 982.73 173.089 982.11C172.709 981.48 172.519 980.765 172.519 979.965C172.519 979.155 172.704 978.44 173.074 977.82C173.454 977.19 173.969 976.7 174.619 976.35C175.269 975.99 176.004 975.81 176.824 975.81C177.614 975.81 178.324 975.98 178.954 976.32C179.594 976.65 180.099 977.13 180.469 977.76C180.839 978.38 181.024 979.125 181.024 979.995C181.024 980.085 181.019 980.19 181.009 980.31C180.999 980.42 180.989 980.525 180.979 980.625H174.424V979.26H179.749L178.849 979.665C178.849 979.245 178.764 978.88 178.594 978.57C178.424 978.26 178.189 978.02 177.889 977.85C177.589 977.67 177.239 977.58 176.839 977.58C176.439 977.58 176.084 977.67 175.774 977.85C175.474 978.02 175.239 978.265 175.069 978.585C174.899 978.895 174.814 979.265 174.814 979.695V980.055C174.814 980.495 174.909 980.885 175.099 981.225C175.299 981.555 175.574 981.81 175.924 981.99C176.284 982.16 176.704 982.245 177.184 982.245C177.614 982.245 177.989 982.18 178.309 982.05C178.639 981.92 178.939 981.725 179.209 981.465L180.454 982.815C180.084 983.235 179.619 983.56 179.059 983.79C178.499 984.01 177.854 984.12 177.124 984.12ZM175.414 974.895L177.439 972.735H179.959L177.244 974.895H175.414ZM190.295 984.12C189.535 984.12 188.85 983.95 188.24 983.61C187.63 983.26 187.145 982.775 186.785 982.155C186.435 981.535 186.26 980.805 186.26 979.965C186.26 979.115 186.435 978.38 186.785 977.76C187.145 977.14 187.63 976.66 188.24 976.32C188.85 975.98 189.535 975.81 190.295 975.81C190.975 975.81 191.57 975.96 192.08 976.26C192.59 976.56 192.985 977.015 193.265 977.625C193.545 978.235 193.685 979.015 193.685 979.965C193.685 980.905 193.55 981.685 193.28 982.305C193.01 982.915 192.62 983.37 192.11 983.67C191.61 983.97 191.005 984.12 190.295 984.12ZM190.7 982.2C191.08 982.2 191.425 982.11 191.735 981.93C192.045 981.75 192.29 981.495 192.47 981.165C192.66 980.825 192.755 980.425 192.755 979.965C192.755 979.495 192.66 979.095 192.47 978.765C192.29 978.435 192.045 978.18 191.735 978C191.425 977.82 191.08 977.73 190.7 977.73C190.31 977.73 189.96 977.82 189.65 978C189.34 978.18 189.09 978.435 188.9 978.765C188.72 979.095 188.63 979.495 188.63 979.965C188.63 980.425 188.72 980.825 188.9 981.165C189.09 981.495 189.34 981.75 189.65 981.93C189.96 982.11 190.31 982.2 190.7 982.2ZM192.815 984V982.35L192.86 979.95L192.71 977.565V972.87H195.05V984H192.815ZM201.221 984.12C200.301 984.12 199.491 983.94 198.791 983.58C198.101 983.22 197.566 982.73 197.186 982.11C196.806 981.48 196.616 980.765 196.616 979.965C196.616 979.155 196.801 978.44 197.171 977.82C197.551 977.19 198.066 976.7 198.716 976.35C199.366 975.99 200.101 975.81 200.921 975.81C201.711 975.81 202.421 975.98 203.051 976.32C203.691 976.65 204.196 977.13 204.566 977.76C204.936 978.38 205.121 979.125 205.121 979.995C205.121 980.085 205.116 980.19 205.106 980.31C205.096 980.42 205.086 980.525 205.076 980.625H198.521V979.26H203.846L202.946 979.665C202.946 979.245 202.861 978.88 202.691 978.57C202.521 978.26 202.286 978.02 201.986 977.85C201.686 977.67 201.336 977.58 200.936 977.58C200.536 977.58 200.181 977.67 199.871 977.85C199.571 978.02 199.336 978.265 199.166 978.585C198.996 978.895 198.911 979.265 198.911 979.695V980.055C198.911 980.495 199.006 980.885 199.196 981.225C199.396 981.555 199.671 981.81 200.021 981.99C200.381 982.16 200.801 982.245 201.281 982.245C201.711 982.245 202.086 982.18 202.406 982.05C202.736 981.92 203.036 981.725 203.306 981.465L204.551 982.815C204.181 983.235 203.716 983.56 203.156 983.79C202.596 984.01 201.951 984.12 201.221 984.12ZM214.392 984.12C213.632 984.12 212.947 983.95 212.337 983.61C211.727 983.26 211.242 982.775 210.882 982.155C210.532 981.535 210.357 980.805 210.357 979.965C210.357 979.115 210.532 978.38 210.882 977.76C211.242 977.14 211.727 976.66 212.337 976.32C212.947 975.98 213.632 975.81 214.392 975.81C215.072 975.81 215.667 975.96 216.177 976.26C216.687 976.56 217.082 977.015 217.362 977.625C217.642 978.235 217.782 979.015 217.782 979.965C217.782 980.905 217.647 981.685 217.377 982.305C217.107 982.915 216.717 983.37 216.207 983.67C215.707 983.97 215.102 984.12 214.392 984.12ZM214.797 982.2C215.177 982.2 215.522 982.11 215.832 981.93C216.142 981.75 216.387 981.495 216.567 981.165C216.757 980.825 216.852 980.425 216.852 979.965C216.852 979.495 216.757 979.095 216.567 978.765C216.387 978.435 216.142 978.18 215.832 978C215.522 977.82 215.177 977.73 214.797 977.73C214.407 977.73 214.057 977.82 213.747 978C213.437 978.18 213.187 978.435 212.997 978.765C212.817 979.095 212.727 979.495 212.727 979.965C212.727 980.425 212.817 980.825 212.997 981.165C213.187 981.495 213.437 981.75 213.747 981.93C214.057 982.11 214.407 982.2 214.797 982.2ZM216.912 984V982.35L216.957 979.95L216.807 977.565V972.87H219.147V984H216.912ZM225.317 984.12C224.397 984.12 223.587 983.94 222.887 983.58C222.197 983.22 221.662 982.73 221.282 982.11C220.902 981.48 220.712 980.765 220.712 979.965C220.712 979.155 220.897 978.44 221.267 977.82C221.647 977.19 222.162 976.7 222.812 976.35C223.462 975.99 224.197 975.81 225.017 975.81C225.807 975.81 226.517 975.98 227.147 976.32C227.787 976.65 228.292 977.13 228.662 977.76C229.032 978.38 229.217 979.125 229.217 979.995C229.217 980.085 229.212 980.19 229.202 980.31C229.192 980.42 229.182 980.525 229.172 980.625H222.617V979.26H227.942L227.042 979.665C227.042 979.245 226.957 978.88 226.787 978.57C226.617 978.26 226.382 978.02 226.082 977.85C225.782 977.67 225.432 977.58 225.032 977.58C224.632 977.58 224.277 977.67 223.967 977.85C223.667 978.02 223.432 978.265 223.262 978.585C223.092 978.895 223.007 979.265 223.007 979.695V980.055C223.007 980.495 223.102 980.885 223.292 981.225C223.492 981.555 223.767 981.81 224.117 981.99C224.477 982.16 224.897 982.245 225.377 982.245C225.807 982.245 226.182 982.18 226.502 982.05C226.832 981.92 227.132 981.725 227.402 981.465L228.647 982.815C228.277 983.235 227.812 983.56 227.252 983.79C226.692 984.01 226.047 984.12 225.317 984.12ZM223.607 974.895L225.632 972.735H228.152L225.437 974.895H223.607ZM235.545 984.12C234.865 984.12 234.27 983.97 233.76 983.67C233.25 983.37 232.85 982.915 232.56 982.305C232.28 981.685 232.14 980.905 232.14 979.965C232.14 979.015 232.275 978.235 232.545 977.625C232.815 977.015 233.205 976.56 233.715 976.26C234.225 975.96 234.835 975.81 235.545 975.81C236.305 975.81 236.985 975.985 237.585 976.335C238.195 976.675 238.675 977.155 239.025 977.775C239.385 978.395 239.565 979.125 239.565 979.965C239.565 980.815 239.385 981.55 239.025 982.17C238.675 982.79 238.195 983.27 237.585 983.61C236.985 983.95 236.305 984.12 235.545 984.12ZM230.775 986.91V975.93H233.01V977.58L232.965 979.98L233.115 982.365V986.91H230.775ZM235.14 982.2C235.53 982.2 235.875 982.11 236.175 981.93C236.485 981.75 236.73 981.495 236.91 981.165C237.1 980.825 237.195 980.425 237.195 979.965C237.195 979.495 237.1 979.095 236.91 978.765C236.73 978.435 236.485 978.18 236.175 978C235.875 977.82 235.53 977.73 235.14 977.73C234.75 977.73 234.4 977.82 234.09 978C233.78 978.18 233.535 978.435 233.355 978.765C233.175 979.095 233.085 979.495 233.085 979.965C233.085 980.425 233.175 980.825 233.355 981.165C233.535 981.495 233.78 981.75 234.09 981.93C234.4 982.11 234.75 982.2 235.14 982.2ZM241.132 984V972.87H243.472V984H241.132ZM250.593 984V982.425L250.443 982.08V979.26C250.443 978.76 250.288 978.37 249.978 978.09C249.678 977.81 249.213 977.67 248.583 977.67C248.153 977.67 247.728 977.74 247.308 977.88C246.898 978.01 246.548 978.19 246.258 978.42L245.418 976.785C245.858 976.475 246.388 976.235 247.008 976.065C247.628 975.895 248.258 975.81 248.898 975.81C250.128 975.81 251.083 976.1 251.763 976.68C252.443 977.26 252.783 978.165 252.783 979.395V984H250.593ZM248.133 984.12C247.503 984.12 246.963 984.015 246.513 983.805C246.063 983.585 245.718 983.29 245.478 982.92C245.238 982.55 245.118 982.135 245.118 981.675C245.118 981.195 245.233 980.775 245.463 980.415C245.703 980.055 246.078 979.775 246.588 979.575C247.098 979.365 247.763 979.26 248.583 979.26H250.728V980.625H248.838C248.288 980.625 247.908 980.715 247.698 980.895C247.498 981.075 247.398 981.3 247.398 981.57C247.398 981.87 247.513 982.11 247.743 982.29C247.983 982.46 248.308 982.545 248.718 982.545C249.108 982.545 249.458 982.455 249.768 982.275C250.078 982.085 250.303 981.81 250.443 981.45L250.803 982.53C250.633 983.05 250.323 983.445 249.873 983.715C249.423 983.985 248.843 984.12 248.133 984.12ZM258.86 984.12C257.99 984.12 257.215 983.945 256.535 983.595C255.855 983.235 255.32 982.74 254.93 982.11C254.55 981.48 254.36 980.765 254.36 979.965C254.36 979.155 254.55 978.44 254.93 977.82C255.32 977.19 255.855 976.7 256.535 976.35C257.215 975.99 257.99 975.81 258.86 975.81C259.71 975.81 260.45 975.99 261.08 976.35C261.71 976.7 262.175 977.205 262.475 977.865L260.66 978.84C260.45 978.46 260.185 978.18 259.865 978C259.555 977.82 259.215 977.73 258.845 977.73C258.445 977.73 258.085 977.82 257.765 978C257.445 978.18 257.19 978.435 257 978.765C256.82 979.095 256.73 979.495 256.73 979.965C256.73 980.435 256.82 980.835 257 981.165C257.19 981.495 257.445 981.75 257.765 981.93C258.085 982.11 258.445 982.2 258.845 982.2C259.215 982.2 259.555 982.115 259.865 981.945C260.185 981.765 260.45 981.48 260.66 981.09L262.475 982.08C262.175 982.73 261.71 983.235 261.08 983.595C260.45 983.945 259.71 984.12 258.86 984.12ZM267.725 984.12C266.805 984.12 265.995 983.94 265.295 983.58C264.605 983.22 264.07 982.73 263.69 982.11C263.31 981.48 263.12 980.765 263.12 979.965C263.12 979.155 263.305 978.44 263.675 977.82C264.055 977.19 264.57 976.7 265.22 976.35C265.87 975.99 266.605 975.81 267.425 975.81C268.215 975.81 268.925 975.98 269.555 976.32C270.195 976.65 270.7 977.13 271.07 977.76C271.44 978.38 271.625 979.125 271.625 979.995C271.625 980.085 271.62 980.19 271.61 980.31C271.6 980.42 271.59 980.525 271.58 980.625H265.025V979.26H270.35L269.45 979.665C269.45 979.245 269.365 978.88 269.195 978.57C269.025 978.26 268.79 978.02 268.49 977.85C268.19 977.67 267.84 977.58 267.44 977.58C267.04 977.58 266.685 977.67 266.375 977.85C266.075 978.02 265.84 978.265 265.67 978.585C265.5 978.895 265.415 979.265 265.415 979.695V980.055C265.415 980.495 265.51 980.885 265.7 981.225C265.9 981.555 266.175 981.81 266.525 981.99C266.885 982.16 267.305 982.245 267.785 982.245C268.215 982.245 268.59 982.18 268.91 982.05C269.24 981.92 269.54 981.725 269.81 981.465L271.055 982.815C270.685 983.235 270.22 983.56 269.66 983.79C269.1 984.01 268.455 984.12 267.725 984.12ZM283.518 975.81C284.158 975.81 284.723 975.94 285.213 976.2C285.713 976.45 286.103 976.84 286.383 977.37C286.673 977.89 286.818 978.56 286.818 979.38V984H284.478V979.74C284.478 979.09 284.343 978.61 284.073 978.3C283.803 977.99 283.423 977.835 282.933 977.835C282.593 977.835 282.288 977.915 282.018 978.075C281.748 978.225 281.538 978.455 281.388 978.765C281.238 979.075 281.163 979.47 281.163 979.95V984H278.823V979.74C278.823 979.09 278.688 978.61 278.418 978.3C278.158 977.99 277.783 977.835 277.293 977.835C276.953 977.835 276.648 977.915 276.378 978.075C276.108 978.225 275.898 978.455 275.748 978.765C275.598 979.075 275.523 979.47 275.523 979.95V984H273.183V975.93H275.418V978.135L274.998 977.49C275.278 976.94 275.673 976.525 276.183 976.245C276.703 975.955 277.293 975.81 277.953 975.81C278.693 975.81 279.338 976 279.888 976.38C280.448 976.75 280.818 977.32 280.998 978.09L280.173 977.865C280.443 977.235 280.873 976.735 281.463 976.365C282.063 975.995 282.748 975.81 283.518 975.81ZM292.979 984.12C292.059 984.12 291.249 983.94 290.549 983.58C289.859 983.22 289.324 982.73 288.944 982.11C288.564 981.48 288.374 980.765 288.374 979.965C288.374 979.155 288.559 978.44 288.929 977.82C289.309 977.19 289.824 976.7 290.474 976.35C291.124 975.99 291.859 975.81 292.679 975.81C293.469 975.81 294.179 975.98 294.809 976.32C295.449 976.65 295.954 977.13 296.324 977.76C296.694 978.38 296.879 979.125 296.879 979.995C296.879 980.085 296.874 980.19 296.864 980.31C296.854 980.42 296.844 980.525 296.834 980.625H290.279V979.26H295.604L294.704 979.665C294.704 979.245 294.619 978.88 294.449 978.57C294.279 978.26 294.044 978.02 293.744 977.85C293.444 977.67 293.094 977.58 292.694 977.58C292.294 977.58 291.939 977.67 291.629 977.85C291.329 978.02 291.094 978.265 290.924 978.585C290.754 978.895 290.669 979.265 290.669 979.695V980.055C290.669 980.495 290.764 980.885 290.954 981.225C291.154 981.555 291.429 981.81 291.779 981.99C292.139 982.16 292.559 982.245 293.039 982.245C293.469 982.245 293.844 982.18 294.164 982.05C294.494 981.92 294.794 981.725 295.064 981.465L296.309 982.815C295.939 983.235 295.474 983.56 294.914 983.79C294.354 984.01 293.709 984.12 292.979 984.12ZM303.341 975.81C303.981 975.81 304.551 975.94 305.051 976.2C305.561 976.45 305.961 976.84 306.251 977.37C306.541 977.89 306.686 978.56 306.686 979.38V984H304.346V979.74C304.346 979.09 304.201 978.61 303.911 978.3C303.631 977.99 303.231 977.835 302.711 977.835C302.341 977.835 302.006 977.915 301.706 978.075C301.416 978.225 301.186 978.46 301.016 978.78C300.856 979.1 300.776 979.51 300.776 980.01V984H298.436V975.93H300.671V978.165L300.251 977.49C300.541 976.95 300.956 976.535 301.496 976.245C302.036 975.955 302.651 975.81 303.341 975.81ZM312.108 984.12C311.158 984.12 310.418 983.88 309.888 983.4C309.358 982.91 309.093 982.185 309.093 981.225V974.145H311.433V981.195C311.433 981.535 311.523 981.8 311.703 981.99C311.883 982.17 312.128 982.26 312.438 982.26C312.808 982.26 313.123 982.16 313.383 981.96L314.013 983.61C313.773 983.78 313.483 983.91 313.143 984C312.813 984.08 312.468 984.12 312.108 984.12ZM307.848 977.91V976.11H313.443V977.91H307.848Z" fill="white"/>
</g>
<defs>
<clipPath id="clip0_149_2642">
<rect width="440" height="1098" fill="white"/>
</clipPath>
<clipPath id="clip1_149_2642">
<rect width="6286.9" height="5749.43" fill="white" transform="translate(-3237 -680.832) rotate(-15)"/>
</clipPath>
</defs>
</svg>
