<svg width="440" height="1098" viewBox="0 0 440 1098" fill="none" xmlns="http://www.w3.org/2000/svg">
<g clip-path="url(#clip0_149_2642)">
<rect width="440" height="1098" fill="#2C2D34"/>
<g clip-path="url(#clip1_149_2642)">
<g opacity="0.1">
<g opacity="0.4">
<path fill-rule="evenodd" clip-rule="evenodd" d="M-295.726 3485.48C-299.671 3493.14 -309.076 3496.13 -316.74 3492.17C-324.383 3488.24 -327.393 3478.82 -323.444 3471.18C-323.203 3470.7 -237.336 3304.76 -229.771 3241.31C-224.497 3197.04 -173.128 3047.23 -120.324 2893.24C-91.4389 2809.03 -62.125 2723.55 -39.516 2652.85C13.2685 2487.81 95.7955 2300.03 157.042 2160.68C168.575 2134.42 179.329 2109.95 190.074 2085.16C251.427 1943.5 419.57 1570.93 420.051 1569.86C421.442 1566.78 423.707 1564.37 426.414 1562.79L979.567 1203.06C986.787 1198.36 996.45 1200.41 1001.13 1207.63C1001.39 1208.02 1001.63 1208.43 1001.85 1208.86C1009.12 1221.06 1124.22 1409.39 1229.8 1269.14C1353.43 1104.93 1406.72 1041.7 1406.88 1041.51C1409.29 1038.62 1412.55 1036.81 1415.99 1036.17C1416.17 1036.12 1478.33 1025.58 1635.98 916.13C1713.92 861.996 1798.02 810.139 1870.23 765.62C1948.12 717.585 2012.09 678.139 2036.91 655.519C2067 628.106 2128.57 586.216 2194.16 559.289C2241.83 539.721 2292.03 527.881 2334.99 534.568C2381.6 541.814 2422.03 541.868 2459.05 538.154C2496.49 534.399 2530.71 526.811 2564.29 518.86C2599.8 510.455 2632.11 506.274 2665.17 507.355C2698.33 508.441 2731.87 514.788 2769.7 527.429C2832.62 548.459 2907.64 524.946 2922.48 520.29C2924.5 519.661 2925.07 519.447 2925.49 519.336C2929.64 518.224 2922.44 518.764 2924.11 516.189C2935 499.43 2956.08 466.984 2998.34 448.674C3001.39 447.356 3007.1 444.955 3012.07 442.854C3021.92 438.694 3024.91 439.222 3025.62 438.102C3026.84 435.825 3024.12 439.287 3023.73 437.307C3022.49 430.727 3020.65 421.057 3020.56 405.452C3020.44 387.744 3015.88 373.661 3011.75 360.883C3004.3 337.885 2997.95 318.243 3011.57 288.283C3028.18 251.839 3027.57 248.191 3024.97 232.327L3024.82 231.364C3023.27 221.824 3025.28 199.127 3027.66 172.357C3031.39 130.38 3036.08 77.4681 3030.08 66.151C3018.62 44.6115 3015.22 40.1451 2991.76 9.32411L2985.74 1.40957L2985.25 0.729235C2978.29 -8.33586 2968.34 -19.2302 2957.9 -30.6873C2924.06 -67.7814 2885.49 -110.064 2897.83 -148.246C2904.2 -167.975 2910.9 -184.025 2916.84 -198.292C2922.94 -212.91 2928.2 -225.531 2931.06 -237.361C2937.29 -263.064 2957.77 -330.785 2957.82 -330.99C2960.2 -338.645 2967.91 -343.149 2975.6 -341.693C2981.55 -341.029 3026.79 -338.422 3027.81 -413.956C3028.11 -435.988 3027.18 -453.288 3026.39 -467.687C3023.37 -523.421 3022.42 -540.894 3085.2 -597.615C3121.88 -630.739 3150.56 -658.01 3171.12 -679.901C3190.47 -700.509 3202.01 -715.519 3205.56 -725.291C3211.52 -741.658 3222.74 -744.104 3231.9 -745.05C3228.57 -746.227 3215.65 -746.636 3202.8 -762.116C3151.33 -824.148 3005.84 -1011.98 2989.82 -1032.7C2963.45 -1051.47 2641.51 -1275.31 2422.17 -1176.9C2314.78 -1128.73 2233.4 -1057.5 2161.41 -994.518C2074.48 -918.445 2000.74 -853.912 1908.52 -851.211L1907.81 -851.213C1826.1 -848.922 1755.24 -864.249 1694.04 -877.483C1634.86 -890.283 1585.17 -901.032 1546.56 -890.688C1523.81 -884.591 1511.11 -874.143 1499.15 -864.32C1466.28 -837.3 1438.02 -814.054 1286.21 -857.488C1180.92 -887.607 1101.37 -919.986 1041.71 -944.256C984.411 -967.589 946.199 -983.126 925.017 -981.084C891.281 -977.821 844.257 -1021.56 781.29 -1080.14C729.758 -1128.08 666.929 -1186.54 594.695 -1235.99C564.716 -1256.52 531.688 -1280.33 497.048 -1305.31C353.681 -1408.7 182.342 -1532.25 68.7928 -1535C60.1989 -1535.21 53.3814 -1542.35 53.6 -1550.96C53.8047 -1559.57 60.9482 -1566.38 69.5422 -1566.17C192.71 -1563.19 368.338 -1436.53 515.31 -1330.54C549.49 -1305.9 582.084 -1282.39 612.333 -1261.68C686.052 -1211.2 750.038 -1151.68 802.498 -1102.87C859.536 -1049.82 902.138 -1010.18 922.02 -1012.11C950.874 -1014.91 991.908 -998.21 1053.44 -973.173C1112.63 -949.076 1191.55 -916.956 1294.75 -887.442C1430.84 -848.513 1453.31 -866.985 1479.43 -888.461C1493.92 -900.379 1509.33 -913.046 1538.49 -920.861C1584.22 -933.114 1637.38 -921.624 1700.66 -907.931C1760.12 -895.073 1828.96 -880.192 1907.01 -882.391L1907.61 -882.419C1988.81 -884.795 2058.64 -945.916 2140.99 -1017.97C2214.63 -1082.41 2297.89 -1155.26 2409.51 -1205.33C2654.56 -1315.28 3008.79 -1057.49 3009.82 -1056.74C3011.03 -1055.87 3012.13 -1054.81 3013.08 -1053.57C3013.55 -1052.97 3173.78 -845.822 3226.79 -781.925C3258.84 -743.288 3262.81 -729.566 3252.61 -720.039C3252.28 -719.698 3251.92 -719.381 3251.55 -719.059C3246.69 -715.025 3242.43 -714.653 3237.36 -714.193C3236.16 -714.093 3235.06 -715.393 3234.79 -714.673C3229.72 -700.743 3216.01 -682.238 3193.76 -658.55C3172.7 -636.128 3143.41 -608.292 3106.03 -574.51C3054.32 -527.801 3055.08 -513.87 3057.49 -469.445C3058.29 -454.431 3059.28 -436.395 3058.97 -413.591C3057.79 -326.093 3008.79 -312.092 2984.2 -310.598C2978.17 -290.461 2965.75 -248.459 2961.3 -230.058C2957.84 -215.702 2952.14 -202.063 2945.55 -186.294C2939.82 -172.557 2933.38 -157.092 2927.41 -138.624C2920.65 -117.713 2952.77 -82.5207 2980.92 -51.6439C2991.55 -39.9996 3001.67 -28.9003 3009.91 -18.1539L3010.45 -17.4846L3016.47 -9.57011C3041.4 23.1745 3045.02 27.9349 3057.59 51.5565C3067.9 70.9657 3062.75 128.995 3058.66 175.013C3056.46 199.737 3054.6 220.694 3055.53 226.282L3055.68 227.245C3059.53 250.706 3060.41 256.097 3039.9 301.153C3031.28 320.081 3035.92 334.449 3041.38 351.289C3046.2 366.201 3051.52 382.635 3051.67 405.182C3051.75 417.671 3053.3 425.81 3054.36 431.361C3056.06 440.345 3057.05 445.544 3052.96 453.006L3052.91 453.079C3048.38 461.324 3041.18 464.363 3024.06 471.594C3021.32 472.74 3018.06 474.117 3010.69 477.318C2977.1 491.873 2959.4 519.112 2950.28 533.182C2944.63 541.843 2940.92 547.55 2933.57 549.519C2932.31 549.859 2932.07 549.922 2931.72 550.045C2915.3 555.184 2832.28 581.21 2759.83 557.004C2724.83 545.316 2694.14 539.446 2664.16 538.469C2634.12 537.48 2604.42 541.361 2571.53 549.154C2536.74 557.382 2501.28 565.243 2462.17 569.179C2422.64 573.139 2379.62 573.101 2330.25 565.428C2293.46 559.716 2248.91 570.485 2205.93 588.133C2143.99 613.562 2086.08 652.905 2057.87 678.618C2030.81 703.301 1965.76 743.405 1886.58 792.23C1814.09 836.928 1729.67 888.987 1653.69 941.756C1517.28 1036.48 1447.1 1060.23 1427.51 1065.53C1414.16 1081.66 1359.84 1148.22 1254.66 1287.93C1137.4 1443.7 1016.33 1287.06 983.388 1237.82L446.642 1586.9C428.09 1628.03 275.274 1966.95 218.665 2097.65C209.483 2118.84 197.939 2145.11 185.542 2173.32C124.606 2311.96 42.4945 2498.75 -9.83944 2662.39C-31.9916 2731.65 -61.6516 2818.15 -90.8628 2903.35C-143.109 3055.73 -193.937 3203.98 -198.845 3245.09C-207.089 3314.22 -295.488 3485.05 -295.735 3485.55L-295.726 3485.48Z" fill="white"/>
<path fill-rule="evenodd" clip-rule="evenodd" d="M399.331 -699.778C397.583 -702.663 396.895 -705.891 397.123 -709.01C390.768 -710.291 384.662 -711.964 379.572 -714.145C366.565 -719.744 353.083 -723.252 339.565 -724.859C309.015 -728.505 278.581 -722.345 253.036 -708.912C227.855 -695.665 207.564 -675.412 196.901 -650.648C193.171 -641.967 190.604 -632.638 189.424 -622.765C182.01 -560.628 161.871 -533.029 132.353 -492.578C118.036 -472.966 101.354 -450.105 82.5778 -417.584C66.3239 -389.431 59.6579 -369.875 54.1306 -353.622C39.7071 -311.306 31.9635 -288.551 -78.2311 -218.639C-189.813 -147.838 -322.818 -159.527 -391.133 -165.522C-401.331 -166.423 -410.014 -167.184 -416.54 -167.503C-403.625 -93.9442 -329.724 266.094 -326.837 280.122L-326.72 280.667C-325.048 289.111 -330.545 297.32 -338.989 298.992L-441.612 319.045C-430.405 376.251 -391.607 574.743 -390.062 587.623C-388.674 599.142 -323.031 809.008 -305.706 864.295L-252.619 854.251L-301.205 527.992C-302.327 521.542 -299.284 514.818 -293.185 511.559C-285.587 507.499 -276.135 510.359 -272.072 517.97L-129.148 784.547C-116.211 790.269 -80.9609 805.005 -74.8476 799.098C-67.3857 791.884 -52.4656 777.443 -38.4992 761.041C-25.334 745.563 -13.0137 728.421 -9.46826 714.915C-7.31175 706.7 -4.73267 692.124 -1.71281 674.948C6.52339 628.174 17.9939 562.986 38.1911 535.106C62.7311 501.218 174.509 322.161 174.83 321.647L327.525 68.5513C310.526 29.9728 233.675 -147.243 234.253 -198.065C234.743 -242.379 251.394 -249.366 280.748 -261.707C293.295 -266.975 308.974 -273.569 326.915 -286.989C350.654 -304.738 348.17 -311.695 345.584 -318.92C341.653 -329.95 337.604 -341.258 346.72 -358.783C355.246 -375.145 367.266 -376.593 381.761 -369.029C391.855 -363.771 402.215 -353.002 413.509 -341.286C429.868 -324.28 448.777 -304.648 458.193 -308.264C474.558 -314.555 490.089 -323.355 501.807 -336.406C510.803 -346.439 517.708 -359.205 521.231 -375.66C505.45 -359.304 486.349 -339.901 465.924 -338.343C440.725 -336.407 429.623 -350.389 427.264 -381.133C425.41 -405.364 429.794 -442.862 435.945 -495.488C436.814 -502.885 437.661 -510.143 440.228 -532.87L440.593 -536.026C446.571 -588.856 449.048 -610.761 445.631 -624.78C443.397 -633.945 437.768 -642.053 428.134 -655.898C420.732 -666.545 411.237 -680.205 399.354 -699.799L399.331 -699.778ZM432.651 -705.087C437.867 -704.86 441.173 -704.874 441.145 -704.867C438.546 -704.864 436.075 -704.217 433.913 -703.077L432.655 -705.073L432.651 -705.087ZM453.209 -674.287L453.688 -673.603C465.396 -656.754 472.249 -646.891 475.821 -632.234C480.61 -612.6 477.959 -589.142 471.562 -532.58L466.837 -491.888C460.904 -441.153 456.676 -404.997 458.325 -383.517C459.074 -373.776 460.598 -369.192 463.522 -369.414C472.527 -370.099 487.514 -385.666 499.791 -398.395C512.816 -411.915 523.763 -423.268 536.05 -422.232C549.422 -421.118 556.309 -411.234 554.311 -387.433C551.696 -356.288 540.654 -333.107 524.948 -315.589C509.476 -298.356 489.762 -287.032 469.284 -279.166C440.634 -268.166 414.024 -295.809 390.997 -319.729C384.248 -326.724 377.9 -333.325 372.897 -337.553C373.086 -334.753 374.052 -332.028 375.021 -329.348C381.534 -311.107 387.785 -293.623 345.602 -262.068C324.598 -246.351 306.913 -238.924 292.76 -232.975C275.487 -225.717 265.702 -221.604 265.425 -197.717C264.879 -147.495 359.016 62.6983 359.282 63.3064C361.433 68.1365 360.927 73.4718 358.392 77.6815L201.252 338.172C200.936 338.7 88.8579 518.236 63.4352 553.351C47.5645 575.27 36.7912 636.446 29.0571 680.352C25.9396 698.101 23.272 713.174 20.7321 722.88C15.8033 741.587 0.944631 762.762 -14.7629 781.211C-29.6793 798.754 -45.3283 813.893 -53.1647 821.473C-76.2417 843.787 -146.722 810.749 -146.924 810.656C-150.126 809.18 -152.593 806.754 -154.137 803.859L-154.178 803.87L-257.179 611.754L-219.553 864.476C-218.316 872.786 -223.875 880.539 -232.069 882.099L-313.512 897.511C-321.706 899.071 -329.605 893.905 -331.57 885.908C-336.99 868.659 -419.186 606.609 -421.027 591.356C-422.702 577.387 -475.069 310.505 -475.213 309.746C-476.885 301.301 -471.389 293.093 -462.944 291.421L-360.449 271.387C-376.554 192.76 -448.767 -160.596 -449.556 -178.702C-450.139 -192.343 -441.724 -198.039 -425.776 -198.723C-417.03 -199.102 -404.52 -198.007 -388.454 -196.596C-323.692 -190.905 -197.647 -179.832 -94.8903 -245.033C6.04765 -309.082 12.5688 -328.186 24.6631 -363.703C30.7254 -381.488 38.0113 -402.865 55.5465 -433.237C74.8069 -466.597 92.2568 -490.505 107.22 -511.015C133.876 -547.538 152.06 -572.456 158.505 -626.519C160.035 -639.278 163.408 -651.497 168.365 -662.988C181.938 -694.529 207.311 -720.073 238.592 -736.52C269.51 -752.781 306.349 -760.23 343.308 -755.819C359.591 -753.874 375.95 -749.602 391.897 -742.736C518.998 -688.03 477.345 -676.662 453.219 -674.304L453.209 -674.287ZM533.492 -391.205C533.19 -391.228 532.901 -391.151 532.61 -390.969C534.908 -390.994 536.06 -390.993 533.492 -391.205Z" fill="white"/>
<path fill-rule="evenodd" clip-rule="evenodd" d="M-432.38 -183.068C-424.147 -185.584 -415.451 -180.971 -412.935 -172.738C-410.422 -164.519 -415.045 -155.806 -423.264 -153.293C-435.312 -149.578 -452.347 -130.404 -476.926 -124.556C-508.296 -117.096 -542.24 -109.537 -560.728 -105.765C-572.855 -103.284 -595.684 -94.5967 -620.016 -84.3544C-658.009 -68.3688 -699.03 -48.795 -710.088 -42.6559C-711.516 -41.9189 -712.88 -41.1104 -714.307 -40.3734C-751.396 -20.0213 -979.692 105.511 -1119.33 239.814C-1189.36 307.178 -1265.99 397.154 -1339.18 493.651C-1419.55 599.59 -1495.74 713.333 -1554.55 813.69L-1578.73 854.986C-1669.15 1009.46 -1677.63 1023.94 -1745.55 1106.1C-1777.98 1145.33 -1844.91 1211.24 -1913.67 1275.44C-2000.88 1356.86 -2091.53 1435.88 -2118.45 1454.1C-2164.01 1484.95 -2202.61 1512.84 -2202.72 1512.93C-2203.61 1513.58 -2204.55 1514.11 -2205.51 1514.53C-2211.54 1517.72 -2256.94 1543.23 -2274.63 1598.55C-2285.05 1631.15 -2293.93 1660.83 -2300.24 1683.79C-2306.59 1706.9 -2310.46 1723.18 -2310.79 1728.65C-2311.04 1732.84 -2315.46 1752.53 -2322.15 1782.47C-2344.98 1884.48 -2395.29 2109.24 -2391.76 2182.93C-2388.34 2254.88 -2349.69 2440.86 -2321.43 2576.93C-2311.9 2622.77 -2303.54 2663.04 -2298.26 2690.38C-2294.55 2709.66 -2304.45 2783.33 -2304.43 2783.12C-2303.81 2778.3 -2301.02 2774.29 -2297.2 2771.92C-2295.7 2770.97 -1776.01 2448.14 -1540.13 2320.65C-1488.03 2292.48 -1433.38 2262.09 -1376.93 2230.68C-1170.15 2115.66 -939.377 1987.29 -794.548 1945.09C-690.616 1914.82 -575.895 1892.56 -469.641 1871.94C-388.046 1856.11 -311.487 1841.27 -248.985 1824.52C-191.21 1809.04 -151.192 1802.48 -119.179 1797.26C-73.8112 1789.83 -45.4492 1785.2 -1.48045 1758.82C34.0662 1737.51 150.409 1654.93 279.589 1563.25C432.183 1454.93 602.613 1333.96 679.945 1285.45C821.792 1196.45 910.373 1117.93 910.622 1117.7C912.422 1116.09 914.504 1114.99 916.685 1114.36C917.429 1114.16 1179.68 1039.62 1253.7 1007.07C1279.64 995.659 1300.16 982.435 1321.55 968.653C1361.68 942.788 1404.63 915.104 1488.55 892.618C1527.68 882.133 1552.47 877.677 1570.72 874.397C1608.98 867.513 1615.63 866.321 1681.59 814.407L1716.74 786.687C1808.81 714.082 1915.25 630.167 1989.75 579.583C2031.91 550.96 2094.92 534.194 2161.15 528.134C2232.68 521.597 2308.67 527.469 2366.23 544.322C2374.49 546.748 2379.2 555.411 2376.78 563.669C2374.35 571.912 2365.69 576.641 2357.43 574.215C2303.55 558.428 2231.89 552.992 2164.03 559.194C2102.52 564.804 2044.73 579.89 2007.27 605.319C1934.48 654.736 1828.1 738.619 1736.07 811.185L1700.81 838.934C1628.7 895.673 1620.93 897.074 1576.29 905.093C1558.64 908.27 1534.69 912.577 1496.62 922.777C1417.12 944.077 1376.43 970.315 1338.4 994.819C1315.75 1009.41 1294 1023.42 1266.17 1035.68C1195.78 1066.65 959.315 1134.53 928.524 1143.33C912.457 1157.24 826.038 1230.54 696.483 1311.83C619.494 1360.13 449.682 1480.66 297.622 1588.6C167.427 1681 50.1635 1764.23 14.5275 1785.6C-34.3964 1814.92 -65.0499 1819.93 -114.125 1827.97C-145.061 1833.02 -183.736 1839.35 -240.919 1854.68C-303.738 1871.51 -381.134 1886.53 -463.606 1902.51C-569.564 1923.08 -683.95 1945.26 -785.922 1974.96C-927.011 2016.08 -1156.32 2143.65 -1361.8 2257.93C-1419.49 2290.04 -1475.34 2321.1 -1525.32 2348.12C-1745.88 2467.32 -2216.55 2758.61 -2274.79 2794.71C-2279.14 2817.03 -2295.21 2871.01 -2328.89 2696.3C-2334.53 2667.04 -2342.68 2627.87 -2351.93 2583.31C-2380.45 2446.07 -2419.4 2258.51 -2422.94 2184.46C-2426.64 2106.9 -2375.66 1879.09 -2352.52 1775.69C-2346.14 1747.17 -2341.93 1728.42 -2341.85 1726.85C-2341.39 1719.13 -2337.14 1700.56 -2330.25 1675.54C-2323.61 1651.41 -2314.62 1621.25 -2304.34 1589.07C-2283.33 1523.41 -2229.43 1492.04 -2220.23 1487.07C-2214.74 1483.12 -2180.4 1458.47 -2135.85 1428.32C-2110.1 1410.89 -2021.16 1333.23 -1934.92 1252.7C-1867.07 1189.36 -1801.18 1124.5 -1769.55 1086.26C-1703.23 1006.03 -1694.85 991.717 -1605.56 839.191L-1581.38 797.895C-1522 696.573 -1445.07 581.731 -1363.93 474.772C-1289.77 377.009 -1212.05 285.751 -1140.88 217.302C-998.525 80.3783 -767.081 -46.9131 -729.258 -67.6686C-727.914 -68.4423 -726.538 -69.1507 -725.198 -69.9382C-713.7 -76.3131 -671.214 -96.5899 -631.991 -113.112C-606.04 -124.039 -581.25 -133.399 -566.99 -136.304C-548.04 -140.171 -514.386 -147.652 -484.14 -154.841C-460.184 -160.536 -443.825 -179.528 -432.38 -183.068Z" fill="white"/>
<path fill-rule="evenodd" clip-rule="evenodd" d="M-65.2783 1349C-67.704 1357.25 -118.668 1327.87 -126.929 1325.43C-135.169 1323.01 -139.901 1314.34 -137.475 1306.08C-135.93 1300.82 -133.141 1293.59 -122.718 1297.15C-107.795 1302.23 -83.8317 1319.45 -81.5502 1311.26C-58.2083 1227.75 -35.5721 1146.73 24.658 1089.97C56.2315 1060.22 97.5539 1030.42 135.186 1003.28C176.943 973.164 213.933 946.487 224.381 929.743C235.752 911.54 257.741 876.4 290.104 836.811C322.542 797.113 365.176 753.295 417.422 718.394C518.584 650.828 601.183 592.372 601.419 592.205C603.505 590.73 605.84 589.854 608.216 589.513C608.395 589.465 670.678 581.107 760.808 548.552C842.801 518.93 1020.32 460.079 1103.18 432.602L1125.96 425.051C1196.32 401.692 1210.02 405.113 1233.03 410.883L1233.68 411.049C1240.26 412.696 1245.18 412.634 1251.11 412.552C1261.62 412.41 1274.66 412.225 1301.63 418.337C1331.81 425.17 1340.9 401.714 1340.93 401.661C1344.17 393.674 1353.26 389.835 1361.23 393.062C1369.21 396.298 1373.07 405.385 1369.83 413.372C1369.78 413.504 1351.08 461.499 1294.74 448.737C1271.51 443.483 1260.51 443.641 1251.63 443.759C1243.54 443.874 1236.85 443.966 1226.09 441.281L1225.45 441.112C1207.99 436.75 1197.6 434.142 1135.79 454.665L1112.88 462.249C1030.83 489.449 855.081 547.724 771.323 577.981C691.081 606.971 631.464 617.509 616.327 619.896C600.583 630.984 525.434 683.78 434.721 744.366C385.367 777.325 344.976 818.873 314.196 856.546C283.329 894.331 261.872 928.589 250.795 946.344C237.142 968.216 197.775 996.608 153.331 1028.65C116.563 1055.17 76.1674 1084.29 46.0252 1112.71C-7.87116 1163.5 -29.3691 1240.39 -51.512 1319.66C-55.2203 1332.95 -61.0291 1334.53 -65.2847 1349.03L-65.2783 1349Z" fill="white"/>
<path fill-rule="evenodd" clip-rule="evenodd" d="M782.929 -218.208C785.748 -226.319 794.609 -230.629 802.721 -227.809C810.829 -225.004 815.142 -216.129 812.319 -208.032C807.7 -194.726 802.93 -182.871 798.541 -171.96C783.654 -134.956 774.076 -111.163 803.409 -96.1267C818.823 -88.2178 831.134 -83.5101 840.205 -80.032C869.738 -68.7127 876.688 -66.04 871.085 -33.5328C868.218 -16.944 859.829 -10.9295 851.283 -4.7842C844.727 -0.0879911 837.953 4.78496 847.617 40.853C849.969 49.6322 854.555 67.5182 859.166 85.4417C874.403 144.789 889.963 205.452 903.597 222.76C906.982 227.068 909.739 230.465 912.555 233.92C932.404 258.382 953.805 284.776 950.041 308.71C948.771 316.761 950.157 332.078 953.239 350.086C956.65 369.926 962.102 392.425 968.42 412.033C982.114 454.54 978.421 492.636 978.406 492.743C977.834 498.879 973.789 503.848 968.386 505.901C957.238 511.104 867.142 551.553 837.694 511.391C834.91 507.617 830.998 502.609 826.729 497.15C797.269 459.532 751.952 401.657 781.214 350.993C784.281 345.68 782.567 348.71 787.516 340.22C803.679 312.446 820.771 283.123 819.039 279.141C817.423 275.424 819.591 285.995 814.523 288.195C795.254 296.549 780.013 317.236 769.533 341.138C756.124 371.749 750.831 406.625 754.647 428.75C758.762 452.597 760.787 470.962 758.91 488.378C756.97 506.551 751.007 522.831 739.192 541.64C718.071 575.277 691.095 590.704 669.913 602.835L664.148 606.182C663.726 606.428 663.287 606.664 662.851 606.854C640.37 619.54 604.178 629.238 604.067 629.267C595.743 631.498 587.176 626.54 584.946 618.216C584.735 617.43 584.588 616.657 584.509 615.866C583.568 610.372 573.599 563.794 503.859 547.191C460.738 536.928 435.322 531.714 406.038 525.734C375.357 519.449 340.63 512.343 283.662 499.305C161.319 471.286 128.641 420.556 128.546 420.419C123.829 413.234 125.826 403.599 132.998 398.886C140.183 394.169 149.818 396.166 154.535 403.352C154.61 403.465 180.431 443.712 290.544 468.922C349.794 482.486 382.958 489.272 412.264 495.276C442.959 501.557 469.604 507.003 511.008 516.87C576.728 532.526 601.486 571.891 610.527 594.773C621.657 591.214 636.826 585.806 647.407 579.869C647.742 579.631 648.098 579.417 648.455 579.204L654.45 575.78C672.64 565.382 695.821 552.109 712.769 525.115C721.941 510.5 726.535 498.264 727.947 485.064C729.436 471.105 727.611 455.197 723.96 434.077C719.222 406.69 725.264 364.685 741.03 328.701C754.386 298.223 774.887 271.37 802.139 259.562C827.603 248.529 841.513 252.646 847.66 266.819C855.603 285.164 834.451 321.498 814.406 355.896C813.693 357.15 815.381 354.246 808.228 366.636C789.482 399.105 826.911 446.892 851.25 477.965C855.402 483.263 859.201 488.124 862.811 493.051C875.429 510.262 927.082 490.069 947.649 481.102C947.77 469.149 946.707 446.33 938.714 421.514C932.02 400.722 926.192 376.713 922.553 355.413C918.952 334.368 917.478 315.471 919.295 303.949C920.923 293.705 904.011 272.873 888.35 253.568C884.904 249.306 881.472 245.1 879.032 242.002C861.473 219.689 845.079 155.807 829.037 93.2929C825.871 80.9798 822.748 68.7731 817.442 48.968C802.205 -7.89733 817.939 -19.1891 833.112 -30.0941C836.423 -32.4583 839.668 -34.7902 840.352 -38.7993C841.611 -46.0645 839.221 -46.9899 829.049 -50.8821C819.633 -54.4894 806.859 -59.383 789.204 -68.4344C734.595 -96.4331 748.298 -130.52 769.633 -183.536C773.952 -194.265 778.643 -205.921 782.915 -218.204L782.929 -218.208Z" fill="white"/>
<path fill-rule="evenodd" clip-rule="evenodd" d="M752.984 627.703C604.497 728.084 569.042 745.221 564.532 747.242L71.2039 1067.22L131.496 1136.77L664.46 1329.45L1030.82 1066.55L1037 1075.19L666.09 1341.37C485.837 1276.18 305.584 1210.99 125.309 1145.87L55.1654 1064.98C223.249 955.917 391.236 846.663 559.48 737.871L559.958 737.669C560.041 737.647 587.563 726.742 747.029 618.929L752.961 627.725L752.984 627.703Z" fill="white"/>
<path fill-rule="evenodd" clip-rule="evenodd" d="M748.756 670.782C334.977 965.193 255.17 1019.24 239.776 1029.15L189.695 1147.33L179.928 1143.18L231.569 1021.29L234.497 1020.86C234.497 1020.86 234.105 1023.92 742.599 662.136L748.756 670.782Z" fill="white"/>
<path fill-rule="evenodd" clip-rule="evenodd" d="M147.161 1011.06L640.963 1208.97L713.028 1300.78L704.651 1307.34L634.334 1217.74L143.197 1020.91L147.161 1011.06Z" fill="white"/>
<path d="M377.345 836.959L368.573 842.938L618.444 1209.51L627.216 1203.53L377.345 836.959Z" fill="white"/>
<path d="M287.456 889.293L278.67 895.275L448.062 1144.06L456.848 1138.08L287.456 889.293Z" fill="white"/>
<path fill-rule="evenodd" clip-rule="evenodd" d="M423.844 808.021L732.941 1256.21L724.168 1262.23L415.071 814.035L423.844 808.021Z" fill="white"/>
<path fill-rule="evenodd" clip-rule="evenodd" d="M501.446 756.444L621.96 949.199L414.593 1089.72L408.662 1080.92L607.542 946.164L492.427 762.036L501.446 756.444Z" fill="white"/>
<path fill-rule="evenodd" clip-rule="evenodd" d="M50.6518 1693.28C69.2221 1682.27 75.9894 1679.02 77.3801 1678.37L562.064 1367.31L503.052 1314.44L-26.5674 1194.61L-74.0501 1227.94L-76.9786 1217.01L-28.8119 1183.21C150.159 1223.66 329.114 1264.16 508.073 1304.68L579.531 1368.71C413.742 1475.09 247.895 1581.36 82.2194 1687.88L81.9273 1688C81.9273 1688 75.8928 1690.57 53.4927 1703.94L50.6417 1693.3L50.6518 1693.28Z" fill="white"/>
<path fill-rule="evenodd" clip-rule="evenodd" d="M495.225 1420.08L4.51829 1292.66L-67.7925 1220.54L-60.2943 1213.02L9.99201 1283.1L497.893 1409.8L495.225 1420.08Z" fill="white"/>
<path fill-rule="evenodd" clip-rule="evenodd" d="M148.035 431.357C372.918 765.431 365.794 769.718 365.784 769.736C339.218 807.417 313.738 848.441 288.164 887.126L79.8872 523.181L17.6072 627.421L203.745 965.524L194.438 970.648L5.3653 627.215C30.2618 585.505 55.1832 543.833 80.0834 502.138L288.841 866.885L356.589 764.415C356.589 764.415 360.339 765.788 139.226 437.293L148.062 431.35L148.035 431.357Z" fill="white"/>
<path fill-rule="evenodd" clip-rule="evenodd" d="M141.023 613.465L379.114 500.066L383.663 509.66L145.573 623.059L141.023 613.465Z" fill="white"/>
<path fill-rule="evenodd" clip-rule="evenodd" d="M-82.0044 944.553C-64.9845 938.279 -24.8327 910.282 8.28025 869.798C30.1139 843.119 48.7224 811.13 55.2923 776.606C70.0339 699.093 90.6566 659.075 96.2064 649.301L55.8772 551.934L65.6938 547.886L108.08 650.227L106.634 652.549C106.574 652.654 82.5105 690.417 65.7504 778.59C58.8189 815.072 39.3336 848.64 16.5198 876.512C-17.8551 918.516 -60.2065 947.841 -78.3307 954.515L-81.9906 944.549L-82.0044 944.553Z" fill="white"/>
<path fill-rule="evenodd" clip-rule="evenodd" d="M-17.0258 899.341C-16.5476 899.582 149.222 983.989 206.14 946.403C262.084 909.477 425.241 722.99 441.629 704.211L436.374 512.213L446.988 511.91L452.361 708.101L451.016 709.643C450.511 710.237 272.157 915.537 211.986 955.265C149.895 996.261 -21.3027 909.07 -21.7846 908.815L-16.9946 899.348L-17.0258 899.341Z" fill="white"/>
<path d="M236.432 236.157L-299.944 379.878L-297.186 390.173L239.19 246.452L236.432 236.157Z" fill="white"/>
<path fill-rule="evenodd" clip-rule="evenodd" d="M-41.4199 774.453C-32.8935 742.049 -35.6381 672.708 -37.4714 626.89C-38.0713 611.806 -38.5698 599.251 -38.5299 591.13C-38.4676 577.139 -13.0295 514.959 20.9256 438.531C69.5606 329.07 135.89 189.445 169.549 121.723C224.997 10.1257 175.852 -58.0685 175.71 -58.2668L184.42 -64.3526C184.565 -64.1405 237.343 9.12197 179.042 126.447C145.501 193.945 79.3092 333.312 30.6402 442.812C-2.81801 518.117 -27.8757 578.851 -27.928 591.17C-27.9648 598.861 -27.4699 611.403 -26.8636 626.455C-25.0157 672.934 -22.2192 743.296 -31.1363 777.164L-41.4337 774.457L-41.4199 774.453Z" fill="white"/>
<path fill-rule="evenodd" clip-rule="evenodd" d="M-153.71 20.9782C-114.492 165.248 -9.99252 548.684 10.546 624.012L72.8499 505.363L-68.4296 -1.88741L-58.1755 -4.63497L84.2125 506.588C58.6001 555.328 33.0053 604.079 7.39668 652.833L3.84799 639.81C3.43439 638.267 -120.603 183.238 -163.999 23.7056L-153.718 20.9507L-153.71 20.9782Z" fill="white"/>
<path fill-rule="evenodd" clip-rule="evenodd" d="M231.315 251.133C242.399 278.386 300.982 381.69 344.606 447.744C355.974 464.98 366.331 479.65 374.527 489.729C380.917 497.589 384.943 502.36 385.554 502.713C399.392 493.495 471.381 442.743 489.057 430.266L308.939 112.751L318.171 107.515L503.066 433.425L499.125 436.195C498.866 436.383 406.476 501.628 390.863 511.941C390.411 512.24 390 512.468 389.611 512.616C384.256 514.79 376.141 508.544 366.292 496.427C357.919 486.129 347.35 471.161 335.754 453.573C291.799 387.001 232.674 282.72 221.456 255.134L231.333 251.143L231.315 251.133Z" fill="white"/>
<path fill-rule="evenodd" clip-rule="evenodd" d="M306.469 407.517L432.005 309.682L438.521 318.069L312.986 415.904L306.469 407.517Z" fill="white"/>
<path d="M384.047 217.492L250.339 317.519L256.706 326.03L390.415 226.004L384.047 217.492Z" fill="white"/>
<path fill-rule="evenodd" clip-rule="evenodd" d="M451.923 -141.524L726.33 506.872L647.102 604.811L340.284 66.3886L349.521 61.1661L648.613 586.03L714.062 505.137L441.559 -138.747L451.923 -141.524Z" fill="white"/>
<path d="M830.802 53.4333L414.062 316.885L419.75 325.882L836.49 62.4304L830.802 53.4333Z" fill="white"/>
</g>
<path d="M405.239 218.283C384.911 223.73 372.844 244.63 378.291 264.959C383.738 285.288 431.245 315.337 431.245 315.337C431.245 315.337 457.362 265.56 451.915 245.231C446.468 224.902 425.568 212.836 405.239 218.283ZM419.59 271.84C410.342 274.318 400.849 268.826 398.375 259.592C395.901 250.358 401.39 240.851 410.624 238.377C419.858 235.903 429.364 241.391 431.838 250.625C434.313 259.86 428.824 269.366 419.59 271.84Z" fill="white"/>
<path d="M107.788 731.418C127.996 719.751 153.822 726.671 165.489 746.879C177.156 767.086 163.466 827.855 163.466 827.855C163.466 827.855 103.988 809.317 92.327 789.119C80.6658 768.921 87.5803 743.085 107.788 731.418ZM138.505 784.621C147.688 779.32 150.842 767.579 145.535 758.386C140.228 749.193 128.482 746.055 119.3 751.356C110.117 756.658 106.969 768.409 112.27 777.591C117.572 786.774 129.313 789.928 138.505 784.621Z" fill="white"/>
</g>
</g>
<rect width="6" height="14.02" transform="matrix(1 0 -0.374606 0.927184 178.126 59.0005)" fill="#FDC501"/>
<rect width="2" height="14.02" transform="matrix(1 0 -0.374606 0.927184 187.126 59.0005)" fill="#FDC501"/>
<path d="M201.973 71L198.933 59.8H200.645L202.917 69.128L205.525 59.8H207.301L209.829 69.16L212.133 59.8H213.845L210.757 71H208.885L206.373 62.088L203.797 71H201.973ZM215.339 71V59.48H216.939V64.28C217.206 63.8107 217.574 63.4427 218.043 63.176C218.523 62.9093 219.051 62.776 219.627 62.776C220.267 62.776 220.816 62.904 221.275 63.16C221.734 63.416 222.086 63.8053 222.331 64.328C222.576 64.8507 222.699 65.5013 222.699 66.28V71H221.115V66.456C221.115 65.688 220.955 65.112 220.635 64.728C220.315 64.3333 219.84 64.136 219.211 64.136C218.784 64.136 218.395 64.2427 218.043 64.456C217.702 64.6587 217.43 64.952 217.227 65.336C217.035 65.72 216.939 66.1947 216.939 66.76V71H215.339ZM228.394 71.192C227.615 71.192 226.927 71.0213 226.33 70.68C225.732 70.328 225.263 69.8373 224.922 69.208C224.591 68.5787 224.426 67.8427 224.426 67C224.426 66.1573 224.591 65.4213 224.922 64.792C225.263 64.1627 225.732 63.672 226.33 63.32C226.927 62.9573 227.62 62.776 228.41 62.776C229.199 62.776 229.876 62.952 230.442 63.304C231.007 63.6453 231.444 64.1093 231.754 64.696C232.063 65.272 232.218 65.912 232.218 66.616C232.218 66.7227 232.218 66.84 232.218 66.968C232.218 67.0853 232.207 67.2133 232.186 67.352H225.594V66.232H230.618C230.586 65.5707 230.362 65.0533 229.946 64.68C229.53 64.296 229.012 64.104 228.394 64.104C227.967 64.104 227.567 64.2 227.194 64.392C226.831 64.584 226.538 64.872 226.314 65.256C226.1 65.6293 225.994 66.104 225.994 66.68V67.128C225.994 67.7253 226.1 68.2267 226.314 68.632C226.538 69.0373 226.831 69.3467 227.194 69.56C227.556 69.7627 227.951 69.864 228.378 69.864C228.89 69.864 229.311 69.752 229.642 69.528C229.983 69.2933 230.234 68.984 230.394 68.6H231.994C231.844 69.1013 231.604 69.5493 231.274 69.944C230.954 70.328 230.548 70.632 230.058 70.856C229.578 71.08 229.023 71.192 228.394 71.192ZM233.995 71V62.968H235.435L235.531 64.344C235.787 63.864 236.15 63.4853 236.619 63.208C237.089 62.92 237.633 62.776 238.251 62.776C238.881 62.776 239.425 62.904 239.883 63.16C240.342 63.416 240.699 63.8053 240.955 64.328C241.211 64.84 241.339 65.4853 241.339 66.264V71H239.739V66.424C239.739 65.6773 239.574 65.112 239.243 64.728C238.913 64.3333 238.438 64.136 237.819 64.136C237.393 64.136 237.009 64.2373 236.667 64.44C236.337 64.6427 236.075 64.936 235.883 65.32C235.691 65.704 235.595 66.1787 235.595 66.744V71H233.995ZM243.386 71V62.968H244.826L244.97 64.488C245.151 64.1253 245.381 63.8213 245.658 63.576C245.946 63.32 246.282 63.1227 246.666 62.984C247.061 62.8453 247.503 62.776 247.994 62.776V64.456H247.466C247.125 64.456 246.805 64.4987 246.506 64.584C246.207 64.6693 245.941 64.808 245.706 65C245.482 65.192 245.306 65.4533 245.178 65.784C245.05 66.1147 244.986 66.5253 244.986 67.016V71H243.386ZM252.152 71.192C251.49 71.192 250.941 71.08 250.504 70.856C250.066 70.632 249.741 70.3333 249.528 69.96C249.314 69.5867 249.208 69.176 249.208 68.728C249.208 68.2053 249.341 67.7573 249.608 67.384C249.885 67 250.28 66.7067 250.792 66.504C251.314 66.3013 251.933 66.2 252.648 66.2H254.744C254.744 65.7307 254.674 65.3413 254.536 65.032C254.397 64.7227 254.189 64.4933 253.912 64.344C253.645 64.184 253.304 64.104 252.888 64.104C252.408 64.104 251.992 64.2213 251.64 64.456C251.298 64.6907 251.09 65.032 251.016 65.48H249.4C249.464 64.904 249.656 64.4187 249.976 64.024C250.306 63.6187 250.728 63.3093 251.24 63.096C251.752 62.8827 252.301 62.776 252.888 62.776C253.634 62.776 254.264 62.9093 254.776 63.176C255.298 63.4427 255.688 63.8213 255.944 64.312C256.21 64.792 256.344 65.3627 256.344 66.024V71H254.952L254.824 69.64C254.706 69.8533 254.568 70.056 254.408 70.248C254.248 70.44 254.056 70.6053 253.832 70.744C253.618 70.8827 253.368 70.9893 253.08 71.064C252.802 71.1493 252.493 71.192 252.152 71.192ZM252.456 69.896C252.797 69.896 253.106 69.8267 253.384 69.688C253.661 69.5493 253.896 69.3627 254.088 69.128C254.29 68.8827 254.44 68.6107 254.536 68.312C254.642 68.0133 254.701 67.6987 254.712 67.368V67.336H252.808C252.349 67.336 251.976 67.3947 251.688 67.512C251.41 67.6187 251.208 67.768 251.08 67.96C250.952 68.152 250.888 68.376 250.888 68.632C250.888 68.888 250.946 69.112 251.064 69.304C251.192 69.4853 251.373 69.6293 251.608 69.736C251.842 69.8427 252.125 69.896 252.456 69.896ZM263.458 71L259.73 66.6L263.106 62.968H265.042L261.026 67.208L261.042 66.008L265.474 71H263.458ZM258.386 71V59.48H259.986V71H258.386Z" fill="white"/>
<path d="M107 122L117.48 96.36H128.4L138.88 122H132.2L129.48 115.4H116.4L113.64 122H107ZM127.48 110.44L122.92 99.48L118.36 110.44H127.48ZM136.921 102.2H143.321L150.361 117.96L158.361 102.2H164.601L154.961 122H145.801L136.921 102.2ZM173.854 122.4C172.707 122.4 171.547 122.32 170.374 122.16C169.227 122.027 168.2 121.733 167.294 121.28C166.387 120.8 165.654 120.12 165.094 119.24C164.56 118.333 164.334 117.133 164.414 115.64C164.467 114.467 164.747 113.533 165.254 112.84C165.787 112.12 166.507 111.573 167.414 111.2C168.347 110.827 169.427 110.587 170.654 110.48C171.907 110.373 173.28 110.32 174.774 110.32L183.174 110.36V109.28C183.174 108.747 183.107 108.307 182.974 107.96C182.867 107.587 182.6 107.293 182.174 107.08C181.774 106.867 181.16 106.707 180.334 106.6C179.534 106.493 178.44 106.44 177.054 106.44C175.24 106.44 173.947 106.6 173.174 106.92C172.4 107.24 171.894 107.813 171.654 108.64H165.374C165.507 107.493 165.814 106.493 166.294 105.64C166.774 104.76 167.467 104.04 168.374 103.48C169.307 102.893 170.48 102.467 171.894 102.2C173.334 101.907 175.054 101.76 177.054 101.76C179.454 101.76 181.414 101.92 182.934 102.24C184.48 102.56 185.694 103.027 186.574 103.64C187.454 104.227 188.054 104.947 188.374 105.8C188.694 106.653 188.854 107.613 188.854 108.68V122H183.174V119.28C182.854 119.707 182.427 120.12 181.894 120.52C181.387 120.893 180.76 121.227 180.014 121.52C179.267 121.787 178.387 122 177.374 122.16C176.36 122.32 175.187 122.4 173.854 122.4ZM177.174 114.12C175.04 114.12 173.427 114.2 172.334 114.36C171.267 114.493 170.734 114.947 170.734 115.72C170.734 116.6 171.174 117.16 172.054 117.4C172.934 117.613 174.254 117.72 176.014 117.72C177.48 117.72 178.667 117.627 179.574 117.44C180.507 117.253 181.24 117.027 181.774 116.76C182.307 116.467 182.667 116.16 182.854 115.84C183.067 115.493 183.174 115.187 183.174 114.92V114.12H177.174ZM193.543 102.2H199.463V105.96C200.237 104.68 201.263 103.667 202.543 102.92C203.823 102.173 205.263 101.8 206.863 101.8C208.677 101.8 210.21 102 211.463 102.4C212.743 102.773 213.783 103.307 214.583 104C215.383 104.667 215.957 105.467 216.303 106.4C216.677 107.333 216.863 108.347 216.863 109.44V122H210.983V110.12C210.983 109.027 210.53 108.187 209.623 107.6C208.743 106.987 207.423 106.68 205.663 106.68C204.517 106.68 203.557 106.8 202.783 107.04C202.01 107.253 201.383 107.547 200.903 107.92C200.45 108.267 200.103 108.68 199.863 109.16C199.65 109.64 199.517 110.147 199.463 110.68V122H193.543V102.2ZM222.652 101.96V97.28H228.332V101.96H241.332V107.04H228.332V114.2C228.332 114.707 228.359 115.173 228.412 115.6C228.492 116.027 228.692 116.387 229.012 116.68C229.359 116.973 229.879 117.213 230.572 117.4C231.265 117.56 232.252 117.64 233.532 117.64C234.652 117.64 235.532 117.547 236.172 117.36C236.839 117.173 237.332 116.92 237.652 116.6C237.999 116.253 238.225 115.84 238.332 115.36C238.465 114.853 238.559 114.307 238.612 113.72H244.532C244.505 115.027 244.319 116.2 243.972 117.24C243.625 118.28 243.039 119.173 242.212 119.92C241.385 120.64 240.265 121.2 238.852 121.6C237.439 121.973 235.665 122.16 233.532 122.16C231.132 122.16 229.212 122 227.772 121.68C226.332 121.36 225.225 120.907 224.452 120.32C223.705 119.707 223.212 118.987 222.972 118.16C222.759 117.307 222.652 116.347 222.652 115.28V107.04H219.212V101.96H222.652ZM256.315 122.4C255.168 122.4 254.008 122.32 252.835 122.16C251.688 122.027 250.661 121.733 249.755 121.28C248.848 120.8 248.115 120.12 247.555 119.24C247.021 118.333 246.795 117.133 246.875 115.64C246.928 114.467 247.208 113.533 247.715 112.84C248.248 112.12 248.968 111.573 249.875 111.2C250.808 110.827 251.888 110.587 253.115 110.48C254.368 110.373 255.741 110.32 257.235 110.32L265.635 110.36V109.28C265.635 108.747 265.568 108.307 265.435 107.96C265.328 107.587 265.061 107.293 264.635 107.08C264.235 106.867 263.621 106.707 262.795 106.6C261.995 106.493 260.901 106.44 259.515 106.44C257.701 106.44 256.408 106.6 255.635 106.92C254.861 107.24 254.355 107.813 254.115 108.64H247.835C247.968 107.493 248.275 106.493 248.755 105.64C249.235 104.76 249.928 104.04 250.835 103.48C251.768 102.893 252.941 102.467 254.355 102.2C255.795 101.907 257.515 101.76 259.515 101.76C261.915 101.76 263.875 101.92 265.395 102.24C266.941 102.56 268.155 103.027 269.035 103.64C269.915 104.227 270.515 104.947 270.835 105.8C271.155 106.653 271.315 107.613 271.315 108.68V122H265.635V119.28C265.315 119.707 264.888 120.12 264.355 120.52C263.848 120.893 263.221 121.227 262.475 121.52C261.728 121.787 260.848 122 259.835 122.16C258.821 122.32 257.648 122.4 256.315 122.4ZM259.635 114.12C257.501 114.12 255.888 114.2 254.795 114.36C253.728 114.493 253.195 114.947 253.195 115.72C253.195 116.6 253.635 117.16 254.515 117.4C255.395 117.613 256.715 117.72 258.475 117.72C259.941 117.72 261.128 117.627 262.035 117.44C262.968 117.253 263.701 117.027 264.235 116.76C264.768 116.467 265.128 116.16 265.315 115.84C265.528 115.493 265.635 115.187 265.635 114.92V114.12H259.635ZM287.682 131.52C286.162 131.52 284.682 131.427 283.242 131.24C281.828 131.08 280.575 130.733 279.482 130.2C278.388 129.667 277.495 128.907 276.802 127.92C276.135 126.96 275.788 125.693 275.762 124.12H281.802C281.882 124.84 282.095 125.387 282.442 125.76C282.815 126.16 283.268 126.44 283.802 126.6C284.362 126.787 284.988 126.893 285.682 126.92C286.375 126.973 287.095 127 287.842 127C290.002 127 291.722 126.613 293.002 125.84C294.308 125.093 294.962 123.907 294.962 122.28V119.32C294.215 120.307 293.228 121.067 292.002 121.6C290.802 122.133 289.402 122.4 287.802 122.4C285.722 122.4 283.895 122.213 282.322 121.84C280.748 121.467 279.428 120.867 278.362 120.04C277.322 119.213 276.535 118.147 276.002 116.84C275.495 115.533 275.242 113.947 275.242 112.08C275.242 110.213 275.495 108.627 276.002 107.32C276.535 106.013 277.322 104.947 278.362 104.12C279.428 103.293 280.748 102.693 282.322 102.32C283.895 101.947 285.722 101.76 287.802 101.76C289.402 101.76 290.802 102.013 292.002 102.52C293.228 103.027 294.215 103.787 294.962 104.8V102.2H300.682V122.92C300.682 124.52 300.322 125.867 299.602 126.96C298.908 128.053 297.962 128.933 296.762 129.6C295.562 130.293 294.175 130.787 292.602 131.08C291.055 131.373 289.415 131.52 287.682 131.52ZM294.962 109.48C294.962 108.92 294.748 108.467 294.322 108.12C293.922 107.747 293.388 107.453 292.722 107.24C292.082 107.027 291.348 106.88 290.522 106.8C289.695 106.72 288.868 106.68 288.042 106.68C286.682 106.68 285.562 106.773 284.682 106.96C283.802 107.12 283.095 107.413 282.562 107.84C282.055 108.267 281.695 108.827 281.482 109.52C281.268 110.213 281.162 111.067 281.162 112.08C281.162 113.093 281.268 113.947 281.482 114.64C281.695 115.333 282.055 115.893 282.562 116.32C283.095 116.72 283.802 117.013 284.682 117.2C285.562 117.387 286.682 117.48 288.042 117.48C288.815 117.48 289.615 117.453 290.442 117.4C291.268 117.32 292.015 117.187 292.682 117C293.348 116.813 293.895 116.56 294.322 116.24C294.748 115.893 294.962 115.467 294.962 114.96V109.48ZM317.063 122.4C314.663 122.4 312.65 122.173 311.023 121.72C309.396 121.267 308.076 120.613 307.063 119.76C306.076 118.88 305.356 117.8 304.903 116.52C304.476 115.24 304.263 113.76 304.263 112.08C304.263 110.4 304.476 108.92 304.903 107.64C305.356 106.36 306.076 105.293 307.063 104.44C308.076 103.56 309.396 102.893 311.023 102.44C312.65 101.987 314.663 101.76 317.063 101.76C321.33 101.76 324.556 102.52 326.743 104.04C328.93 105.56 329.996 107.827 329.943 110.84L329.903 113.12H310.223C310.25 113.973 310.383 114.707 310.623 115.32C310.863 115.933 311.25 116.44 311.783 116.84C312.316 117.24 313.01 117.533 313.863 117.72C314.743 117.907 315.81 118 317.063 118C319.01 118 320.61 117.8 321.863 117.4C323.116 117 323.836 116.32 324.023 115.36H329.783C329.623 116.613 329.21 117.693 328.543 118.6C327.903 119.48 327.036 120.2 325.943 120.76C324.85 121.32 323.556 121.733 322.063 122C320.57 122.267 318.903 122.4 317.063 122.4ZM317.063 106.2C315.17 106.2 313.65 106.44 312.503 106.92C311.383 107.4 310.69 108.293 310.423 109.6H323.863C323.81 109.493 323.77 109.36 323.743 109.2C323.743 109.04 323.716 108.907 323.663 108.8C323.556 108.267 323.29 107.84 322.863 107.52C322.436 107.173 321.903 106.907 321.263 106.72C320.65 106.533 319.97 106.4 319.223 106.32C318.503 106.24 317.783 106.2 317.063 106.2Z" fill="white"/>
<circle cx="219.5" cy="297" r="93" stroke="#FDC500" stroke-width="10"/>
<mask id="mask0_149_2642" style="mask-type:alpha" maskUnits="userSpaceOnUse" x="155" y="233" width="128" height="127">
<rect x="155.5" y="233" width="127" height="127" fill="#D9D9D9"/>
</mask>
<g mask="url(#mask0_149_2642)">
<path d="M219 349.417C206.741 346.33 196.621 339.296 188.639 328.316C180.658 317.336 176.667 305.143 176.667 291.738V259.458L219 243.583L261.334 259.458V291.738C261.334 305.143 257.343 317.336 249.361 328.316C241.38 339.296 231.259 346.33 219 349.417ZM219 338.304C228.173 335.394 235.757 329.573 241.754 320.842C247.752 312.11 250.75 302.409 250.75 291.738V266.734L219 254.828L187.25 266.734V291.738C187.25 302.409 190.249 312.11 196.246 320.842C202.243 329.573 209.828 335.394 219 338.304ZM203.125 317.667H234.875V291.208H229.584V285.917C229.584 283.006 228.547 280.515 226.475 278.442C224.402 276.37 221.911 275.333 219 275.333C216.09 275.333 213.598 276.37 211.526 278.442C209.453 280.515 208.417 283.006 208.417 285.917V291.208H203.125V317.667ZM213.709 291.208V285.917C213.709 284.417 214.216 283.161 215.23 282.146C216.244 281.132 217.501 280.625 219 280.625C220.5 280.625 221.756 281.132 222.771 282.146C223.785 283.161 224.292 284.417 224.292 285.917V291.208H213.709Z" fill="#FDC500"/>
<path d="M218.833 349.833C206.574 346.747 196.454 339.713 188.472 328.733C180.491 317.753 176.5 305.56 176.5 292.154V259.875L218.833 244L261.167 259.875V292.154C261.167 305.56 257.176 317.753 249.194 328.733C241.213 339.713 231.092 346.747 218.833 349.833ZM218.833 338.721C228.006 335.81 235.59 329.99 241.588 321.258C247.585 312.527 250.583 302.826 250.583 292.154V267.151L218.833 255.245L187.083 267.151V292.154C187.083 302.826 190.082 312.527 196.079 321.258C202.076 329.99 209.661 335.81 218.833 338.721Z" fill="white"/>
</g>
<path d="M191.778 442.18C190.938 442.18 190.133 442.07 189.363 441.85C188.593 441.62 187.973 441.325 187.503 440.965L188.328 439.135C188.778 439.455 189.308 439.72 189.918 439.93C190.538 440.13 191.163 440.23 191.793 440.23C192.273 440.23 192.658 440.185 192.948 440.095C193.248 439.995 193.468 439.86 193.608 439.69C193.748 439.52 193.818 439.325 193.818 439.105C193.818 438.825 193.708 438.605 193.488 438.445C193.268 438.275 192.978 438.14 192.618 438.04C192.258 437.93 191.858 437.83 191.418 437.74C190.988 437.64 190.553 437.52 190.113 437.38C189.683 437.24 189.288 437.06 188.928 436.84C188.568 436.62 188.273 436.33 188.043 435.97C187.823 435.61 187.713 435.15 187.713 434.59C187.713 433.99 187.873 433.445 188.193 432.955C188.523 432.455 189.013 432.06 189.663 431.77C190.323 431.47 191.148 431.32 192.138 431.32C192.798 431.32 193.448 431.4 194.088 431.56C194.728 431.71 195.293 431.94 195.783 432.25L195.033 434.095C194.543 433.815 194.053 433.61 193.563 433.48C193.073 433.34 192.593 433.27 192.123 433.27C191.653 433.27 191.268 433.325 190.968 433.435C190.668 433.545 190.453 433.69 190.323 433.87C190.193 434.04 190.128 434.24 190.128 434.47C190.128 434.74 190.238 434.96 190.458 435.13C190.678 435.29 190.968 435.42 191.328 435.52C191.688 435.62 192.083 435.72 192.513 435.82C192.953 435.92 193.388 436.035 193.818 436.165C194.258 436.295 194.658 436.47 195.018 436.69C195.378 436.91 195.668 437.2 195.888 437.56C196.118 437.92 196.233 438.375 196.233 438.925C196.233 439.515 196.068 440.055 195.738 440.545C195.408 441.035 194.913 441.43 194.253 441.73C193.603 442.03 192.778 442.18 191.778 442.18ZM201.733 442.12C200.813 442.12 200.003 441.94 199.303 441.58C198.613 441.22 198.078 440.73 197.698 440.11C197.318 439.48 197.128 438.765 197.128 437.965C197.128 437.155 197.313 436.44 197.683 435.82C198.063 435.19 198.578 434.7 199.228 434.35C199.878 433.99 200.613 433.81 201.433 433.81C202.223 433.81 202.933 433.98 203.563 434.32C204.203 434.65 204.708 435.13 205.078 435.76C205.448 436.38 205.633 437.125 205.633 437.995C205.633 438.085 205.628 438.19 205.618 438.31C205.608 438.42 205.598 438.525 205.588 438.625H199.033V437.26H204.358L203.458 437.665C203.458 437.245 203.373 436.88 203.203 436.57C203.033 436.26 202.798 436.02 202.498 435.85C202.198 435.67 201.848 435.58 201.448 435.58C201.048 435.58 200.693 435.67 200.383 435.85C200.083 436.02 199.848 436.265 199.678 436.585C199.508 436.895 199.423 437.265 199.423 437.695V438.055C199.423 438.495 199.518 438.885 199.708 439.225C199.908 439.555 200.183 439.81 200.533 439.99C200.893 440.16 201.313 440.245 201.793 440.245C202.223 440.245 202.598 440.18 202.918 440.05C203.248 439.92 203.548 439.725 203.818 439.465L205.063 440.815C204.693 441.235 204.228 441.56 203.668 441.79C203.108 442.01 202.463 442.12 201.733 442.12ZM200.023 432.895L202.048 430.735H204.568L201.853 432.895H200.023ZM211.091 442.12C210.221 442.12 209.446 441.945 208.766 441.595C208.086 441.235 207.551 440.74 207.161 440.11C206.781 439.48 206.591 438.765 206.591 437.965C206.591 437.155 206.781 436.44 207.161 435.82C207.551 435.19 208.086 434.7 208.766 434.35C209.446 433.99 210.221 433.81 211.091 433.81C211.941 433.81 212.681 433.99 213.311 434.35C213.941 434.7 214.406 435.205 214.706 435.865L212.891 436.84C212.681 436.46 212.416 436.18 212.096 436C211.786 435.82 211.446 435.73 211.076 435.73C210.676 435.73 210.316 435.82 209.996 436C209.676 436.18 209.421 436.435 209.231 436.765C209.051 437.095 208.961 437.495 208.961 437.965C208.961 438.435 209.051 438.835 209.231 439.165C209.421 439.495 209.676 439.75 209.996 439.93C210.316 440.11 210.676 440.2 211.076 440.2C211.446 440.2 211.786 440.115 212.096 439.945C212.416 439.765 212.681 439.48 212.891 439.09L214.706 440.08C214.406 440.73 213.941 441.235 213.311 441.595C212.681 441.945 211.941 442.12 211.091 442.12ZM219.459 442.12C218.789 442.12 218.189 441.99 217.659 441.73C217.139 441.47 216.734 441.075 216.444 440.545C216.154 440.005 216.009 439.32 216.009 438.49V433.93H218.349V438.145C218.349 438.815 218.489 439.31 218.769 439.63C219.059 439.94 219.464 440.095 219.984 440.095C220.344 440.095 220.664 440.02 220.944 439.87C221.224 439.71 221.444 439.47 221.604 439.15C221.764 438.82 221.844 438.41 221.844 437.92V433.93H224.184V442H221.964V439.78L222.369 440.425C222.099 440.985 221.699 441.41 221.169 441.7C220.649 441.98 220.079 442.12 219.459 442.12ZM226.351 442V433.93H228.586V436.21L228.271 435.55C228.511 434.98 228.896 434.55 229.426 434.26C229.956 433.96 230.601 433.81 231.361 433.81V435.97C231.261 435.96 231.171 435.955 231.091 435.955C231.011 435.945 230.926 435.94 230.836 435.94C230.196 435.94 229.676 436.125 229.276 436.495C228.886 436.855 228.691 437.42 228.691 438.19V442H226.351ZM232.753 442V433.93H235.093V442H232.753ZM233.923 432.805C233.493 432.805 233.143 432.68 232.873 432.43C232.603 432.18 232.468 431.87 232.468 431.5C232.468 431.13 232.603 430.82 232.873 430.57C233.143 430.32 233.493 430.195 233.923 430.195C234.353 430.195 234.703 430.315 234.973 430.555C235.243 430.785 235.378 431.085 235.378 431.455C235.378 431.845 235.243 432.17 234.973 432.43C234.713 432.68 234.363 432.805 233.923 432.805ZM240.565 442.12C239.615 442.12 238.875 441.88 238.345 441.4C237.815 440.91 237.55 440.185 237.55 439.225V432.145H239.89V439.195C239.89 439.535 239.98 439.8 240.16 439.99C240.34 440.17 240.585 440.26 240.895 440.26C241.265 440.26 241.58 440.16 241.84 439.96L242.47 441.61C242.23 441.78 241.94 441.91 241.6 442C241.27 442.08 240.925 442.12 240.565 442.12ZM236.305 435.91V434.11H241.9V435.91H236.305ZM247.539 442.12C246.619 442.12 245.809 441.94 245.109 441.58C244.419 441.22 243.884 440.73 243.504 440.11C243.124 439.48 242.934 438.765 242.934 437.965C242.934 437.155 243.119 436.44 243.489 435.82C243.869 435.19 244.384 434.7 245.034 434.35C245.684 433.99 246.419 433.81 247.239 433.81C248.029 433.81 248.739 433.98 249.369 434.32C250.009 434.65 250.514 435.13 250.884 435.76C251.254 436.38 251.439 437.125 251.439 437.995C251.439 438.085 251.434 438.19 251.424 438.31C251.414 438.42 251.404 438.525 251.394 438.625H244.839V437.26H250.164L249.264 437.665C249.264 437.245 249.179 436.88 249.009 436.57C248.839 436.26 248.604 436.02 248.304 435.85C248.004 435.67 247.654 435.58 247.254 435.58C246.854 435.58 246.499 435.67 246.189 435.85C245.889 436.02 245.654 436.265 245.484 436.585C245.314 436.895 245.229 437.265 245.229 437.695V438.055C245.229 438.495 245.324 438.885 245.514 439.225C245.714 439.555 245.989 439.81 246.339 439.99C246.699 440.16 247.119 440.245 247.599 440.245C248.029 440.245 248.404 440.18 248.724 440.05C249.054 439.92 249.354 439.725 249.624 439.465L250.869 440.815C250.499 441.235 250.034 441.56 249.474 441.79C248.914 442.01 248.269 442.12 247.539 442.12ZM245.829 432.895L247.854 430.735H250.374L247.659 432.895H245.829Z" fill="white"/>
<circle cx="219.5" cy="584" r="93" stroke="#FDC500" stroke-width="10"/>
<mask id="mask1_149_2642" style="mask-type:alpha" maskUnits="userSpaceOnUse" x="159" y="524" width="120" height="119">
<rect x="159.5" y="524" width="119" height="119" fill="#D9D9D9"/>
</mask>
<g mask="url(#mask1_149_2642)">
<path d="M233.875 623.167C222.801 623.167 213.422 619.324 205.736 611.639C198.051 603.953 194.208 594.574 194.208 583.5C194.208 572.509 198.051 563.15 205.736 555.423C213.422 547.697 222.801 543.833 233.875 543.833C244.866 543.833 254.225 547.697 261.951 555.423C269.678 563.15 273.541 572.509 273.541 583.5C273.541 594.574 269.678 603.953 261.951 611.639C254.225 619.324 244.866 623.167 233.875 623.167ZM233.875 613.25C242.139 613.25 249.163 610.358 254.948 604.573C260.732 598.788 263.625 591.764 263.625 583.5C263.625 575.236 260.732 568.212 254.948 562.427C249.163 556.642 242.139 553.75 233.875 553.75C225.611 553.75 218.586 556.642 212.802 562.427C207.017 568.212 204.125 575.236 204.125 583.5C204.125 591.764 207.017 598.788 212.802 604.573C218.586 610.358 225.611 613.25 233.875 613.25ZM245.155 601.97L252.221 594.904L238.833 581.517V563.667H228.916V585.607L245.155 601.97ZM169.416 568.625V558.708H189.25V568.625H169.416ZM154.458 588.458V578.542H189.25V588.458H154.458ZM169.416 608.292V598.375H189.25V608.292H169.416Z" fill="white"/>
<path d="M252.221 594.904L245.155 601.97L228.916 585.607V563.667H238.833V581.517L252.221 594.904Z" fill="#FDC500"/>
</g>
<path d="M168.891 723.18C168.061 723.18 167.296 723.05 166.596 722.79C165.906 722.52 165.301 722.14 164.781 721.65C164.271 721.16 163.871 720.585 163.581 719.925C163.301 719.265 163.161 718.54 163.161 717.75C163.161 716.96 163.301 716.235 163.581 715.575C163.871 714.915 164.276 714.34 164.796 713.85C165.316 713.36 165.926 712.985 166.626 712.725C167.326 712.455 168.096 712.32 168.936 712.32C169.866 712.32 170.701 712.475 171.441 712.785C172.191 713.095 172.821 713.545 173.331 714.135L171.771 715.575C171.391 715.175 170.976 714.88 170.526 714.69C170.076 714.49 169.586 714.39 169.056 714.39C168.546 714.39 168.081 714.47 167.661 714.63C167.241 714.79 166.876 715.02 166.566 715.32C166.266 715.62 166.031 715.975 165.861 716.385C165.701 716.795 165.621 717.25 165.621 717.75C165.621 718.24 165.701 718.69 165.861 719.1C166.031 719.51 166.266 719.87 166.566 720.18C166.876 720.48 167.236 720.71 167.646 720.87C168.066 721.03 168.526 721.11 169.026 721.11C169.506 721.11 169.971 721.035 170.421 720.885C170.881 720.725 171.326 720.46 171.756 720.09L173.136 721.845C172.566 722.275 171.901 722.605 171.141 722.835C170.391 723.065 169.641 723.18 168.891 723.18ZM170.916 721.53V717.585H173.136V721.845L170.916 721.53ZM180.178 723V721.425L180.028 721.08V718.26C180.028 717.76 179.873 717.37 179.563 717.09C179.263 716.81 178.798 716.67 178.168 716.67C177.738 716.67 177.313 716.74 176.893 716.88C176.483 717.01 176.133 717.19 175.843 717.42L175.003 715.785C175.443 715.475 175.973 715.235 176.593 715.065C177.213 714.895 177.843 714.81 178.483 714.81C179.713 714.81 180.668 715.1 181.348 715.68C182.028 716.26 182.368 717.165 182.368 718.395V723H180.178ZM177.718 723.12C177.088 723.12 176.548 723.015 176.098 722.805C175.648 722.585 175.303 722.29 175.063 721.92C174.823 721.55 174.703 721.135 174.703 720.675C174.703 720.195 174.818 719.775 175.048 719.415C175.288 719.055 175.663 718.775 176.173 718.575C176.683 718.365 177.348 718.26 178.168 718.26H180.313V719.625H178.423C177.873 719.625 177.493 719.715 177.283 719.895C177.083 720.075 176.983 720.3 176.983 720.57C176.983 720.87 177.098 721.11 177.328 721.29C177.568 721.46 177.893 721.545 178.303 721.545C178.693 721.545 179.043 721.455 179.353 721.275C179.663 721.085 179.888 720.81 180.028 720.45L180.388 721.53C180.218 722.05 179.908 722.445 179.458 722.715C179.008 722.985 178.428 723.12 177.718 723.12ZM184.486 723V714.93H186.826V723H184.486ZM185.656 713.805C185.226 713.805 184.876 713.68 184.606 713.43C184.336 713.18 184.201 712.87 184.201 712.5C184.201 712.13 184.336 711.82 184.606 711.57C184.876 711.32 185.226 711.195 185.656 711.195C186.086 711.195 186.436 711.315 186.706 711.555C186.976 711.785 187.111 712.085 187.111 712.455C187.111 712.845 186.976 713.17 186.706 713.43C186.446 713.68 186.096 713.805 185.656 713.805ZM193.903 714.81C194.543 714.81 195.113 714.94 195.613 715.2C196.123 715.45 196.523 715.84 196.813 716.37C197.103 716.89 197.248 717.56 197.248 718.38V723H194.908V718.74C194.908 718.09 194.763 717.61 194.473 717.3C194.193 716.99 193.793 716.835 193.273 716.835C192.903 716.835 192.568 716.915 192.268 717.075C191.978 717.225 191.748 717.46 191.578 717.78C191.418 718.1 191.338 718.51 191.338 719.01V723H188.998V714.93H191.233V717.165L190.813 716.49C191.103 715.95 191.518 715.535 192.058 715.245C192.598 714.955 193.213 714.81 193.903 714.81ZM207.082 723.12C206.322 723.12 205.637 722.95 205.027 722.61C204.417 722.26 203.932 721.775 203.572 721.155C203.222 720.535 203.047 719.805 203.047 718.965C203.047 718.115 203.222 717.38 203.572 716.76C203.932 716.14 204.417 715.66 205.027 715.32C205.637 714.98 206.322 714.81 207.082 714.81C207.762 714.81 208.357 714.96 208.867 715.26C209.377 715.56 209.772 716.015 210.052 716.625C210.332 717.235 210.472 718.015 210.472 718.965C210.472 719.905 210.337 720.685 210.067 721.305C209.797 721.915 209.407 722.37 208.897 722.67C208.397 722.97 207.792 723.12 207.082 723.12ZM207.487 721.2C207.867 721.2 208.212 721.11 208.522 720.93C208.832 720.75 209.077 720.495 209.257 720.165C209.447 719.825 209.542 719.425 209.542 718.965C209.542 718.495 209.447 718.095 209.257 717.765C209.077 717.435 208.832 717.18 208.522 717C208.212 716.82 207.867 716.73 207.487 716.73C207.097 716.73 206.747 716.82 206.437 717C206.127 717.18 205.877 717.435 205.687 717.765C205.507 718.095 205.417 718.495 205.417 718.965C205.417 719.425 205.507 719.825 205.687 720.165C205.877 720.495 206.127 720.75 206.437 720.93C206.747 721.11 207.097 721.2 207.487 721.2ZM209.602 723V721.35L209.647 718.95L209.497 716.565V711.87H211.837V723H209.602ZM218.008 723.12C217.088 723.12 216.278 722.94 215.578 722.58C214.888 722.22 214.353 721.73 213.973 721.11C213.593 720.48 213.403 719.765 213.403 718.965C213.403 718.155 213.588 717.44 213.958 716.82C214.338 716.19 214.853 715.7 215.503 715.35C216.153 714.99 216.888 714.81 217.708 714.81C218.498 714.81 219.208 714.98 219.838 715.32C220.478 715.65 220.983 716.13 221.353 716.76C221.723 717.38 221.908 718.125 221.908 718.995C221.908 719.085 221.903 719.19 221.893 719.31C221.883 719.42 221.873 719.525 221.863 719.625H215.308V718.26H220.633L219.733 718.665C219.733 718.245 219.648 717.88 219.478 717.57C219.308 717.26 219.073 717.02 218.773 716.85C218.473 716.67 218.123 716.58 217.723 716.58C217.323 716.58 216.968 716.67 216.658 716.85C216.358 717.02 216.123 717.265 215.953 717.585C215.783 717.895 215.698 718.265 215.698 718.695V719.055C215.698 719.495 215.793 719.885 215.983 720.225C216.183 720.555 216.458 720.81 216.808 720.99C217.168 721.16 217.588 721.245 218.068 721.245C218.498 721.245 218.873 721.18 219.193 721.05C219.523 720.92 219.823 720.725 220.093 720.465L221.338 721.815C220.968 722.235 220.503 722.56 219.943 722.79C219.383 723.01 218.738 723.12 218.008 723.12ZM231.014 723.12C230.064 723.12 229.324 722.88 228.794 722.4C228.264 721.91 227.999 721.185 227.999 720.225V713.145H230.339V720.195C230.339 720.535 230.429 720.8 230.609 720.99C230.789 721.17 231.034 721.26 231.344 721.26C231.714 721.26 232.029 721.16 232.289 720.96L232.919 722.61C232.679 722.78 232.389 722.91 232.049 723C231.719 723.08 231.374 723.12 231.014 723.12ZM226.754 716.91V715.11H232.349V716.91H226.754ZM237.988 723.12C237.068 723.12 236.258 722.94 235.558 722.58C234.868 722.22 234.333 721.73 233.953 721.11C233.573 720.48 233.383 719.765 233.383 718.965C233.383 718.155 233.568 717.44 233.938 716.82C234.318 716.19 234.833 715.7 235.483 715.35C236.133 714.99 236.868 714.81 237.688 714.81C238.478 714.81 239.188 714.98 239.818 715.32C240.458 715.65 240.963 716.13 241.333 716.76C241.703 717.38 241.888 718.125 241.888 718.995C241.888 719.085 241.883 719.19 241.873 719.31C241.863 719.42 241.853 719.525 241.843 719.625H235.288V718.26H240.613L239.713 718.665C239.713 718.245 239.628 717.88 239.458 717.57C239.288 717.26 239.053 717.02 238.753 716.85C238.453 716.67 238.103 716.58 237.703 716.58C237.303 716.58 236.948 716.67 236.638 716.85C236.338 717.02 236.103 717.265 235.933 717.585C235.763 717.895 235.678 718.265 235.678 718.695V719.055C235.678 719.495 235.773 719.885 235.963 720.225C236.163 720.555 236.438 720.81 236.788 720.99C237.148 721.16 237.568 721.245 238.048 721.245C238.478 721.245 238.853 721.18 239.173 721.05C239.503 720.92 239.803 720.725 240.073 720.465L241.318 721.815C240.948 722.235 240.483 722.56 239.923 722.79C239.363 723.01 238.718 723.12 237.988 723.12ZM253.781 714.81C254.421 714.81 254.986 714.94 255.476 715.2C255.976 715.45 256.366 715.84 256.646 716.37C256.936 716.89 257.081 717.56 257.081 718.38V723H254.741V718.74C254.741 718.09 254.606 717.61 254.336 717.3C254.066 716.99 253.686 716.835 253.196 716.835C252.856 716.835 252.551 716.915 252.281 717.075C252.011 717.225 251.801 717.455 251.651 717.765C251.501 718.075 251.426 718.47 251.426 718.95V723H249.086V718.74C249.086 718.09 248.951 717.61 248.681 717.3C248.421 716.99 248.046 716.835 247.556 716.835C247.216 716.835 246.911 716.915 246.641 717.075C246.371 717.225 246.161 717.455 246.011 717.765C245.861 718.075 245.786 718.47 245.786 718.95V723H243.446V714.93H245.681V717.135L245.261 716.49C245.541 715.94 245.936 715.525 246.446 715.245C246.966 714.955 247.556 714.81 248.216 714.81C248.956 714.81 249.601 715 250.151 715.38C250.711 715.75 251.081 716.32 251.261 717.09L250.436 716.865C250.706 716.235 251.136 715.735 251.726 715.365C252.326 714.995 253.011 714.81 253.781 714.81ZM263.949 723.12C263.269 723.12 262.674 722.97 262.164 722.67C261.654 722.37 261.254 721.915 260.964 721.305C260.684 720.685 260.544 719.905 260.544 718.965C260.544 718.015 260.679 717.235 260.949 716.625C261.219 716.015 261.609 715.56 262.119 715.26C262.629 714.96 263.239 714.81 263.949 714.81C264.709 714.81 265.389 714.985 265.989 715.335C266.599 715.675 267.079 716.155 267.429 716.775C267.789 717.395 267.969 718.125 267.969 718.965C267.969 719.815 267.789 720.55 267.429 721.17C267.079 721.79 266.599 722.27 265.989 722.61C265.389 722.95 264.709 723.12 263.949 723.12ZM259.179 725.91V714.93H261.414V716.58L261.369 718.98L261.519 721.365V725.91H259.179ZM263.544 721.2C263.934 721.2 264.279 721.11 264.579 720.93C264.889 720.75 265.134 720.495 265.314 720.165C265.504 719.825 265.599 719.425 265.599 718.965C265.599 718.495 265.504 718.095 265.314 717.765C265.134 717.435 264.889 717.18 264.579 717C264.279 716.82 263.934 716.73 263.544 716.73C263.154 716.73 262.804 716.82 262.494 717C262.184 717.18 261.939 717.435 261.759 717.765C261.579 718.095 261.489 718.495 261.489 718.965C261.489 719.425 261.579 719.825 261.759 720.165C261.939 720.495 262.184 720.75 262.494 720.93C262.804 721.11 263.154 721.2 263.544 721.2ZM272.25 723.12C271.56 723.12 270.895 723.04 270.255 722.88C269.625 722.71 269.125 722.5 268.755 722.25L269.535 720.57C269.905 720.8 270.34 720.99 270.84 721.14C271.35 721.28 271.85 721.35 272.34 721.35C272.88 721.35 273.26 721.285 273.48 721.155C273.71 721.025 273.825 720.845 273.825 720.615C273.825 720.425 273.735 720.285 273.555 720.195C273.385 720.095 273.155 720.02 272.865 719.97C272.575 719.92 272.255 719.87 271.905 719.82C271.565 719.77 271.22 719.705 270.87 719.625C270.52 719.535 270.2 719.405 269.91 719.235C269.62 719.065 269.385 718.835 269.205 718.545C269.035 718.255 268.95 717.88 268.95 717.42C268.95 716.91 269.095 716.46 269.385 716.07C269.685 715.68 270.115 715.375 270.675 715.155C271.235 714.925 271.905 714.81 272.685 714.81C273.235 714.81 273.795 714.87 274.365 714.99C274.935 715.11 275.41 715.285 275.79 715.515L275.01 717.18C274.62 716.95 274.225 716.795 273.825 716.715C273.435 716.625 273.055 716.58 272.685 716.58C272.165 716.58 271.785 716.65 271.545 716.79C271.305 716.93 271.185 717.11 271.185 717.33C271.185 717.53 271.27 717.68 271.44 717.78C271.62 717.88 271.855 717.96 272.145 718.02C272.435 718.08 272.75 718.135 273.09 718.185C273.44 718.225 273.79 718.29 274.14 718.38C274.49 718.47 274.805 718.6 275.085 718.77C275.375 718.93 275.61 719.155 275.79 719.445C275.97 719.725 276.06 720.095 276.06 720.555C276.06 721.055 275.91 721.5 275.61 721.89C275.31 722.27 274.875 722.57 274.305 722.79C273.745 723.01 273.06 723.12 272.25 723.12Z" fill="white"/>
<circle cx="219.5" cy="865" r="93" stroke="#FDC500" stroke-width="10"/>
<path d="M189.75 818.25C185.241 818.25 180.917 820.041 177.729 823.229C174.541 826.417 172.75 830.741 172.75 835.25C172.75 852.25 189.75 860.75 189.75 860.75C189.75 860.75 206.75 852.25 206.75 835.25C206.75 830.741 204.959 826.417 201.771 823.229C198.583 820.041 194.259 818.25 189.75 818.25ZM189.75 843.75C188.069 843.75 186.425 843.251 185.028 842.317C183.63 841.383 182.54 840.056 181.897 838.503C181.254 836.95 181.085 835.241 181.413 833.592C181.741 831.943 182.551 830.428 183.74 829.24C184.928 828.051 186.443 827.241 188.092 826.913C189.741 826.585 191.45 826.754 193.003 827.397C194.556 828.04 195.883 829.13 196.817 830.528C197.751 831.925 198.25 833.569 198.25 835.25C198.25 837.504 197.354 839.666 195.76 841.26C194.166 842.854 192.004 843.75 189.75 843.75Z" fill="#FDC500"/>
<path d="M240.75 907.5H189.75C185.241 907.5 180.917 905.709 177.729 902.521C174.541 899.333 172.75 895.009 172.75 890.5C172.75 885.991 174.541 881.667 177.729 878.479C180.917 875.291 185.241 873.5 189.75 873.5H253.5C254.627 873.5 255.708 873.052 256.505 872.255C257.302 871.458 257.75 870.377 257.75 869.25V831C257.75 829.873 257.302 828.792 256.505 827.995C255.708 827.198 254.627 826.75 253.5 826.75H228C226.873 826.75 225.792 827.198 224.995 827.995C224.198 828.792 223.75 829.873 223.75 831C223.75 832.127 224.198 833.208 224.995 834.005C225.792 834.802 226.873 835.25 228 835.25H236.5C239.882 835.25 243.125 836.593 245.516 838.984C247.907 841.375 249.25 844.618 249.25 848C249.25 851.382 247.907 854.625 245.516 857.016C243.125 859.407 239.882 860.75 236.5 860.75H206.75V852.25H236.5C237.627 852.25 238.708 851.802 239.505 851.005C240.302 850.208 240.75 849.127 240.75 848C240.75 846.873 240.302 845.792 239.505 844.995C238.708 844.198 237.627 843.75 236.5 843.75H228C224.618 843.75 221.375 842.407 218.984 840.016C216.593 837.625 215.25 834.382 215.25 831C215.25 827.618 216.593 824.375 218.984 821.984C221.375 819.593 224.618 818.25 228 818.25H253.5C256.882 818.25 260.125 819.593 262.516 821.984C264.907 824.375 266.25 827.618 266.25 831V869.25C266.25 872.632 264.907 875.875 262.516 878.266C260.125 880.657 256.882 882 253.5 882H189.75C187.496 882 185.334 882.896 183.74 884.49C182.146 886.084 181.25 888.246 181.25 890.5C181.25 892.754 182.146 894.916 183.74 896.51C185.334 898.104 187.496 899 189.75 899H240.75V907.5Z" fill="white"/>
<path d="M266.25 894.75H249.25V911.75H266.25V894.75Z" fill="#FDC500"/>
<path d="M194.621 998.225H199.661V1000.17H194.621V998.225ZM194.801 1004H192.371V993.5H200.306V995.45H194.801V1004ZM206.516 1004V1002.42L206.366 1002.08V999.26C206.366 998.76 206.211 998.37 205.901 998.09C205.601 997.81 205.136 997.67 204.506 997.67C204.076 997.67 203.651 997.74 203.231 997.88C202.821 998.01 202.471 998.19 202.181 998.42L201.341 996.785C201.781 996.475 202.311 996.235 202.931 996.065C203.551 995.895 204.181 995.81 204.821 995.81C206.051 995.81 207.006 996.1 207.686 996.68C208.366 997.26 208.706 998.165 208.706 999.395V1004H206.516ZM204.056 1004.12C203.426 1004.12 202.886 1004.02 202.436 1003.8C201.986 1003.58 201.641 1003.29 201.401 1002.92C201.161 1002.55 201.041 1002.13 201.041 1001.67C201.041 1001.19 201.156 1000.77 201.386 1000.41C201.626 1000.05 202.001 999.775 202.511 999.575C203.021 999.365 203.686 999.26 204.506 999.26H206.651V1000.62H204.761C204.211 1000.62 203.831 1000.71 203.621 1000.89C203.421 1001.07 203.321 1001.3 203.321 1001.57C203.321 1001.87 203.436 1002.11 203.666 1002.29C203.906 1002.46 204.231 1002.54 204.641 1002.54C205.031 1002.54 205.381 1002.45 205.691 1002.27C206.001 1002.08 206.226 1001.81 206.366 1001.45L206.726 1002.53C206.556 1003.05 206.246 1003.44 205.796 1003.71C205.346 1003.98 204.766 1004.12 204.056 1004.12ZM214.783 1004.12C213.913 1004.12 213.138 1003.95 212.458 1003.59C211.778 1003.23 211.243 1002.74 210.853 1002.11C210.473 1001.48 210.283 1000.76 210.283 999.965C210.283 999.155 210.473 998.44 210.853 997.82C211.243 997.19 211.778 996.7 212.458 996.35C213.138 995.99 213.913 995.81 214.783 995.81C215.633 995.81 216.373 995.99 217.003 996.35C217.633 996.7 218.098 997.205 218.398 997.865L216.583 998.84C216.373 998.46 216.108 998.18 215.788 998C215.478 997.82 215.138 997.73 214.768 997.73C214.368 997.73 214.008 997.82 213.688 998C213.368 998.18 213.113 998.435 212.923 998.765C212.743 999.095 212.653 999.495 212.653 999.965C212.653 1000.43 212.743 1000.83 212.923 1001.16C213.113 1001.49 213.368 1001.75 213.688 1001.93C214.008 1002.11 214.368 1002.2 214.768 1002.2C215.138 1002.2 215.478 1002.11 215.788 1001.94C216.108 1001.76 216.373 1001.48 216.583 1001.09L218.398 1002.08C218.098 1002.73 217.633 1003.23 217.003 1003.59C216.373 1003.95 215.633 1004.12 214.783 1004.12ZM219.686 1004V995.93H222.026V1004H219.686ZM220.856 994.805C220.426 994.805 220.076 994.68 219.806 994.43C219.536 994.18 219.401 993.87 219.401 993.5C219.401 993.13 219.536 992.82 219.806 992.57C220.076 992.32 220.426 992.195 220.856 992.195C221.286 992.195 221.636 992.315 221.906 992.555C222.176 992.785 222.311 993.085 222.311 993.455C222.311 993.845 222.176 994.17 221.906 994.43C221.646 994.68 221.296 994.805 220.856 994.805ZM224.198 1004V992.87H226.538V1004H224.198ZM228.71 1004V995.93H231.05V1004H228.71ZM229.88 994.805C229.45 994.805 229.1 994.68 228.83 994.43C228.56 994.18 228.425 993.87 228.425 993.5C228.425 993.13 228.56 992.82 228.83 992.57C229.1 992.32 229.45 992.195 229.88 992.195C230.31 992.195 230.66 992.315 230.93 992.555C231.2 992.785 231.335 993.085 231.335 993.455C231.335 993.845 231.2 994.17 230.93 994.43C230.67 994.68 230.32 994.805 229.88 994.805ZM236.522 1004.12C235.572 1004.12 234.832 1003.88 234.302 1003.4C233.772 1002.91 233.507 1002.18 233.507 1001.22V994.145H235.847V1001.19C235.847 1001.53 235.937 1001.8 236.117 1001.99C236.297 1002.17 236.542 1002.26 236.852 1002.26C237.222 1002.26 237.537 1002.16 237.797 1001.96L238.427 1003.61C238.187 1003.78 237.897 1003.91 237.557 1004C237.227 1004.08 236.882 1004.12 236.522 1004.12ZM232.262 997.91V996.11H237.857V997.91H232.262ZM243.496 1004.12C242.576 1004.12 241.766 1003.94 241.066 1003.58C240.376 1003.22 239.841 1002.73 239.461 1002.11C239.081 1001.48 238.891 1000.76 238.891 999.965C238.891 999.155 239.076 998.44 239.446 997.82C239.826 997.19 240.341 996.7 240.991 996.35C241.641 995.99 242.376 995.81 243.196 995.81C243.986 995.81 244.696 995.98 245.326 996.32C245.966 996.65 246.471 997.13 246.841 997.76C247.211 998.38 247.396 999.125 247.396 999.995C247.396 1000.08 247.391 1000.19 247.381 1000.31C247.371 1000.42 247.361 1000.52 247.351 1000.62H240.796V999.26H246.121L245.221 999.665C245.221 999.245 245.136 998.88 244.966 998.57C244.796 998.26 244.561 998.02 244.261 997.85C243.961 997.67 243.611 997.58 243.211 997.58C242.811 997.58 242.456 997.67 242.146 997.85C241.846 998.02 241.611 998.265 241.441 998.585C241.271 998.895 241.186 999.265 241.186 999.695V1000.05C241.186 1000.49 241.281 1000.88 241.471 1001.22C241.671 1001.55 241.946 1001.81 242.296 1001.99C242.656 1002.16 243.076 1002.24 243.556 1002.24C243.986 1002.24 244.361 1002.18 244.681 1002.05C245.011 1001.92 245.311 1001.72 245.581 1001.46L246.826 1002.81C246.456 1003.23 245.991 1003.56 245.431 1003.79C244.871 1004.01 244.226 1004.12 243.496 1004.12ZM241.786 994.895L243.811 992.735H246.331L243.616 994.895H241.786Z" fill="white"/>
</g>
<defs>
<clipPath id="clip0_149_2642">
<rect width="440" height="1098" fill="white"/>
</clipPath>
<clipPath id="clip1_149_2642">
<rect width="6286.9" height="5749.43" fill="white" transform="translate(-3237 -680.832) rotate(-15)"/>
</clipPath>
</defs>
</svg>
