<svg width="440" height="1081" viewBox="0 0 440 1081" fill="none" xmlns="http://www.w3.org/2000/svg">
<g clip-path="url(#clip0_149_3174)" filter="url(#filter0_i_149_3174)">
<rect width="440" height="1081" fill="#FDA400"/>
<rect width="639.402" height="1475.01" transform="matrix(1 0 -0.379448 0.925213 632.688 -1)" fill="#FDC501"/>
<rect width="629.902" height="1471.87" transform="matrix(1 0 -0.374606 0.927184 -522.628 -21)" fill="#FDC501"/>
<rect width="209.967" height="1471.87" transform="matrix(1 0 -0.374606 0.927184 306 0)" fill="#FDC501" fill-opacity="0.4"/>
<path d="M119.868 79V60.538H112.558V55.2H133.876V60.538H126.6V79H119.868ZM143.875 79.306C141.699 79.306 139.795 78.898 138.163 78.082C136.553 77.2433 135.295 76.11 134.389 74.682C133.505 73.2313 133.063 71.588 133.063 69.752C133.063 67.916 133.493 66.284 134.355 64.856C135.239 63.4053 136.451 62.2833 137.993 61.49C139.534 60.674 141.268 60.266 143.195 60.266C145.008 60.266 146.663 60.64 148.159 61.388C149.655 62.1133 150.845 63.19 151.729 64.618C152.613 66.046 153.055 67.78 153.055 69.82C153.055 70.0467 153.043 70.3073 153.021 70.602C152.998 70.8967 152.975 71.1687 152.953 71.418H138.367V68.018H149.519L147.071 68.97C147.093 68.1313 146.935 67.406 146.595 66.794C146.277 66.182 145.824 65.706 145.235 65.366C144.668 65.026 143.999 64.856 143.229 64.856C142.458 64.856 141.778 65.026 141.189 65.366C140.622 65.706 140.18 66.1933 139.863 66.828C139.545 67.44 139.387 68.1653 139.387 69.004V69.99C139.387 70.8967 139.568 71.6787 139.931 72.336C140.316 72.9933 140.86 73.5033 141.563 73.866C142.265 74.206 143.104 74.376 144.079 74.376C144.985 74.376 145.756 74.2513 146.391 74.002C147.048 73.73 147.694 73.322 148.329 72.778L151.729 76.314C150.845 77.2887 149.757 78.0367 148.465 78.558C147.173 79.0567 145.643 79.306 143.875 79.306ZM139.727 58.362L144.283 53.194H150.743L144.351 58.362H139.727ZM156.033 79V53.772H162.493V79H156.033ZM176.347 79.306C174.171 79.306 172.267 78.898 170.635 78.082C169.026 77.2433 167.768 76.11 166.861 74.682C165.977 73.2313 165.535 71.588 165.535 69.752C165.535 67.916 165.966 66.284 166.827 64.856C167.711 63.4053 168.924 62.2833 170.465 61.49C172.007 60.674 173.741 60.266 175.667 60.266C177.481 60.266 179.135 60.64 180.631 61.388C182.127 62.1133 183.317 63.19 184.201 64.618C185.085 66.046 185.527 67.78 185.527 69.82C185.527 70.0467 185.516 70.3073 185.493 70.602C185.471 70.8967 185.448 71.1687 185.425 71.418H170.839V68.018H181.991L179.543 68.97C179.566 68.1313 179.407 67.406 179.067 66.794C178.75 66.182 178.297 65.706 177.707 65.366C177.141 65.026 176.472 64.856 175.701 64.856C174.931 64.856 174.251 65.026 173.661 65.366C173.095 65.706 172.653 66.1933 172.335 66.828C172.018 67.44 171.859 68.1653 171.859 69.004V69.99C171.859 70.8967 172.041 71.6787 172.403 72.336C172.789 72.9933 173.333 73.5033 174.035 73.866C174.738 74.206 175.577 74.376 176.551 74.376C177.458 74.376 178.229 74.2513 178.863 74.002C179.521 73.73 180.167 73.322 180.801 72.778L184.201 76.314C183.317 77.2887 182.229 78.0367 180.937 78.558C179.645 79.0567 178.115 79.306 176.347 79.306ZM172.199 58.362L176.755 53.194H183.215L176.823 58.362H172.199ZM197.924 79.306C195.884 79.306 194.059 78.898 192.45 78.082C190.863 77.266 189.616 76.144 188.71 74.716C187.803 73.2653 187.35 71.6107 187.35 69.752C187.35 67.8933 187.803 66.25 188.71 64.822C189.616 63.394 190.863 62.2833 192.45 61.49C194.059 60.674 195.884 60.266 197.924 60.266C200.009 60.266 201.811 60.708 203.33 61.592C204.848 62.476 205.925 63.7227 206.56 65.332L201.562 67.882C201.131 67.0207 200.598 66.3973 199.964 66.012C199.329 65.604 198.638 65.4 197.89 65.4C197.142 65.4 196.462 65.57 195.85 65.91C195.238 66.25 194.75 66.7487 194.388 67.406C194.048 68.0407 193.878 68.8227 193.878 69.752C193.878 70.704 194.048 71.5087 194.388 72.166C194.75 72.8233 195.238 73.322 195.85 73.662C196.462 74.002 197.142 74.172 197.89 74.172C198.638 74.172 199.329 73.9793 199.964 73.594C200.598 73.186 201.131 72.5513 201.562 71.69L206.56 74.24C205.925 75.8493 204.848 77.096 203.33 77.98C201.811 78.864 200.009 79.306 197.924 79.306ZM220.928 60.266C222.356 60.266 223.648 60.5607 224.804 61.15C225.96 61.7167 226.866 62.6007 227.524 63.802C228.204 65.0033 228.544 66.556 228.544 68.46V79H222.084V69.514C222.084 68.1993 221.812 67.2473 221.268 66.658C220.746 66.046 220.01 65.74 219.058 65.74C218.378 65.74 217.754 65.8987 217.188 66.216C216.621 66.5107 216.179 66.9753 215.862 67.61C215.544 68.2447 215.386 69.072 215.386 70.092V79H208.926V53.772H215.386V65.808L213.89 64.278C214.592 62.9407 215.556 61.9433 216.78 61.286C218.004 60.606 219.386 60.266 220.928 60.266ZM243.853 79V75.566L243.411 74.716V68.392C243.411 67.372 243.094 66.59 242.459 66.046C241.847 65.4793 240.861 65.196 239.501 65.196C238.617 65.196 237.722 65.3433 236.815 65.638C235.909 65.91 235.138 66.2953 234.503 66.794L232.327 62.408C233.37 61.728 234.617 61.2067 236.067 60.844C237.541 60.4587 239.003 60.266 240.453 60.266C243.445 60.266 245.757 60.9573 247.389 62.34C249.044 63.7 249.871 65.842 249.871 68.766V79H243.853ZM238.413 79.306C236.94 79.306 235.693 79.0567 234.673 78.558C233.653 78.0593 232.871 77.3793 232.327 76.518C231.806 75.6567 231.545 74.6933 231.545 73.628C231.545 72.4947 231.829 71.52 232.395 70.704C232.985 69.8653 233.88 69.2307 235.081 68.8C236.283 68.3467 237.835 68.12 239.739 68.12H244.091V71.486H240.623C239.581 71.486 238.844 71.656 238.413 71.996C238.005 72.336 237.801 72.7893 237.801 73.356C237.801 73.9227 238.017 74.376 238.447 74.716C238.878 75.056 239.467 75.226 240.215 75.226C240.918 75.226 241.553 75.056 242.119 74.716C242.709 74.3533 243.139 73.8093 243.411 73.084L244.295 75.464C243.955 76.7333 243.287 77.6967 242.289 78.354C241.315 78.9887 240.023 79.306 238.413 79.306ZM253.949 79V60.572H260.103V65.944L259.185 64.414C259.729 63.0313 260.613 62 261.837 61.32C263.061 60.6173 264.546 60.266 266.291 60.266V66.08C265.996 66.0347 265.736 66.012 265.509 66.012C265.305 65.9893 265.078 65.978 264.829 65.978C263.514 65.978 262.449 66.3407 261.633 67.066C260.817 67.7687 260.409 68.9247 260.409 70.534V79H253.949ZM277.801 85.902C276.033 85.902 274.344 85.698 272.735 85.29C271.148 84.882 269.788 84.2813 268.655 83.488L271.001 78.966C271.771 79.578 272.723 80.054 273.857 80.394C275.013 80.7567 276.135 80.938 277.223 80.938C278.968 80.938 280.226 80.5527 280.997 79.782C281.767 79.034 282.153 77.9347 282.153 76.484V74.308L282.493 69.14L282.459 63.938V60.572H288.613V75.634C288.613 79.1247 287.672 81.7087 285.791 83.386C283.909 85.0633 281.246 85.902 277.801 85.902ZM276.679 78.048C275.047 78.048 273.539 77.6853 272.157 76.96C270.797 76.212 269.697 75.1807 268.859 73.866C268.043 72.5287 267.635 70.9533 267.635 69.14C267.635 67.3267 268.043 65.7627 268.859 64.448C269.697 63.1107 270.797 62.0793 272.157 61.354C273.539 60.6287 275.047 60.266 276.679 60.266C278.243 60.266 279.58 60.5833 280.691 61.218C281.801 61.83 282.64 62.7933 283.207 64.108C283.796 65.4227 284.091 67.1 284.091 69.14C284.091 71.18 283.796 72.8573 283.207 74.172C282.64 75.4867 281.801 76.4613 280.691 77.096C279.58 77.7307 278.243 78.048 276.679 78.048ZM278.209 72.914C278.979 72.914 279.659 72.7553 280.249 72.438C280.861 72.1207 281.337 71.6787 281.677 71.112C282.039 70.5453 282.221 69.888 282.221 69.14C282.221 68.392 282.039 67.7347 281.677 67.168C281.337 66.6013 280.861 66.1707 280.249 65.876C279.659 65.5587 278.979 65.4 278.209 65.4C277.438 65.4 276.747 65.5587 276.135 65.876C275.523 66.1707 275.035 66.6013 274.673 67.168C274.333 67.7347 274.163 68.392 274.163 69.14C274.163 69.888 274.333 70.5453 274.673 71.112C275.035 71.6787 275.523 72.1207 276.135 72.438C276.747 72.7553 277.438 72.914 278.209 72.914ZM302.419 79.306C300.243 79.306 298.339 78.898 296.707 78.082C295.098 77.2433 293.84 76.11 292.933 74.682C292.049 73.2313 291.607 71.588 291.607 69.752C291.607 67.916 292.038 66.284 292.899 64.856C293.783 63.4053 294.996 62.2833 296.537 61.49C298.079 60.674 299.813 60.266 301.739 60.266C303.553 60.266 305.207 60.64 306.703 61.388C308.199 62.1133 309.389 63.19 310.273 64.618C311.157 66.046 311.599 67.78 311.599 69.82C311.599 70.0467 311.588 70.3073 311.565 70.602C311.543 70.8967 311.52 71.1687 311.497 71.418H296.911V68.018H308.063L305.615 68.97C305.638 68.1313 305.479 67.406 305.139 66.794C304.822 66.182 304.369 65.706 303.779 65.366C303.213 65.026 302.544 64.856 301.773 64.856C301.003 64.856 300.323 65.026 299.733 65.366C299.167 65.706 298.725 66.1933 298.407 66.828C298.09 67.44 297.931 68.1653 297.931 69.004V69.99C297.931 70.8967 298.113 71.6787 298.475 72.336C298.861 72.9933 299.405 73.5033 300.107 73.866C300.81 74.206 301.649 74.376 302.623 74.376C303.53 74.376 304.301 74.2513 304.935 74.002C305.593 73.73 306.239 73.322 306.873 72.778L310.273 76.314C309.389 77.2887 308.301 78.0367 307.009 78.558C305.717 79.0567 304.187 79.306 302.419 79.306ZM314.578 79V60.572H320.732V65.944L319.814 64.414C320.358 63.0313 321.242 62 322.466 61.32C323.69 60.6173 325.175 60.266 326.92 60.266V66.08C326.625 66.0347 326.365 66.012 326.138 66.012C325.934 65.9893 325.707 65.978 325.458 65.978C324.143 65.978 323.078 66.3407 322.262 67.066C321.446 67.7687 321.038 68.9247 321.038 70.534V79H314.578ZM107.905 114V88.772H114.365V114H107.905ZM117.849 101.148L120.399 92.308L121.317 95.98C120.184 95.98 119.255 95.6513 118.529 94.994C117.804 94.314 117.441 93.4073 117.441 92.274C117.441 91.118 117.804 90.2 118.529 89.52C119.277 88.8173 120.207 88.466 121.317 88.466C122.428 88.466 123.346 88.8173 124.071 89.52C124.797 90.2 125.159 91.118 125.159 92.274C125.159 92.5913 125.137 92.92 125.091 93.26C125.046 93.5773 124.944 93.9627 124.785 94.416C124.649 94.8467 124.411 95.436 124.071 96.184L121.895 101.148H117.849ZM124.347 114L134.853 90.2H141.483L152.023 114H145.019L136.791 93.498H139.443L131.215 114H124.347ZM130.093 109.376L131.827 104.412H143.455L145.189 109.376H130.093ZM165.22 114.306C163.656 114.306 162.318 113.966 161.208 113.286C160.097 112.583 159.247 111.541 158.658 110.158C158.091 108.753 157.808 106.962 157.808 104.786C157.808 102.587 158.08 100.797 158.624 99.414C159.168 98.0087 159.984 96.966 161.072 96.286C162.182 95.606 163.565 95.266 165.22 95.266C166.897 95.266 168.416 95.6627 169.776 96.456C171.158 97.2267 172.246 98.326 173.04 99.754C173.856 101.159 174.264 102.837 174.264 104.786C174.264 106.735 173.856 108.424 173.04 109.852C172.246 111.28 171.158 112.379 169.776 113.15C168.416 113.921 166.897 114.306 165.22 114.306ZM153.626 120.596V95.572H159.78V98.7L159.746 104.786L160.086 110.906V120.596H153.626ZM163.86 109.172C164.585 109.172 165.231 109.002 165.798 108.662C166.387 108.322 166.852 107.823 167.192 107.166C167.554 106.509 167.736 105.715 167.736 104.786C167.736 103.857 167.554 103.063 167.192 102.406C166.852 101.749 166.387 101.25 165.798 100.91C165.231 100.57 164.585 100.4 163.86 100.4C163.134 100.4 162.477 100.57 161.888 100.91C161.321 101.25 160.856 101.749 160.494 102.406C160.154 103.063 159.984 103.857 159.984 104.786C159.984 105.715 160.154 106.509 160.494 107.166C160.856 107.823 161.321 108.322 161.888 108.662C162.477 109.002 163.134 109.172 163.86 109.172ZM188.86 114.306C187.296 114.306 185.959 113.966 184.848 113.286C183.738 112.583 182.888 111.541 182.298 110.158C181.732 108.753 181.448 106.962 181.448 104.786C181.448 102.587 181.72 100.797 182.264 99.414C182.808 98.0087 183.624 96.966 184.712 96.286C185.823 95.606 187.206 95.266 188.86 95.266C190.538 95.266 192.056 95.6627 193.416 96.456C194.799 97.2267 195.887 98.326 196.68 99.754C197.496 101.159 197.904 102.837 197.904 104.786C197.904 106.735 197.496 108.424 196.68 109.852C195.887 111.28 194.799 112.379 193.416 113.15C192.056 113.921 190.538 114.306 188.86 114.306ZM177.266 120.596V95.572H183.42V98.7L183.386 104.786L183.726 110.906V120.596H177.266ZM187.5 109.172C188.226 109.172 188.872 109.002 189.438 108.662C190.028 108.322 190.492 107.823 190.832 107.166C191.195 106.509 191.376 105.715 191.376 104.786C191.376 103.857 191.195 103.063 190.832 102.406C190.492 101.749 190.028 101.25 189.438 100.91C188.872 100.57 188.226 100.4 187.5 100.4C186.775 100.4 186.118 100.57 185.528 100.91C184.962 101.25 184.497 101.749 184.134 102.406C183.794 103.063 183.624 103.857 183.624 104.786C183.624 105.715 183.794 106.509 184.134 107.166C184.497 107.823 184.962 108.322 185.528 108.662C186.118 109.002 186.775 109.172 187.5 109.172ZM200.907 114V88.772H207.367V114H200.907ZM211.565 114V95.572H218.025V114H211.565ZM214.795 93.532C213.617 93.532 212.665 93.2033 211.939 92.546C211.214 91.8887 210.851 91.0727 210.851 90.098C210.851 89.1233 211.214 88.3073 211.939 87.65C212.665 86.9927 213.617 86.664 214.795 86.664C215.974 86.664 216.926 86.9813 217.651 87.616C218.377 88.228 218.739 89.0213 218.739 89.996C218.739 91.016 218.377 91.866 217.651 92.546C216.949 93.2033 215.997 93.532 214.795 93.532ZM231.641 114.306C229.601 114.306 227.777 113.898 226.167 113.082C224.581 112.266 223.334 111.144 222.427 109.716C221.521 108.265 221.067 106.611 221.067 104.752C221.067 102.893 221.521 101.25 222.427 99.822C223.334 98.394 224.581 97.2833 226.167 96.49C227.777 95.674 229.601 95.266 231.641 95.266C233.727 95.266 235.529 95.708 237.047 96.592C238.566 97.476 239.643 98.7227 240.277 100.332L235.279 102.882C234.849 102.021 234.316 101.397 233.681 101.012C233.047 100.604 232.355 100.4 231.607 100.4C230.859 100.4 230.179 100.57 229.567 100.91C228.955 101.25 228.468 101.749 228.105 102.406C227.765 103.041 227.595 103.823 227.595 104.752C227.595 105.704 227.765 106.509 228.105 107.166C228.468 107.823 228.955 108.322 229.567 108.662C230.179 109.002 230.859 109.172 231.607 109.172C232.355 109.172 233.047 108.979 233.681 108.594C234.316 108.186 234.849 107.551 235.279 106.69L240.277 109.24C239.643 110.849 238.566 112.096 237.047 112.98C235.529 113.864 233.727 114.306 231.641 114.306ZM253.964 114V110.566L253.522 109.716V103.392C253.522 102.372 253.204 101.59 252.57 101.046C251.958 100.479 250.972 100.196 249.612 100.196C248.728 100.196 247.832 100.343 246.926 100.638C246.019 100.91 245.248 101.295 244.614 101.794L242.438 97.408C243.48 96.728 244.727 96.2067 246.178 95.844C247.651 95.4587 249.113 95.266 250.564 95.266C253.556 95.266 255.868 95.9573 257.5 97.34C259.154 98.7 259.982 100.842 259.982 103.766V114H253.964ZM248.524 114.306C247.05 114.306 245.804 114.057 244.784 113.558C243.764 113.059 242.982 112.379 242.438 111.518C241.916 110.657 241.656 109.693 241.656 108.628C241.656 107.495 241.939 106.52 242.506 105.704C243.095 104.865 243.99 104.231 245.192 103.8C246.393 103.347 247.946 103.12 249.85 103.12H254.202V106.486H250.734C249.691 106.486 248.954 106.656 248.524 106.996C248.116 107.336 247.912 107.789 247.912 108.356C247.912 108.923 248.127 109.376 248.558 109.716C248.988 110.056 249.578 110.226 250.326 110.226C251.028 110.226 251.663 110.056 252.23 109.716C252.819 109.353 253.25 108.809 253.522 108.084L254.406 110.464C254.066 111.733 253.397 112.697 252.4 113.354C251.425 113.989 250.133 114.306 248.524 114.306ZM272.287 114.306C269.93 114.306 268.094 113.728 266.779 112.572C265.465 111.393 264.807 109.625 264.807 107.268V91.458H271.267V107.2C271.267 107.857 271.449 108.379 271.811 108.764C272.174 109.127 272.639 109.308 273.205 109.308C273.976 109.308 274.633 109.115 275.177 108.73L276.775 113.252C276.231 113.615 275.563 113.875 274.769 114.034C273.976 114.215 273.149 114.306 272.287 114.306ZM262.121 101.08V96.252H275.483V101.08H262.121ZM279.266 114V95.572H285.726V114H279.266ZM282.496 93.532C281.318 93.532 280.366 93.2033 279.64 92.546C278.915 91.8887 278.552 91.0727 278.552 90.098C278.552 89.1233 278.915 88.3073 279.64 87.65C280.366 86.9927 281.318 86.664 282.496 86.664C283.675 86.664 284.627 86.9813 285.352 87.616C286.078 88.228 286.44 89.0213 286.44 89.996C286.44 91.016 286.078 91.866 285.352 92.546C284.65 93.2033 283.698 93.532 282.496 93.532ZM299.173 114.306C297.155 114.306 295.365 113.898 293.801 113.082C292.237 112.266 291.001 111.144 290.095 109.716C289.211 108.265 288.769 106.611 288.769 104.752C288.769 102.893 289.211 101.25 290.095 99.822C291.001 98.394 292.237 97.2833 293.801 96.49C295.365 95.674 297.155 95.266 299.173 95.266C301.19 95.266 302.981 95.674 304.545 96.49C306.131 97.2833 307.367 98.394 308.251 99.822C309.135 101.25 309.577 102.893 309.577 104.752C309.577 106.611 309.135 108.265 308.251 109.716C307.367 111.144 306.131 112.266 304.545 113.082C302.981 113.898 301.19 114.306 299.173 114.306ZM299.173 109.172C299.921 109.172 300.578 109.002 301.145 108.662C301.734 108.322 302.199 107.823 302.539 107.166C302.879 106.486 303.049 105.681 303.049 104.752C303.049 103.823 302.879 103.041 302.539 102.406C302.199 101.749 301.734 101.25 301.145 100.91C300.578 100.57 299.921 100.4 299.173 100.4C298.447 100.4 297.79 100.57 297.201 100.91C296.634 101.25 296.169 101.749 295.807 102.406C295.467 103.041 295.297 103.823 295.297 104.752C295.297 105.681 295.467 106.486 295.807 107.166C296.169 107.823 296.634 108.322 297.201 108.662C297.79 109.002 298.447 109.172 299.173 109.172ZM324.571 95.266C325.999 95.266 327.291 95.5607 328.447 96.15C329.603 96.7167 330.51 97.6007 331.167 98.802C331.847 100.003 332.187 101.556 332.187 103.46V114H325.727V104.514C325.727 103.199 325.455 102.247 324.911 101.658C324.39 101.046 323.653 100.74 322.701 100.74C322.021 100.74 321.398 100.899 320.831 101.216C320.264 101.511 319.822 101.975 319.505 102.61C319.188 103.245 319.029 104.072 319.029 105.092V114H312.569V95.572H318.723V100.808L317.533 99.278C318.236 97.9407 319.199 96.9433 320.423 96.286C321.647 95.606 323.03 95.266 324.571 95.266ZM128.439 130.266C129.867 130.266 131.137 130.561 132.247 131.15C133.381 131.717 134.265 132.601 134.899 133.802C135.557 135.003 135.885 136.556 135.885 138.46V149H129.425V139.514C129.425 138.199 129.176 137.247 128.677 136.658C128.179 136.046 127.499 135.74 126.637 135.74C126.025 135.74 125.47 135.887 124.971 136.182C124.473 136.477 124.087 136.93 123.815 137.542C123.543 138.131 123.407 138.902 123.407 139.854V149H116.947V139.514C116.947 138.199 116.698 137.247 116.199 136.658C115.723 136.046 115.043 135.74 114.159 135.74C113.525 135.74 112.958 135.887 112.459 136.182C111.983 136.477 111.598 136.93 111.303 137.542C111.031 138.131 110.895 138.902 110.895 139.854V149H104.435V130.572H110.589V135.706L109.365 134.244C110.045 132.929 110.975 131.943 112.153 131.286C113.332 130.606 114.647 130.266 116.097 130.266C117.752 130.266 119.203 130.697 120.449 131.558C121.719 132.397 122.569 133.711 122.999 135.502L120.891 135.06C121.549 133.564 122.535 132.397 123.849 131.558C125.187 130.697 126.717 130.266 128.439 130.266ZM151.217 149V145.566L150.775 144.716V138.392C150.775 137.372 150.457 136.59 149.823 136.046C149.211 135.479 148.225 135.196 146.865 135.196C145.981 135.196 145.085 135.343 144.179 135.638C143.272 135.91 142.501 136.295 141.867 136.794L139.691 132.408C140.733 131.728 141.98 131.207 143.431 130.844C144.904 130.459 146.366 130.266 147.817 130.266C150.809 130.266 153.121 130.957 154.753 132.34C156.407 133.7 157.235 135.842 157.235 138.766V149H151.217ZM145.777 149.306C144.303 149.306 143.057 149.057 142.037 148.558C141.017 148.059 140.235 147.379 139.691 146.518C139.169 145.657 138.909 144.693 138.909 143.628C138.909 142.495 139.192 141.52 139.759 140.704C140.348 139.865 141.243 139.231 142.445 138.8C143.646 138.347 145.199 138.12 147.103 138.12H151.455V141.486H147.987C146.944 141.486 146.207 141.656 145.777 141.996C145.369 142.336 145.165 142.789 145.165 143.356C145.165 143.923 145.38 144.376 145.811 144.716C146.241 145.056 146.831 145.226 147.579 145.226C148.281 145.226 148.916 145.056 149.483 144.716C150.072 144.353 150.503 143.809 150.775 143.084L151.659 145.464C151.319 146.733 150.65 147.697 149.653 148.354C148.678 148.989 147.386 149.306 145.777 149.306ZM161.312 149V130.572H167.772V149H161.312ZM164.542 128.532C163.364 128.532 162.412 128.203 161.686 127.546C160.961 126.889 160.598 126.073 160.598 125.098C160.598 124.123 160.961 123.307 161.686 122.65C162.412 121.993 163.364 121.664 164.542 121.664C165.721 121.664 166.673 121.981 167.398 122.616C168.124 123.228 168.486 124.021 168.486 124.996C168.486 126.016 168.124 126.866 167.398 127.546C166.696 128.203 165.744 128.532 164.542 128.532ZM183.972 130.266C185.4 130.266 186.692 130.561 187.848 131.15C189.004 131.717 189.911 132.601 190.568 133.802C191.248 135.003 191.588 136.556 191.588 138.46V149H185.128V139.514C185.128 138.199 184.856 137.247 184.312 136.658C183.791 136.046 183.054 135.74 182.102 135.74C181.422 135.74 180.799 135.899 180.232 136.216C179.666 136.511 179.224 136.975 178.906 137.61C178.589 138.245 178.43 139.072 178.43 140.092V149H171.97V130.572H178.124V135.808L176.934 134.278C177.637 132.941 178.6 131.943 179.824 131.286C181.048 130.606 182.431 130.266 183.972 130.266ZM203.872 149.306C201.515 149.306 199.679 148.728 198.364 147.572C197.05 146.393 196.392 144.625 196.392 142.268V126.458H202.852V142.2C202.852 142.857 203.034 143.379 203.396 143.764C203.759 144.127 204.224 144.308 204.79 144.308C205.561 144.308 206.218 144.115 206.762 143.73L208.36 148.252C207.816 148.615 207.148 148.875 206.354 149.034C205.561 149.215 204.734 149.306 203.872 149.306ZM193.706 136.08V131.252H207.068V136.08H193.706ZM219.976 149.306C217.8 149.306 215.896 148.898 214.264 148.082C212.655 147.243 211.397 146.11 210.49 144.682C209.606 143.231 209.164 141.588 209.164 139.752C209.164 137.916 209.595 136.284 210.456 134.856C211.34 133.405 212.553 132.283 214.094 131.49C215.635 130.674 217.369 130.266 219.296 130.266C221.109 130.266 222.764 130.64 224.26 131.388C225.756 132.113 226.946 133.19 227.83 134.618C228.714 136.046 229.156 137.78 229.156 139.82C229.156 140.047 229.145 140.307 229.122 140.602C229.099 140.897 229.077 141.169 229.054 141.418H214.468V138.018H225.62L223.172 138.97C223.195 138.131 223.036 137.406 222.696 136.794C222.379 136.182 221.925 135.706 221.336 135.366C220.769 135.026 220.101 134.856 219.33 134.856C218.559 134.856 217.879 135.026 217.29 135.366C216.723 135.706 216.281 136.193 215.964 136.828C215.647 137.44 215.488 138.165 215.488 139.004V139.99C215.488 140.897 215.669 141.679 216.032 142.336C216.417 142.993 216.961 143.503 217.664 143.866C218.367 144.206 219.205 144.376 220.18 144.376C221.087 144.376 221.857 144.251 222.492 144.002C223.149 143.73 223.795 143.322 224.43 142.778L227.83 146.314C226.946 147.289 225.858 148.037 224.566 148.558C223.274 149.057 221.744 149.306 219.976 149.306ZM244.137 130.266C245.565 130.266 246.857 130.561 248.013 131.15C249.169 131.717 250.075 132.601 250.733 133.802C251.413 135.003 251.753 136.556 251.753 138.46V149H245.293V139.514C245.293 138.199 245.021 137.247 244.477 136.658C243.955 136.046 243.219 135.74 242.267 135.74C241.587 135.74 240.963 135.899 240.397 136.216C239.83 136.511 239.388 136.975 239.071 137.61C238.753 138.245 238.595 139.072 238.595 140.092V149H232.135V130.572H238.289V135.808L237.099 134.278C237.801 132.941 238.765 131.943 239.989 131.286C241.213 130.606 242.595 130.266 244.137 130.266ZM267.81 130.266C269.238 130.266 270.53 130.561 271.686 131.15C272.842 131.717 273.749 132.601 274.406 133.802C275.086 135.003 275.426 136.556 275.426 138.46V149H268.966V139.514C268.966 138.199 268.694 137.247 268.15 136.658C267.629 136.046 266.892 135.74 265.94 135.74C265.26 135.74 264.637 135.899 264.07 136.216C263.504 136.511 263.062 136.975 262.744 137.61C262.427 138.245 262.268 139.072 262.268 140.092V149H255.808V130.572H261.962V135.808L260.772 134.278C261.475 132.941 262.438 131.943 263.662 131.286C264.886 130.606 266.269 130.266 267.81 130.266ZM290.736 149V145.566L290.294 144.716V138.392C290.294 137.372 289.977 136.59 289.342 136.046C288.73 135.479 287.744 135.196 286.384 135.196C285.5 135.196 284.605 135.343 283.698 135.638C282.792 135.91 282.021 136.295 281.386 136.794L279.21 132.408C280.253 131.728 281.5 131.207 282.95 130.844C284.424 130.459 285.886 130.266 287.336 130.266C290.328 130.266 292.64 130.957 294.272 132.34C295.927 133.7 296.754 135.842 296.754 138.766V149H290.736ZM285.296 149.306C283.823 149.306 282.576 149.057 281.556 148.558C280.536 148.059 279.754 147.379 279.21 146.518C278.689 145.657 278.428 144.693 278.428 143.628C278.428 142.495 278.712 141.52 279.278 140.704C279.868 139.865 280.763 139.231 281.964 138.8C283.166 138.347 284.718 138.12 286.622 138.12H290.974V141.486H287.506C286.464 141.486 285.727 141.656 285.296 141.996C284.888 142.336 284.684 142.789 284.684 143.356C284.684 143.923 284.9 144.376 285.33 144.716C285.761 145.056 286.35 145.226 287.098 145.226C287.801 145.226 288.436 145.056 289.002 144.716C289.592 144.353 290.022 143.809 290.294 143.084L291.178 145.464C290.838 146.733 290.17 147.697 289.172 148.354C288.198 148.989 286.906 149.306 285.296 149.306ZM312.834 130.266C314.262 130.266 315.554 130.561 316.71 131.15C317.866 131.717 318.772 132.601 319.43 133.802C320.11 135.003 320.45 136.556 320.45 138.46V149H313.99V139.514C313.99 138.199 313.718 137.247 313.174 136.658C312.652 136.046 311.916 135.74 310.964 135.74C310.284 135.74 309.66 135.899 309.094 136.216C308.527 136.511 308.085 136.975 307.768 137.61C307.45 138.245 307.292 139.072 307.292 140.092V149H300.832V130.572H306.986V135.808L305.796 134.278C306.498 132.941 307.462 131.943 308.686 131.286C309.91 130.606 311.292 130.266 312.834 130.266ZM332.734 149.306C330.376 149.306 328.54 148.728 327.226 147.572C325.911 146.393 325.254 144.625 325.254 142.268V126.458H331.714V142.2C331.714 142.857 331.895 143.379 332.258 143.764C332.62 144.127 333.085 144.308 333.652 144.308C334.422 144.308 335.08 144.115 335.624 143.73L337.222 148.252C336.678 148.615 336.009 148.875 335.216 149.034C334.422 149.215 333.595 149.306 332.734 149.306ZM322.568 136.08V131.252H335.93V136.08H322.568Z" fill="white"/>
<path d="M100.922 195.712H109.802V197.224H100.922V195.712ZM101.114 203.464H111.218V205H99.3376V188.2H110.858V189.736H101.114V203.464ZM121.464 192.28C122.488 192.28 123.384 192.48 124.152 192.88C124.936 193.264 125.544 193.856 125.976 194.656C126.424 195.456 126.648 196.464 126.648 197.68V205H124.944V197.848C124.944 196.52 124.608 195.52 123.936 194.848C123.28 194.16 122.352 193.816 121.152 193.816C120.256 193.816 119.472 194 118.8 194.368C118.144 194.72 117.632 195.24 117.264 195.928C116.912 196.6 116.736 197.416 116.736 198.376V205H115.032V192.4H116.664V195.856L116.4 195.208C116.8 194.296 117.44 193.584 118.32 193.072C119.2 192.544 120.248 192.28 121.464 192.28ZM144.66 205.144C142.516 205.144 140.828 204.528 139.596 203.296C138.364 202.064 137.748 200.24 137.748 197.824V188.2H139.524V197.752C139.524 199.736 139.972 201.2 140.868 202.144C141.764 203.088 143.028 203.56 144.66 203.56C146.308 203.56 147.58 203.088 148.476 202.144C149.372 201.2 149.82 199.736 149.82 197.752V188.2H151.548V197.824C151.548 200.24 150.932 202.064 149.7 203.296C148.484 204.528 146.804 205.144 144.66 205.144ZM160.524 205.12C159.34 205.12 158.428 204.8 157.788 204.16C157.148 203.52 156.828 202.616 156.828 201.448V189.616H158.532V201.352C158.532 202.088 158.716 202.656 159.084 203.056C159.468 203.456 160.012 203.656 160.716 203.656C161.468 203.656 162.092 203.44 162.588 203.008L163.188 204.232C162.852 204.536 162.444 204.76 161.964 204.904C161.5 205.048 161.02 205.12 160.524 205.12ZM154.572 193.816V192.4H162.372V193.816H154.572ZM166.29 205V192.4H167.994V205H166.29ZM167.154 189.616C166.802 189.616 166.506 189.496 166.266 189.256C166.026 189.016 165.906 188.728 165.906 188.392C165.906 188.056 166.026 187.776 166.266 187.552C166.506 187.312 166.802 187.192 167.154 187.192C167.506 187.192 167.802 187.304 168.042 187.528C168.282 187.752 168.402 188.032 168.402 188.368C168.402 188.72 168.282 189.016 168.042 189.256C167.818 189.496 167.522 189.616 167.154 189.616ZM172.735 205V187.192H174.439V205H172.735ZM179.181 205V192.4H180.885V205H179.181ZM180.045 189.616C179.693 189.616 179.397 189.496 179.157 189.256C178.917 189.016 178.797 188.728 178.797 188.392C178.797 188.056 178.917 187.776 179.157 187.552C179.397 187.312 179.693 187.192 180.045 187.192C180.397 187.192 180.693 187.304 180.933 187.528C181.173 187.752 181.293 188.032 181.293 188.368C181.293 188.72 181.173 189.016 180.933 189.256C180.709 189.496 180.413 189.616 180.045 189.616ZM189.01 205.12C187.97 205.12 186.986 204.976 186.058 204.688C185.13 204.384 184.402 204.008 183.874 203.56L184.642 202.216C185.154 202.6 185.81 202.936 186.61 203.224C187.41 203.496 188.25 203.632 189.13 203.632C190.33 203.632 191.194 203.448 191.722 203.08C192.25 202.696 192.514 202.192 192.514 201.568C192.514 201.104 192.362 200.744 192.058 200.488C191.77 200.216 191.386 200.016 190.906 199.888C190.426 199.744 189.89 199.624 189.298 199.528C188.706 199.432 188.114 199.32 187.522 199.192C186.946 199.064 186.418 198.88 185.938 198.64C185.458 198.384 185.066 198.04 184.762 197.608C184.474 197.176 184.33 196.6 184.33 195.88C184.33 195.192 184.522 194.576 184.906 194.032C185.29 193.488 185.85 193.064 186.586 192.76C187.338 192.44 188.25 192.28 189.322 192.28C190.138 192.28 190.954 192.392 191.77 192.616C192.586 192.824 193.258 193.104 193.786 193.456L193.042 194.824C192.482 194.44 191.882 194.168 191.242 194.008C190.602 193.832 189.962 193.744 189.322 193.744C188.186 193.744 187.346 193.944 186.802 194.344C186.274 194.728 186.01 195.224 186.01 195.832C186.01 196.312 186.154 196.688 186.442 196.96C186.746 197.232 187.138 197.448 187.618 197.608C188.114 197.752 188.65 197.872 189.226 197.968C189.818 198.064 190.402 198.184 190.978 198.328C191.57 198.456 192.106 198.64 192.586 198.88C193.082 199.104 193.474 199.432 193.762 199.864C194.066 200.28 194.218 200.832 194.218 201.52C194.218 202.256 194.01 202.896 193.594 203.44C193.194 203.968 192.602 204.384 191.818 204.688C191.05 204.976 190.114 205.12 189.01 205.12ZM205.241 205V202.216L205.169 201.76V197.104C205.169 196.032 204.865 195.208 204.257 194.632C203.665 194.056 202.777 193.768 201.593 193.768C200.777 193.768 200.001 193.904 199.265 194.176C198.529 194.448 197.905 194.808 197.393 195.256L196.625 193.984C197.265 193.44 198.033 193.024 198.929 192.736C199.825 192.432 200.769 192.28 201.761 192.28C203.393 192.28 204.649 192.688 205.529 193.504C206.425 194.304 206.873 195.528 206.873 197.176V205H205.241ZM200.897 205.12C199.953 205.12 199.129 204.968 198.425 204.664C197.737 204.344 197.209 203.912 196.841 203.368C196.473 202.808 196.289 202.168 196.289 201.448C196.289 200.792 196.441 200.2 196.745 199.672C197.065 199.128 197.577 198.696 198.281 198.376C199.001 198.04 199.961 197.872 201.161 197.872H205.505V199.144H201.209C199.993 199.144 199.145 199.36 198.665 199.792C198.201 200.224 197.969 200.76 197.969 201.4C197.969 202.12 198.249 202.696 198.809 203.128C199.369 203.56 200.153 203.776 201.161 203.776C202.121 203.776 202.945 203.56 203.633 203.128C204.337 202.68 204.849 202.04 205.169 201.208L205.553 202.384C205.233 203.216 204.673 203.88 203.873 204.376C203.089 204.872 202.097 205.12 200.897 205.12ZM217.933 192.28C218.957 192.28 219.853 192.48 220.621 192.88C221.405 193.264 222.013 193.856 222.445 194.656C222.893 195.456 223.117 196.464 223.117 197.68V205H221.413V197.848C221.413 196.52 221.077 195.52 220.405 194.848C219.749 194.16 218.821 193.816 217.621 193.816C216.725 193.816 215.941 194 215.269 194.368C214.613 194.72 214.101 195.24 213.733 195.928C213.381 196.6 213.205 197.416 213.205 198.376V205H211.501V192.4H213.133V195.856L212.869 195.208C213.269 194.296 213.909 193.584 214.789 193.072C215.669 192.544 216.717 192.28 217.933 192.28ZM231.704 205.12C230.52 205.12 229.608 204.8 228.968 204.16C228.328 203.52 228.008 202.616 228.008 201.448V189.616H229.712V201.352C229.712 202.088 229.896 202.656 230.264 203.056C230.648 203.456 231.192 203.656 231.896 203.656C232.648 203.656 233.272 203.44 233.768 203.008L234.368 204.232C234.032 204.536 233.624 204.76 233.144 204.904C232.68 205.048 232.2 205.12 231.704 205.12ZM225.752 193.816V192.4H233.552V193.816H225.752ZM251.503 205.288C250.191 205.288 248.967 205.072 247.831 204.64C246.711 204.208 245.735 203.6 244.903 202.816C244.087 202.032 243.447 201.112 242.983 200.056C242.535 199 242.311 197.848 242.311 196.6C242.311 195.352 242.535 194.2 242.983 193.144C243.447 192.088 244.095 191.168 244.927 190.384C245.759 189.6 246.735 188.992 247.855 188.56C248.975 188.128 250.191 187.912 251.503 187.912C252.831 187.912 254.047 188.128 255.151 188.56C256.271 188.992 257.239 189.6 258.055 190.384C258.887 191.152 259.535 192.064 259.999 193.12C260.463 194.176 260.695 195.336 260.695 196.6C260.695 197.848 260.463 199.008 259.999 200.08C259.535 201.136 258.887 202.056 258.055 202.84C257.239 203.608 256.271 204.208 255.151 204.64C254.047 205.072 252.831 205.288 251.503 205.288ZM256.999 208.864C256.343 208.864 255.719 208.792 255.127 208.648C254.551 208.504 253.975 208.272 253.399 207.952C252.839 207.632 252.247 207.2 251.623 206.656C251.015 206.112 250.351 205.44 249.631 204.64L253.711 203.608C254.143 204.2 254.543 204.672 254.911 205.024C255.279 205.376 255.631 205.624 255.967 205.768C256.319 205.912 256.687 205.984 257.071 205.984C258.095 205.984 259.007 205.568 259.807 204.736L261.535 206.8C260.399 208.176 258.887 208.864 256.999 208.864ZM251.503 201.976C252.255 201.976 252.943 201.848 253.567 201.592C254.207 201.336 254.767 200.968 255.247 200.488C255.727 200.008 256.095 199.44 256.351 198.784C256.623 198.112 256.759 197.384 256.759 196.6C256.759 195.8 256.623 195.072 256.351 194.416C256.095 193.76 255.727 193.192 255.247 192.712C254.767 192.232 254.207 191.864 253.567 191.608C252.943 191.352 252.255 191.224 251.503 191.224C250.751 191.224 250.055 191.352 249.415 191.608C248.775 191.864 248.215 192.232 247.735 192.712C247.271 193.192 246.903 193.76 246.631 194.416C246.375 195.072 246.247 195.8 246.247 196.6C246.247 197.384 246.375 198.112 246.631 198.784C246.903 199.44 247.271 200.008 247.735 200.488C248.215 200.968 248.775 201.336 249.415 201.592C250.055 201.848 250.751 201.976 251.503 201.976ZM263.353 205V192.088H266.929V195.736L266.425 194.68C266.809 193.768 267.425 193.08 268.273 192.616C269.121 192.136 270.153 191.896 271.369 191.896V195.352C271.209 195.336 271.065 195.328 270.937 195.328C270.809 195.312 270.673 195.304 270.529 195.304C269.505 195.304 268.673 195.6 268.033 196.192C267.409 196.768 267.097 197.672 267.097 198.904V205H263.353ZM288.79 205.288C287.494 205.288 286.286 205.08 285.166 204.664C284.062 204.232 283.102 203.624 282.286 202.84C281.47 202.056 280.83 201.136 280.366 200.08C279.918 199.024 279.694 197.864 279.694 196.6C279.694 195.336 279.918 194.176 280.366 193.12C280.83 192.064 281.47 191.144 282.286 190.36C283.118 189.576 284.086 188.976 285.19 188.56C286.294 188.128 287.502 187.912 288.814 187.912C290.27 187.912 291.582 188.168 292.75 188.68C293.934 189.176 294.926 189.912 295.726 190.888L293.23 193.192C292.654 192.536 292.014 192.048 291.31 191.728C290.606 191.392 289.838 191.224 289.006 191.224C288.222 191.224 287.502 191.352 286.846 191.608C286.19 191.864 285.622 192.232 285.142 192.712C284.662 193.192 284.286 193.76 284.014 194.416C283.758 195.072 283.63 195.8 283.63 196.6C283.63 197.4 283.758 198.128 284.014 198.784C284.286 199.44 284.662 200.008 285.142 200.488C285.622 200.968 286.19 201.336 286.846 201.592C287.502 201.848 288.222 201.976 289.006 201.976C289.838 201.976 290.606 201.816 291.31 201.496C292.014 201.16 292.654 200.656 293.23 199.984L295.726 202.288C294.926 203.264 293.934 204.008 292.75 204.52C291.582 205.032 290.262 205.288 288.79 205.288ZM303.786 205.192C302.41 205.192 301.186 204.904 300.114 204.328C299.058 203.752 298.218 202.968 297.594 201.976C296.986 200.968 296.682 199.824 296.682 198.544C296.682 197.248 296.986 196.104 297.594 195.112C298.218 194.104 299.058 193.32 300.114 192.76C301.186 192.184 302.41 191.896 303.786 191.896C305.146 191.896 306.362 192.184 307.434 192.76C308.506 193.32 309.346 194.096 309.954 195.088C310.562 196.08 310.866 197.232 310.866 198.544C310.866 199.824 310.562 200.968 309.954 201.976C309.346 202.968 308.506 203.752 307.434 204.328C306.362 204.904 305.146 205.192 303.786 205.192ZM303.786 202.12C304.41 202.12 304.97 201.976 305.466 201.688C305.962 201.4 306.354 200.992 306.642 200.464C306.93 199.92 307.074 199.28 307.074 198.544C307.074 197.792 306.93 197.152 306.642 196.624C306.354 196.096 305.962 195.688 305.466 195.4C304.97 195.112 304.41 194.968 303.786 194.968C303.162 194.968 302.602 195.112 302.106 195.4C301.61 195.688 301.21 196.096 300.906 196.624C300.618 197.152 300.474 197.792 300.474 198.544C300.474 199.28 300.618 199.92 300.906 200.464C301.21 200.992 301.61 201.4 302.106 201.688C302.602 201.976 303.162 202.12 303.786 202.12ZM318.913 205.192C317.697 205.192 316.601 204.92 315.625 204.376C314.649 203.816 313.873 203.04 313.297 202.048C312.737 201.056 312.457 199.888 312.457 198.544C312.457 197.184 312.737 196.008 313.297 195.016C313.873 194.024 314.649 193.256 315.625 192.712C316.601 192.168 317.697 191.896 318.913 191.896C320.001 191.896 320.953 192.136 321.769 192.616C322.585 193.096 323.217 193.824 323.665 194.8C324.113 195.776 324.337 197.024 324.337 198.544C324.337 200.048 324.121 201.296 323.689 202.288C323.257 203.264 322.633 203.992 321.817 204.472C321.017 204.952 320.049 205.192 318.913 205.192ZM319.561 202.12C320.169 202.12 320.721 201.976 321.217 201.688C321.713 201.4 322.105 200.992 322.393 200.464C322.697 199.92 322.849 199.28 322.849 198.544C322.849 197.792 322.697 197.152 322.393 196.624C322.105 196.096 321.713 195.688 321.217 195.4C320.721 195.112 320.169 194.968 319.561 194.968C318.937 194.968 318.377 195.112 317.881 195.4C317.385 195.688 316.985 196.096 316.681 196.624C316.393 197.152 316.249 197.792 316.249 198.544C316.249 199.28 316.393 199.92 316.681 200.464C316.985 200.992 317.385 201.4 317.881 201.688C318.377 201.976 318.937 202.12 319.561 202.12ZM322.945 205V202.36L323.017 198.52L322.777 194.704V187.192H326.521V205H322.945ZM336.394 205.192C334.922 205.192 333.626 204.904 332.506 204.328C331.402 203.752 330.546 202.968 329.938 201.976C329.33 200.968 329.026 199.824 329.026 198.544C329.026 197.248 329.322 196.104 329.914 195.112C330.522 194.104 331.346 193.32 332.386 192.76C333.426 192.184 334.602 191.896 335.914 191.896C337.178 191.896 338.314 192.168 339.322 192.712C340.346 193.24 341.154 194.008 341.746 195.016C342.338 196.008 342.634 197.2 342.634 198.592C342.634 198.736 342.626 198.904 342.61 199.096C342.594 199.272 342.578 199.44 342.562 199.6H332.074V197.416H340.594L339.154 198.064C339.154 197.392 339.018 196.808 338.746 196.312C338.474 195.816 338.098 195.432 337.618 195.16C337.138 194.872 336.578 194.728 335.938 194.728C335.298 194.728 334.73 194.872 334.234 195.16C333.754 195.432 333.378 195.824 333.106 196.336C332.834 196.832 332.698 197.424 332.698 198.112V198.688C332.698 199.392 332.85 200.016 333.154 200.56C333.474 201.088 333.914 201.496 334.474 201.784C335.05 202.056 335.722 202.192 336.49 202.192C337.178 202.192 337.778 202.088 338.29 201.88C338.818 201.672 339.298 201.36 339.73 200.944L341.722 203.104C341.13 203.776 340.386 204.296 339.49 204.664C338.594 205.016 337.562 205.192 336.394 205.192Z" fill="white"/>
<rect x="168.37" y="240.37" width="103.26" height="104.26" rx="51.63" fill="#FF6A00"/>
<rect x="168.37" y="240.37" width="103.26" height="104.26" rx="51.63" stroke="#FFA668" stroke-width="4.74"/>
<path fill-rule="evenodd" clip-rule="evenodd" d="M222.268 275.077L222.268 299.446L217.704 299.446L217.704 275.077L222.268 275.077Z" fill="#FCE28A"/>
<path fill-rule="evenodd" clip-rule="evenodd" d="M217.791 297.738C217.791 296.556 216.492 295.246 214.873 295.246L213.141 295.246L213.141 291.831L214.873 291.831C218.034 291.831 221.254 294.323 221.254 297.738L221.254 299.446L217.791 299.446L217.791 297.738Z" fill="#FCE28A"/>
<path fill-rule="evenodd" clip-rule="evenodd" d="M226.831 295.246L225.1 295.246C223.48 295.246 222.181 296.556 222.181 297.738L222.181 299.446L218.718 299.446L218.718 297.738C218.718 294.323 221.938 291.831 225.1 291.831L226.831 291.831L226.831 295.246Z" fill="#FCE28A"/>
<path d="M208.503 307.073C207.471 307.073 206.588 306.707 205.853 305.974C205.118 305.242 204.751 304.362 204.751 303.334V297.725H208.503V303.334H231.014V297.725H234.766V303.334C234.766 304.362 234.398 305.242 233.664 305.974C232.929 306.707 232.046 307.073 231.014 307.073H208.503Z" fill="white"/>
<mask id="mask0_149_3174" style="mask-type:alpha" maskUnits="userSpaceOnUse" x="224" y="298" width="84" height="84">
<rect x="224" y="298" width="83.5674" height="83.5674" fill="#D9D9D9"/>
</mask>
<g mask="url(#mask0_149_3174)">
</g>
<path d="M94.1879 450.486C91.7062 450.486 89.5842 449.946 87.8218 448.867C86.0594 447.752 84.7107 446.098 83.7756 443.904C82.8764 441.674 82.4268 438.832 82.4268 435.38C82.4268 431.891 82.8584 429.049 83.7216 426.855C84.5848 424.626 85.8796 422.971 87.606 421.892C89.3684 420.813 91.5623 420.274 94.1879 420.274C96.8494 420.274 99.2592 420.903 101.417 422.162C103.611 423.385 105.338 425.129 106.596 427.395C107.891 429.625 108.539 432.286 108.539 435.38C108.539 438.473 107.891 441.152 106.596 443.418C105.338 445.684 103.611 447.428 101.417 448.651C99.2592 449.874 96.8494 450.486 94.1879 450.486ZM75.791 460.466V420.759H85.5559V425.722L85.502 435.38L86.0415 445.091V460.466H75.791ZM92.0299 442.339C93.1808 442.339 94.2059 442.069 95.1051 441.53C96.0402 440.99 96.7775 440.199 97.317 439.156C97.8925 438.113 98.1802 436.854 98.1802 435.38C98.1802 433.905 97.8925 432.646 97.317 431.603C96.7775 430.56 96.0402 429.769 95.1051 429.229C94.2059 428.69 93.1808 428.42 92.0299 428.42C90.879 428.42 89.8359 428.69 88.9008 429.229C88.0016 429.769 87.2643 430.56 86.6889 431.603C86.1494 432.646 85.8796 433.905 85.8796 435.38C85.8796 436.854 86.1494 438.113 86.6889 439.156C87.2643 440.199 88.0016 440.99 88.9008 441.53C89.8359 442.069 90.879 442.339 92.0299 442.339ZM130.528 450V444.551L129.827 443.202V433.168C129.827 431.549 129.323 430.308 128.316 429.445C127.345 428.546 125.781 428.096 123.623 428.096C122.22 428.096 120.799 428.33 119.361 428.798C117.922 429.229 116.699 429.841 115.692 430.632L112.239 423.672C113.894 422.593 115.872 421.766 118.174 421.191C120.512 420.579 122.831 420.274 125.133 420.274C129.881 420.274 133.549 421.371 136.139 423.564C138.765 425.722 140.077 429.121 140.077 433.761V450H130.528ZM121.896 450.486C119.558 450.486 117.58 450.09 115.962 449.299C114.343 448.507 113.102 447.428 112.239 446.062C111.412 444.695 110.998 443.166 110.998 441.476C110.998 439.678 111.448 438.131 112.347 436.836C113.282 435.505 114.703 434.498 116.609 433.815C118.515 433.096 120.979 432.736 124 432.736H130.906V438.077H125.403C123.749 438.077 122.58 438.347 121.896 438.886C121.249 439.426 120.925 440.145 120.925 441.044C120.925 441.943 121.267 442.663 121.95 443.202C122.634 443.742 123.569 444.012 124.756 444.012C125.871 444.012 126.878 443.742 127.777 443.202C128.712 442.627 129.395 441.764 129.827 440.613L131.23 444.389C130.69 446.403 129.629 447.932 128.047 448.975C126.5 449.982 124.45 450.486 121.896 450.486ZM157.176 450.486C154.694 450.486 152.266 450.198 149.893 449.622C147.555 449.047 145.666 448.328 144.228 447.464L147.303 440.451C148.67 441.278 150.27 441.943 152.104 442.447C153.939 442.915 155.737 443.148 157.499 443.148C159.226 443.148 160.413 442.969 161.06 442.609C161.744 442.249 162.085 441.764 162.085 441.152C162.085 440.577 161.762 440.163 161.114 439.911C160.503 439.624 159.675 439.408 158.632 439.264C157.625 439.12 156.51 438.958 155.288 438.778C154.065 438.599 152.824 438.365 151.565 438.077C150.342 437.753 149.209 437.286 148.166 436.674C147.159 436.027 146.35 435.164 145.738 434.085C145.127 433.006 144.821 431.639 144.821 429.985C144.821 428.114 145.361 426.46 146.44 425.021C147.555 423.547 149.173 422.396 151.295 421.568C153.417 420.705 156.007 420.274 159.064 420.274C161.114 420.274 163.182 420.489 165.268 420.921C167.39 421.317 169.171 421.928 170.609 422.755L167.534 429.715C166.096 428.888 164.657 428.33 163.218 428.042C161.78 427.719 160.413 427.557 159.118 427.557C157.392 427.557 156.169 427.755 155.449 428.15C154.766 428.546 154.424 429.031 154.424 429.607C154.424 430.182 154.73 430.632 155.341 430.956C155.953 431.243 156.762 431.477 157.769 431.657C158.812 431.801 159.945 431.963 161.168 432.143C162.391 432.286 163.614 432.52 164.837 432.844C166.096 433.168 167.228 433.653 168.236 434.301C169.279 434.912 170.106 435.757 170.717 436.836C171.329 437.879 171.634 439.228 171.634 440.882C171.634 442.681 171.077 444.299 169.962 445.738C168.883 447.177 167.264 448.328 165.106 449.191C162.984 450.054 160.341 450.486 157.176 450.486ZM186.68 450.486C184.198 450.486 181.77 450.198 179.396 449.622C177.059 449.047 175.17 448.328 173.732 447.464L176.807 440.451C178.174 441.278 179.774 441.943 181.608 442.447C183.443 442.915 185.241 443.148 187.003 443.148C188.73 443.148 189.917 442.969 190.564 442.609C191.247 442.249 191.589 441.764 191.589 441.152C191.589 440.577 191.265 440.163 190.618 439.911C190.007 439.624 189.179 439.408 188.136 439.264C187.129 439.12 186.014 438.958 184.791 438.778C183.569 438.599 182.328 438.365 181.069 438.077C179.846 437.753 178.713 437.286 177.67 436.674C176.663 436.027 175.854 435.164 175.242 434.085C174.631 433.006 174.325 431.639 174.325 429.985C174.325 428.114 174.865 426.46 175.944 425.021C177.059 423.547 178.677 422.396 180.799 421.568C182.921 420.705 185.511 420.274 188.568 420.274C190.618 420.274 192.686 420.489 194.772 420.921C196.894 421.317 198.675 421.928 200.113 422.755L197.038 429.715C195.599 428.888 194.161 428.33 192.722 428.042C191.283 427.719 189.917 427.557 188.622 427.557C186.895 427.557 185.673 427.755 184.953 428.15C184.27 428.546 183.928 429.031 183.928 429.607C183.928 430.182 184.234 430.632 184.845 430.956C185.457 431.243 186.266 431.477 187.273 431.657C188.316 431.801 189.449 431.963 190.672 432.143C191.895 432.286 193.118 432.52 194.341 432.844C195.599 433.168 196.732 433.653 197.739 434.301C198.782 434.912 199.61 435.757 200.221 436.836C200.833 437.879 201.138 439.228 201.138 440.882C201.138 442.681 200.581 444.299 199.466 445.738C198.387 447.177 196.768 448.328 194.61 449.191C192.488 450.054 189.845 450.486 186.68 450.486ZM223.413 450V444.551L222.712 443.202V433.168C222.712 431.549 222.208 430.308 221.201 429.445C220.23 428.546 218.665 428.096 216.507 428.096C215.105 428.096 213.684 428.33 212.245 428.798C210.807 429.229 209.584 429.841 208.577 430.632L205.124 423.672C206.778 422.593 208.756 421.766 211.058 421.191C213.396 420.579 215.716 420.274 218.018 420.274C222.765 420.274 226.434 421.371 229.024 423.564C231.649 425.722 232.962 429.121 232.962 433.761V450H223.413ZM214.781 450.486C212.443 450.486 210.465 450.09 208.846 449.299C207.228 448.507 205.987 447.428 205.124 446.062C204.297 444.695 203.883 443.166 203.883 441.476C203.883 439.678 204.333 438.131 205.232 436.836C206.167 435.505 207.588 434.498 209.494 433.815C211.4 433.096 213.864 432.736 216.885 432.736H223.791V438.077H218.288C216.633 438.077 215.464 438.347 214.781 438.886C214.133 439.426 213.81 440.145 213.81 441.044C213.81 441.943 214.151 442.663 214.835 443.202C215.518 443.742 216.453 444.012 217.64 444.012C218.755 444.012 219.762 443.742 220.661 443.202C221.597 442.627 222.28 441.764 222.712 440.613L224.114 444.389C223.575 446.403 222.514 447.932 220.931 448.975C219.385 449.982 217.335 450.486 214.781 450.486ZM254.098 460.952C251.292 460.952 248.613 460.628 246.059 459.981C243.542 459.333 241.384 458.38 239.585 457.121L243.308 449.946C244.531 450.917 246.041 451.672 247.84 452.212C249.674 452.787 251.454 453.075 253.181 453.075C255.95 453.075 257.946 452.464 259.169 451.241C260.392 450.054 261.003 448.31 261.003 446.008V442.555L261.543 434.354L261.489 426.1V420.759H271.254V444.659C271.254 450.198 269.761 454.298 266.776 456.96C263.791 459.621 259.565 460.952 254.098 460.952ZM252.317 448.489C249.728 448.489 247.336 447.914 245.142 446.763C242.984 445.576 241.24 443.94 239.909 441.854C238.614 439.732 237.967 437.232 237.967 434.354C237.967 431.477 238.614 428.995 239.909 426.909C241.24 424.787 242.984 423.151 245.142 422C247.336 420.849 249.728 420.274 252.317 420.274C254.799 420.274 256.921 420.777 258.684 421.784C260.446 422.755 261.777 424.284 262.676 426.37C263.611 428.456 264.079 431.117 264.079 434.354C264.079 437.591 263.611 440.253 262.676 442.339C261.777 444.425 260.446 445.972 258.684 446.979C256.921 447.986 254.799 448.489 252.317 448.489ZM254.745 440.343C255.968 440.343 257.047 440.091 257.982 439.588C258.953 439.084 259.709 438.383 260.248 437.484C260.824 436.584 261.111 435.541 261.111 434.354C261.111 433.168 260.824 432.125 260.248 431.225C259.709 430.326 258.953 429.643 257.982 429.175C257.047 428.672 255.968 428.42 254.745 428.42C253.522 428.42 252.425 428.672 251.454 429.175C250.483 429.643 249.71 430.326 249.134 431.225C248.595 432.125 248.325 433.168 248.325 434.354C248.325 435.541 248.595 436.584 249.134 437.484C249.71 438.383 250.483 439.084 251.454 439.588C252.425 440.091 253.522 440.343 254.745 440.343ZM293.162 450.486C289.709 450.486 286.688 449.838 284.098 448.543C281.545 447.213 279.548 445.414 278.11 443.148C276.707 440.846 276.006 438.239 276.006 435.326C276.006 432.412 276.689 429.823 278.056 427.557C279.459 425.255 281.383 423.475 283.828 422.216C286.274 420.921 289.026 420.274 292.083 420.274C294.96 420.274 297.586 420.867 299.96 422.054C302.333 423.205 304.222 424.913 305.624 427.179C307.027 429.445 307.728 432.196 307.728 435.433C307.728 435.793 307.71 436.207 307.674 436.674C307.638 437.142 307.602 437.574 307.566 437.969H284.422V432.574H302.118L298.233 434.085C298.269 432.754 298.017 431.603 297.478 430.632C296.974 429.661 296.255 428.906 295.32 428.366C294.421 427.827 293.36 427.557 292.137 427.557C290.914 427.557 289.835 427.827 288.9 428.366C288.001 428.906 287.299 429.679 286.796 430.686C286.292 431.657 286.04 432.808 286.04 434.139V435.703C286.04 437.142 286.328 438.383 286.904 439.426C287.515 440.469 288.378 441.278 289.493 441.854C290.608 442.393 291.939 442.663 293.486 442.663C294.924 442.663 296.147 442.465 297.154 442.069C298.197 441.638 299.222 440.99 300.229 440.127L305.624 445.738C304.222 447.285 302.495 448.471 300.445 449.299C298.395 450.09 295.967 450.486 293.162 450.486ZM289.817 417.252L279.674 409.052H289.925L297.154 417.252H289.817ZM312.454 450V420.759H322.219V429.283L320.763 426.855C321.626 424.661 323.029 423.025 324.971 421.946C326.913 420.831 329.269 420.274 332.038 420.274V429.499C331.571 429.427 331.157 429.391 330.797 429.391C330.474 429.355 330.114 429.337 329.718 429.337C327.632 429.337 325.942 429.913 324.647 431.064C323.352 432.179 322.705 434.013 322.705 436.566V450H312.454ZM351.327 450.486C347.874 450.486 344.853 449.838 342.263 448.543C339.709 447.213 337.713 445.414 336.275 443.148C334.872 440.846 334.171 438.239 334.171 435.326C334.171 432.412 334.854 429.823 336.221 427.557C337.623 425.255 339.548 423.475 341.993 422.216C344.439 420.921 347.191 420.274 350.248 420.274C353.125 420.274 355.751 420.867 358.124 422.054C360.498 423.205 362.386 424.913 363.789 427.179C365.192 429.445 365.893 432.196 365.893 435.433C365.893 435.793 365.875 436.207 365.839 436.674C365.803 437.142 365.767 437.574 365.731 437.969H342.587V432.574H360.282L356.398 434.085C356.434 432.754 356.182 431.603 355.643 430.632C355.139 429.661 354.42 428.906 353.485 428.366C352.586 427.827 351.524 427.557 350.302 427.557C349.079 427.557 348 427.827 347.065 428.366C346.165 428.906 345.464 429.679 344.961 430.686C344.457 431.657 344.205 432.808 344.205 434.139V435.703C344.205 437.142 344.493 438.383 345.068 439.426C345.68 440.469 346.543 441.278 347.658 441.854C348.773 442.393 350.104 442.663 351.65 442.663C353.089 442.663 354.312 442.465 355.319 442.069C356.362 441.638 357.387 440.99 358.394 440.127L363.789 445.738C362.386 447.285 360.66 448.471 358.61 449.299C356.56 450.09 354.132 450.486 351.327 450.486Z" fill="white"/>
<circle cx="220" cy="586" r="91" fill="#EEEEEE" fill-opacity="0.4"/>
<g clip-path="url(#clip1_149_3174)">
<path d="M169.251 537.967H200.348V569.065H169.251V537.967Z" stroke="#181818" stroke-width="6.54167" stroke-linecap="round" stroke-linejoin="round"/>
<path d="M178.137 546.852H191.464V560.179H178.137V546.852Z" stroke="#181818" stroke-width="6.54167" stroke-linecap="round" stroke-linejoin="round"/>
<path d="M169.251 609.047H200.348V640.144H169.251V609.047Z" stroke="#181818" stroke-width="6.54167" stroke-linecap="round" stroke-linejoin="round"/>
<path d="M178.137 617.932H191.464V631.26H178.137V617.932Z" stroke="#181818" stroke-width="6.54167" stroke-linecap="round" stroke-linejoin="round"/>
<path d="M240.331 609.047H253.658V622.374H240.331V609.047Z" stroke="#181818" stroke-width="6.54167" stroke-linecap="round" stroke-linejoin="round"/>
<path d="M240.331 537.967H271.428V569.065H240.331V537.967Z" stroke="#181818" stroke-width="6.54167" stroke-linecap="round" stroke-linejoin="round"/>
<path d="M249.216 546.852H262.543V560.179H249.216V546.852Z" stroke="#181818" stroke-width="6.54167" stroke-linecap="round" stroke-linejoin="round"/>
<path d="M224.782 577.95H209.233" stroke="#181818" stroke-width="6.54167" stroke-linecap="round" stroke-linejoin="round"/>
<path d="M209.233 586.834V600.162H224.782" stroke="#181818" stroke-width="6.54167" stroke-linecap="round" stroke-linejoin="round"/>
<path d="M169.251 577.95H200.348V586.835" stroke="#181818" stroke-width="6.54167" stroke-linecap="round" stroke-linejoin="round"/>
<path d="M266.964 600.162V577.95H271.429" stroke="#181818" stroke-width="6.54167" stroke-linecap="round" stroke-linejoin="round"/>
<path d="M258.079 586.834V600.162" stroke="#181818" stroke-width="6.54167" stroke-linecap="round" stroke-linejoin="round"/>
<path d="M255.88 577.95H235.866V586.835" stroke="#181818" stroke-width="6.54167" stroke-linecap="round" stroke-linejoin="round"/>
<path d="M222.561 555.737V564.622H231.445V546.852" stroke="#181818" stroke-width="6.54167" stroke-linecap="round" stroke-linejoin="round"/>
<path d="M209.233 569.065V555.737" stroke="#181818" stroke-width="6.54167" stroke-linecap="round" stroke-linejoin="round"/>
<path d="M218.119 537.967H231.447" stroke="#181818" stroke-width="6.54167" stroke-linecap="round" stroke-linejoin="round"/>
<path d="M209.233 537.967V546.852H218.118" stroke="#181818" stroke-width="6.54167" stroke-linecap="round" stroke-linejoin="round"/>
<path d="M178.137 591.277H191.464" stroke="#181818" stroke-width="6.54167" stroke-linecap="round" stroke-linejoin="round"/>
<path d="M169.251 586.834V600.162H178.136" stroke="#181818" stroke-width="6.54167" stroke-linecap="round" stroke-linejoin="round"/>
<path d="M222.561 640.144H262.543V609.047H271.428V622.374" stroke="#181818" stroke-width="6.54167" stroke-linecap="round" stroke-linejoin="round"/>
<path d="M209.233 613.489V631.259H222.561" stroke="#181818" stroke-width="6.54167" stroke-linecap="round" stroke-linejoin="round"/>
<path d="M253.659 631.259H231.446V620.153" stroke="#181818" stroke-width="6.54167" stroke-linecap="round" stroke-linejoin="round"/>
<path d="M218.097 622.374V609.047H231.446" stroke="#181818" stroke-width="6.54167" stroke-linecap="round" stroke-linejoin="round"/>
<path d="M191.464 600.162H200.349" stroke="#181818" stroke-width="6.54167" stroke-linecap="round" stroke-linejoin="round"/>
<path d="M224.782 586.834H215.897" stroke="#181818" stroke-width="6.54167" stroke-linecap="round" stroke-linejoin="round"/>
<path d="M235.866 600.162H249.194" stroke="#181818" stroke-width="6.54167" stroke-linecap="round" stroke-linejoin="round"/>
<path d="M244.751 600.162V591.277" stroke="#181818" stroke-width="6.54167" stroke-linecap="round" stroke-linejoin="round"/>
</g>
<path d="M97.5647 760.486C94.3277 760.486 91.4324 759.838 88.8787 758.543C86.3611 757.249 84.3829 755.468 82.9442 753.202C81.5056 750.9 80.7862 748.275 80.7862 745.326C80.7862 742.376 81.5056 739.769 82.9442 737.503C84.3829 735.237 86.3611 733.475 88.8787 732.216C91.4324 730.921 94.3277 730.274 97.5647 730.274C100.874 730.274 103.733 730.975 106.143 732.378C108.553 733.78 110.261 735.758 111.268 738.312L103.337 742.358C102.654 740.992 101.809 740.003 100.802 739.391C99.7946 738.744 98.6976 738.42 97.5107 738.42C96.3238 738.42 95.2448 738.69 94.2737 739.229C93.3026 739.769 92.5294 740.56 91.9539 741.603C91.4144 742.61 91.1446 743.851 91.1446 745.326C91.1446 746.836 91.4144 748.113 91.9539 749.156C92.5294 750.199 93.3026 750.99 94.2737 751.53C95.2448 752.069 96.3238 752.339 97.5107 752.339C98.6976 752.339 99.7946 752.033 100.802 751.422C101.809 750.775 102.654 749.767 103.337 748.401L111.268 752.447C110.261 755.001 108.553 756.979 106.143 758.381C103.733 759.784 100.874 760.486 97.5647 760.486ZM134.067 730.274C136.332 730.274 138.383 730.741 140.217 731.676C142.051 732.575 143.49 733.978 144.533 735.884C145.612 737.791 146.151 740.254 146.151 743.275V760H135.901V744.948C135.901 742.862 135.469 741.351 134.606 740.416C133.779 739.445 132.61 738.959 131.099 738.959C130.02 738.959 129.031 739.211 128.132 739.715C127.233 740.182 126.531 740.92 126.028 741.927C125.524 742.934 125.273 744.247 125.273 745.865V760H115.022V719.969H125.273V739.067L122.899 736.64C124.014 734.518 125.542 732.935 127.485 731.892C129.427 730.813 131.621 730.274 134.067 730.274ZM170.444 760V754.551L169.743 753.202V743.168C169.743 741.549 169.24 740.308 168.232 739.445C167.261 738.546 165.697 738.096 163.539 738.096C162.136 738.096 160.715 738.33 159.277 738.798C157.838 739.229 156.615 739.841 155.608 740.632L152.155 733.672C153.81 732.593 155.788 731.766 158.09 731.191C160.428 730.579 162.748 730.274 165.049 730.274C169.797 730.274 173.466 731.371 176.055 733.564C178.681 735.722 179.994 739.121 179.994 743.761V760H170.444ZM161.812 760.486C159.475 760.486 157.496 760.09 155.878 759.299C154.259 758.507 153.019 757.428 152.155 756.062C151.328 754.695 150.914 753.166 150.914 751.476C150.914 749.678 151.364 748.131 152.263 746.836C153.198 745.505 154.619 744.498 156.525 743.815C158.432 743.096 160.895 742.736 163.916 742.736H170.822V748.077H165.319C163.665 748.077 162.496 748.347 161.812 748.886C161.165 749.426 160.841 750.145 160.841 751.044C160.841 751.943 161.183 752.663 161.866 753.202C162.55 753.742 163.485 754.012 164.672 754.012C165.787 754.012 166.794 753.742 167.693 753.202C168.628 752.627 169.311 751.764 169.743 750.613L171.146 754.389C170.606 756.403 169.545 757.932 167.963 758.975C166.416 759.982 164.366 760.486 161.812 760.486ZM198.764 760.486C196.391 760.486 194.251 760.018 192.344 759.083C190.474 758.148 188.999 756.691 187.92 754.713C186.877 752.699 186.356 750.163 186.356 747.106V730.759H196.606V745.433C196.606 747.699 197.02 749.318 197.847 750.289C198.71 751.26 199.915 751.746 201.462 751.746C202.469 751.746 203.386 751.512 204.213 751.044C205.041 750.577 205.706 749.839 206.209 748.832C206.713 747.789 206.965 746.459 206.965 744.84V730.759H217.215V760H207.45V751.746L209.339 754.065C208.331 756.223 206.875 757.842 204.969 758.921C203.062 759.964 200.994 760.486 198.764 760.486ZM225.005 760V731.083C225.005 727.558 226.048 724.753 228.134 722.667C230.256 720.545 233.277 719.484 237.197 719.484C238.456 719.484 239.697 719.609 240.92 719.861C242.143 720.113 243.168 720.491 243.995 720.994L241.459 728.223C241.028 727.972 240.542 727.774 240.003 727.63C239.463 727.45 238.924 727.36 238.384 727.36C237.305 727.36 236.46 727.684 235.849 728.331C235.273 728.943 234.985 729.896 234.985 731.191V733.295L235.255 737.557V760H225.005ZM220.743 739.499V731.838H241.945V739.499H220.743ZM247.659 760V731.083C247.659 727.558 248.703 724.753 250.789 722.667C252.911 720.545 255.932 719.484 259.852 719.484C261.111 719.484 262.352 719.609 263.575 719.861C264.798 720.113 265.823 720.491 266.65 720.994L264.114 728.223C263.683 727.972 263.197 727.774 262.658 727.63C262.118 727.45 261.579 727.36 261.039 727.36C259.96 727.36 259.115 727.684 258.503 728.331C257.928 728.943 257.64 729.896 257.64 731.191V733.295L257.91 737.557V760H247.659ZM243.397 739.499V731.838H264.6V739.499H243.397ZM283.395 760.486C279.943 760.486 276.921 759.838 274.332 758.543C271.778 757.213 269.782 755.414 268.343 753.148C266.941 750.846 266.239 748.239 266.239 745.326C266.239 742.412 266.923 739.823 268.289 737.557C269.692 735.255 271.616 733.475 274.062 732.216C276.508 730.921 279.259 730.274 282.316 730.274C285.194 730.274 287.819 730.867 290.193 732.054C292.567 733.205 294.455 734.913 295.858 737.179C297.261 739.445 297.962 742.196 297.962 745.433C297.962 745.793 297.944 746.207 297.908 746.674C297.872 747.142 297.836 747.574 297.8 747.969H274.656V742.574H292.351L288.467 744.085C288.503 742.754 288.251 741.603 287.711 740.632C287.208 739.661 286.489 738.906 285.553 738.366C284.654 737.827 283.593 737.557 282.37 737.557C281.148 737.557 280.069 737.827 279.133 738.366C278.234 738.906 277.533 739.679 277.029 740.686C276.526 741.657 276.274 742.808 276.274 744.139V745.703C276.274 747.142 276.562 748.383 277.137 749.426C277.749 750.469 278.612 751.278 279.727 751.854C280.842 752.393 282.173 752.663 283.719 752.663C285.158 752.663 286.381 752.465 287.388 752.069C288.431 751.638 289.456 750.99 290.463 750.127L295.858 755.738C294.455 757.285 292.729 758.471 290.679 759.299C288.629 760.09 286.201 760.486 283.395 760.486ZM314.989 760.486C312.615 760.486 310.475 760.018 308.569 759.083C306.698 758.148 305.224 756.691 304.145 754.713C303.102 752.699 302.58 750.163 302.58 747.106V730.759H312.831V745.433C312.831 747.699 313.244 749.318 314.072 750.289C314.935 751.26 316.14 751.746 317.686 751.746C318.693 751.746 319.61 751.512 320.438 751.044C321.265 750.577 321.93 749.839 322.434 748.832C322.937 747.789 323.189 746.459 323.189 744.84V730.759H333.44V760H323.675V751.746L325.563 754.065C324.556 756.223 323.099 757.842 321.193 758.921C319.287 759.964 317.219 760.486 314.989 760.486ZM340.042 760V730.759H349.807V739.283L348.35 736.855C349.214 734.661 350.616 733.025 352.559 731.946C354.501 730.831 356.857 730.274 359.626 730.274V739.499C359.158 739.427 358.745 739.391 358.385 739.391C358.061 739.355 357.702 739.337 357.306 739.337C355.22 739.337 353.53 739.913 352.235 741.064C350.94 742.179 350.293 744.013 350.293 746.566V760H340.042Z" fill="white"/>
<circle cx="220" cy="896" r="91" fill="#EEEEEE" fill-opacity="0.4"/>
<g clip-path="url(#clip2_149_3174)">
<path d="M169.251 847.967H200.348V879.065H169.251V847.967Z" stroke="#181818" stroke-width="6.54167" stroke-linecap="round" stroke-linejoin="round"/>
<path d="M178.137 856.852H191.464V870.179H178.137V856.852Z" stroke="#181818" stroke-width="6.54167" stroke-linecap="round" stroke-linejoin="round"/>
<path d="M169.251 919.047H200.348V950.144H169.251V919.047Z" stroke="#181818" stroke-width="6.54167" stroke-linecap="round" stroke-linejoin="round"/>
<path d="M178.137 927.932H191.464V941.26H178.137V927.932Z" stroke="#181818" stroke-width="6.54167" stroke-linecap="round" stroke-linejoin="round"/>
<path d="M240.331 919.047H253.658V932.374H240.331V919.047Z" stroke="#181818" stroke-width="6.54167" stroke-linecap="round" stroke-linejoin="round"/>
<path d="M240.331 847.967H271.428V879.065H240.331V847.967Z" stroke="#181818" stroke-width="6.54167" stroke-linecap="round" stroke-linejoin="round"/>
<path d="M249.216 856.852H262.543V870.179H249.216V856.852Z" stroke="#181818" stroke-width="6.54167" stroke-linecap="round" stroke-linejoin="round"/>
<path d="M224.782 887.95H209.233" stroke="#181818" stroke-width="6.54167" stroke-linecap="round" stroke-linejoin="round"/>
<path d="M209.233 896.834V910.162H224.782" stroke="#181818" stroke-width="6.54167" stroke-linecap="round" stroke-linejoin="round"/>
<path d="M169.251 887.95H200.348V896.835" stroke="#181818" stroke-width="6.54167" stroke-linecap="round" stroke-linejoin="round"/>
<path d="M266.964 910.162V887.95H271.429" stroke="#181818" stroke-width="6.54167" stroke-linecap="round" stroke-linejoin="round"/>
<path d="M258.079 896.834V910.162" stroke="#181818" stroke-width="6.54167" stroke-linecap="round" stroke-linejoin="round"/>
<path d="M255.88 887.95H235.866V896.835" stroke="#181818" stroke-width="6.54167" stroke-linecap="round" stroke-linejoin="round"/>
<path d="M222.561 865.737V874.622H231.445V856.852" stroke="#181818" stroke-width="6.54167" stroke-linecap="round" stroke-linejoin="round"/>
<path d="M209.233 879.065V865.737" stroke="#181818" stroke-width="6.54167" stroke-linecap="round" stroke-linejoin="round"/>
<path d="M218.119 847.967H231.447" stroke="#181818" stroke-width="6.54167" stroke-linecap="round" stroke-linejoin="round"/>
<path d="M209.233 847.967V856.852H218.118" stroke="#181818" stroke-width="6.54167" stroke-linecap="round" stroke-linejoin="round"/>
<path d="M178.137 901.277H191.464" stroke="#181818" stroke-width="6.54167" stroke-linecap="round" stroke-linejoin="round"/>
<path d="M169.251 896.834V910.162H178.136" stroke="#181818" stroke-width="6.54167" stroke-linecap="round" stroke-linejoin="round"/>
<path d="M222.561 950.144H262.543V919.047H271.428V932.374" stroke="#181818" stroke-width="6.54167" stroke-linecap="round" stroke-linejoin="round"/>
<path d="M209.233 923.489V941.259H222.561" stroke="#181818" stroke-width="6.54167" stroke-linecap="round" stroke-linejoin="round"/>
<path d="M253.659 941.259H231.446V930.153" stroke="#181818" stroke-width="6.54167" stroke-linecap="round" stroke-linejoin="round"/>
<path d="M218.097 932.374V919.047H231.446" stroke="#181818" stroke-width="6.54167" stroke-linecap="round" stroke-linejoin="round"/>
<path d="M191.464 910.162H200.349" stroke="#181818" stroke-width="6.54167" stroke-linecap="round" stroke-linejoin="round"/>
<path d="M224.782 896.834H215.897" stroke="#181818" stroke-width="6.54167" stroke-linecap="round" stroke-linejoin="round"/>
<path d="M235.866 910.162H249.194" stroke="#181818" stroke-width="6.54167" stroke-linecap="round" stroke-linejoin="round"/>
<path d="M244.751 910.162V901.277" stroke="#181818" stroke-width="6.54167" stroke-linecap="round" stroke-linejoin="round"/>
</g>
</g>
<defs>
<filter id="filter0_i_149_3174" x="0" y="-10" width="440" height="1091" filterUnits="userSpaceOnUse" color-interpolation-filters="sRGB">
<feFlood flood-opacity="0" result="BackgroundImageFix"/>
<feBlend mode="normal" in="SourceGraphic" in2="BackgroundImageFix" result="shape"/>
<feColorMatrix in="SourceAlpha" type="matrix" values="0 0 0 0 0 0 0 0 0 0 0 0 0 0 0 0 0 0 127 0" result="hardAlpha"/>
<feOffset dy="-10"/>
<feGaussianBlur stdDeviation="25"/>
<feComposite in2="hardAlpha" operator="arithmetic" k2="-1" k3="1"/>
<feColorMatrix type="matrix" values="0 0 0 0 0 0 0 0 0 0 0 0 0 0 0 0 0 0 0.25 0"/>
<feBlend mode="normal" in2="shape" result="effect1_innerShadow_149_3174"/>
</filter>
<clipPath id="clip0_149_3174">
<rect width="440" height="1081" fill="white"/>
</clipPath>
<clipPath id="clip1_149_3174">
<rect width="106.619" height="106.619" fill="white" transform="translate(167.03 535.746)"/>
</clipPath>
<clipPath id="clip2_149_3174">
<rect width="106.619" height="106.619" fill="white" transform="translate(167.03 845.746)"/>
</clipPath>
</defs>
</svg>
