<svg width="440" height="589" viewBox="0 0 440 589" fill="none" xmlns="http://www.w3.org/2000/svg">
<g clip-path="url(#clip0_149_3174)" filter="url(#filter0_i_149_3174)">
<rect width="440" height="589" fill="#FDA400"/>
<rect width="639.402" height="1475.01" transform="matrix(1 0 -0.379448 0.925213 632.688 -1)" fill="#FDC501"/>
<rect width="629.902" height="1471.87" transform="matrix(1 0 -0.374606 0.927184 -522.628 -21)" fill="#FDC501"/>
<rect width="209.967" height="1471.87" transform="matrix(1 0 -0.374606 0.927184 306 0)" fill="#FDC501" fill-opacity="0.4"/>
<rect x="-77.0311" y="-29.0311" width="260.062" height="262.581" rx="130.031" fill="#FF6A00"/>
<rect x="-77.0311" y="-29.0311" width="260.062" height="262.581" rx="130.031" stroke="#FFA668" stroke-width="11.9378"/>
<path fill-rule="evenodd" clip-rule="evenodd" d="M58.7109 58.3789L58.7109 119.753L47.218 119.753L47.218 58.3789L58.7109 58.3789Z" fill="#FCE28A"/>
<path fill-rule="evenodd" clip-rule="evenodd" d="M47.4372 115.451C47.4372 112.474 44.166 109.176 40.0868 109.176L35.7263 109.176L35.7263 100.573L40.0868 100.573C48.0483 100.573 56.1582 106.851 56.1582 115.451L56.1582 119.752L47.4372 119.752L47.4372 115.451Z" fill="#FCE28A"/>
<path fill-rule="evenodd" clip-rule="evenodd" d="M70.2041 109.176L65.8436 109.176C61.7643 109.176 58.4932 112.474 58.4932 115.451L58.4932 119.752L49.7722 119.752L49.7722 115.451C49.7722 106.851 57.8821 100.573 65.8436 100.573L70.2041 100.573L70.2041 109.176Z" fill="#FCE28A"/>
<path d="M24.0439 138.961C21.4453 138.961 19.2209 138.039 17.3704 136.195C15.52 134.35 14.5947 132.133 14.5947 129.544V115.417H24.0439V129.544H80.7386V115.417H90.1877V129.544C90.1877 132.133 89.2625 134.35 87.412 136.195C85.5616 138.039 83.3371 138.961 80.7386 138.961H24.0439Z" fill="white"/>
<mask id="mask0_149_3174" style="mask-type:alpha" maskUnits="userSpaceOnUse" x="63" y="116" width="211" height="211">
<rect x="63.0742" y="116.111" width="210.466" height="210.466" fill="#D9D9D9"/>
</mask>
<g mask="url(#mask0_149_3174)">
</g>
<path d="M156.789 71V54.167H150.124V49.3H169.561V54.167H162.927V71H156.789ZM178.677 71.279C176.693 71.279 174.957 70.907 173.469 70.163C172.002 69.3983 170.855 68.365 170.028 67.063C169.222 65.7403 168.819 64.242 168.819 62.568C168.819 60.894 169.212 59.406 169.997 58.104C170.803 56.7813 171.909 55.7583 173.314 55.035C174.72 54.291 176.301 53.919 178.057 53.919C179.711 53.919 181.219 54.26 182.583 54.942C183.947 55.6033 185.032 56.585 185.838 57.887C186.644 59.189 187.047 60.77 187.047 62.63C187.047 62.8367 187.037 63.0743 187.016 63.343C186.996 63.6117 186.975 63.8597 186.954 64.087H173.655V60.987H183.823L181.591 61.855C181.612 61.0903 181.467 60.429 181.157 59.871C180.868 59.313 180.455 58.879 179.917 58.569C179.401 58.259 178.791 58.104 178.088 58.104C177.386 58.104 176.766 58.259 176.228 58.569C175.712 58.879 175.309 59.3233 175.019 59.902C174.73 60.46 174.585 61.1213 174.585 61.886V62.785C174.585 63.6117 174.751 64.3247 175.081 64.924C175.433 65.5233 175.929 65.9883 176.569 66.319C177.21 66.629 177.975 66.784 178.863 66.784C179.69 66.784 180.393 66.6703 180.971 66.443C181.571 66.195 182.16 65.823 182.738 65.327L185.838 68.551C185.032 69.4397 184.04 70.1217 182.862 70.597C181.684 71.0517 180.289 71.279 178.677 71.279ZM174.895 52.183L179.049 47.471H184.939L179.111 52.183H174.895ZM189.763 71V47.998H195.653V71H189.763ZM208.285 71.279C206.301 71.279 204.565 70.907 203.077 70.163C201.61 69.3983 200.463 68.365 199.636 67.063C198.83 65.7403 198.427 64.242 198.427 62.568C198.427 60.894 198.82 59.406 199.605 58.104C200.411 56.7813 201.517 55.7583 202.922 55.035C204.327 54.291 205.908 53.919 207.665 53.919C209.318 53.919 210.827 54.26 212.191 54.942C213.555 55.6033 214.64 56.585 215.446 57.887C216.252 59.189 216.655 60.77 216.655 62.63C216.655 62.8367 216.645 63.0743 216.624 63.343C216.603 63.6117 216.583 63.8597 216.562 64.087H203.263V60.987H213.431L211.199 61.855C211.22 61.0903 211.075 60.429 210.765 59.871C210.476 59.313 210.062 58.879 209.525 58.569C209.008 58.259 208.399 58.104 207.696 58.104C206.993 58.104 206.373 58.259 205.836 58.569C205.319 58.879 204.916 59.3233 204.627 59.902C204.338 60.46 204.193 61.1213 204.193 61.886V62.785C204.193 63.6117 204.358 64.3247 204.689 64.924C205.04 65.5233 205.536 65.9883 206.177 66.319C206.818 66.629 207.582 66.784 208.471 66.784C209.298 66.784 210 66.6703 210.579 66.443C211.178 66.195 211.767 65.823 212.346 65.327L215.446 68.551C214.64 69.4397 213.648 70.1217 212.47 70.597C211.292 71.0517 209.897 71.279 208.285 71.279ZM204.503 52.183L208.657 47.471H214.547L208.719 52.183H204.503ZM227.957 71.279C226.097 71.279 224.434 70.907 222.966 70.163C221.52 69.419 220.383 68.396 219.556 67.094C218.73 65.7713 218.316 64.2627 218.316 62.568C218.316 60.8733 218.73 59.375 219.556 58.073C220.383 56.771 221.52 55.7583 222.966 55.035C224.434 54.291 226.097 53.919 227.957 53.919C229.859 53.919 231.502 54.322 232.886 55.128C234.271 55.934 235.253 57.0707 235.831 58.538L231.274 60.863C230.882 60.0777 230.396 59.5093 229.817 59.158C229.239 58.786 228.608 58.6 227.926 58.6C227.244 58.6 226.624 58.755 226.066 59.065C225.508 59.375 225.064 59.8297 224.733 60.429C224.423 61.0077 224.268 61.7207 224.268 62.568C224.268 63.436 224.423 64.1697 224.733 64.769C225.064 65.3683 225.508 65.823 226.066 66.133C226.624 66.443 227.244 66.598 227.926 66.598C228.608 66.598 229.239 66.4223 229.817 66.071C230.396 65.699 230.882 65.1203 231.274 64.335L235.831 66.66C235.253 68.1273 234.271 69.264 232.886 70.07C231.502 70.876 229.859 71.279 227.957 71.279ZM248.932 53.919C250.234 53.919 251.412 54.1877 252.466 54.725C253.52 55.2417 254.346 56.0477 254.946 57.143C255.566 58.2383 255.876 59.654 255.876 61.39V71H249.986V62.351C249.986 61.1523 249.738 60.2843 249.242 59.747C248.766 59.189 248.095 58.91 247.227 58.91C246.607 58.91 246.038 59.0547 245.522 59.344C245.005 59.6127 244.602 60.0363 244.313 60.615C244.023 61.1937 243.879 61.948 243.879 62.878V71H237.989V47.998H243.879V58.972L242.515 57.577C243.155 56.3577 244.034 55.4483 245.15 54.849C246.266 54.229 247.526 53.919 248.932 53.919ZM269.835 71V67.869L269.432 67.094V61.328C269.432 60.398 269.142 59.685 268.564 59.189C268.006 58.6723 267.107 58.414 265.867 58.414C265.061 58.414 264.244 58.5483 263.418 58.817C262.591 59.065 261.888 59.4163 261.31 59.871L259.326 55.872C260.276 55.252 261.413 54.7767 262.736 54.446C264.079 54.0947 265.412 53.919 266.735 53.919C269.463 53.919 271.571 54.5493 273.059 55.81C274.567 57.05 275.322 59.003 275.322 61.669V71H269.835ZM264.875 71.279C263.531 71.279 262.395 71.0517 261.465 70.597C260.535 70.1423 259.822 69.5223 259.326 68.737C258.85 67.9517 258.613 67.0733 258.613 66.102C258.613 65.0687 258.871 64.18 259.388 63.436C259.925 62.6713 260.741 62.0927 261.837 61.7C262.932 61.2867 264.348 61.08 266.084 61.08H270.052V64.149H266.89C265.939 64.149 265.267 64.304 264.875 64.614C264.503 64.924 264.317 65.3373 264.317 65.854C264.317 66.3707 264.513 66.784 264.906 67.094C265.298 67.404 265.836 67.559 266.518 67.559C267.158 67.559 267.737 67.404 268.254 67.094C268.791 66.7633 269.184 66.2673 269.432 65.606L270.238 67.776C269.928 68.9333 269.318 69.8117 268.409 70.411C267.52 70.9897 266.342 71.279 264.875 71.279ZM279.039 71V54.198H284.65V59.096L283.813 57.701C284.309 56.4403 285.115 55.5 286.231 54.88C287.347 54.2393 288.701 53.919 290.292 53.919V59.22C290.024 59.1787 289.786 59.158 289.579 59.158C289.393 59.1373 289.187 59.127 288.959 59.127C287.761 59.127 286.789 59.4577 286.045 60.119C285.301 60.7597 284.929 61.8137 284.929 63.281V71H279.039ZM300.787 77.293C299.175 77.293 297.635 77.107 296.168 76.735C294.721 76.363 293.481 75.8153 292.448 75.092L294.587 70.969C295.289 71.527 296.157 71.961 297.191 72.271C298.245 72.6017 299.268 72.767 300.26 72.767C301.851 72.767 302.998 72.4157 303.701 71.713C304.403 71.031 304.755 70.0287 304.755 68.706V66.722L305.065 62.01L305.034 57.267V54.198H310.645V67.931C310.645 71.1137 309.787 73.4697 308.072 74.999C306.356 76.5283 303.928 77.293 300.787 77.293ZM299.764 70.132C298.276 70.132 296.901 69.8013 295.641 69.14C294.401 68.458 293.398 67.5177 292.634 66.319C291.89 65.0997 291.518 63.6633 291.518 62.01C291.518 60.3567 291.89 58.9307 292.634 57.732C293.398 56.5127 294.401 55.5723 295.641 54.911C296.901 54.2497 298.276 53.919 299.764 53.919C301.19 53.919 302.409 54.2083 303.422 54.787C304.434 55.345 305.199 56.2233 305.716 57.422C306.253 58.6207 306.522 60.15 306.522 62.01C306.522 63.87 306.253 65.3993 305.716 66.598C305.199 67.7967 304.434 68.6853 303.422 69.264C302.409 69.8427 301.19 70.132 299.764 70.132ZM301.159 65.451C301.861 65.451 302.481 65.3063 303.019 65.017C303.577 64.7277 304.011 64.3247 304.321 63.808C304.651 63.2913 304.817 62.692 304.817 62.01C304.817 61.328 304.651 60.7287 304.321 60.212C304.011 59.6953 303.577 59.3027 303.019 59.034C302.481 58.7447 301.861 58.6 301.159 58.6C300.456 58.6 299.826 58.7447 299.268 59.034C298.71 59.3027 298.265 59.6953 297.935 60.212C297.625 60.7287 297.47 61.328 297.47 62.01C297.47 62.692 297.625 63.2913 297.935 63.808C298.265 64.3247 298.71 64.7277 299.268 65.017C299.826 65.3063 300.456 65.451 301.159 65.451ZM323.233 71.279C321.249 71.279 319.513 70.907 318.025 70.163C316.558 69.3983 315.411 68.365 314.584 67.063C313.778 65.7403 313.375 64.242 313.375 62.568C313.375 60.894 313.768 59.406 314.553 58.104C315.359 56.7813 316.465 55.7583 317.87 55.035C319.275 54.291 320.856 53.919 322.613 53.919C324.266 53.919 325.775 54.26 327.139 54.942C328.503 55.6033 329.588 56.585 330.394 57.887C331.2 59.189 331.603 60.77 331.603 62.63C331.603 62.8367 331.593 63.0743 331.572 63.343C331.551 63.6117 331.531 63.8597 331.51 64.087H318.211V60.987H328.379L326.147 61.855C326.168 61.0903 326.023 60.429 325.713 59.871C325.424 59.313 325.01 58.879 324.473 58.569C323.956 58.259 323.347 58.104 322.644 58.104C321.941 58.104 321.321 58.259 320.784 58.569C320.267 58.879 319.864 59.3233 319.575 59.902C319.286 60.46 319.141 61.1213 319.141 61.886V62.785C319.141 63.6117 319.306 64.3247 319.637 64.924C319.988 65.5233 320.484 65.9883 321.125 66.319C321.766 66.629 322.53 66.784 323.419 66.784C324.246 66.784 324.948 66.6703 325.527 66.443C326.126 66.195 326.715 65.823 327.294 65.327L330.394 68.551C329.588 69.4397 328.596 70.1217 327.418 70.597C326.24 71.0517 324.845 71.279 323.233 71.279ZM334.319 71V54.198H339.93V59.096L339.093 57.701C339.589 56.4403 340.395 55.5 341.511 54.88C342.627 54.2393 343.98 53.919 345.572 53.919V59.22C345.303 59.1787 345.065 59.158 344.859 59.158C344.673 59.1373 344.466 59.127 344.239 59.127C343.04 59.127 342.069 59.4577 341.325 60.119C340.581 60.7597 340.209 61.8137 340.209 63.281V71H334.319ZM151.891 106V82.998H157.781V106H151.891ZM160.958 94.282L163.283 86.222L164.12 89.57C163.086 89.57 162.239 89.2703 161.578 88.671C160.916 88.051 160.586 87.2243 160.586 86.191C160.586 85.137 160.916 84.3 161.578 83.68C162.26 83.0393 163.107 82.719 164.12 82.719C165.132 82.719 165.969 83.0393 166.631 83.68C167.292 84.3 167.623 85.137 167.623 86.191C167.623 86.4803 167.602 86.78 167.561 87.09C167.519 87.3793 167.426 87.7307 167.282 88.144C167.158 88.5367 166.941 89.074 166.631 89.756L164.647 94.282H160.958ZM166.882 106L176.461 84.3H182.506L192.116 106H185.73L178.228 87.307H180.646L173.144 106H166.882ZM172.121 101.784L173.702 97.258H184.304L185.885 101.784H172.121ZM204.149 106.279C202.723 106.279 201.503 105.969 200.491 105.349C199.478 104.708 198.703 103.758 198.166 102.497C197.649 101.216 197.391 99.583 197.391 97.599C197.391 95.5943 197.639 93.9617 198.135 92.701C198.631 91.4197 199.375 90.469 200.367 89.849C201.379 89.229 202.64 88.919 204.149 88.919C205.678 88.919 207.063 89.2807 208.303 90.004C209.563 90.7067 210.555 91.709 211.279 93.011C212.023 94.2923 212.395 95.8217 212.395 97.599C212.395 99.3763 212.023 100.916 211.279 102.218C210.555 103.52 209.563 104.522 208.303 105.225C207.063 105.928 205.678 106.279 204.149 106.279ZM193.578 112.014V89.198H199.189V92.05L199.158 97.599L199.468 103.179V112.014H193.578ZM202.909 101.598C203.57 101.598 204.159 101.443 204.676 101.133C205.213 100.823 205.637 100.368 205.947 99.769C206.277 99.1697 206.443 98.4463 206.443 97.599C206.443 96.7517 206.277 96.0283 205.947 95.429C205.637 94.8297 205.213 94.375 204.676 94.065C204.159 93.755 203.57 93.6 202.909 93.6C202.247 93.6 201.648 93.755 201.111 94.065C200.594 94.375 200.17 94.8297 199.84 95.429C199.53 96.0283 199.375 96.7517 199.375 97.599C199.375 98.4463 199.53 99.1697 199.84 99.769C200.17 100.368 200.594 100.823 201.111 101.133C201.648 101.443 202.247 101.598 202.909 101.598ZM225.703 106.279C224.277 106.279 223.058 105.969 222.045 105.349C221.033 104.708 220.258 103.758 219.72 102.497C219.204 101.216 218.945 99.583 218.945 97.599C218.945 95.5943 219.193 93.9617 219.689 92.701C220.185 91.4197 220.929 90.469 221.921 89.849C222.934 89.229 224.195 88.919 225.703 88.919C227.233 88.919 228.617 89.2807 229.857 90.004C231.118 90.7067 232.11 91.709 232.833 93.011C233.577 94.2923 233.949 95.8217 233.949 97.599C233.949 99.3763 233.577 100.916 232.833 102.218C232.11 103.52 231.118 104.522 229.857 105.225C228.617 105.928 227.233 106.279 225.703 106.279ZM215.132 112.014V89.198H220.743V92.05L220.712 97.599L221.022 103.179V112.014H215.132ZM224.463 101.598C225.125 101.598 225.714 101.443 226.23 101.133C226.768 100.823 227.191 100.368 227.501 99.769C227.832 99.1697 227.997 98.4463 227.997 97.599C227.997 96.7517 227.832 96.0283 227.501 95.429C227.191 94.8297 226.768 94.375 226.23 94.065C225.714 93.755 225.125 93.6 224.463 93.6C223.802 93.6 223.203 93.755 222.665 94.065C222.149 94.375 221.725 94.8297 221.394 95.429C221.084 96.0283 220.929 96.7517 220.929 97.599C220.929 98.4463 221.084 99.1697 221.394 99.769C221.725 100.368 222.149 100.823 222.665 101.133C223.203 101.443 223.802 101.598 224.463 101.598ZM236.687 106V82.998H242.577V106H236.687ZM246.405 106V89.198H252.295V106H246.405ZM249.35 87.338C248.275 87.338 247.407 87.0383 246.746 86.439C246.084 85.8397 245.754 85.0957 245.754 84.207C245.754 83.3183 246.084 82.5743 246.746 81.975C247.407 81.3757 248.275 81.076 249.35 81.076C250.424 81.076 251.292 81.3653 251.954 81.944C252.615 82.502 252.946 83.2253 252.946 84.114C252.946 85.044 252.615 85.819 251.954 86.439C251.313 87.0383 250.445 87.338 249.35 87.338ZM264.709 106.279C262.849 106.279 261.186 105.907 259.718 105.163C258.272 104.419 257.135 103.396 256.308 102.094C255.482 100.771 255.068 99.2627 255.068 97.568C255.068 95.8733 255.482 94.375 256.308 93.073C257.135 91.771 258.272 90.7583 259.718 90.035C261.186 89.291 262.849 88.919 264.709 88.919C266.611 88.919 268.254 89.322 269.638 90.128C271.023 90.934 272.005 92.0707 272.583 93.538L268.026 95.863C267.634 95.0777 267.148 94.5093 266.569 94.158C265.991 93.786 265.36 93.6 264.678 93.6C263.996 93.6 263.376 93.755 262.818 94.065C262.26 94.375 261.816 94.8297 261.485 95.429C261.175 96.0077 261.02 96.7207 261.02 97.568C261.02 98.436 261.175 99.1697 261.485 99.769C261.816 100.368 262.26 100.823 262.818 101.133C263.376 101.443 263.996 101.598 264.678 101.598C265.36 101.598 265.991 101.422 266.569 101.071C267.148 100.699 267.634 100.12 268.026 99.335L272.583 101.66C272.005 103.127 271.023 104.264 269.638 105.07C268.254 105.876 266.611 106.279 264.709 106.279ZM285.062 106V102.869L284.659 102.094V96.328C284.659 95.398 284.37 94.685 283.791 94.189C283.233 93.6723 282.334 93.414 281.094 93.414C280.288 93.414 279.472 93.5483 278.645 93.817C277.818 94.065 277.116 94.4163 276.537 94.871L274.553 90.872C275.504 90.252 276.64 89.7767 277.963 89.446C279.306 89.0947 280.639 88.919 281.962 88.919C284.69 88.919 286.798 89.5493 288.286 90.81C289.795 92.05 290.549 94.003 290.549 96.669V106H285.062ZM280.102 106.279C278.759 106.279 277.622 106.052 276.692 105.597C275.762 105.142 275.049 104.522 274.553 103.737C274.078 102.952 273.84 102.073 273.84 101.102C273.84 100.069 274.098 99.18 274.615 98.436C275.152 97.6713 275.969 97.0927 277.064 96.7C278.159 96.2867 279.575 96.08 281.311 96.08H285.279V99.149H282.117C281.166 99.149 280.495 99.304 280.102 99.614C279.73 99.924 279.544 100.337 279.544 100.854C279.544 101.371 279.74 101.784 280.133 102.094C280.526 102.404 281.063 102.559 281.745 102.559C282.386 102.559 282.964 102.404 283.481 102.094C284.018 101.763 284.411 101.267 284.659 100.606L285.465 102.776C285.155 103.933 284.545 104.812 283.636 105.411C282.747 105.99 281.569 106.279 280.102 106.279ZM301.769 106.279C299.62 106.279 297.946 105.752 296.747 104.698C295.548 103.623 294.949 102.011 294.949 99.862V85.447H300.839V99.8C300.839 100.399 301.004 100.875 301.335 101.226C301.666 101.557 302.089 101.722 302.606 101.722C303.309 101.722 303.908 101.546 304.404 101.195L305.861 105.318C305.365 105.649 304.755 105.886 304.032 106.031C303.309 106.196 302.554 106.279 301.769 106.279ZM292.5 94.22V89.818H304.683V94.22H292.5ZM308.132 106V89.198H314.022V106H308.132ZM311.077 87.338C310.003 87.338 309.135 87.0383 308.473 86.439C307.812 85.8397 307.481 85.0957 307.481 84.207C307.481 83.3183 307.812 82.5743 308.473 81.975C309.135 81.3757 310.003 81.076 311.077 81.076C312.152 81.076 313.02 81.3653 313.681 81.944C314.343 82.502 314.673 83.2253 314.673 84.114C314.673 85.044 314.343 85.819 313.681 86.439C313.041 87.0383 312.173 87.338 311.077 87.338ZM326.282 106.279C324.443 106.279 322.81 105.907 321.384 105.163C319.958 104.419 318.832 103.396 318.005 102.094C317.199 100.771 316.796 99.2627 316.796 97.568C316.796 95.8733 317.199 94.375 318.005 93.073C318.832 91.771 319.958 90.7583 321.384 90.035C322.81 89.291 324.443 88.919 326.282 88.919C328.121 88.919 329.754 89.291 331.18 90.035C332.627 90.7583 333.753 91.771 334.559 93.073C335.365 94.375 335.768 95.8733 335.768 97.568C335.768 99.2627 335.365 100.771 334.559 102.094C333.753 103.396 332.627 104.419 331.18 105.163C329.754 105.907 328.121 106.279 326.282 106.279ZM326.282 101.598C326.964 101.598 327.563 101.443 328.08 101.133C328.617 100.823 329.041 100.368 329.351 99.769C329.661 99.149 329.816 98.4153 329.816 97.568C329.816 96.7207 329.661 96.0077 329.351 95.429C329.041 94.8297 328.617 94.375 328.08 94.065C327.563 93.755 326.964 93.6 326.282 93.6C325.621 93.6 325.021 93.755 324.484 94.065C323.967 94.375 323.544 94.8297 323.213 95.429C322.903 96.0077 322.748 96.7207 322.748 97.568C322.748 98.4153 322.903 99.149 323.213 99.769C323.544 100.368 323.967 100.823 324.484 101.133C325.021 101.443 325.621 101.598 326.282 101.598ZM349.439 88.919C350.741 88.919 351.919 89.1877 352.973 89.725C354.027 90.2417 354.854 91.0477 355.453 92.143C356.073 93.2383 356.383 94.654 356.383 96.39V106H350.493V97.351C350.493 96.1523 350.245 95.2843 349.749 94.747C349.274 94.189 348.602 93.91 347.734 93.91C347.114 93.91 346.546 94.0547 346.029 94.344C345.513 94.6127 345.11 95.0363 344.82 95.615C344.531 96.1937 344.386 96.948 344.386 97.878V106H338.496V89.198H344.107V93.972L343.022 92.577C343.663 91.3577 344.541 90.4483 345.657 89.849C346.773 89.229 348.034 88.919 349.439 88.919ZM173.777 123.919C175.079 123.919 176.236 124.188 177.249 124.725C178.282 125.242 179.088 126.048 179.667 127.143C180.266 128.238 180.566 129.654 180.566 131.39V141H174.676V132.351C174.676 131.152 174.449 130.284 173.994 129.747C173.539 129.189 172.919 128.91 172.134 128.91C171.576 128.91 171.07 129.044 170.615 129.313C170.16 129.582 169.809 129.995 169.561 130.553C169.313 131.09 169.189 131.793 169.189 132.661V141H163.299V132.351C163.299 131.152 163.072 130.284 162.617 129.747C162.183 129.189 161.563 128.91 160.757 128.91C160.178 128.91 159.662 129.044 159.207 129.313C158.773 129.582 158.422 129.995 158.153 130.553C157.905 131.09 157.781 131.793 157.781 132.661V141H151.891V124.198H157.502V128.879L156.386 127.546C157.006 126.347 157.853 125.448 158.928 124.849C160.003 124.229 161.201 123.919 162.524 123.919C164.033 123.919 165.355 124.312 166.492 125.097C167.649 125.862 168.424 127.06 168.817 128.693L166.895 128.29C167.494 126.926 168.393 125.862 169.592 125.097C170.811 124.312 172.206 123.919 173.777 123.919ZM194.545 141V137.869L194.142 137.094V131.328C194.142 130.398 193.852 129.685 193.274 129.189C192.716 128.672 191.817 128.414 190.577 128.414C189.771 128.414 188.954 128.548 188.128 128.817C187.301 129.065 186.598 129.416 186.02 129.871L184.036 125.872C184.986 125.252 186.123 124.777 187.446 124.446C188.789 124.095 190.122 123.919 191.445 123.919C194.173 123.919 196.281 124.549 197.769 125.81C199.277 127.05 200.032 129.003 200.032 131.669V141H194.545ZM189.585 141.279C188.241 141.279 187.105 141.052 186.175 140.597C185.245 140.142 184.532 139.522 184.036 138.737C183.56 137.952 183.323 137.073 183.323 136.102C183.323 135.069 183.581 134.18 184.098 133.436C184.635 132.671 185.451 132.093 186.547 131.7C187.642 131.287 189.058 131.08 190.794 131.08H194.762V134.149H191.6C190.649 134.149 189.977 134.304 189.585 134.614C189.213 134.924 189.027 135.337 189.027 135.854C189.027 136.371 189.223 136.784 189.616 137.094C190.008 137.404 190.546 137.559 191.228 137.559C191.868 137.559 192.447 137.404 192.964 137.094C193.501 136.763 193.894 136.267 194.142 135.606L194.948 137.776C194.638 138.933 194.028 139.812 193.119 140.411C192.23 140.99 191.052 141.279 189.585 141.279ZM203.749 141V124.198H209.639V141H203.749ZM206.694 122.338C205.62 122.338 204.752 122.038 204.09 121.439C203.429 120.84 203.098 120.096 203.098 119.207C203.098 118.318 203.429 117.574 204.09 116.975C204.752 116.376 205.62 116.076 206.694 116.076C207.769 116.076 208.637 116.365 209.298 116.944C209.96 117.502 210.29 118.225 210.29 119.114C210.29 120.044 209.96 120.819 209.298 121.439C208.658 122.038 207.79 122.338 206.694 122.338ZM224.41 123.919C225.712 123.919 226.89 124.188 227.944 124.725C228.998 125.242 229.825 126.048 230.424 127.143C231.044 128.238 231.354 129.654 231.354 131.39V141H225.464V132.351C225.464 131.152 225.216 130.284 224.72 129.747C224.245 129.189 223.573 128.91 222.705 128.91C222.085 128.91 221.517 129.055 221 129.344C220.484 129.613 220.081 130.036 219.791 130.615C219.502 131.194 219.357 131.948 219.357 132.878V141H213.467V124.198H219.078V128.972L217.993 127.577C218.634 126.358 219.512 125.448 220.628 124.849C221.744 124.229 223.005 123.919 224.41 123.919ZM242.554 141.279C240.405 141.279 238.731 140.752 237.532 139.698C236.333 138.623 235.734 137.011 235.734 134.862V120.447H241.624V134.8C241.624 135.399 241.789 135.875 242.12 136.226C242.451 136.557 242.874 136.722 243.391 136.722C244.094 136.722 244.693 136.546 245.189 136.195L246.646 140.318C246.15 140.649 245.54 140.886 244.817 141.031C244.094 141.196 243.339 141.279 242.554 141.279ZM233.285 129.22V124.818H245.468V129.22H233.285ZM257.237 141.279C255.253 141.279 253.517 140.907 252.029 140.163C250.562 139.398 249.415 138.365 248.588 137.063C247.782 135.74 247.379 134.242 247.379 132.568C247.379 130.894 247.772 129.406 248.557 128.104C249.363 126.781 250.469 125.758 251.874 125.035C253.279 124.291 254.86 123.919 256.617 123.919C258.27 123.919 259.779 124.26 261.143 124.942C262.507 125.603 263.592 126.585 264.398 127.887C265.204 129.189 265.607 130.77 265.607 132.63C265.607 132.837 265.597 133.074 265.576 133.343C265.555 133.612 265.535 133.86 265.514 134.087H252.215V130.987H262.383L260.151 131.855C260.172 131.09 260.027 130.429 259.717 129.871C259.428 129.313 259.014 128.879 258.477 128.569C257.96 128.259 257.351 128.104 256.648 128.104C255.945 128.104 255.325 128.259 254.788 128.569C254.271 128.879 253.868 129.323 253.579 129.902C253.29 130.46 253.145 131.121 253.145 131.886V132.785C253.145 133.612 253.31 134.325 253.641 134.924C253.992 135.523 254.488 135.988 255.129 136.319C255.77 136.629 256.534 136.784 257.423 136.784C258.25 136.784 258.952 136.67 259.531 136.443C260.13 136.195 260.719 135.823 261.298 135.327L264.398 138.551C263.592 139.44 262.6 140.122 261.422 140.597C260.244 141.052 258.849 141.279 257.237 141.279ZM279.266 123.919C280.568 123.919 281.746 124.188 282.8 124.725C283.854 125.242 284.68 126.048 285.28 127.143C285.9 128.238 286.21 129.654 286.21 131.39V141H280.32V132.351C280.32 131.152 280.072 130.284 279.576 129.747C279.1 129.189 278.429 128.91 277.561 128.91C276.941 128.91 276.372 129.055 275.856 129.344C275.339 129.613 274.936 130.036 274.647 130.615C274.357 131.194 274.213 131.948 274.213 132.878V141H268.323V124.198H273.934V128.972L272.849 127.577C273.489 126.358 274.368 125.448 275.484 124.849C276.6 124.229 277.86 123.919 279.266 123.919ZM300.851 123.919C302.153 123.919 303.331 124.188 304.385 124.725C305.439 125.242 306.265 126.048 306.865 127.143C307.485 128.238 307.795 129.654 307.795 131.39V141H301.905V132.351C301.905 131.152 301.657 130.284 301.161 129.747C300.685 129.189 300.014 128.91 299.146 128.91C298.526 128.91 297.957 129.055 297.441 129.344C296.924 129.613 296.521 130.036 296.232 130.615C295.942 131.194 295.798 131.948 295.798 132.878V141H289.908V124.198H295.519V128.972L294.434 127.577C295.074 126.358 295.953 125.448 297.069 124.849C298.185 124.229 299.445 123.919 300.851 123.919ZM321.754 141V137.869L321.351 137.094V131.328C321.351 130.398 321.061 129.685 320.483 129.189C319.925 128.672 319.026 128.414 317.786 128.414C316.98 128.414 316.163 128.548 315.337 128.817C314.51 129.065 313.807 129.416 313.229 129.871L311.245 125.872C312.195 125.252 313.332 124.777 314.655 124.446C315.998 124.095 317.331 123.919 318.654 123.919C321.382 123.919 323.49 124.549 324.978 125.81C326.486 127.05 327.241 129.003 327.241 131.669V141H321.754ZM316.794 141.279C315.45 141.279 314.314 141.052 313.384 140.597C312.454 140.142 311.741 139.522 311.245 138.737C310.769 137.952 310.532 137.073 310.532 136.102C310.532 135.069 310.79 134.18 311.307 133.436C311.844 132.671 312.66 132.093 313.756 131.7C314.851 131.287 316.267 131.08 318.003 131.08H321.971V134.149H318.809C317.858 134.149 317.186 134.304 316.794 134.614C316.422 134.924 316.236 135.337 316.236 135.854C316.236 136.371 316.432 136.784 316.825 137.094C317.217 137.404 317.755 137.559 318.437 137.559C319.077 137.559 319.656 137.404 320.173 137.094C320.71 136.763 321.103 136.267 321.351 135.606L322.157 137.776C321.847 138.933 321.237 139.812 320.328 140.411C319.439 140.99 318.261 141.279 316.794 141.279ZM341.901 123.919C343.203 123.919 344.381 124.188 345.435 124.725C346.489 125.242 347.316 126.048 347.915 127.143C348.535 128.238 348.845 129.654 348.845 131.39V141H342.955V132.351C342.955 131.152 342.707 130.284 342.211 129.747C341.736 129.189 341.064 128.91 340.196 128.91C339.576 128.91 339.008 129.055 338.491 129.344C337.975 129.613 337.572 130.036 337.282 130.615C336.993 131.194 336.848 131.948 336.848 132.878V141H330.958V124.198H336.569V128.972L335.484 127.577C336.125 126.358 337.003 125.448 338.119 124.849C339.235 124.229 340.496 123.919 341.901 123.919ZM360.045 141.279C357.896 141.279 356.222 140.752 355.023 139.698C353.825 138.623 353.225 137.011 353.225 134.862V120.447H359.115V134.8C359.115 135.399 359.281 135.875 359.611 136.226C359.942 136.557 360.366 136.722 360.882 136.722C361.585 136.722 362.184 136.546 362.68 136.195L364.137 140.318C363.641 140.649 363.032 140.886 362.308 141.031C361.585 141.196 360.831 141.279 360.045 141.279ZM350.776 129.22V124.818H362.959V129.22H350.776Z" fill="white"/>
<path d="M158.123 274.755C155.138 274.755 152.369 274.288 149.815 273.353C147.297 272.381 145.103 271.015 143.233 269.252C141.399 267.49 139.96 265.422 138.917 263.048C137.874 260.638 137.353 257.995 137.353 255.117C137.353 252.24 137.874 249.615 138.917 247.241C139.96 244.831 141.399 242.745 143.233 240.983C145.103 239.22 147.297 237.871 149.815 236.936C152.369 235.965 155.138 235.48 158.123 235.48C161.612 235.48 164.723 236.091 167.457 237.314C170.226 238.537 172.528 240.299 174.362 242.601L167.565 248.751C166.342 247.313 164.993 246.216 163.518 245.46C162.08 244.705 160.461 244.327 158.663 244.327C157.116 244.327 155.696 244.579 154.401 245.083C153.106 245.586 151.991 246.324 151.056 247.295C150.157 248.23 149.437 249.363 148.898 250.694C148.394 252.024 148.143 253.499 148.143 255.117C148.143 256.736 148.394 258.211 148.898 259.541C149.437 260.872 150.157 262.023 151.056 262.994C151.991 263.929 153.106 264.649 154.401 265.152C155.696 265.656 157.116 265.907 158.663 265.907C160.461 265.907 162.08 265.53 163.518 264.775C164.993 264.019 166.342 262.922 167.565 261.484L174.362 267.634C172.528 269.9 170.226 271.662 167.457 272.921C164.723 274.144 161.612 274.755 158.123 274.755ZM178.639 274V233.969H188.89V274H178.639ZM195.551 274V244.759H205.802V274H195.551ZM200.677 241.522C198.806 241.522 197.296 241.001 196.145 239.958C194.994 238.915 194.419 237.62 194.419 236.073C194.419 234.527 194.994 233.232 196.145 232.189C197.296 231.146 198.806 230.624 200.677 230.624C202.547 230.624 204.058 231.128 205.209 232.135C206.359 233.106 206.935 234.365 206.935 235.911C206.935 237.53 206.359 238.879 205.209 239.958C204.094 241.001 202.583 241.522 200.677 241.522ZM227.785 274.486C224.333 274.486 221.311 273.838 218.722 272.543C216.168 271.213 214.172 269.414 212.733 267.148C211.331 264.846 210.629 262.239 210.629 259.326C210.629 256.412 211.313 253.823 212.679 251.557C214.082 249.255 216.006 247.475 218.452 246.216C220.898 244.921 223.649 244.274 226.706 244.274C229.584 244.274 232.209 244.867 234.583 246.054C236.957 247.205 238.845 248.913 240.248 251.179C241.651 253.445 242.352 256.196 242.352 259.433C242.352 259.793 242.334 260.207 242.298 260.674C242.262 261.142 242.226 261.574 242.19 261.969H219.045V256.574H236.741L232.857 258.085C232.893 256.754 232.641 255.603 232.101 254.632C231.598 253.661 230.878 252.906 229.943 252.366C229.044 251.827 227.983 251.557 226.76 251.557C225.537 251.557 224.458 251.827 223.523 252.366C222.624 252.906 221.923 253.679 221.419 254.686C220.916 255.657 220.664 256.808 220.664 258.139V259.703C220.664 261.142 220.952 262.383 221.527 263.426C222.139 264.469 223.002 265.278 224.117 265.854C225.232 266.393 226.562 266.663 228.109 266.663C229.548 266.663 230.771 266.465 231.778 266.069C232.821 265.638 233.846 264.99 234.853 264.127L240.248 269.738C238.845 271.285 237.119 272.471 235.069 273.299C233.019 274.09 230.591 274.486 227.785 274.486ZM266.122 244.274C268.388 244.274 270.438 244.741 272.273 245.676C274.107 246.575 275.546 247.978 276.589 249.884C277.668 251.791 278.207 254.254 278.207 257.275V274H267.957V258.948C267.957 256.862 267.525 255.351 266.662 254.416C265.835 253.445 264.666 252.959 263.155 252.959C262.076 252.959 261.087 253.211 260.188 253.715C259.289 254.182 258.587 254.92 258.084 255.927C257.58 256.934 257.328 258.247 257.328 259.865V274H247.078V244.759H256.843V253.067L254.955 250.64C256.07 248.518 257.598 246.935 259.54 245.892C261.483 244.813 263.677 244.274 266.122 244.274ZM297.699 274.486C293.958 274.486 291.045 273.568 288.959 271.734C286.873 269.864 285.83 267.058 285.83 263.318V238.231H296.08V263.21C296.08 264.253 296.368 265.08 296.943 265.692C297.519 266.267 298.256 266.555 299.155 266.555C300.378 266.555 301.421 266.249 302.284 265.638L304.82 272.813C303.957 273.389 302.896 273.802 301.637 274.054C300.378 274.342 299.065 274.486 297.699 274.486ZM281.568 253.499V245.838H302.77V253.499H281.568Z" fill="white"/>
<path d="M173.808 439.438V410.144H162.208V401.673H196.035V410.144H184.49V439.438H173.808ZM215.964 439.438V433.99L215.263 432.641V422.606C215.263 420.988 214.759 419.747 213.752 418.884C212.781 417.984 211.217 417.535 209.059 417.535C207.656 417.535 206.235 417.769 204.797 418.236C203.358 418.668 202.135 419.279 201.128 420.07L197.675 413.111C199.33 412.032 201.308 411.205 203.61 410.629C205.947 410.018 208.267 409.712 210.569 409.712C215.317 409.712 218.985 410.809 221.575 413.003C224.201 415.161 225.513 418.56 225.513 423.2V439.438H215.964ZM207.332 439.924C204.994 439.924 203.016 439.528 201.398 438.737C199.779 437.946 198.538 436.867 197.675 435.5C196.848 434.133 196.434 432.605 196.434 430.914C196.434 429.116 196.884 427.569 197.783 426.275C198.718 424.944 200.139 423.937 202.045 423.253C203.951 422.534 206.415 422.174 209.436 422.174H216.342V427.516H210.839C209.184 427.516 208.016 427.785 207.332 428.325C206.685 428.864 206.361 429.584 206.361 430.483C206.361 431.382 206.703 432.101 207.386 432.641C208.07 433.18 209.005 433.45 210.192 433.45C211.307 433.45 212.314 433.18 213.213 432.641C214.148 432.065 214.831 431.202 215.263 430.051L216.666 433.828C216.126 435.842 215.065 437.37 213.482 438.413C211.936 439.42 209.886 439.924 207.332 439.924ZM228.585 439.438L242.018 421.797L241.802 427.623L228.908 410.198H240.454L247.683 420.502L243.367 420.718L251.028 410.198H261.872L248.978 427.246V421.635L262.249 439.438H250.542L242.989 428.433L247.305 429.026L239.698 439.438H228.585ZM265.386 439.438V410.198H275.637V439.438H265.386ZM270.511 406.961C268.641 406.961 267.131 406.439 265.98 405.396C264.829 404.353 264.253 403.058 264.253 401.512C264.253 399.965 264.829 398.67 265.98 397.627C267.131 396.584 268.641 396.063 270.511 396.063C272.382 396.063 273.892 396.566 275.043 397.573C276.194 398.544 276.77 399.803 276.77 401.35C276.77 402.968 276.194 404.317 275.043 405.396C273.928 406.439 272.418 406.961 270.511 406.961Z" fill="white"/>
</g>
<defs>
<filter id="filter0_i_149_3174" x="0" y="-10" width="440" height="599" filterUnits="userSpaceOnUse" color-interpolation-filters="sRGB">
<feFlood flood-opacity="0" result="BackgroundImageFix"/>
<feBlend mode="normal" in="SourceGraphic" in2="BackgroundImageFix" result="shape"/>
<feColorMatrix in="SourceAlpha" type="matrix" values="0 0 0 0 0 0 0 0 0 0 0 0 0 0 0 0 0 0 127 0" result="hardAlpha"/>
<feOffset dy="-10"/>
<feGaussianBlur stdDeviation="25"/>
<feComposite in2="hardAlpha" operator="arithmetic" k2="-1" k3="1"/>
<feColorMatrix type="matrix" values="0 0 0 0 0 0 0 0 0 0 0 0 0 0 0 0 0 0 0.25 0"/>
<feBlend mode="normal" in2="shape" result="effect1_innerShadow_149_3174"/>
</filter>
<clipPath id="clip0_149_3174">
<rect width="440" height="589" fill="white"/>
</clipPath>
</defs>
</svg>
