<svg width="440" height="497" viewBox="0 0 440 497" fill="none" xmlns="http://www.w3.org/2000/svg">
<g clip-path="url(#clip0_149_1346)">
<rect width="440" height="497" fill="#FDC500"/>
<path d="M69.24 193V170.6H75.576V187.976H86.264V193H69.24ZM97.5088 193.288C95.4608 193.288 93.6688 192.904 92.1328 192.136C90.6181 191.347 89.4341 190.28 88.5807 188.936C87.7488 187.571 87.3328 186.024 87.3328 184.296C87.3328 182.568 87.7381 181.032 88.5488 179.688C89.3808 178.323 90.5221 177.267 91.9728 176.52C93.4234 175.752 95.0554 175.368 96.8688 175.368C98.5754 175.368 100.133 175.72 101.541 176.424C102.949 177.107 104.069 178.12 104.901 179.464C105.733 180.808 106.149 182.44 106.149 184.36C106.149 184.573 106.138 184.819 106.117 185.096C106.095 185.373 106.074 185.629 106.053 185.864H92.3248V182.664H102.821L100.517 183.56C100.538 182.771 100.389 182.088 100.069 181.512C99.7701 180.936 99.3434 180.488 98.7888 180.168C98.2554 179.848 97.6261 179.688 96.9008 179.688C96.1754 179.688 95.5354 179.848 94.9808 180.168C94.4474 180.488 94.0314 180.947 93.7328 181.544C93.4341 182.12 93.2848 182.803 93.2848 183.592V184.52C93.2848 185.373 93.4554 186.109 93.7968 186.728C94.1594 187.347 94.6714 187.827 95.3328 188.168C95.9941 188.488 96.7834 188.648 97.7008 188.648C98.5541 188.648 99.2794 188.531 99.8768 188.296C100.495 188.04 101.103 187.656 101.701 187.144L104.901 190.472C104.069 191.389 103.045 192.093 101.829 192.584C100.613 193.053 99.1728 193.288 97.5088 193.288ZM126.009 193.288C123.79 193.288 122.062 192.744 120.825 191.656C119.587 190.547 118.969 188.883 118.969 186.664V171.784H125.049V186.6C125.049 187.219 125.219 187.709 125.561 188.072C125.902 188.413 126.339 188.584 126.873 188.584C127.598 188.584 128.217 188.403 128.729 188.04L130.233 192.296C129.721 192.637 129.091 192.883 128.345 193.032C127.598 193.203 126.819 193.288 126.009 193.288ZM116.441 180.84V176.296H129.017V180.84H116.441ZM132.577 193V175.656H138.369V180.712L137.505 179.272C138.017 177.971 138.849 177 140.001 176.36C141.153 175.699 142.55 175.368 144.193 175.368V180.84C143.916 180.797 143.67 180.776 143.457 180.776C143.265 180.755 143.052 180.744 142.817 180.744C141.58 180.744 140.577 181.085 139.809 181.768C139.041 182.429 138.657 183.517 138.657 185.032V193H132.577ZM156.263 193V189.768L155.847 188.968V183.016C155.847 182.056 155.548 181.32 154.951 180.808C154.375 180.275 153.447 180.008 152.167 180.008C151.335 180.008 150.492 180.147 149.639 180.424C148.785 180.68 148.06 181.043 147.463 181.512L145.415 177.384C146.396 176.744 147.569 176.253 148.935 175.912C150.321 175.549 151.697 175.368 153.063 175.368C155.879 175.368 158.055 176.019 159.591 177.32C161.148 178.6 161.927 180.616 161.927 183.368V193H156.263ZM151.143 193.288C149.756 193.288 148.583 193.053 147.623 192.584C146.663 192.115 145.927 191.475 145.415 190.664C144.924 189.853 144.679 188.947 144.679 187.944C144.679 186.877 144.945 185.96 145.479 185.192C146.033 184.403 146.876 183.805 148.007 183.4C149.137 182.973 150.599 182.76 152.391 182.76H156.487V185.928H153.223C152.241 185.928 151.548 186.088 151.143 186.408C150.759 186.728 150.567 187.155 150.567 187.688C150.567 188.221 150.769 188.648 151.175 188.968C151.58 189.288 152.135 189.448 152.839 189.448C153.5 189.448 154.097 189.288 154.631 188.968C155.185 188.627 155.591 188.115 155.847 187.432L156.679 189.672C156.359 190.867 155.729 191.773 154.791 192.392C153.873 192.989 152.657 193.288 151.143 193.288ZM177.061 175.368C178.405 175.368 179.621 175.645 180.708 176.2C181.797 176.733 182.65 177.565 183.269 178.696C183.909 179.827 184.229 181.288 184.229 183.08V193H178.149V184.072C178.149 182.835 177.893 181.939 177.381 181.384C176.89 180.808 176.197 180.52 175.301 180.52C174.661 180.52 174.074 180.669 173.541 180.968C173.007 181.245 172.591 181.683 172.293 182.28C171.994 182.877 171.845 183.656 171.845 184.616V193H165.765V175.656H171.557V180.584L170.437 179.144C171.098 177.885 172.005 176.947 173.157 176.328C174.309 175.688 175.61 175.368 177.061 175.368ZM194.35 193.288C192.878 193.288 191.438 193.117 190.03 192.776C188.643 192.435 187.523 192.008 186.67 191.496L188.494 187.336C189.304 187.827 190.254 188.221 191.342 188.52C192.43 188.797 193.496 188.936 194.542 188.936C195.566 188.936 196.27 188.829 196.654 188.616C197.059 188.403 197.262 188.115 197.262 187.752C197.262 187.411 197.07 187.165 196.686 187.016C196.323 186.845 195.832 186.717 195.214 186.632C194.616 186.547 193.955 186.451 193.23 186.344C192.504 186.237 191.768 186.099 191.022 185.928C190.296 185.736 189.624 185.459 189.006 185.096C188.408 184.712 187.928 184.2 187.566 183.56C187.203 182.92 187.022 182.109 187.022 181.128C187.022 180.019 187.342 179.037 187.982 178.184C188.643 177.309 189.603 176.627 190.862 176.136C192.12 175.624 193.656 175.368 195.47 175.368C196.686 175.368 197.912 175.496 199.15 175.752C200.408 175.987 201.464 176.349 202.318 176.84L200.494 180.968C199.64 180.477 198.787 180.147 197.934 179.976C197.08 179.784 196.27 179.688 195.502 179.688C194.478 179.688 193.752 179.805 193.326 180.04C192.92 180.275 192.718 180.563 192.718 180.904C192.718 181.245 192.899 181.512 193.262 181.704C193.624 181.875 194.104 182.013 194.702 182.12C195.32 182.205 195.992 182.301 196.718 182.408C197.443 182.493 198.168 182.632 198.894 182.824C199.64 183.016 200.312 183.304 200.91 183.688C201.528 184.051 202.019 184.552 202.382 185.192C202.744 185.811 202.926 186.611 202.926 187.592C202.926 188.659 202.595 189.619 201.934 190.472C201.294 191.325 200.334 192.008 199.054 192.52C197.795 193.032 196.227 193.288 194.35 193.288ZM216.458 193.288C214.986 193.288 213.727 192.968 212.682 192.328C211.636 191.667 210.836 190.685 210.282 189.384C209.748 188.061 209.482 186.376 209.482 184.328C209.482 182.259 209.738 180.573 210.25 179.272C210.762 177.949 211.53 176.968 212.554 176.328C213.599 175.688 214.9 175.368 216.458 175.368C218.036 175.368 219.466 175.741 220.746 176.488C222.047 177.213 223.071 178.248 223.818 179.592C224.586 180.915 224.97 182.493 224.97 184.328C224.97 186.163 224.586 187.752 223.818 189.096C223.071 190.44 222.047 191.475 220.746 192.2C219.466 192.925 218.036 193.288 216.458 193.288ZM205.546 199.208V175.656H211.338V178.6L211.306 184.328L211.626 190.088V199.208H205.546ZM215.178 188.456C215.86 188.456 216.468 188.296 217.002 187.976C217.556 187.656 217.994 187.187 218.314 186.568C218.655 185.949 218.826 185.203 218.826 184.328C218.826 183.453 218.655 182.707 218.314 182.088C217.994 181.469 217.556 181 217.002 180.68C216.468 180.36 215.86 180.2 215.178 180.2C214.495 180.2 213.876 180.36 213.322 180.68C212.788 181 212.351 181.469 212.01 182.088C211.69 182.707 211.53 183.453 211.53 184.328C211.53 185.203 211.69 185.949 212.01 186.568C212.351 187.187 212.788 187.656 213.322 187.976C213.876 188.296 214.495 188.456 215.178 188.456ZM236.5 193.288C234.601 193.288 232.916 192.904 231.444 192.136C229.972 191.368 228.809 190.312 227.956 188.968C227.124 187.603 226.708 186.045 226.708 184.296C226.708 182.547 227.124 181 227.956 179.656C228.809 178.312 229.972 177.267 231.444 176.52C232.916 175.752 234.601 175.368 236.5 175.368C238.398 175.368 240.084 175.752 241.556 176.52C243.049 177.267 244.212 178.312 245.044 179.656C245.876 181 246.292 182.547 246.292 184.296C246.292 186.045 245.876 187.603 245.044 188.968C244.212 190.312 243.049 191.368 241.556 192.136C240.084 192.904 238.398 193.288 236.5 193.288ZM236.5 188.456C237.204 188.456 237.822 188.296 238.356 187.976C238.91 187.656 239.348 187.187 239.668 186.568C239.988 185.928 240.148 185.171 240.148 184.296C240.148 183.421 239.988 182.685 239.668 182.088C239.348 181.469 238.91 181 238.356 180.68C237.822 180.36 237.204 180.2 236.5 180.2C235.817 180.2 235.198 180.36 234.644 180.68C234.11 181 233.673 181.469 233.332 182.088C233.012 182.685 232.852 183.421 232.852 184.296C232.852 185.171 233.012 185.928 233.332 186.568C233.673 187.187 234.11 187.656 234.644 187.976C235.198 188.296 235.817 188.456 236.5 188.456ZM249.108 193V175.656H254.9V180.712L254.036 179.272C254.548 177.971 255.38 177 256.532 176.36C257.684 175.699 259.082 175.368 260.724 175.368V180.84C260.447 180.797 260.202 180.776 259.988 180.776C259.796 180.755 259.583 180.744 259.348 180.744C258.111 180.744 257.108 181.085 256.34 181.768C255.572 182.429 255.188 183.517 255.188 185.032V193H249.108ZM271.509 193.288C269.29 193.288 267.562 192.744 266.325 191.656C265.087 190.547 264.469 188.883 264.469 186.664V171.784H270.549V186.6C270.549 187.219 270.719 187.709 271.061 188.072C271.402 188.413 271.839 188.584 272.373 188.584C273.098 188.584 273.717 188.403 274.229 188.04L275.733 192.296C275.221 192.637 274.591 192.883 273.845 193.032C273.098 193.203 272.319 193.288 271.509 193.288ZM261.941 180.84V176.296H274.517V180.84H261.941ZM76.504 223.288C74.9253 223.288 73.4853 222.925 72.184 222.2C70.904 221.453 69.88 220.419 69.112 219.096C68.344 217.752 67.96 216.152 67.96 214.296C67.96 212.461 68.344 210.883 69.112 209.56C69.88 208.216 70.904 207.181 72.184 206.456C73.4853 205.731 74.9253 205.368 76.504 205.368C77.9973 205.368 79.256 205.688 80.28 206.328C81.3253 206.968 82.1147 207.949 82.648 209.272C83.1813 210.595 83.448 212.269 83.448 214.296C83.448 216.365 83.192 218.061 82.68 219.384C82.168 220.707 81.4 221.688 80.376 222.328C79.352 222.968 78.0613 223.288 76.504 223.288ZM77.784 218.456C78.4667 218.456 79.0747 218.296 79.608 217.976C80.1627 217.656 80.6 217.187 80.92 216.568C81.24 215.928 81.4 215.171 81.4 214.296C81.4 213.421 81.24 212.685 80.92 212.088C80.6 211.469 80.1627 211 79.608 210.68C79.0747 210.36 78.4667 210.2 77.784 210.2C77.08 210.2 76.4507 210.36 75.896 210.68C75.3627 211 74.936 211.469 74.616 212.088C74.296 212.685 74.136 213.421 74.136 214.296C74.136 215.171 74.296 215.928 74.616 216.568C74.936 217.187 75.3627 217.656 75.896 217.976C76.4507 218.296 77.08 218.456 77.784 218.456ZM81.592 223V220.024L81.624 214.296L81.304 208.568V199.256H87.384V223H81.592ZM100.384 223.288C98.3358 223.288 96.5438 222.904 95.0078 222.136C93.4931 221.347 92.3091 220.28 91.4557 218.936C90.6238 217.571 90.2078 216.024 90.2078 214.296C90.2078 212.568 90.6131 211.032 91.4238 209.688C92.2558 208.323 93.3971 207.267 94.8478 206.52C96.2984 205.752 97.9304 205.368 99.7438 205.368C101.45 205.368 103.008 205.72 104.416 206.424C105.824 207.107 106.944 208.12 107.776 209.464C108.608 210.808 109.024 212.44 109.024 214.36C109.024 214.573 109.013 214.819 108.992 215.096C108.97 215.373 108.949 215.629 108.928 215.864H95.1998V212.664H105.696L103.392 213.56C103.413 212.771 103.264 212.088 102.944 211.512C102.645 210.936 102.218 210.488 101.664 210.168C101.13 209.848 100.501 209.688 99.7758 209.688C99.0504 209.688 98.4104 209.848 97.8558 210.168C97.3224 210.488 96.9064 210.947 96.6078 211.544C96.3091 212.12 96.1598 212.803 96.1598 213.592V214.52C96.1598 215.373 96.3304 216.109 96.6718 216.728C97.0344 217.347 97.5464 217.827 98.2078 218.168C98.8691 218.488 99.6584 218.648 100.576 218.648C101.429 218.648 102.154 218.531 102.752 218.296C103.37 218.04 103.978 217.656 104.576 217.144L107.776 220.472C106.944 221.389 105.92 222.093 104.704 222.584C103.488 223.053 102.048 223.288 100.384 223.288ZM128.692 223.288C127.113 223.288 125.673 222.925 124.372 222.2C123.092 221.453 122.068 220.419 121.299 219.096C120.532 217.752 120.148 216.152 120.148 214.296C120.148 212.461 120.532 210.883 121.299 209.56C122.068 208.216 123.092 207.181 124.372 206.456C125.673 205.731 127.113 205.368 128.692 205.368C130.185 205.368 131.444 205.688 132.468 206.328C133.513 206.968 134.302 207.949 134.836 209.272C135.369 210.595 135.635 212.269 135.635 214.296C135.635 216.365 135.38 218.061 134.868 219.384C134.356 220.707 133.588 221.688 132.564 222.328C131.54 222.968 130.249 223.288 128.692 223.288ZM129.972 218.456C130.654 218.456 131.262 218.296 131.796 217.976C132.35 217.656 132.788 217.187 133.108 216.568C133.428 215.928 133.588 215.171 133.588 214.296C133.588 213.421 133.428 212.685 133.108 212.088C132.788 211.469 132.35 211 131.796 210.68C131.262 210.36 130.654 210.2 129.972 210.2C129.268 210.2 128.638 210.36 128.084 210.68C127.55 211 127.124 211.469 126.804 212.088C126.484 212.685 126.324 213.421 126.324 214.296C126.324 215.171 126.484 215.928 126.804 216.568C127.124 217.187 127.55 217.656 128.084 217.976C128.638 218.296 129.268 218.456 129.972 218.456ZM133.78 223V220.024L133.812 214.296L133.492 208.568V199.256H139.572V223H133.78ZM152.571 223.288C150.523 223.288 148.731 222.904 147.195 222.136C145.681 221.347 144.497 220.28 143.643 218.936C142.811 217.571 142.395 216.024 142.395 214.296C142.395 212.568 142.801 211.032 143.611 209.688C144.443 208.323 145.585 207.267 147.035 206.52C148.486 205.752 150.118 205.368 151.931 205.368C153.638 205.368 155.195 205.72 156.603 206.424C158.011 207.107 159.131 208.12 159.963 209.464C160.795 210.808 161.211 212.44 161.211 214.36C161.211 214.573 161.201 214.819 161.179 215.096C161.158 215.373 161.137 215.629 161.115 215.864H147.387V212.664H157.883L155.579 213.56C155.601 212.771 155.451 212.088 155.131 211.512C154.833 210.936 154.406 210.488 153.851 210.168C153.318 209.848 152.689 209.688 151.963 209.688C151.238 209.688 150.598 209.848 150.043 210.168C149.51 210.488 149.094 210.947 148.795 211.544C148.497 212.12 148.347 212.803 148.347 213.592V214.52C148.347 215.373 148.518 216.109 148.859 216.728C149.222 217.347 149.734 217.827 150.395 218.168C151.057 218.488 151.846 218.648 152.763 218.648C153.617 218.648 154.342 218.531 154.939 218.296C155.558 218.04 156.166 217.656 156.763 217.144L159.963 220.472C159.131 221.389 158.107 222.093 156.891 222.584C155.675 223.053 154.235 223.288 152.571 223.288ZM186.607 205.368C187.951 205.368 189.145 205.645 190.191 206.2C191.257 206.733 192.089 207.565 192.687 208.696C193.305 209.827 193.615 211.288 193.615 213.08V223H187.535V214.072C187.535 212.835 187.3 211.939 186.831 211.384C186.361 210.808 185.721 210.52 184.911 210.52C184.335 210.52 183.812 210.659 183.343 210.936C182.873 211.213 182.511 211.64 182.255 212.216C181.999 212.771 181.871 213.496 181.871 214.392V223H175.791V214.072C175.791 212.835 175.556 211.939 175.087 211.384C174.639 210.808 173.999 210.52 173.167 210.52C172.569 210.52 172.036 210.659 171.567 210.936C171.119 211.213 170.756 211.64 170.479 212.216C170.223 212.771 170.095 213.496 170.095 214.392V223H164.015V205.656H169.807V210.488L168.655 209.112C169.295 207.875 170.169 206.947 171.279 206.328C172.388 205.688 173.625 205.368 174.991 205.368C176.548 205.368 177.913 205.773 179.087 206.584C180.281 207.373 181.081 208.611 181.487 210.296L179.503 209.88C180.121 208.472 181.049 207.373 182.287 206.584C183.545 205.773 184.985 205.368 186.607 205.368ZM208.044 223V219.768L207.628 218.968V213.016C207.628 212.056 207.329 211.32 206.732 210.808C206.156 210.275 205.228 210.008 203.948 210.008C203.116 210.008 202.273 210.147 201.42 210.424C200.567 210.68 199.841 211.043 199.244 211.512L197.196 207.384C198.177 206.744 199.351 206.253 200.716 205.912C202.103 205.549 203.479 205.368 204.844 205.368C207.66 205.368 209.836 206.019 211.372 207.32C212.929 208.6 213.708 210.616 213.708 213.368V223H208.044ZM202.924 223.288C201.537 223.288 200.364 223.053 199.404 222.584C198.444 222.115 197.708 221.475 197.196 220.664C196.705 219.853 196.46 218.947 196.46 217.944C196.46 216.877 196.727 215.96 197.26 215.192C197.815 214.403 198.657 213.805 199.788 213.4C200.919 212.973 202.38 212.76 204.172 212.76H208.268V215.928H205.004C204.023 215.928 203.329 216.088 202.924 216.408C202.54 216.728 202.348 217.155 202.348 217.688C202.348 218.221 202.551 218.648 202.956 218.968C203.361 219.288 203.916 219.448 204.62 219.448C205.281 219.448 205.879 219.288 206.412 218.968C206.967 218.627 207.372 218.115 207.628 217.432L208.46 219.672C208.14 220.867 207.511 221.773 206.572 222.392C205.655 222.989 204.439 223.288 202.924 223.288ZM217.546 223V205.656H223.626V223H217.546ZM220.586 203.736C219.476 203.736 218.58 203.427 217.898 202.808C217.215 202.189 216.874 201.421 216.874 200.504C216.874 199.587 217.215 198.819 217.898 198.2C218.58 197.581 219.476 197.272 220.586 197.272C221.695 197.272 222.591 197.571 223.274 198.168C223.956 198.744 224.298 199.491 224.298 200.408C224.298 201.368 223.956 202.168 223.274 202.808C222.612 203.427 221.716 203.736 220.586 203.736ZM238.873 205.368C240.217 205.368 241.433 205.645 242.521 206.2C243.609 206.733 244.462 207.565 245.081 208.696C245.721 209.827 246.041 211.288 246.041 213.08V223H239.961V214.072C239.961 212.835 239.705 211.939 239.193 211.384C238.702 210.808 238.009 210.52 237.113 210.52C236.473 210.52 235.886 210.669 235.353 210.968C234.82 211.245 234.404 211.683 234.105 212.28C233.806 212.877 233.657 213.656 233.657 214.616V223H227.577V205.656H233.369V210.584L232.249 209.144C232.91 207.885 233.817 206.947 234.969 206.328C236.121 205.688 237.422 205.368 238.873 205.368Z" fill="white"/>
<path d="M76.504 264.144C74.36 264.144 72.672 263.528 71.44 262.296C70.208 261.064 69.592 259.24 69.592 256.824V247.2H71.368V256.752C71.368 258.736 71.816 260.2 72.712 261.144C73.608 262.088 74.872 262.56 76.504 262.56C78.152 262.56 79.424 262.088 80.32 261.144C81.216 260.2 81.664 258.736 81.664 256.752V247.2H83.392V256.824C83.392 259.24 82.776 261.064 81.544 262.296C80.328 263.528 78.648 264.144 76.504 264.144ZM94.8158 251.28C95.8398 251.28 96.7358 251.48 97.5038 251.88C98.2878 252.264 98.8958 252.856 99.3278 253.656C99.7758 254.456 99.9998 255.464 99.9998 256.68V264H98.2958V256.848C98.2958 255.52 97.9598 254.52 97.2878 253.848C96.6318 253.16 95.7038 252.816 94.5038 252.816C93.6078 252.816 92.8238 253 92.1518 253.368C91.4958 253.72 90.9838 254.24 90.6158 254.928C90.2638 255.6 90.0878 256.416 90.0878 257.376V264H88.3838V251.4H90.0158V254.856L89.7518 254.208C90.1518 253.296 90.7918 252.584 91.6718 252.072C92.5518 251.544 93.5998 251.28 94.8158 251.28ZM109.955 264.12C108.643 264.12 107.491 263.848 106.499 263.304C105.507 262.744 104.731 261.984 104.171 261.024C103.611 260.048 103.331 258.936 103.331 257.688C103.331 256.44 103.595 255.336 104.123 254.376C104.667 253.416 105.403 252.664 106.331 252.12C107.275 251.56 108.331 251.28 109.499 251.28C110.683 251.28 111.731 251.552 112.643 252.096C113.571 252.624 114.299 253.376 114.827 254.352C115.355 255.312 115.619 256.424 115.619 257.688C115.619 257.768 115.611 257.856 115.595 257.952C115.595 258.032 115.595 258.12 115.595 258.216H104.627V256.944H114.683L114.011 257.448C114.011 256.536 113.811 255.728 113.411 255.024C113.027 254.304 112.499 253.744 111.827 253.344C111.155 252.944 110.379 252.744 109.499 252.744C108.635 252.744 107.859 252.944 107.171 253.344C106.483 253.744 105.947 254.304 105.563 255.024C105.179 255.744 104.987 256.568 104.987 257.496V257.76C104.987 258.72 105.195 259.568 105.611 260.304C106.043 261.024 106.635 261.592 107.387 262.008C108.155 262.408 109.027 262.608 110.003 262.608C110.771 262.608 111.483 262.472 112.139 262.2C112.811 261.928 113.387 261.512 113.867 260.952L114.827 262.056C114.267 262.728 113.563 263.24 112.715 263.592C111.883 263.944 110.963 264.12 109.955 264.12ZM128.752 264.12C127.712 264.12 126.728 263.976 125.8 263.688C124.872 263.384 124.144 263.008 123.616 262.56L124.384 261.216C124.896 261.6 125.552 261.936 126.352 262.224C127.152 262.496 127.992 262.632 128.872 262.632C130.072 262.632 130.936 262.448 131.464 262.08C131.992 261.696 132.256 261.192 132.256 260.568C132.256 260.104 132.104 259.744 131.8 259.488C131.512 259.216 131.128 259.016 130.648 258.888C130.168 258.744 129.632 258.624 129.04 258.528C128.448 258.432 127.856 258.32 127.264 258.192C126.688 258.064 126.16 257.88 125.68 257.64C125.2 257.384 124.808 257.04 124.504 256.608C124.216 256.176 124.072 255.6 124.072 254.88C124.072 254.192 124.264 253.576 124.648 253.032C125.032 252.488 125.592 252.064 126.328 251.76C127.08 251.44 127.992 251.28 129.064 251.28C129.88 251.28 130.696 251.392 131.512 251.616C132.328 251.824 133 252.104 133.528 252.456L132.784 253.824C132.224 253.44 131.624 253.168 130.984 253.008C130.344 252.832 129.704 252.744 129.064 252.744C127.928 252.744 127.088 252.944 126.544 253.344C126.016 253.728 125.752 254.224 125.752 254.832C125.752 255.312 125.896 255.688 126.184 255.96C126.488 256.232 126.88 256.448 127.36 256.608C127.856 256.752 128.392 256.872 128.968 256.968C129.56 257.064 130.144 257.184 130.72 257.328C131.312 257.456 131.848 257.64 132.328 257.88C132.824 258.104 133.216 258.432 133.504 258.864C133.808 259.28 133.96 259.832 133.96 260.52C133.96 261.256 133.752 261.896 133.336 262.44C132.936 262.968 132.344 263.384 131.56 263.688C130.792 263.976 129.856 264.12 128.752 264.12ZM142.223 264.12C141.007 264.12 139.911 263.848 138.935 263.304C137.975 262.744 137.215 261.984 136.655 261.024C136.095 260.048 135.815 258.936 135.815 257.688C135.815 256.424 136.095 255.312 136.655 254.352C137.215 253.392 137.975 252.64 138.935 252.096C139.895 251.552 140.991 251.28 142.223 251.28C143.471 251.28 144.575 251.552 145.535 252.096C146.511 252.64 147.271 253.392 147.815 254.352C148.375 255.312 148.655 256.424 148.655 257.688C148.655 258.936 148.375 260.048 147.815 261.024C147.271 261.984 146.511 262.744 145.535 263.304C144.559 263.848 143.455 264.12 142.223 264.12ZM142.223 262.608C143.135 262.608 143.943 262.408 144.647 262.008C145.351 261.592 145.903 261.016 146.303 260.28C146.719 259.528 146.927 258.664 146.927 257.688C146.927 256.696 146.719 255.832 146.303 255.096C145.903 254.36 145.351 253.792 144.647 253.392C143.943 252.976 143.143 252.768 142.247 252.768C141.351 252.768 140.551 252.976 139.847 253.392C139.143 253.792 138.583 254.36 138.167 255.096C137.751 255.832 137.543 256.696 137.543 257.688C137.543 258.664 137.751 259.528 138.167 260.28C138.583 261.016 139.143 261.592 139.847 262.008C140.551 262.408 141.343 262.608 142.223 262.608ZM152.134 264V246.192H153.838V264H152.134ZM163.787 264.12C162.715 264.12 161.779 263.92 160.979 263.52C160.179 263.12 159.555 262.52 159.107 261.72C158.675 260.92 158.459 259.92 158.459 258.72V251.4H160.163V258.528C160.163 259.872 160.491 260.888 161.147 261.576C161.819 262.248 162.755 262.584 163.955 262.584C164.835 262.584 165.595 262.408 166.235 262.056C166.891 261.688 167.387 261.16 167.723 260.472C168.075 259.784 168.251 258.96 168.251 258V251.4H169.955V264H168.323V260.544L168.587 261.168C168.187 262.096 167.563 262.824 166.715 263.352C165.883 263.864 164.907 264.12 163.787 264.12ZM178.688 264.12C177.504 264.12 176.592 263.8 175.952 263.16C175.312 262.52 174.992 261.616 174.992 260.448V248.616H176.696V260.352C176.696 261.088 176.88 261.656 177.248 262.056C177.632 262.456 178.176 262.656 178.88 262.656C179.632 262.656 180.256 262.44 180.752 262.008L181.352 263.232C181.016 263.536 180.608 263.76 180.128 263.904C179.664 264.048 179.184 264.12 178.688 264.12ZM172.736 252.816V251.4H180.536V252.816H172.736ZM184.454 264V251.4H186.158V264H184.454ZM185.318 248.616C184.966 248.616 184.67 248.496 184.43 248.256C184.19 248.016 184.07 247.728 184.07 247.392C184.07 247.056 184.19 246.776 184.43 246.552C184.67 246.312 184.966 246.192 185.318 246.192C185.67 246.192 185.966 246.304 186.206 246.528C186.446 246.752 186.566 247.032 186.566 247.368C186.566 247.72 186.446 248.016 186.206 248.256C185.982 248.496 185.686 248.616 185.318 248.616ZM196.035 264.12C194.819 264.12 193.723 263.848 192.747 263.304C191.787 262.744 191.027 261.984 190.467 261.024C189.907 260.048 189.627 258.936 189.627 257.688C189.627 256.424 189.907 255.312 190.467 254.352C191.027 253.392 191.787 252.64 192.747 252.096C193.707 251.552 194.803 251.28 196.035 251.28C197.283 251.28 198.387 251.552 199.347 252.096C200.323 252.64 201.083 253.392 201.627 254.352C202.187 255.312 202.467 256.424 202.467 257.688C202.467 258.936 202.187 260.048 201.627 261.024C201.083 261.984 200.323 262.744 199.347 263.304C198.371 263.848 197.267 264.12 196.035 264.12ZM196.035 262.608C196.947 262.608 197.755 262.408 198.459 262.008C199.163 261.592 199.715 261.016 200.115 260.28C200.531 259.528 200.739 258.664 200.739 257.688C200.739 256.696 200.531 255.832 200.115 255.096C199.715 254.36 199.163 253.792 198.459 253.392C197.755 252.976 196.955 252.768 196.059 252.768C195.163 252.768 194.363 252.976 193.659 253.392C192.955 253.792 192.395 254.36 191.979 255.096C191.563 255.832 191.355 256.696 191.355 257.688C191.355 258.664 191.563 259.528 191.979 260.28C192.395 261.016 192.955 261.592 193.659 262.008C194.363 262.408 195.155 262.608 196.035 262.608ZM212.378 251.28C213.402 251.28 214.298 251.48 215.066 251.88C215.85 252.264 216.458 252.856 216.89 253.656C217.338 254.456 217.562 255.464 217.562 256.68V264H215.858V256.848C215.858 255.52 215.522 254.52 214.85 253.848C214.194 253.16 213.266 252.816 212.066 252.816C211.17 252.816 210.386 253 209.714 253.368C209.058 253.72 208.546 254.24 208.178 254.928C207.826 255.6 207.65 256.416 207.65 257.376V264H205.946V251.4H207.578V254.856L207.314 254.208C207.714 253.296 208.354 252.584 209.234 252.072C210.114 251.544 211.162 251.28 212.378 251.28ZM231.83 264.12C230.79 264.12 229.806 263.976 228.878 263.688C227.95 263.384 227.222 263.008 226.694 262.56L227.462 261.216C227.974 261.6 228.63 261.936 229.43 262.224C230.23 262.496 231.07 262.632 231.95 262.632C233.15 262.632 234.014 262.448 234.542 262.08C235.07 261.696 235.334 261.192 235.334 260.568C235.334 260.104 235.182 259.744 234.878 259.488C234.59 259.216 234.206 259.016 233.726 258.888C233.246 258.744 232.71 258.624 232.118 258.528C231.526 258.432 230.934 258.32 230.342 258.192C229.766 258.064 229.238 257.88 228.758 257.64C228.278 257.384 227.886 257.04 227.582 256.608C227.294 256.176 227.15 255.6 227.15 254.88C227.15 254.192 227.342 253.576 227.726 253.032C228.11 252.488 228.67 252.064 229.406 251.76C230.158 251.44 231.07 251.28 232.142 251.28C232.958 251.28 233.774 251.392 234.59 251.616C235.406 251.824 236.078 252.104 236.606 252.456L235.862 253.824C235.302 253.44 234.702 253.168 234.062 253.008C233.422 252.832 232.782 252.744 232.142 252.744C231.006 252.744 230.166 252.944 229.622 253.344C229.094 253.728 228.83 254.224 228.83 254.832C228.83 255.312 228.974 255.688 229.262 255.96C229.566 256.232 229.958 256.448 230.438 256.608C230.934 256.752 231.47 256.872 232.046 256.968C232.638 257.064 233.222 257.184 233.798 257.328C234.39 257.456 234.926 257.64 235.406 257.88C235.902 258.104 236.294 258.432 236.582 258.864C236.886 259.28 237.038 259.832 237.038 260.52C237.038 261.256 236.83 261.896 236.414 262.44C236.014 262.968 235.422 263.384 234.638 263.688C233.87 263.976 232.934 264.12 231.83 264.12ZM240.165 264V251.4H241.869V264H240.165ZM241.029 248.616C240.677 248.616 240.381 248.496 240.141 248.256C239.901 248.016 239.781 247.728 239.781 247.392C239.781 247.056 239.901 246.776 240.141 246.552C240.381 246.312 240.677 246.192 241.029 246.192C241.381 246.192 241.677 246.304 241.917 246.528C242.157 246.752 242.277 247.032 242.277 247.368C242.277 247.72 242.157 248.016 241.917 248.256C241.693 248.496 241.397 248.616 241.029 248.616ZM262.354 251.28C263.378 251.28 264.266 251.48 265.018 251.88C265.786 252.264 266.378 252.856 266.794 253.656C267.226 254.456 267.442 255.464 267.442 256.68V264H265.738V256.848C265.738 255.52 265.418 254.52 264.778 253.848C264.154 253.16 263.266 252.816 262.114 252.816C261.25 252.816 260.498 253 259.858 253.368C259.234 253.72 258.746 254.24 258.394 254.928C258.058 255.6 257.89 256.416 257.89 257.376V264H256.186V256.848C256.186 255.52 255.866 254.52 255.226 253.848C254.586 253.16 253.69 252.816 252.538 252.816C251.69 252.816 250.946 253 250.306 253.368C249.666 253.72 249.17 254.24 248.818 254.928C248.482 255.6 248.314 256.416 248.314 257.376V264H246.61V251.4H248.242V254.808L247.978 254.208C248.362 253.296 248.978 252.584 249.826 252.072C250.69 251.544 251.706 251.28 252.874 251.28C254.106 251.28 255.154 251.592 256.018 252.216C256.882 252.824 257.442 253.744 257.698 254.976L257.026 254.712C257.394 253.688 258.042 252.864 258.97 252.24C259.914 251.6 261.042 251.28 262.354 251.28ZM278.568 264.12C277.48 264.12 276.496 263.872 275.616 263.376C274.736 262.864 274.032 262.136 273.504 261.192C272.992 260.232 272.736 259.064 272.736 257.688C272.736 256.312 272.992 255.152 273.504 254.208C274.016 253.248 274.712 252.52 275.592 252.024C276.472 251.528 277.464 251.28 278.568 251.28C279.768 251.28 280.84 251.552 281.784 252.096C282.744 252.624 283.496 253.376 284.04 254.352C284.584 255.312 284.856 256.424 284.856 257.688C284.856 258.968 284.584 260.088 284.04 261.048C283.496 262.008 282.744 262.76 281.784 263.304C280.84 263.848 279.768 264.12 278.568 264.12ZM272.064 268.656V251.4H273.696V255.192L273.528 257.712L273.768 260.256V268.656H272.064ZM278.448 262.608C279.344 262.608 280.144 262.408 280.848 262.008C281.552 261.592 282.112 261.016 282.528 260.28C282.944 259.528 283.152 258.664 283.152 257.688C283.152 256.712 282.944 255.856 282.528 255.12C282.112 254.384 281.552 253.808 280.848 253.392C280.144 252.976 279.344 252.768 278.448 252.768C277.552 252.768 276.744 252.976 276.023 253.392C275.32 253.808 274.76 254.384 274.344 255.12C273.944 255.856 273.744 256.712 273.744 257.688C273.744 258.664 273.944 259.528 274.344 260.28C274.76 261.016 275.32 261.592 276.023 262.008C276.744 262.408 277.552 262.608 278.448 262.608ZM288.329 264V246.192H290.033V264H288.329ZM300.126 264.12C298.814 264.12 297.662 263.848 296.67 263.304C295.678 262.744 294.902 261.984 294.342 261.024C293.782 260.048 293.502 258.936 293.502 257.688C293.502 256.44 293.766 255.336 294.294 254.376C294.838 253.416 295.574 252.664 296.502 252.12C297.446 251.56 298.502 251.28 299.67 251.28C300.854 251.28 301.902 251.552 302.814 252.096C303.742 252.624 304.47 253.376 304.998 254.352C305.526 255.312 305.79 256.424 305.79 257.688C305.79 257.768 305.782 257.856 305.766 257.952C305.766 258.032 305.766 258.12 305.766 258.216H294.798V256.944H304.854L304.182 257.448C304.182 256.536 303.982 255.728 303.582 255.024C303.198 254.304 302.67 253.744 301.998 253.344C301.326 252.944 300.55 252.744 299.67 252.744C298.806 252.744 298.03 252.944 297.342 253.344C296.654 253.744 296.118 254.304 295.734 255.024C295.35 255.744 295.158 256.568 295.158 257.496V257.76C295.158 258.72 295.366 259.568 295.782 260.304C296.214 261.024 296.806 261.592 297.558 262.008C298.326 262.408 299.198 262.608 300.174 262.608C300.942 262.608 301.654 262.472 302.31 262.2C302.982 261.928 303.558 261.512 304.038 260.952L304.998 262.056C304.438 262.728 303.734 263.24 302.886 263.592C302.054 263.944 301.134 264.12 300.126 264.12ZM320.892 264.12C319.58 264.12 318.428 263.848 317.436 263.304C316.444 262.744 315.668 261.984 315.108 261.024C314.548 260.048 314.268 258.936 314.268 257.688C314.268 256.44 314.532 255.336 315.06 254.376C315.604 253.416 316.34 252.664 317.268 252.12C318.212 251.56 319.268 251.28 320.436 251.28C321.62 251.28 322.668 251.552 323.58 252.096C324.508 252.624 325.236 253.376 325.764 254.352C326.292 255.312 326.556 256.424 326.556 257.688C326.556 257.768 326.548 257.856 326.532 257.952C326.532 258.032 326.532 258.12 326.532 258.216H315.564V256.944H325.62L324.948 257.448C324.948 256.536 324.748 255.728 324.348 255.024C323.964 254.304 323.436 253.744 322.764 253.344C322.092 252.944 321.316 252.744 320.436 252.744C319.572 252.744 318.796 252.944 318.108 253.344C317.42 253.744 316.884 254.304 316.5 255.024C316.116 255.744 315.924 256.568 315.924 257.496V257.76C315.924 258.72 316.132 259.568 316.548 260.304C316.98 261.024 317.572 261.592 318.324 262.008C319.092 262.408 319.964 262.608 320.94 262.608C321.708 262.608 322.42 262.472 323.076 262.2C323.748 261.928 324.324 261.512 324.804 260.952L325.764 262.056C325.204 262.728 324.5 263.24 323.652 263.592C322.82 263.944 321.9 264.12 320.892 264.12ZM334.008 264.12C332.824 264.12 331.912 263.8 331.272 263.16C330.632 262.52 330.312 261.616 330.312 260.448V248.616H332.016V260.352C332.016 261.088 332.2 261.656 332.568 262.056C332.952 262.456 333.496 262.656 334.2 262.656C334.952 262.656 335.576 262.44 336.072 262.008L336.672 263.232C336.336 263.536 335.928 263.76 335.448 263.904C334.984 264.048 334.504 264.12 334.008 264.12ZM328.056 252.816V251.4H335.856V252.816H328.056ZM74.728 288.12C73.416 288.12 72.264 287.848 71.272 287.304C70.28 286.744 69.504 285.984 68.944 285.024C68.384 284.048 68.104 282.936 68.104 281.688C68.104 280.44 68.368 279.336 68.896 278.376C69.44 277.416 70.176 276.664 71.104 276.12C72.048 275.56 73.104 275.28 74.272 275.28C75.456 275.28 76.504 275.552 77.416 276.096C78.344 276.624 79.072 277.376 79.6 278.352C80.128 279.312 80.392 280.424 80.392 281.688C80.392 281.768 80.384 281.856 80.368 281.952C80.368 282.032 80.368 282.12 80.368 282.216H69.4V280.944H79.456L78.784 281.448C78.784 280.536 78.584 279.728 78.184 279.024C77.8 278.304 77.272 277.744 76.6 277.344C75.928 276.944 75.152 276.744 74.272 276.744C73.408 276.744 72.632 276.944 71.944 277.344C71.256 277.744 70.72 278.304 70.336 279.024C69.952 279.744 69.76 280.568 69.76 281.496V281.76C69.76 282.72 69.968 283.568 70.384 284.304C70.816 285.024 71.408 285.592 72.16 286.008C72.928 286.408 73.8 286.608 74.776 286.608C75.544 286.608 76.256 286.472 76.912 286.2C77.584 285.928 78.16 285.512 78.64 284.952L79.6 286.056C79.04 286.728 78.336 287.24 77.488 287.592C76.656 287.944 75.736 288.12 74.728 288.12ZM84.1484 288V273.816C84.1484 272.696 84.4764 271.792 85.1324 271.104C85.7884 270.416 86.7324 270.072 87.9644 270.072C88.4444 270.072 88.9084 270.136 89.3564 270.264C89.8044 270.392 90.1804 270.592 90.4844 270.864L89.9084 272.136C89.6684 271.928 89.3884 271.776 89.0684 271.68C88.7484 271.568 88.4044 271.512 88.0364 271.512C87.3164 271.512 86.7644 271.712 86.3804 272.112C85.9964 272.512 85.8044 273.104 85.8044 273.888V275.808L85.8524 276.6V288H84.1484ZM81.8924 276.816V275.4H89.6924V276.816H81.8924ZM92.2812 288V273.816C92.2812 272.696 92.6092 271.792 93.2652 271.104C93.9212 270.416 94.8652 270.072 96.0972 270.072C96.5772 270.072 97.0412 270.136 97.4892 270.264C97.9372 270.392 98.3132 270.592 98.6172 270.864L98.0412 272.136C97.8012 271.928 97.5212 271.776 97.2012 271.68C96.8812 271.568 96.5372 271.512 96.1692 271.512C95.4492 271.512 94.8972 271.712 94.5132 272.112C94.1292 272.512 93.9372 273.104 93.9372 273.888V275.808L93.9852 276.6V288H92.2812ZM90.0252 276.816V275.4H97.8252V276.816H90.0252ZM100.129 288V275.4H101.833V288H100.129ZM100.993 272.616C100.641 272.616 100.345 272.496 100.105 272.256C99.8652 272.016 99.7452 271.728 99.7452 271.392C99.7452 271.056 99.8652 270.776 100.105 270.552C100.345 270.312 100.641 270.192 100.993 270.192C101.345 270.192 101.641 270.304 101.881 270.528C102.121 270.752 102.241 271.032 102.241 271.368C102.241 271.72 102.121 272.016 101.881 272.256C101.657 272.496 101.361 272.616 100.993 272.616ZM111.85 288.12C110.602 288.12 109.482 287.848 108.49 287.304C107.514 286.744 106.746 285.984 106.186 285.024C105.626 284.048 105.346 282.936 105.346 281.688C105.346 280.424 105.626 279.312 106.186 278.352C106.746 277.392 107.514 276.64 108.49 276.096C109.482 275.552 110.602 275.28 111.85 275.28C112.922 275.28 113.89 275.488 114.754 275.904C115.618 276.32 116.298 276.944 116.794 277.776L115.522 278.64C115.09 278 114.554 277.528 113.914 277.224C113.274 276.92 112.578 276.768 111.826 276.768C110.93 276.768 110.122 276.976 109.402 277.392C108.682 277.792 108.114 278.36 107.698 279.096C107.282 279.832 107.074 280.696 107.074 281.688C107.074 282.68 107.282 283.544 107.698 284.28C108.114 285.016 108.682 285.592 109.402 286.008C110.122 286.408 110.93 286.608 111.826 286.608C112.578 286.608 113.274 286.456 113.914 286.152C114.554 285.848 115.09 285.384 115.522 284.76L116.794 285.624C116.298 286.44 115.618 287.064 114.754 287.496C113.89 287.912 112.922 288.12 111.85 288.12ZM128.038 288V285.216L127.966 284.76V280.104C127.966 279.032 127.662 278.208 127.054 277.632C126.462 277.056 125.574 276.768 124.39 276.768C123.574 276.768 122.798 276.904 122.062 277.176C121.326 277.448 120.702 277.808 120.19 278.256L119.422 276.984C120.062 276.44 120.83 276.024 121.726 275.736C122.622 275.432 123.566 275.28 124.558 275.28C126.19 275.28 127.446 275.688 128.326 276.504C129.222 277.304 129.67 278.528 129.67 280.176V288H128.038ZM123.694 288.12C122.75 288.12 121.926 287.968 121.222 287.664C120.534 287.344 120.006 286.912 119.638 286.368C119.27 285.808 119.086 285.168 119.086 284.448C119.086 283.792 119.238 283.2 119.542 282.672C119.862 282.128 120.374 281.696 121.078 281.376C121.798 281.04 122.758 280.872 123.958 280.872H128.302V282.144H124.006C122.79 282.144 121.942 282.36 121.462 282.792C120.998 283.224 120.766 283.76 120.766 284.4C120.766 285.12 121.046 285.696 121.606 286.128C122.166 286.56 122.95 286.776 123.958 286.776C124.918 286.776 125.742 286.56 126.43 286.128C127.134 285.68 127.646 285.04 127.966 284.208L128.35 285.384C128.03 286.216 127.47 286.88 126.67 287.376C125.886 287.872 124.894 288.12 123.694 288.12ZM139.53 288.12C138.282 288.12 137.162 287.848 136.17 287.304C135.194 286.744 134.426 285.984 133.866 285.024C133.306 284.048 133.026 282.936 133.026 281.688C133.026 280.424 133.306 279.312 133.866 278.352C134.426 277.392 135.194 276.64 136.17 276.096C137.162 275.552 138.282 275.28 139.53 275.28C140.602 275.28 141.57 275.488 142.434 275.904C143.298 276.32 143.978 276.944 144.474 277.776L143.202 278.64C142.77 278 142.234 277.528 141.594 277.224C140.954 276.92 140.258 276.768 139.506 276.768C138.61 276.768 137.802 276.976 137.082 277.392C136.362 277.792 135.794 278.36 135.378 279.096C134.962 279.832 134.754 280.696 134.754 281.688C134.754 282.68 134.962 283.544 135.378 284.28C135.794 285.016 136.362 285.592 137.082 286.008C137.802 286.408 138.61 286.608 139.506 286.608C140.258 286.608 140.954 286.456 141.594 286.152C142.234 285.848 142.77 285.384 143.202 284.76L144.474 285.624C143.978 286.44 143.298 287.064 142.434 287.496C141.57 287.912 140.602 288.12 139.53 288.12ZM152.962 288.12C151.65 288.12 150.498 287.848 149.506 287.304C148.514 286.744 147.738 285.984 147.178 285.024C146.618 284.048 146.338 282.936 146.338 281.688C146.338 280.44 146.602 279.336 147.13 278.376C147.674 277.416 148.41 276.664 149.338 276.12C150.282 275.56 151.338 275.28 152.506 275.28C153.69 275.28 154.738 275.552 155.65 276.096C156.578 276.624 157.306 277.376 157.834 278.352C158.362 279.312 158.626 280.424 158.626 281.688C158.626 281.768 158.618 281.856 158.602 281.952C158.602 282.032 158.602 282.12 158.602 282.216H147.634V280.944H157.69L157.018 281.448C157.018 280.536 156.818 279.728 156.418 279.024C156.034 278.304 155.506 277.744 154.834 277.344C154.162 276.944 153.386 276.744 152.506 276.744C151.642 276.744 150.866 276.944 150.178 277.344C149.49 277.744 148.954 278.304 148.57 279.024C148.186 279.744 147.994 280.568 147.994 281.496V281.76C147.994 282.72 148.202 283.568 148.618 284.304C149.05 285.024 149.642 285.592 150.394 286.008C151.162 286.408 152.034 286.608 153.01 286.608C153.778 286.608 154.49 286.472 155.146 286.2C155.818 285.928 156.394 285.512 156.874 284.952L157.834 286.056C157.274 286.728 156.57 287.24 155.722 287.592C154.89 287.944 153.97 288.12 152.962 288.12ZM174.88 288.12C173.792 288.12 172.808 287.872 171.928 287.376C171.048 286.864 170.344 286.136 169.816 285.192C169.304 284.232 169.048 283.064 169.048 281.688C169.048 280.312 169.304 279.152 169.816 278.208C170.328 277.248 171.024 276.52 171.904 276.024C172.784 275.528 173.776 275.28 174.88 275.28C176.08 275.28 177.152 275.552 178.096 276.096C179.056 276.624 179.808 277.376 180.352 278.352C180.896 279.312 181.168 280.424 181.168 281.688C181.168 282.968 180.896 284.088 180.352 285.048C179.808 286.008 179.056 286.76 178.096 287.304C177.152 287.848 176.08 288.12 174.88 288.12ZM168.376 292.656V275.4H170.008V279.192L169.84 281.712L170.08 284.256V292.656H168.376ZM174.76 286.608C175.656 286.608 176.456 286.408 177.16 286.008C177.864 285.592 178.424 285.016 178.84 284.28C179.256 283.528 179.464 282.664 179.464 281.688C179.464 280.712 179.256 279.856 178.84 279.12C178.424 278.384 177.864 277.808 177.16 277.392C176.456 276.976 175.656 276.768 174.76 276.768C173.864 276.768 173.056 276.976 172.336 277.392C171.632 277.808 171.072 278.384 170.656 279.12C170.256 279.856 170.056 280.712 170.056 281.688C170.056 282.664 170.256 283.528 170.656 284.28C171.072 285.016 171.632 285.592 172.336 286.008C173.056 286.408 173.864 286.608 174.76 286.608ZM189.778 288.12C188.562 288.12 187.466 287.848 186.49 287.304C185.53 286.744 184.77 285.984 184.21 285.024C183.65 284.048 183.37 282.936 183.37 281.688C183.37 280.424 183.65 279.312 184.21 278.352C184.77 277.392 185.53 276.64 186.49 276.096C187.45 275.552 188.546 275.28 189.778 275.28C191.026 275.28 192.13 275.552 193.09 276.096C194.066 276.64 194.826 277.392 195.37 278.352C195.93 279.312 196.21 280.424 196.21 281.688C196.21 282.936 195.93 284.048 195.37 285.024C194.826 285.984 194.066 286.744 193.09 287.304C192.114 287.848 191.01 288.12 189.778 288.12ZM189.778 286.608C190.69 286.608 191.498 286.408 192.202 286.008C192.906 285.592 193.458 285.016 193.858 284.28C194.274 283.528 194.482 282.664 194.482 281.688C194.482 280.696 194.274 279.832 193.858 279.096C193.458 278.36 192.906 277.792 192.202 277.392C191.498 276.976 190.698 276.768 189.802 276.768C188.906 276.768 188.106 276.976 187.402 277.392C186.698 277.792 186.138 278.36 185.722 279.096C185.306 279.832 185.098 280.696 185.098 281.688C185.098 282.664 185.306 283.528 185.722 284.28C186.138 285.016 186.698 285.592 187.402 286.008C188.106 286.408 188.898 286.608 189.778 286.608ZM204.897 288.12C203.825 288.12 202.889 287.92 202.089 287.52C201.289 287.12 200.665 286.52 200.217 285.72C199.785 284.92 199.569 283.92 199.569 282.72V275.4H201.273V282.528C201.273 283.872 201.601 284.888 202.257 285.576C202.929 286.248 203.865 286.584 205.065 286.584C205.945 286.584 206.705 286.408 207.345 286.056C208.001 285.688 208.497 285.16 208.833 284.472C209.185 283.784 209.361 282.96 209.361 282V275.4H211.065V288H209.432V284.544L209.697 285.168C209.297 286.096 208.673 286.824 207.825 287.352C206.993 287.864 206.017 288.12 204.897 288.12ZM215.814 288V275.4H217.446V278.832L217.278 278.232C217.63 277.272 218.222 276.544 219.054 276.048C219.886 275.536 220.918 275.28 222.15 275.28V276.936C222.086 276.936 222.022 276.936 221.958 276.936C221.894 276.92 221.83 276.912 221.766 276.912C220.438 276.912 219.398 277.32 218.646 278.136C217.894 278.936 217.518 280.08 217.518 281.568V288H215.814ZM231.728 288V270.192H233.432V288H231.728ZM246.069 288V285.216L245.997 284.76V280.104C245.997 279.032 245.693 278.208 245.085 277.632C244.493 277.056 243.605 276.768 242.421 276.768C241.605 276.768 240.829 276.904 240.093 277.176C239.357 277.448 238.733 277.808 238.221 278.256L237.453 276.984C238.093 276.44 238.861 276.024 239.757 275.736C240.653 275.432 241.597 275.28 242.589 275.28C244.221 275.28 245.477 275.688 246.357 276.504C247.253 277.304 247.701 278.528 247.701 280.176V288H246.069ZM241.725 288.12C240.781 288.12 239.957 287.968 239.253 287.664C238.565 287.344 238.037 286.912 237.669 286.368C237.301 285.808 237.117 285.168 237.117 284.448C237.117 283.792 237.269 283.2 237.573 282.672C237.893 282.128 238.405 281.696 239.109 281.376C239.829 281.04 240.789 280.872 241.989 280.872H246.333V282.144H242.037C240.821 282.144 239.973 282.36 239.493 282.792C239.029 283.224 238.797 283.76 238.797 284.4C238.797 285.12 239.077 285.696 239.637 286.128C240.197 286.56 240.981 286.776 241.989 286.776C242.949 286.776 243.773 286.56 244.461 286.128C245.165 285.68 245.677 285.04 245.997 284.208L246.381 285.384C246.061 286.216 245.501 286.88 244.701 287.376C243.917 287.872 242.925 288.12 241.725 288.12ZM263.986 292.776C262.834 292.776 261.73 292.608 260.674 292.272C259.618 291.936 258.762 291.456 258.106 290.832L258.97 289.536C259.562 290.064 260.29 290.48 261.154 290.784C262.034 291.104 262.962 291.264 263.938 291.264C265.538 291.264 266.714 290.888 267.466 290.136C268.218 289.4 268.594 288.248 268.594 286.68V283.536L268.834 281.376L268.666 279.216V275.4H270.298V286.464C270.298 288.64 269.762 290.232 268.69 291.24C267.634 292.264 266.066 292.776 263.986 292.776ZM263.674 287.52C262.474 287.52 261.394 287.264 260.434 286.752C259.474 286.224 258.714 285.496 258.154 284.568C257.61 283.64 257.338 282.576 257.338 281.376C257.338 280.176 257.61 279.12 258.154 278.208C258.714 277.28 259.474 276.56 260.434 276.048C261.394 275.536 262.474 275.28 263.674 275.28C264.794 275.28 265.802 275.512 266.698 275.976C267.594 276.44 268.306 277.128 268.834 278.04C269.362 278.952 269.626 280.064 269.626 281.376C269.626 282.688 269.362 283.8 268.834 284.712C268.306 285.624 267.594 286.32 266.698 286.8C265.802 287.28 264.794 287.52 263.674 287.52ZM263.842 286.008C264.77 286.008 265.594 285.816 266.314 285.432C267.034 285.032 267.602 284.488 268.018 283.8C268.434 283.096 268.642 282.288 268.642 281.376C268.642 280.464 268.434 279.664 268.018 278.976C267.602 278.288 267.034 277.752 266.314 277.368C265.594 276.968 264.77 276.768 263.842 276.768C262.93 276.768 262.106 276.968 261.37 277.368C260.65 277.752 260.082 278.288 259.666 278.976C259.266 279.664 259.066 280.464 259.066 281.376C259.066 282.288 259.266 283.096 259.666 283.8C260.082 284.488 260.65 285.032 261.37 285.432C262.106 285.816 262.93 286.008 263.842 286.008ZM280.392 288.12C279.08 288.12 277.928 287.848 276.936 287.304C275.944 286.744 275.168 285.984 274.608 285.024C274.048 284.048 273.768 282.936 273.768 281.688C273.768 280.44 274.032 279.336 274.56 278.376C275.104 277.416 275.84 276.664 276.768 276.12C277.712 275.56 278.768 275.28 279.936 275.28C281.12 275.28 282.168 275.552 283.08 276.096C284.008 276.624 284.736 277.376 285.264 278.352C285.792 279.312 286.056 280.424 286.056 281.688C286.056 281.768 286.048 281.856 286.032 281.952C286.032 282.032 286.032 282.12 286.032 282.216H275.064V280.944H285.12L284.448 281.448C284.448 280.536 284.248 279.728 283.848 279.024C283.464 278.304 282.936 277.744 282.264 277.344C281.592 276.944 280.816 276.744 279.936 276.744C279.072 276.744 278.296 276.944 277.608 277.344C276.92 277.744 276.384 278.304 276 279.024C275.616 279.744 275.424 280.568 275.424 281.496V281.76C275.424 282.72 275.632 283.568 276.048 284.304C276.48 285.024 277.072 285.592 277.824 286.008C278.592 286.408 279.464 286.608 280.44 286.608C281.208 286.608 281.92 286.472 282.576 286.2C283.248 285.928 283.824 285.512 284.304 284.952L285.264 286.056C284.704 286.728 284 287.24 283.152 287.592C282.32 287.944 281.4 288.12 280.392 288.12ZM292.908 288.12C291.868 288.12 290.884 287.976 289.956 287.688C289.028 287.384 288.3 287.008 287.772 286.56L288.54 285.216C289.052 285.6 289.708 285.936 290.508 286.224C291.308 286.496 292.148 286.632 293.028 286.632C294.228 286.632 295.092 286.448 295.62 286.08C296.148 285.696 296.412 285.192 296.412 284.568C296.412 284.104 296.26 283.744 295.956 283.488C295.668 283.216 295.284 283.016 294.804 282.888C294.324 282.744 293.788 282.624 293.196 282.528C292.604 282.432 292.012 282.32 291.42 282.192C290.844 282.064 290.316 281.88 289.836 281.64C289.356 281.384 288.964 281.04 288.66 280.608C288.372 280.176 288.228 279.6 288.228 278.88C288.228 278.192 288.42 277.576 288.804 277.032C289.188 276.488 289.748 276.064 290.484 275.76C291.236 275.44 292.148 275.28 293.22 275.28C294.036 275.28 294.852 275.392 295.668 275.616C296.484 275.824 297.156 276.104 297.684 276.456L296.94 277.824C296.38 277.44 295.78 277.168 295.14 277.008C294.5 276.832 293.86 276.744 293.22 276.744C292.084 276.744 291.244 276.944 290.7 277.344C290.172 277.728 289.908 278.224 289.908 278.832C289.908 279.312 290.052 279.688 290.34 279.96C290.644 280.232 291.036 280.448 291.516 280.608C292.012 280.752 292.548 280.872 293.124 280.968C293.716 281.064 294.3 281.184 294.876 281.328C295.468 281.456 296.004 281.64 296.484 281.88C296.98 282.104 297.372 282.432 297.66 282.864C297.964 283.28 298.116 283.832 298.116 284.52C298.116 285.256 297.908 285.896 297.492 286.44C297.092 286.968 296.5 287.384 295.716 287.688C294.948 287.976 294.012 288.12 292.908 288.12ZM305.227 288.12C304.043 288.12 303.131 287.8 302.491 287.16C301.851 286.52 301.531 285.616 301.531 284.448V272.616H303.235V284.352C303.235 285.088 303.419 285.656 303.787 286.056C304.171 286.456 304.715 286.656 305.419 286.656C306.171 286.656 306.795 286.44 307.291 286.008L307.891 287.232C307.555 287.536 307.147 287.76 306.667 287.904C306.203 288.048 305.723 288.12 305.227 288.12ZM299.275 276.816V275.4H307.075V276.816H299.275ZM310.993 288V275.4H312.697V288H310.993ZM311.857 272.616C311.505 272.616 311.209 272.496 310.969 272.256C310.729 272.016 310.609 271.728 310.609 271.392C310.609 271.056 310.729 270.776 310.969 270.552C311.209 270.312 311.505 270.192 311.857 270.192C312.209 270.192 312.505 270.304 312.745 270.528C312.985 270.752 313.105 271.032 313.105 271.368C313.105 271.72 312.985 272.016 312.745 272.256C312.521 272.496 312.225 272.616 311.857 272.616ZM322.575 288.12C321.359 288.12 320.263 287.848 319.287 287.304C318.327 286.744 317.567 285.984 317.007 285.024C316.447 284.048 316.167 282.936 316.167 281.688C316.167 280.424 316.447 279.312 317.007 278.352C317.567 277.392 318.327 276.64 319.287 276.096C320.247 275.552 321.343 275.28 322.575 275.28C323.823 275.28 324.927 275.552 325.887 276.096C326.863 276.64 327.623 277.392 328.167 278.352C328.727 279.312 329.007 280.424 329.007 281.688C329.007 282.936 328.727 284.048 328.167 285.024C327.623 285.984 326.863 286.744 325.887 287.304C324.911 287.848 323.807 288.12 322.575 288.12ZM322.575 286.608C323.487 286.608 324.295 286.408 324.999 286.008C325.703 285.592 326.255 285.016 326.655 284.28C327.071 283.528 327.279 282.664 327.279 281.688C327.279 280.696 327.071 279.832 326.655 279.096C326.255 278.36 325.703 277.792 324.999 277.392C324.295 276.976 323.495 276.768 322.599 276.768C321.703 276.768 320.903 276.976 320.199 277.392C319.495 277.792 318.935 278.36 318.519 279.096C318.103 279.832 317.895 280.696 317.895 281.688C317.895 282.664 318.103 283.528 318.519 284.28C318.935 285.016 319.495 285.592 320.199 286.008C320.903 286.408 321.695 286.608 322.575 286.608ZM338.917 275.28C339.941 275.28 340.837 275.48 341.605 275.88C342.389 276.264 342.997 276.856 343.429 277.656C343.877 278.456 344.101 279.464 344.101 280.68V288H342.397V280.848C342.397 279.52 342.061 278.52 341.389 277.848C340.733 277.16 339.805 276.816 338.605 276.816C337.709 276.816 336.925 277 336.253 277.368C335.597 277.72 335.085 278.24 334.717 278.928C334.365 279.6 334.189 280.416 334.189 281.376V288H332.485V275.4H334.117V278.856L333.853 278.208C334.253 277.296 334.893 276.584 335.773 276.072C336.653 275.544 337.701 275.28 338.917 275.28ZM74.392 312.12C73.192 312.12 72.112 311.848 71.152 311.304C70.208 310.76 69.464 310.008 68.92 309.048C68.376 308.072 68.104 306.952 68.104 305.688C68.104 304.408 68.376 303.288 68.92 302.328C69.464 301.368 70.208 300.624 71.152 300.096C72.112 299.552 73.192 299.28 74.392 299.28C75.496 299.28 76.48 299.528 77.344 300.024C78.224 300.52 78.92 301.248 79.432 302.208C79.96 303.152 80.224 304.312 80.224 305.688C80.224 307.048 79.968 308.208 79.456 309.168C78.944 310.128 78.248 310.864 77.368 311.376C76.504 311.872 75.512 312.12 74.392 312.12ZM74.512 310.608C75.408 310.608 76.208 310.408 76.912 310.008C77.632 309.592 78.192 309.016 78.592 308.28C79.008 307.528 79.216 306.664 79.216 305.688C79.216 304.696 79.008 303.832 78.592 303.096C78.192 302.36 77.632 301.792 76.912 301.392C76.208 300.976 75.408 300.768 74.512 300.768C73.632 300.768 72.84 300.976 72.136 301.392C71.432 301.792 70.872 302.36 70.456 303.096C70.04 303.832 69.832 304.696 69.832 305.688C69.832 306.664 70.04 307.528 70.456 308.28C70.872 309.016 71.432 309.592 72.136 310.008C72.84 310.408 73.632 310.608 74.512 310.608ZM79.264 312V308.208L79.432 305.664L79.192 303.12V294.192H80.896V312H79.264ZM90.9936 312.12C89.6816 312.12 88.5296 311.848 87.5376 311.304C86.5456 310.744 85.7696 309.984 85.2096 309.024C84.6496 308.048 84.3696 306.936 84.3696 305.688C84.3696 304.44 84.6336 303.336 85.1616 302.376C85.7056 301.416 86.4416 300.664 87.3696 300.12C88.3136 299.56 89.3696 299.28 90.5376 299.28C91.7216 299.28 92.7696 299.552 93.6816 300.096C94.6096 300.624 95.3376 301.376 95.8656 302.352C96.3936 303.312 96.6576 304.424 96.6576 305.688C96.6576 305.768 96.6496 305.856 96.6336 305.952C96.6336 306.032 96.6336 306.12 96.6336 306.216H85.6656V304.944H95.7216L95.0496 305.448C95.0496 304.536 94.8496 303.728 94.4496 303.024C94.0656 302.304 93.5376 301.744 92.8656 301.344C92.1936 300.944 91.4176 300.744 90.5376 300.744C89.6736 300.744 88.8976 300.944 88.2096 301.344C87.5216 301.744 86.9856 302.304 86.6016 303.024C86.2176 303.744 86.0256 304.568 86.0256 305.496V305.76C86.0256 306.72 86.2336 307.568 86.6496 308.304C87.0816 309.024 87.6736 309.592 88.4256 310.008C89.1936 310.408 90.0656 310.608 91.0416 310.608C91.8096 310.608 92.5216 310.472 93.1776 310.2C93.8496 309.928 94.4256 309.512 94.9056 308.952L95.8656 310.056C95.3056 310.728 94.6016 311.24 93.7536 311.592C92.9216 311.944 92.0016 312.12 90.9936 312.12ZM103.51 312.12C102.47 312.12 101.486 311.976 100.558 311.688C99.63 311.384 98.902 311.008 98.374 310.56L99.142 309.216C99.654 309.6 100.31 309.936 101.11 310.224C101.91 310.496 102.75 310.632 103.63 310.632C104.83 310.632 105.694 310.448 106.222 310.08C106.75 309.696 107.014 309.192 107.014 308.568C107.014 308.104 106.862 307.744 106.558 307.488C106.27 307.216 105.886 307.016 105.406 306.888C104.926 306.744 104.39 306.624 103.798 306.528C103.206 306.432 102.614 306.32 102.022 306.192C101.446 306.064 100.918 305.88 100.438 305.64C99.958 305.384 99.566 305.04 99.262 304.608C98.974 304.176 98.83 303.6 98.83 302.88C98.83 302.192 99.022 301.576 99.406 301.032C99.79 300.488 100.35 300.064 101.086 299.76C101.838 299.44 102.75 299.28 103.822 299.28C104.638 299.28 105.454 299.392 106.27 299.616C107.086 299.824 107.758 300.104 108.286 300.456L107.542 301.824C106.982 301.44 106.382 301.168 105.742 301.008C105.102 300.832 104.462 300.744 103.822 300.744C102.686 300.744 101.846 300.944 101.302 301.344C100.774 301.728 100.51 302.224 100.51 302.832C100.51 303.312 100.654 303.688 100.942 303.96C101.246 304.232 101.638 304.448 102.118 304.608C102.614 304.752 103.15 304.872 103.726 304.968C104.318 305.064 104.902 305.184 105.478 305.328C106.07 305.456 106.606 305.64 107.086 305.88C107.582 306.104 107.974 306.432 108.262 306.864C108.566 307.28 108.718 307.832 108.718 308.52C108.718 309.256 108.51 309.896 108.094 310.44C107.694 310.968 107.102 311.384 106.318 311.688C105.55 311.976 104.614 312.12 103.51 312.12ZM123.142 312.12C121.942 312.12 120.862 311.848 119.902 311.304C118.958 310.76 118.214 310.008 117.67 309.048C117.126 308.072 116.854 306.952 116.854 305.688C116.854 304.408 117.126 303.288 117.67 302.328C118.214 301.368 118.958 300.624 119.902 300.096C120.862 299.552 121.942 299.28 123.142 299.28C124.246 299.28 125.23 299.528 126.094 300.024C126.974 300.52 127.67 301.248 128.182 302.208C128.71 303.152 128.974 304.312 128.974 305.688C128.974 307.048 128.718 308.208 128.206 309.168C127.694 310.128 126.998 310.864 126.118 311.376C125.254 311.872 124.262 312.12 123.142 312.12ZM123.262 310.608C124.158 310.608 124.958 310.408 125.662 310.008C126.382 309.592 126.942 309.016 127.342 308.28C127.758 307.528 127.966 306.664 127.966 305.688C127.966 304.696 127.758 303.832 127.342 303.096C126.942 302.36 126.382 301.792 125.662 301.392C124.958 300.976 124.158 300.768 123.262 300.768C122.382 300.768 121.59 300.976 120.886 301.392C120.182 301.792 119.622 302.36 119.206 303.096C118.79 303.832 118.582 304.696 118.582 305.688C118.582 306.664 118.79 307.528 119.206 308.28C119.622 309.016 120.182 309.592 120.886 310.008C121.59 310.408 122.382 310.608 123.262 310.608ZM128.014 312V308.208L128.182 305.664L127.942 303.12V294.192H129.646V312H128.014ZM139.744 312.12C138.432 312.12 137.28 311.848 136.288 311.304C135.296 310.744 134.52 309.984 133.96 309.024C133.4 308.048 133.12 306.936 133.12 305.688C133.12 304.44 133.384 303.336 133.912 302.376C134.456 301.416 135.192 300.664 136.12 300.12C137.064 299.56 138.12 299.28 139.288 299.28C140.472 299.28 141.52 299.552 142.432 300.096C143.36 300.624 144.088 301.376 144.616 302.352C145.144 303.312 145.408 304.424 145.408 305.688C145.408 305.768 145.4 305.856 145.384 305.952C145.384 306.032 145.384 306.12 145.384 306.216H134.416V304.944H144.472L143.8 305.448C143.8 304.536 143.6 303.728 143.2 303.024C142.816 302.304 142.288 301.744 141.616 301.344C140.944 300.944 140.168 300.744 139.288 300.744C138.424 300.744 137.648 300.944 136.96 301.344C136.272 301.744 135.736 302.304 135.352 303.024C134.968 303.744 134.776 304.568 134.776 305.496V305.76C134.776 306.72 134.984 307.568 135.4 308.304C135.832 309.024 136.424 309.592 137.176 310.008C137.944 310.408 138.816 310.608 139.792 310.608C140.56 310.608 141.272 310.472 141.928 310.2C142.6 309.928 143.176 309.512 143.656 308.952L144.616 310.056C144.056 310.728 143.352 311.24 142.504 311.592C141.672 311.944 140.752 312.12 139.744 312.12ZM137.704 297.432L140.992 294.456H143.272L139.384 297.432H137.704ZM155.38 312.12C154.292 312.12 153.308 311.872 152.428 311.376C151.548 310.864 150.844 310.136 150.316 309.192C149.804 308.232 149.548 307.064 149.548 305.688C149.548 304.312 149.804 303.152 150.316 302.208C150.828 301.248 151.524 300.52 152.404 300.024C153.284 299.528 154.276 299.28 155.38 299.28C156.58 299.28 157.652 299.552 158.596 300.096C159.556 300.624 160.308 301.376 160.852 302.352C161.396 303.312 161.668 304.424 161.668 305.688C161.668 306.968 161.396 308.088 160.852 309.048C160.308 310.008 159.556 310.76 158.596 311.304C157.652 311.848 156.58 312.12 155.38 312.12ZM148.876 316.656V299.4H150.508V303.192L150.34 305.712L150.58 308.256V316.656H148.876ZM155.26 310.608C156.156 310.608 156.956 310.408 157.66 310.008C158.364 309.592 158.924 309.016 159.34 308.28C159.756 307.528 159.964 306.664 159.964 305.688C159.964 304.712 159.756 303.856 159.34 303.12C158.924 302.384 158.364 301.808 157.66 301.392C156.956 300.976 156.156 300.768 155.26 300.768C154.364 300.768 153.556 300.976 152.836 301.392C152.132 301.808 151.572 302.384 151.156 303.12C150.756 303.856 150.556 304.712 150.556 305.688C150.556 306.664 150.756 307.528 151.156 308.28C151.572 309.016 152.132 309.592 152.836 310.008C153.556 310.408 154.364 310.608 155.26 310.608ZM165.142 312V294.192H166.846V312H165.142ZM179.483 312V309.216L179.411 308.76V304.104C179.411 303.032 179.107 302.208 178.499 301.632C177.907 301.056 177.019 300.768 175.835 300.768C175.019 300.768 174.243 300.904 173.507 301.176C172.771 301.448 172.147 301.808 171.635 302.256L170.867 300.984C171.507 300.44 172.275 300.024 173.171 299.736C174.067 299.432 175.011 299.28 176.003 299.28C177.635 299.28 178.891 299.688 179.771 300.504C180.667 301.304 181.115 302.528 181.115 304.176V312H179.483ZM175.139 312.12C174.195 312.12 173.371 311.968 172.667 311.664C171.979 311.344 171.451 310.912 171.083 310.368C170.715 309.808 170.531 309.168 170.531 308.448C170.531 307.792 170.683 307.2 170.987 306.672C171.307 306.128 171.819 305.696 172.523 305.376C173.243 305.04 174.203 304.872 175.403 304.872H179.747V306.144H175.451C174.235 306.144 173.387 306.36 172.907 306.792C172.443 307.224 172.211 307.76 172.211 308.4C172.211 309.12 172.491 309.696 173.051 310.128C173.611 310.56 174.395 310.776 175.403 310.776C176.363 310.776 177.187 310.56 177.875 310.128C178.579 309.68 179.091 309.04 179.411 308.208L179.795 309.384C179.475 310.216 178.915 310.88 178.115 311.376C177.331 311.872 176.339 312.12 175.139 312.12ZM190.975 312.12C189.727 312.12 188.607 311.848 187.615 311.304C186.639 310.744 185.871 309.984 185.311 309.024C184.751 308.048 184.471 306.936 184.471 305.688C184.471 304.424 184.751 303.312 185.311 302.352C185.871 301.392 186.639 300.64 187.615 300.096C188.607 299.552 189.727 299.28 190.975 299.28C192.047 299.28 193.015 299.488 193.879 299.904C194.743 300.32 195.423 300.944 195.919 301.776L194.647 302.64C194.215 302 193.679 301.528 193.039 301.224C192.399 300.92 191.703 300.768 190.951 300.768C190.055 300.768 189.247 300.976 188.527 301.392C187.807 301.792 187.239 302.36 186.823 303.096C186.407 303.832 186.199 304.696 186.199 305.688C186.199 306.68 186.407 307.544 186.823 308.28C187.239 309.016 187.807 309.592 188.527 310.008C189.247 310.408 190.055 310.608 190.951 310.608C191.703 310.608 192.399 310.456 193.039 310.152C193.679 309.848 194.215 309.384 194.647 308.76L195.919 309.624C195.423 310.44 194.743 311.064 193.879 311.496C193.015 311.912 192.047 312.12 190.975 312.12ZM204.408 312.12C203.096 312.12 201.944 311.848 200.952 311.304C199.96 310.744 199.184 309.984 198.624 309.024C198.064 308.048 197.784 306.936 197.784 305.688C197.784 304.44 198.048 303.336 198.576 302.376C199.12 301.416 199.856 300.664 200.784 300.12C201.728 299.56 202.784 299.28 203.952 299.28C205.136 299.28 206.184 299.552 207.096 300.096C208.024 300.624 208.752 301.376 209.28 302.352C209.808 303.312 210.072 304.424 210.072 305.688C210.072 305.768 210.064 305.856 210.048 305.952C210.048 306.032 210.048 306.12 210.048 306.216H199.08V304.944H209.136L208.464 305.448C208.464 304.536 208.264 303.728 207.864 303.024C207.48 302.304 206.952 301.744 206.28 301.344C205.608 300.944 204.832 300.744 203.952 300.744C203.088 300.744 202.312 300.944 201.624 301.344C200.936 301.744 200.4 302.304 200.016 303.024C199.632 303.744 199.44 304.568 199.44 305.496V305.76C199.44 306.72 199.648 307.568 200.064 308.304C200.496 309.024 201.088 309.592 201.84 310.008C202.608 310.408 203.48 310.608 204.456 310.608C205.224 310.608 205.936 310.472 206.592 310.2C207.264 309.928 207.84 309.512 208.32 308.952L209.28 310.056C208.72 310.728 208.016 311.24 207.168 311.592C206.336 311.944 205.416 312.12 204.408 312.12ZM229.284 299.28C230.308 299.28 231.196 299.48 231.948 299.88C232.716 300.264 233.308 300.856 233.724 301.656C234.156 302.456 234.372 303.464 234.372 304.68V312H232.668V304.848C232.668 303.52 232.348 302.52 231.708 301.848C231.084 301.16 230.196 300.816 229.044 300.816C228.18 300.816 227.428 301 226.788 301.368C226.164 301.72 225.676 302.24 225.324 302.928C224.988 303.6 224.82 304.416 224.82 305.376V312H223.116V304.848C223.116 303.52 222.796 302.52 222.156 301.848C221.516 301.16 220.62 300.816 219.468 300.816C218.62 300.816 217.876 301 217.236 301.368C216.596 301.72 216.1 302.24 215.748 302.928C215.412 303.6 215.244 304.416 215.244 305.376V312H213.54V299.4H215.172V302.808L214.908 302.208C215.292 301.296 215.908 300.584 216.756 300.072C217.62 299.544 218.636 299.28 219.804 299.28C221.036 299.28 222.084 299.592 222.948 300.216C223.812 300.824 224.372 301.744 224.628 302.976L223.956 302.712C224.324 301.688 224.972 300.864 225.9 300.24C226.844 299.6 227.972 299.28 229.284 299.28ZM244.345 312.12C243.033 312.12 241.881 311.848 240.889 311.304C239.897 310.744 239.121 309.984 238.561 309.024C238.001 308.048 237.721 306.936 237.721 305.688C237.721 304.44 237.985 303.336 238.513 302.376C239.057 301.416 239.793 300.664 240.721 300.12C241.665 299.56 242.721 299.28 243.889 299.28C245.073 299.28 246.121 299.552 247.033 300.096C247.961 300.624 248.689 301.376 249.217 302.352C249.745 303.312 250.009 304.424 250.009 305.688C250.009 305.768 250.001 305.856 249.985 305.952C249.985 306.032 249.985 306.12 249.985 306.216H239.017V304.944H249.073L248.401 305.448C248.401 304.536 248.201 303.728 247.801 303.024C247.417 302.304 246.889 301.744 246.217 301.344C245.545 300.944 244.769 300.744 243.889 300.744C243.025 300.744 242.249 300.944 241.561 301.344C240.873 301.744 240.337 302.304 239.953 303.024C239.569 303.744 239.377 304.568 239.377 305.496V305.76C239.377 306.72 239.585 307.568 240.001 308.304C240.433 309.024 241.025 309.592 241.777 310.008C242.545 310.408 243.417 310.608 244.393 310.608C245.161 310.608 245.873 310.472 246.529 310.2C247.201 309.928 247.777 309.512 248.257 308.952L249.217 310.056C248.657 310.728 247.953 311.24 247.105 311.592C246.273 311.944 245.353 312.12 244.345 312.12ZM259.91 299.28C260.934 299.28 261.83 299.48 262.598 299.88C263.382 300.264 263.99 300.856 264.422 301.656C264.87 302.456 265.094 303.464 265.094 304.68V312H263.39V304.848C263.39 303.52 263.054 302.52 262.382 301.848C261.726 301.16 260.798 300.816 259.598 300.816C258.702 300.816 257.918 301 257.246 301.368C256.59 301.72 256.078 302.24 255.71 302.928C255.358 303.6 255.182 304.416 255.182 305.376V312H253.478V299.4H255.11V302.856L254.846 302.208C255.246 301.296 255.886 300.584 256.766 300.072C257.646 299.544 258.694 299.28 259.91 299.28ZM273.68 312.12C272.496 312.12 271.584 311.8 270.944 311.16C270.304 310.52 269.984 309.616 269.984 308.448V296.616H271.688V308.352C271.688 309.088 271.872 309.656 272.24 310.056C272.624 310.456 273.168 310.656 273.872 310.656C274.624 310.656 275.248 310.44 275.744 310.008L276.344 311.232C276.008 311.536 275.6 311.76 275.12 311.904C274.656 312.048 274.176 312.12 273.68 312.12ZM267.728 300.816V299.4H275.528V300.816H267.728ZM282.83 312.12C281.79 312.12 280.806 311.976 279.878 311.688C278.95 311.384 278.222 311.008 277.694 310.56L278.462 309.216C278.974 309.6 279.63 309.936 280.43 310.224C281.23 310.496 282.07 310.632 282.95 310.632C284.15 310.632 285.014 310.448 285.542 310.08C286.07 309.696 286.334 309.192 286.334 308.568C286.334 308.104 286.182 307.744 285.878 307.488C285.59 307.216 285.206 307.016 284.726 306.888C284.246 306.744 283.71 306.624 283.118 306.528C282.526 306.432 281.934 306.32 281.342 306.192C280.766 306.064 280.238 305.88 279.758 305.64C279.278 305.384 278.886 305.04 278.582 304.608C278.294 304.176 278.15 303.6 278.15 302.88C278.15 302.192 278.342 301.576 278.726 301.032C279.11 300.488 279.67 300.064 280.406 299.76C281.158 299.44 282.07 299.28 283.142 299.28C283.958 299.28 284.774 299.392 285.59 299.616C286.406 299.824 287.078 300.104 287.606 300.456L286.862 301.824C286.302 301.44 285.702 301.168 285.062 301.008C284.422 300.832 283.782 300.744 283.142 300.744C282.006 300.744 281.166 300.944 280.622 301.344C280.094 301.728 279.83 302.224 279.83 302.832C279.83 303.312 279.974 303.688 280.262 303.96C280.566 304.232 280.958 304.448 281.438 304.608C281.934 304.752 282.47 304.872 283.046 304.968C283.638 305.064 284.222 305.184 284.798 305.328C285.39 305.456 285.926 305.64 286.406 305.88C286.902 306.104 287.294 306.432 287.582 306.864C287.886 307.28 288.038 307.832 288.038 308.52C288.038 309.256 287.83 309.896 287.414 310.44C287.014 310.968 286.422 311.384 285.638 311.688C284.87 311.976 283.934 312.12 282.83 312.12Z" fill="white"/>
<circle cx="667.5" cy="-221.5" r="1490.5" fill="url(#paint0_radial_149_1346)"/>
<path d="M35.6545 76.3044L34.1297 80.8864L32.6049 76.3044H30.6027L29.0779 80.8864L27.5563 76.3044H25L27.5563 83.9968H30.1126L31.6022 79.5111L33.095 83.9968H35.6545L38.2108 76.3044H35.6545Z" fill="white"/>
<path d="M43.2306 78.2291C41.8435 78.2291 41.206 78.8685 41.206 78.8685V76.3044H38.8611V83.9968H41.206V81.2206C41.206 80.1506 41.8435 79.7232 42.6956 79.7232C43.5477 79.7232 43.9738 80.1506 43.9738 81.2206V83.9968H46.3186V81.2206C46.3186 79.0838 45.1494 78.2291 43.2274 78.2291" fill="white"/>
<path d="M55.051 80.9539C55.051 78.8171 53.6639 78.0106 51.1076 78.0106C48.5513 78.0106 47.1643 78.8171 47.1643 80.9539C47.1643 83.0907 48.5609 83.9968 51.1172 83.9968C52.9111 83.9968 53.8337 83.6723 54.5993 82.8432L53.0809 81.9564C52.8118 82.1396 52.5588 82.4994 51.1172 82.4994C50.1466 82.4994 49.6533 82.1331 49.538 81.3812H55.0318L55.0478 80.9539H55.051ZM49.5828 80.3112C49.7526 79.7104 50.1466 79.5079 51.1076 79.5079C52.0687 79.5079 52.4627 79.7104 52.6325 80.3112H49.5828Z" fill="white"/>
<path d="M60.6538 78.2291C59.161 78.2291 58.3121 78.8685 58.3121 78.8685V78.4412H55.9672V83.9968H58.3121V81.2206C58.3121 80.1506 59.0585 79.7232 59.9106 79.7232C60.7627 79.7232 61.5059 80.1506 61.5059 81.2206V83.9968H63.8507V81.2206C63.8507 79.0838 62.5726 78.2291 60.6538 78.2291Z" fill="white"/>
<path d="M72.455 81.5419C73.1854 81.0181 73.6627 80.1602 73.6627 79.1898C73.6627 77.6025 72.3749 76.3044 70.7861 76.3044H64.927V83.9968H67.2687V82.0753H70.0909L71.1032 83.9968H73.7428L72.4518 81.5387L72.455 81.5419ZM70.36 80.1506H67.2687V78.2291H70.36C70.8886 78.2291 71.321 78.6596 71.321 79.1866C71.321 79.7136 70.8918 80.1506 70.36 80.1506Z" fill="white"/>
<path d="M78.2436 78.0106C77.1577 78.0106 75.7386 78.2773 74.7231 78.6468L75.2004 80.1249C75.966 79.8999 76.549 79.6622 78.0482 79.6172C78.9003 79.5883 79.7332 79.7329 79.7332 80.0253C79.7332 80.2373 79.5602 80.3659 78.2436 80.3659C75.6873 80.3659 74.4092 80.896 74.4092 82.1813C74.4092 83.6819 75.8988 84 77.3915 84C78.4198 84 79.0957 83.7847 79.7332 83.3574L79.9478 83.7847H82.0781V80.5812C82.0781 78.4444 81.0114 78.0138 78.2436 78.0138M76.7509 82.0753C76.7509 81.4134 78.029 81.6479 79.7332 81.4359C79.4513 82.6954 76.7509 82.8143 76.7509 82.0753Z" fill="white"/>
<path d="M87.2739 80.88L89.7758 78.4411H87.1426L85.4512 79.9931V76.3044H83.1832V84H85.4512V82.6087L85.8452 82.2392L87.37 84H90L87.2739 80.88Z" fill="white"/>
<path d="M74.832 47.1799C74.7872 48.2114 74.6558 49.2267 74.3707 50.2003C74.2266 50.7112 74.0344 51.2157 73.7909 51.6977C72.8107 53.6802 71.8048 55.6467 70.7829 57.6421C70.1166 58.937 69.4471 60.2448 68.7712 61.5686C68.4925 61.0931 68.2779 60.7171 68.0632 60.3412C67.067 58.6125 66.0739 56.887 65.0713 55.1712L65.0521 54.4546C65.7216 53.1758 66.3751 51.8937 67.0318 50.6084C67.2111 50.2582 67.3873 49.9111 67.5667 49.5577C69.6233 45.5251 67.0862 40.9656 62.579 40.6025L62.4125 40.5896C58.4467 40.3872 55.2016 44.468 56.4221 48.2885C56.7873 49.4292 57.3735 50.5056 57.9437 51.5627C60.4135 56.1448 62.8802 60.7332 65.4333 65.267C65.9971 66.2663 66.0451 67.0118 65.4621 68.0047C64.4594 69.7045 63.6265 71.4974 62.7168 73.2486L62.4253 73.7595C62.0793 73.1297 61.7622 72.5546 61.4418 71.9826C58.7606 67.1757 56.0377 62.3912 53.4141 57.5553C52.357 55.6081 51.4216 53.587 50.6016 51.5306C47.6544 44.1402 51.7516 36.165 59.3724 34.3464C61.5155 33.8323 63.6362 33.9094 65.5902 34.4524L66.0964 34.6066C71.2442 36.2807 75.0851 41.2419 74.832 47.1767" fill="white"/>
<path d="M49.1568 73.7948C48.3367 72.2557 47.5583 70.8098 46.7895 69.3638C41.8819 60.1612 36.9711 50.9618 32.0571 41.7656C31.8745 41.4218 31.8584 41.1615 32.0442 40.8113C33.2071 38.6006 34.3443 36.3771 35.5231 34.0989L35.7634 34.4524C41.4238 45.1106 47.0874 55.772 52.7414 66.4366L52.8086 66.9989C51.6234 69.2353 50.4189 71.4621 49.1568 73.7948Z" fill="white"/>
<path d="M65.3275 47.9703L65.0199 48.5744C64.8245 48.9568 64.6323 49.3359 64.4337 49.7183L62.1305 53.5035C61.336 52.0511 60.5512 50.5923 59.7632 49.1335C59.4332 48.523 59.0905 47.8996 58.8822 47.2409C58.1743 45.0302 60.0515 42.6718 62.3451 42.7906L62.438 42.7971C65.0424 43.0059 66.5127 45.644 65.3243 47.9735" fill="white"/>
</g>
<defs>
<radialGradient id="paint0_radial_149_1346" cx="0" cy="0" r="1" gradientUnits="userSpaceOnUse" gradientTransform="translate(667.5 -355.5) rotate(90) scale(1102)">
<stop stop-color="#FFF0B6"/>
<stop offset="1" stop-color="#FFEB9B" stop-opacity="0"/>
</radialGradient>
<clipPath id="clip0_149_1346">
<rect width="440" height="497" fill="white"/>
</clipPath>
</defs>
</svg>
