<svg width="40" height="40" viewBox="0 0 40 40" fill="none" xmlns="http://www.w3.org/2000/svg">
<rect width="40" height="40" rx="19.0476" fill="#FDC500"/>
<mask id="mask0_1_6193" style="mask-type:alpha" maskUnits="userSpaceOnUse" x="8" y="8" width="24" height="24">
<rect x="8.57129" y="8.57129" width="22.8571" height="22.8571" fill="#D9D9D9"/>
</mask>
<g mask="url(#mask0_1_6193)">
<path d="M20.0001 20.2379C20.6033 20.2379 21.1112 20.0316 21.5239 19.6189C21.9366 19.2062 22.143 18.6983 22.143 18.0951C22.143 17.4919 21.9366 16.984 21.5239 16.5713C21.1112 16.1586 20.6033 15.9522 20.0001 15.9522C19.3969 15.9522 18.889 16.1586 18.4763 16.5713C18.0636 16.984 17.8572 17.4919 17.8572 18.0951C17.8572 18.6983 18.0636 19.2062 18.4763 19.6189C18.889 20.0316 19.3969 20.2379 20.0001 20.2379ZM20.0001 26.357C21.8255 24.7062 23.1866 23.2538 24.0834 21.9998C24.9803 20.7459 25.4287 19.476 25.4287 18.1903C25.4287 16.5717 24.9046 15.2465 23.8563 14.2146C22.8082 13.1825 21.5225 12.6665 19.9992 12.6665C18.476 12.6665 17.1906 13.1825 16.143 14.2146C15.0953 15.2465 14.5715 16.5717 14.5715 18.1903C14.5715 19.476 15.0199 20.7419 15.9168 21.9879C16.8136 23.234 18.1747 24.6903 20.0001 26.357ZM20.0001 30.3332C17.1906 27.9998 15.0834 25.8808 13.6787 23.976C12.2739 22.0713 11.5715 20.1427 11.5715 18.1903C11.5715 15.5916 12.4188 13.5213 14.1132 11.9794C15.8078 10.4375 17.7701 9.6665 20.0001 9.6665C22.2301 9.6665 24.1924 10.4375 25.887 11.9794C27.5815 13.5213 28.4287 15.5916 28.4287 18.1903C28.4287 20.1427 27.7263 22.0713 26.3215 23.976C24.9168 25.8808 22.8096 27.9998 20.0001 30.3332Z" fill="#1D1D1B"/>
</g>
</svg>
