<svg width="51" height="51" viewBox="0 0 51 51" fill="none" xmlns="http://www.w3.org/2000/svg">
<rect width="51" height="51" rx="25.5" fill="#FDC500"/>
<g clip-path="url(#clip0_21_2581)">
<path d="M30.1875 13.793C31.0312 13.793 31.7539 14.0938 32.3555 14.6953C32.957 15.2969 33.2578 16.0195 33.2578 16.8633V34.7227C33.2578 35.5664 32.957 36.2891 32.3555 36.8906C31.7539 37.4922 31.0312 37.793 30.1875 37.793H20.8125C19.9688 37.793 19.25 37.4922 18.6562 36.8906C18.0625 36.2891 17.7578 35.5664 17.7422 34.7227V16.8633C17.7422 16.0195 18.043 15.2969 18.6445 14.6953C19.2461 14.0938 19.9688 13.793 20.8125 13.793H30.1875ZM32.25 34.7227V34.3242H18.7266V34.7227C18.7266 35.3008 18.9297 35.793 19.3359 36.1992C19.7422 36.6055 20.2344 36.8086 20.8125 36.8086H30.2109C30.7734 36.8086 31.2578 36.6055 31.6641 36.1992C32.0703 35.793 32.2656 35.3008 32.25 34.7227ZM32.2734 33.3164V18.2695H18.75V33.3164H32.2734ZM32.2734 17.2617V16.8633C32.2734 16.2852 32.0703 15.793 31.6641 15.3867C31.2578 14.9805 30.7656 14.7773 30.1875 14.7773H20.8125C20.25 14.7773 19.7656 14.9805 19.3594 15.3867C18.9531 15.793 18.75 16.2852 18.75 16.8633V17.2617H32.2734ZM25.5234 36.5273C25.2422 36.5273 25.0117 36.4336 24.832 36.2461C24.6523 36.0586 24.5625 35.832 24.5625 35.5664C24.5625 35.3008 24.6523 35.0742 24.832 34.8867C25.0117 34.6992 25.2422 34.6055 25.5234 34.6055C25.7891 34.6055 26.0117 34.6992 26.1914 34.8867C26.3711 35.0742 26.4609 35.3008 26.4609 35.5664C26.4609 35.832 26.3711 36.0586 26.1914 36.2461C26.0117 36.4336 25.7891 36.5273 25.5234 36.5273Z" fill="black"/>
</g>
<defs>
<clipPath id="clip0_21_2581">
<rect width="24" height="24" fill="white" transform="matrix(1 0 0 -1 13.5 37.5)"/>
</clipPath>
</defs>
</svg>
