<svg width="1600" height="594" viewBox="0 0 1600 594" fill="none" xmlns="http://www.w3.org/2000/svg">
<g clip-path="url(#clip0_149_1029)">
<rect width="1600" height="594" fill="#2C2D34"/>
<g clip-path="url(#clip1_149_1029)">
<g opacity="0.1">
<g opacity="0.4">
<path fill-rule="evenodd" clip-rule="evenodd" d="M-191.726 2869.48C-195.671 2877.14 -205.076 2880.13 -212.74 2876.17C-220.383 2872.24 -223.393 2862.82 -219.444 2855.18C-219.203 2854.7 -133.336 2688.76 -125.771 2625.31C-120.497 2581.04 -69.1281 2431.23 -16.3241 2277.24C12.5611 2193.03 41.875 2107.55 64.484 2036.85C117.268 1871.81 199.796 1684.03 261.042 1544.68C272.575 1518.42 283.329 1493.95 294.074 1469.16C355.427 1327.5 523.57 954.93 524.051 953.856C525.442 950.78 527.707 948.371 530.414 946.788L1083.57 587.055C1090.79 582.358 1100.45 584.407 1105.13 591.631C1105.39 592.022 1105.63 592.43 1105.85 592.859C1113.12 605.061 1228.22 793.388 1333.8 653.144C1457.43 488.933 1510.72 425.699 1510.88 425.51C1513.29 422.617 1516.55 420.815 1519.99 420.172C1520.17 420.124 1582.33 409.584 1739.98 300.13C1817.92 245.996 1902.02 194.139 1974.23 149.62C2052.12 101.585 2116.09 62.139 2140.91 39.5185C2171 12.1059 2232.57 -29.7844 2298.16 -56.7109C2345.83 -76.2788 2396.03 -88.1192 2438.99 -81.4317C2485.6 -74.186 2526.03 -74.1325 2563.05 -77.8459C2600.49 -81.601 2634.71 -89.1888 2668.29 -97.1397C2703.8 -105.545 2736.11 -109.726 2769.17 -108.645C2802.33 -107.559 2835.87 -101.212 2873.7 -88.5713C2936.62 -67.5412 3011.64 -91.0544 3026.48 -95.7101C3028.5 -96.3392 3029.07 -96.5532 3029.49 -96.664C3033.64 -97.7756 3026.44 -97.2358 3028.11 -99.8111C3039 -116.57 3060.08 -149.016 3102.34 -167.326C3105.39 -168.644 3111.1 -171.045 3116.07 -173.146C3125.92 -177.306 3128.91 -176.778 3129.62 -177.898C3130.84 -180.175 3128.12 -176.713 3127.73 -178.693C3126.49 -185.273 3124.65 -194.943 3124.56 -210.548C3124.44 -228.256 3119.88 -242.339 3115.75 -255.117C3108.3 -278.115 3101.95 -297.757 3115.57 -327.717C3132.18 -364.161 3131.57 -367.809 3128.97 -383.673L3128.82 -384.636C3127.27 -394.176 3129.28 -416.873 3131.66 -443.643C3135.39 -485.62 3140.08 -538.532 3134.08 -549.849C3122.62 -571.389 3119.22 -575.855 3095.76 -606.676L3089.74 -614.59L3089.25 -615.271C3082.29 -624.336 3072.34 -635.23 3061.9 -646.687C3028.06 -683.781 2989.49 -726.064 3001.83 -764.246C3008.2 -783.975 3014.9 -800.025 3020.84 -814.292C3026.94 -828.91 3032.2 -841.531 3035.06 -853.361C3041.29 -879.064 3061.77 -946.785 3061.82 -946.99C3064.2 -954.645 3071.91 -959.149 3079.6 -957.693C3085.55 -957.029 3130.79 -954.422 3131.81 -1029.96C3132.11 -1051.99 3131.18 -1069.29 3130.39 -1083.69C3127.37 -1139.42 3126.42 -1156.89 3189.2 -1213.62C3225.88 -1246.74 3254.56 -1274.01 3275.12 -1295.9C3294.47 -1316.51 3306.01 -1331.52 3309.56 -1341.29C3315.52 -1357.66 3326.74 -1360.1 3335.9 -1361.05C3332.57 -1362.23 3319.65 -1362.64 3306.8 -1378.12C3255.33 -1440.15 3109.84 -1627.98 3093.82 -1648.7C3067.45 -1667.47 2745.51 -1891.31 2526.17 -1792.9C2418.78 -1744.73 2337.4 -1673.5 2265.41 -1610.52C2178.48 -1534.45 2104.74 -1469.91 2012.52 -1467.21L2011.81 -1467.21C1930.1 -1464.92 1859.24 -1480.25 1798.04 -1493.48C1738.86 -1506.28 1689.17 -1517.03 1650.56 -1506.69C1627.81 -1500.59 1615.11 -1490.14 1603.15 -1480.32C1570.28 -1453.3 1542.02 -1430.05 1390.21 -1473.49C1284.92 -1503.61 1205.37 -1535.99 1145.71 -1560.26C1088.41 -1583.59 1050.2 -1599.13 1029.02 -1597.08C995.281 -1593.82 948.257 -1637.56 885.29 -1696.14C833.758 -1744.08 770.929 -1802.54 698.695 -1851.99C668.716 -1872.52 635.688 -1896.33 601.048 -1921.31C457.681 -2024.7 286.342 -2148.25 172.793 -2151C164.199 -2151.21 157.381 -2158.35 157.6 -2166.96C157.805 -2175.57 164.948 -2182.38 173.542 -2182.17C296.71 -2179.19 472.338 -2052.53 619.31 -1946.54C653.49 -1921.9 686.084 -1898.39 716.333 -1877.68C790.052 -1827.2 854.038 -1767.68 906.498 -1718.87C963.536 -1665.82 1006.14 -1626.18 1026.02 -1628.11C1054.87 -1630.91 1095.91 -1614.21 1157.44 -1589.17C1216.63 -1565.08 1295.55 -1532.96 1398.75 -1503.44C1534.84 -1464.51 1557.31 -1482.99 1583.43 -1504.46C1597.92 -1516.38 1613.33 -1529.05 1642.49 -1536.86C1688.22 -1549.11 1741.38 -1537.62 1804.66 -1523.93C1864.12 -1511.07 1932.96 -1496.19 2011.01 -1498.39L2011.61 -1498.42C2092.81 -1500.8 2162.64 -1561.92 2244.99 -1633.97C2318.63 -1698.41 2401.89 -1771.26 2513.51 -1821.33C2758.56 -1931.28 3112.79 -1673.49 3113.82 -1672.74C3115.03 -1671.87 3116.13 -1670.81 3117.08 -1669.57C3117.55 -1668.97 3277.78 -1461.82 3330.79 -1397.93C3362.84 -1359.29 3366.81 -1345.57 3356.61 -1336.04C3356.28 -1335.7 3355.92 -1335.38 3355.55 -1335.06C3350.69 -1331.03 3346.43 -1330.65 3341.36 -1330.19C3340.16 -1330.09 3339.06 -1331.39 3338.79 -1330.67C3333.72 -1316.74 3320.01 -1298.24 3297.76 -1274.55C3276.7 -1252.13 3247.41 -1224.29 3210.03 -1190.51C3158.32 -1143.8 3159.08 -1129.87 3161.49 -1085.45C3162.29 -1070.43 3163.28 -1052.39 3162.97 -1029.59C3161.79 -942.093 3112.79 -928.092 3088.2 -926.598C3082.17 -906.461 3069.75 -864.459 3065.3 -846.058C3061.84 -831.702 3056.14 -818.063 3049.55 -802.294C3043.82 -788.557 3037.38 -773.092 3031.41 -754.624C3024.65 -733.713 3056.77 -698.521 3084.92 -667.644C3095.55 -656 3105.67 -644.9 3113.91 -634.154L3114.45 -633.485L3120.47 -625.57C3145.4 -592.825 3149.02 -588.065 3161.59 -564.443C3171.9 -545.034 3166.75 -487.005 3162.66 -440.987C3160.46 -416.263 3158.6 -395.306 3159.53 -389.718L3159.68 -388.755C3163.53 -365.294 3164.41 -359.903 3143.9 -314.847C3135.28 -295.919 3139.92 -281.551 3145.38 -264.711C3150.2 -249.799 3155.52 -233.365 3155.67 -210.818C3155.75 -198.329 3157.3 -190.19 3158.36 -184.639C3160.06 -175.655 3161.05 -170.456 3156.96 -162.994L3156.91 -162.921C3152.38 -154.676 3145.18 -151.637 3128.06 -144.406C3125.32 -143.26 3122.06 -141.883 3114.69 -138.682C3081.1 -124.127 3063.4 -96.8884 3054.28 -82.8178C3048.63 -74.1566 3044.92 -68.4495 3037.57 -66.4812C3036.31 -66.1415 3036.07 -66.0784 3035.72 -65.955C3019.3 -60.8157 2936.28 -34.7902 2863.83 -58.9964C2828.83 -70.6841 2798.14 -76.5536 2768.16 -77.5307C2738.12 -78.5204 2708.42 -74.6393 2675.53 -66.8455C2640.74 -58.6181 2605.28 -50.7569 2566.17 -46.8213C2526.64 -42.8613 2483.62 -42.8989 2434.25 -50.5722C2397.46 -56.2838 2352.91 -45.5146 2309.93 -27.8669C2247.99 -2.43818 2190.08 36.9055 2161.87 62.6183C2134.81 87.3011 2069.76 127.405 1990.58 176.23C1918.09 220.928 1833.67 272.987 1757.69 325.756C1621.28 420.479 1551.1 444.232 1531.51 449.525C1518.16 465.657 1463.84 532.224 1358.66 671.935C1241.4 827.701 1120.33 671.064 1087.39 621.823L550.642 970.897C532.09 1012.03 379.274 1350.95 322.665 1481.65C313.483 1502.84 301.939 1529.11 289.542 1557.32C228.606 1695.96 146.495 1882.75 94.1606 2046.39C72.0084 2115.65 42.3484 2202.15 13.1372 2287.35C-39.109 2439.73 -89.9365 2587.98 -94.845 2629.09C-103.089 2698.22 -191.488 2869.05 -191.735 2869.55L-191.726 2869.48Z" fill="white"/>
<path fill-rule="evenodd" clip-rule="evenodd" d="M503.331 -1315.78C501.583 -1318.66 500.895 -1321.89 501.123 -1325.01C494.768 -1326.29 488.662 -1327.96 483.572 -1330.14C470.565 -1335.74 457.083 -1339.25 443.565 -1340.86C413.015 -1344.51 382.581 -1338.34 357.036 -1324.91C331.855 -1311.66 311.564 -1291.41 300.901 -1266.65C297.171 -1257.97 294.604 -1248.64 293.424 -1238.76C286.01 -1176.63 265.871 -1149.03 236.353 -1108.58C222.036 -1088.97 205.354 -1066.1 186.578 -1033.58C170.324 -1005.43 163.658 -985.875 158.131 -969.622C143.707 -927.306 135.963 -904.551 25.7689 -834.639C-85.8125 -763.838 -218.818 -775.527 -287.133 -781.522C-297.331 -782.423 -306.014 -783.184 -312.54 -783.503C-299.625 -709.944 -225.724 -349.906 -222.837 -335.878L-222.72 -335.333C-221.048 -326.889 -226.545 -318.68 -234.989 -317.008L-337.612 -296.955C-326.405 -239.749 -287.607 -41.2575 -286.062 -28.3772C-284.674 -16.8578 -219.031 193.008 -201.706 248.295L-148.619 238.251L-197.205 -88.0078C-198.327 -94.4577 -195.284 -101.182 -189.185 -104.441C-181.587 -108.501 -172.135 -105.641 -168.072 -98.0297L-25.1475 168.547C-12.2107 174.269 23.0391 189.005 29.1524 183.098C36.6143 175.884 51.5344 161.443 65.5008 145.041C78.666 129.563 90.9863 112.421 94.5317 98.915C96.6883 90.7001 99.2673 76.1238 102.287 58.9476C110.523 12.1745 121.994 -53.0142 142.191 -80.8939C166.731 -114.782 278.509 -293.839 278.83 -294.353L431.525 -547.449C414.526 -586.027 337.675 -763.243 338.253 -814.065C338.743 -858.379 355.394 -865.366 384.748 -877.707C397.295 -882.975 412.974 -889.569 430.915 -902.989C454.654 -920.738 452.17 -927.695 449.584 -934.92C445.653 -945.95 441.604 -957.258 450.72 -974.783C459.246 -991.145 471.266 -992.593 485.761 -985.029C495.855 -979.771 506.215 -969.002 517.509 -957.286C533.868 -940.28 552.777 -920.648 562.193 -924.264C578.558 -930.555 594.089 -939.355 605.807 -952.406C614.803 -962.439 621.708 -975.205 625.231 -991.66C609.45 -975.304 590.349 -955.901 569.924 -954.343C544.725 -952.407 533.623 -966.389 531.264 -997.133C529.41 -1021.36 533.794 -1058.86 539.945 -1111.49C540.814 -1118.88 541.661 -1126.14 544.228 -1148.87L544.593 -1152.03C550.571 -1204.86 553.048 -1226.76 549.631 -1240.78C547.397 -1249.95 541.768 -1258.05 532.134 -1271.9C524.732 -1282.54 515.237 -1296.21 503.354 -1315.8L503.331 -1315.78ZM536.651 -1321.09C541.867 -1320.86 545.173 -1320.87 545.145 -1320.87C542.546 -1320.86 540.075 -1320.22 537.913 -1319.08L536.655 -1321.07L536.651 -1321.09ZM557.209 -1290.29L557.688 -1289.6C569.396 -1272.75 576.249 -1262.89 579.821 -1248.23C584.61 -1228.6 581.959 -1205.14 575.562 -1148.58L570.837 -1107.89C564.904 -1057.15 560.676 -1021 562.325 -999.517C563.074 -989.776 564.598 -985.192 567.522 -985.414C576.527 -986.099 591.514 -1001.67 603.791 -1014.39C616.816 -1027.91 627.763 -1039.27 640.05 -1038.23C653.422 -1037.12 660.309 -1027.23 658.311 -1003.43C655.696 -972.288 644.654 -949.107 628.948 -931.589C613.476 -914.356 593.762 -903.032 573.284 -895.166C544.634 -884.166 518.024 -911.809 494.997 -935.729C488.248 -942.724 481.9 -949.325 476.897 -953.553C477.086 -950.753 478.052 -948.028 479.021 -945.348C485.534 -927.107 491.785 -909.623 449.602 -878.068C428.598 -862.351 410.913 -854.924 396.76 -848.975C379.487 -841.717 369.702 -837.604 369.425 -813.717C368.879 -763.495 463.016 -553.302 463.282 -552.694C465.433 -547.864 464.927 -542.528 462.392 -538.318L305.252 -277.828C304.936 -277.3 192.858 -97.764 167.435 -62.6494C151.564 -40.7299 140.791 20.446 133.057 64.3519C129.94 82.1008 127.272 97.1736 124.732 106.88C119.803 125.587 104.945 146.762 89.2371 165.211C74.3207 182.754 58.6717 197.893 50.8353 205.473C27.7583 227.787 -42.7217 194.749 -42.924 194.656C-46.1261 193.18 -48.5932 190.754 -50.1371 187.859L-50.1783 187.87L-153.179 -4.24597L-115.553 248.476C-114.316 256.786 -119.875 264.539 -128.069 266.099L-209.512 281.511C-217.706 283.071 -225.605 277.905 -227.57 269.908C-232.99 252.659 -315.186 -9.39122 -317.027 -24.6444C-318.702 -38.6128 -371.069 -305.495 -371.213 -306.254C-372.885 -314.699 -367.389 -322.907 -358.944 -324.579L-256.449 -344.613C-272.554 -423.24 -344.767 -776.596 -345.556 -794.702C-346.139 -808.343 -337.724 -814.039 -321.776 -814.723C-313.03 -815.102 -300.52 -814.007 -284.454 -812.596C-219.692 -806.905 -93.6467 -795.832 9.10969 -861.033C110.048 -925.082 116.569 -944.186 128.663 -979.703C134.725 -997.488 142.011 -1018.87 159.546 -1049.24C178.807 -1082.6 196.257 -1106.51 211.22 -1127.01C237.876 -1163.54 256.06 -1188.46 262.505 -1242.52C264.035 -1255.28 267.408 -1267.5 272.365 -1278.99C285.938 -1310.53 311.311 -1336.07 342.592 -1352.52C373.51 -1368.78 410.349 -1376.23 447.308 -1371.82C463.591 -1369.87 479.95 -1365.6 495.897 -1358.74C622.998 -1304.03 581.345 -1292.66 557.219 -1290.3L557.209 -1290.29ZM637.492 -1007.21C637.19 -1007.23 636.901 -1007.15 636.61 -1006.97C638.908 -1006.99 640.06 -1006.99 637.492 -1007.21Z" fill="white"/>
<path fill-rule="evenodd" clip-rule="evenodd" d="M-328.38 -799.068C-320.147 -801.584 -311.451 -796.971 -308.935 -788.738C-306.422 -780.519 -311.045 -771.806 -319.264 -769.293C-331.312 -765.578 -348.347 -746.404 -372.926 -740.556C-404.296 -733.096 -438.24 -725.537 -456.728 -721.765C-468.855 -719.284 -491.684 -710.597 -516.016 -700.354C-554.009 -684.369 -595.03 -664.795 -606.088 -658.656C-607.516 -657.919 -608.88 -657.11 -610.307 -656.373C-647.396 -636.021 -875.692 -510.489 -1015.33 -376.186C-1085.36 -308.822 -1161.99 -218.846 -1235.18 -122.349C-1315.55 -16.4097 -1391.74 97.333 -1450.55 197.69L-1474.73 238.986C-1565.15 393.456 -1573.63 407.945 -1641.55 490.104C-1673.98 529.327 -1740.91 595.241 -1809.67 659.442C-1896.88 740.863 -1987.53 819.882 -2014.45 838.1C-2060.01 868.951 -2098.61 896.842 -2098.72 896.93C-2099.61 897.582 -2100.55 898.114 -2101.51 898.535C-2107.54 901.717 -2152.94 927.234 -2170.63 982.552C-2181.05 1015.15 -2189.93 1044.83 -2196.24 1067.79C-2202.59 1090.9 -2206.46 1107.18 -2206.79 1112.65C-2207.04 1116.84 -2211.46 1136.53 -2218.15 1166.47C-2240.98 1268.48 -2291.29 1493.24 -2287.76 1566.93C-2284.34 1638.88 -2245.69 1824.86 -2217.43 1960.93C-2207.9 2006.77 -2199.54 2047.04 -2194.26 2074.38C-2190.55 2093.66 -2200.45 2167.33 -2200.43 2167.12C-2199.81 2162.3 -2197.02 2158.29 -2193.2 2155.92C-2191.7 2154.97 -1672.01 1832.14 -1436.13 1704.65C-1384.03 1676.48 -1329.38 1646.09 -1272.93 1614.68C-1066.15 1499.66 -835.377 1371.29 -690.548 1329.09C-586.616 1298.82 -471.895 1276.56 -365.641 1255.94C-284.046 1240.11 -207.487 1225.27 -144.985 1208.52C-87.2098 1193.04 -47.1923 1186.48 -15.1786 1181.26C30.1888 1173.83 58.5508 1169.2 102.52 1142.82C138.066 1121.51 254.409 1038.93 383.589 947.251C536.183 838.931 706.613 717.957 783.945 669.451C925.792 580.451 1014.37 501.928 1014.62 501.699C1016.42 500.093 1018.5 498.989 1020.68 498.36C1021.43 498.161 1283.68 423.621 1357.7 391.07C1383.64 379.659 1404.16 366.435 1425.55 352.653C1465.68 326.788 1508.63 299.104 1592.55 276.618C1631.68 266.133 1656.47 261.677 1674.72 258.397C1712.98 251.513 1719.63 250.321 1785.59 198.407L1820.74 170.687C1912.81 98.0823 2019.25 14.1672 2093.75 -36.4168C2135.91 -65.0397 2198.92 -81.8061 2265.15 -87.866C2336.68 -94.4029 2412.67 -88.5306 2470.23 -71.6777C2478.49 -69.2519 2483.2 -60.5887 2480.78 -52.3313C2478.35 -44.0877 2469.69 -39.3595 2461.43 -41.7852C2407.55 -57.5716 2335.89 -63.0078 2268.03 -56.8063C2206.52 -51.1959 2148.73 -36.1096 2111.27 -10.6807C2038.48 38.7359 1932.1 122.619 1840.07 195.185L1804.81 222.934C1732.7 279.673 1724.93 281.074 1680.29 289.093C1662.64 292.27 1638.69 296.577 1600.62 306.777C1521.12 328.077 1480.43 354.315 1442.4 378.819C1419.75 393.411 1398 407.421 1370.17 419.681C1299.78 450.655 1063.31 518.534 1032.52 527.331C1016.46 541.238 930.038 614.544 800.483 695.833C723.494 744.13 553.682 864.657 401.622 972.598C271.427 1065 154.163 1148.23 118.528 1169.6C69.6036 1198.92 38.9501 1203.93 -10.1245 1211.97C-41.0611 1217.02 -79.7362 1223.35 -136.919 1238.68C-199.738 1255.51 -277.134 1270.53 -359.606 1286.51C-465.564 1307.08 -579.95 1329.26 -681.922 1358.96C-823.011 1400.08 -1052.32 1527.65 -1257.8 1641.93C-1315.49 1674.04 -1371.34 1705.1 -1421.32 1732.12C-1641.88 1851.32 -2112.55 2142.61 -2170.79 2178.71C-2175.14 2201.03 -2191.21 2255.01 -2224.89 2080.3C-2230.53 2051.04 -2238.68 2011.87 -2247.93 1967.31C-2276.45 1830.07 -2315.4 1642.51 -2318.94 1568.46C-2322.64 1490.9 -2271.66 1263.09 -2248.52 1159.69C-2242.14 1131.17 -2237.93 1112.42 -2237.85 1110.85C-2237.39 1103.13 -2233.14 1084.56 -2226.25 1059.54C-2219.61 1035.41 -2210.62 1005.25 -2200.34 973.067C-2179.33 907.406 -2125.43 876.035 -2116.23 871.073C-2110.74 867.122 -2076.4 842.468 -2031.85 812.317C-2006.1 794.887 -1917.16 717.226 -1830.92 636.7C-1763.07 573.363 -1697.18 508.498 -1665.55 470.257C-1599.23 390.031 -1590.85 375.717 -1501.56 223.191L-1477.38 181.895C-1418 80.5732 -1341.07 -34.2688 -1259.93 -141.228C-1185.77 -238.991 -1108.05 -330.249 -1036.88 -398.698C-894.525 -535.622 -663.081 -662.913 -625.258 -683.669C-623.914 -684.442 -622.538 -685.151 -621.198 -685.938C-609.7 -692.313 -567.214 -712.59 -527.991 -729.112C-502.04 -740.039 -477.25 -749.399 -462.99 -752.304C-444.04 -756.171 -410.386 -763.652 -380.14 -770.841C-356.184 -776.536 -339.825 -795.528 -328.38 -799.068Z" fill="white"/>
<path fill-rule="evenodd" clip-rule="evenodd" d="M-2235.62 1096.4C-2243.69 1093.48 -2247.87 1084.55 -2244.94 1076.47C-2242 1068.4 -2233.09 1064.23 -2225.01 1067.16C-2159.85 1090.87 -2007.36 1081.65 -1892.46 1074.7C-1846.96 1071.95 -1807.24 1069.55 -1780.12 1069.67C-1741.36 1069.84 -1764.33 1069.68 -1704.24 1069.9C-1580.32 1070.32 -1389.03 1070.95 -1373.68 1072.45C-1367 1073.1 -1302.58 1057.21 -1231.21 1038.89C-1164.14 1021.64 -1080.92 999.355 -1044.29 989.539C-973.407 970.547 -30.7559 681.758 -28.0494 680.944C-19.83 678.432 -11.1204 683.041 -8.60416 691.274C-6.07775 699.49 -10.7143 708.207 -18.9336 710.719C-21.6506 711.551 -967.373 1001.28 -1036.22 1019.73C-1069.43 1028.63 -1144.89 1048.84 -1223.4 1069.02C-1297.63 1088.09 -1365.74 1104.51 -1376.62 1103.45C-1389.45 1102.2 -1580.54 1101.54 -1704.33 1101.14L-1780.24 1100.8C-1805.99 1100.68 -1845.4 1103.05 -1890.58 1105.79C-2008.24 1112.9 -2164.37 1122.34 -2235.62 1096.41L-2235.62 1096.4Z" fill="white"/>
<path fill-rule="evenodd" clip-rule="evenodd" d="M1457.4 -1188.12C1457.71 -1196.72 1464.94 -1203.42 1473.53 -1203.11C1482.13 -1202.8 1488.85 -1195.57 1488.53 -1186.98C1483.28 -1043.7 1516.11 -984.052 1547.26 -927.461C1551.6 -919.584 1555.91 -911.758 1560.85 -902.254C1576.51 -872.209 1557.02 -852.17 1523.44 -834.663C1509.72 -827.517 1493.71 -820.848 1477.04 -813.916C1455.27 -804.862 1432.33 -795.301 1413.55 -784.155C1383.92 -766.556 1365.36 -744.165 1385.26 -710.633C1406.92 -674.189 1431.73 -637.054 1455.33 -601.722C1509.35 -520.904 1557.31 -449.142 1551.64 -406.69C1548.58 -383.803 1531.65 -351.451 1514.03 -317.762C1489.34 -270.584 1463.08 -220.382 1477.13 -211.135C1498.68 -196.937 1526.24 -183.11 1560.42 -172.415C1589.32 -163.363 1622.8 -156.589 1661.17 -153.707C1744.63 -147.441 1817.64 -179.252 1817.86 -179.338C1825.77 -182.715 1834.94 -179.027 1838.32 -171.113C1840.93 -165.003 1839.33 -158.134 1834.79 -153.773C1831.45 -149.656 1815.13 -125.327 1852.49 -81.1244C1905.62 -18.2373 1920.11 102.006 1920.14 102.352C1921.22 110.882 1915.15 118.682 1906.62 119.743C1898.07 120.807 1890.29 114.753 1889.23 106.218C1889.19 105.89 1875.79 -5.28253 1828.71 -60.9858C1801.61 -93.0467 1795.96 -119.775 1797.79 -139.323C1766.14 -129.837 1714.64 -118.476 1658.9 -122.654C1617.73 -125.745 1581.93 -132.992 1551.13 -142.643C1513.92 -154.296 1483.72 -169.471 1460.01 -185.083C1422.39 -209.851 1455.41 -272.955 1486.43 -332.242C1502.74 -363.424 1518.42 -393.388 1520.74 -410.805C1524.86 -441.629 1479.98 -508.795 1429.43 -584.441C1405.61 -620.07 1380.58 -657.517 1358.48 -694.77C1325.84 -749.706 1353.11 -784.533 1397.67 -811.009C1418.09 -823.127 1442.26 -833.194 1465.19 -842.734C1481.27 -849.421 1496.72 -855.866 1509.11 -862.319C1526.44 -871.349 1537.51 -879.794 1533.25 -887.946C1529.47 -895.219 1524.74 -903.803 1519.96 -912.465C1486.8 -972.726 1451.84 -1036.21 1457.41 -1188.14L1457.4 -1188.12Z" fill="white"/>
<path fill-rule="evenodd" clip-rule="evenodd" d="M38.7217 732.997C36.296 741.254 -14.6679 711.865 -22.929 709.426C-31.1689 707.01 -35.9007 698.337 -33.475 690.079C-31.9298 684.82 -29.1408 677.588 -18.7184 681.147C-3.79518 686.233 20.1683 703.447 22.4498 695.258C45.7917 611.747 68.4279 530.73 128.658 473.969C160.231 444.223 201.554 414.42 239.186 387.275C280.943 357.164 317.933 330.487 328.381 313.743C339.752 295.54 361.741 260.4 394.104 220.811C426.542 181.113 469.176 137.295 521.422 102.394C622.584 34.8279 705.183 -23.628 705.419 -23.7946C707.505 -25.2695 709.84 -26.1463 712.216 -26.4873C712.395 -26.5354 774.678 -34.8928 864.808 -67.448C946.801 -97.0697 1124.32 -155.921 1207.18 -183.398L1229.96 -190.949C1300.32 -214.308 1314.02 -210.887 1337.03 -205.117L1337.68 -204.951C1344.26 -203.304 1349.18 -203.366 1355.11 -203.448C1365.62 -203.59 1378.66 -203.775 1405.63 -197.663C1435.81 -190.83 1444.9 -214.286 1444.93 -214.339C1448.17 -222.326 1457.26 -226.165 1465.23 -222.938C1473.21 -219.702 1477.07 -210.615 1473.83 -202.628C1473.78 -202.496 1455.08 -154.501 1398.74 -167.263C1375.51 -172.517 1364.51 -172.359 1355.63 -172.241C1347.54 -172.126 1340.85 -172.034 1330.09 -174.719L1329.45 -174.888C1311.99 -179.25 1301.6 -181.858 1239.79 -161.335L1216.88 -153.751C1134.83 -126.551 959.081 -68.276 875.323 -38.0188C795.081 -9.02877 735.464 1.50943 720.327 3.89609C704.583 14.9838 629.434 67.7798 538.721 128.366C489.367 161.325 448.976 202.873 418.196 240.546C387.329 278.331 365.872 312.589 354.795 330.344C341.142 352.216 301.775 380.608 257.331 412.651C220.563 439.165 180.167 468.292 150.025 496.709C96.1288 547.503 74.6309 624.39 52.488 703.664C48.7797 716.948 42.9709 718.534 38.7153 733.028L38.7217 732.997Z" fill="white"/>
<path fill-rule="evenodd" clip-rule="evenodd" d="M1295.14 -179.032C1287.79 -183.518 1285.47 -193.105 1289.97 -200.455C1294.46 -207.803 1304.05 -210.106 1311.4 -205.62C1354.23 -179.399 1353.41 -159.356 1352.06 -126.675C1351.66 -116.61 1351.18 -105.035 1352.55 -91.7814C1356.22 -56.2944 1393.01 -27.9509 1443.75 11.1571L1444.16 11.4616C1445.65 10.3983 1447.35 9.57376 1449.21 9.07522C1456.04 7.24353 1486.34 1.12005 1522.57 -5.69163C1550.72 -10.99 1583.22 -16.8322 1611.59 -21.4801C1622.2 -23.2161 1632.14 -24.0028 1641.35 -23.9155C1664.44 -23.7051 1683.27 -18.0273 1697.25 -8.27025C1712.26 2.21352 1721.49 17.0516 1724.37 34.7585C1725.05 38.89 1725.37 43.1625 1725.33 47.5448C1725.14 68.9272 1703.64 91.7791 1675.87 111.615C1638.39 138.407 1587.51 161.833 1569.11 165.375C1544.78 170.062 1538.12 158.85 1525.19 137.113C1515.59 120.983 1500.88 96.2523 1464.56 66.9597C1451.99 56.8259 1437.92 45.9873 1424.72 35.8157C1367.85 -8.00367 1326.63 -39.7684 1321.58 -88.5642C1319.94 -104.42 1320.45 -117.023 1320.91 -127.957C1321.8 -149.334 1322.32 -162.429 1295.14 -179.063L1295.14 -179.032ZM1474.87 35.422L1484.1 42.8015C1524.93 75.7183 1541.3 103.266 1552 121.23C1557.51 130.52 1560.38 135.307 1563.17 134.765C1578.82 131.753 1623.65 110.686 1657.83 86.2676C1678.29 71.6431 1694.12 56.9581 1694.2 47.3037C1694.23 44.6971 1694.05 42.2046 1693.67 39.854C1692.15 30.5278 1687.31 22.7248 1679.44 17.2398C1670.54 11.0281 1657.68 7.39909 1641.11 7.25897C1633.65 7.19072 1625.49 7.84032 1616.69 9.28283C1590.27 13.614 1557.69 19.4783 1528.4 24.9931C1507.19 28.9771 1488.11 32.714 1474.88 35.4321L1474.87 35.422Z" fill="white"/>
<path fill-rule="evenodd" clip-rule="evenodd" d="M1322.09 -164.319C1316.31 -170.687 1316.77 -180.531 1323.14 -186.328C1329.51 -192.111 1339.35 -191.647 1345.15 -185.282C1368.87 -159.215 1388.68 -137.888 1408.88 -122.401L1409.76 -121.675C1428.56 -107.437 1448.25 -98.088 1472.93 -94.2876C1497.94 -90.4407 1519.7 -94.1294 1539.82 -97.5413C1563.92 -101.636 1586.01 -105.382 1610.71 -98.1004C1625.04 -93.8768 1647.75 -93.0473 1671.2 -93.8952C1709.47 -95.2728 1748.59 -101.071 1759.05 -103.874C1779.6 -109.38 1835.09 -103.983 1835.25 -103.965C1843.8 -103.139 1850.07 -95.5578 1849.26 -86.9954C1848.45 -78.4467 1840.85 -72.172 1832.29 -72.9798C1832.15 -73.0017 1782.5 -77.8219 1767.13 -73.7043C1755.55 -70.6022 1713.11 -64.2086 1672.35 -62.7407C1646.02 -61.7993 1619.89 -62.893 1601.92 -68.1977C1584.04 -73.4658 1565.43 -70.3112 1545.14 -66.8688C1522.46 -63.0227 1497.95 -58.8619 1468.2 -63.4458C1437.97 -68.0943 1413.93 -79.5405 1390.94 -96.9577C1390.57 -97.1971 1390.22 -97.444 1389.87 -97.7183C1367.69 -114.73 1346.9 -137.078 1322.11 -164.322L1322.09 -164.319Z" fill="white"/>
<path fill-rule="evenodd" clip-rule="evenodd" d="M886.929 -834.207C889.748 -842.319 898.609 -846.629 906.721 -843.809C914.829 -841.004 919.142 -832.129 916.319 -824.031C911.7 -810.725 906.93 -798.87 902.541 -787.96C887.654 -750.956 878.076 -727.163 907.409 -712.127C922.823 -704.218 935.134 -699.51 944.205 -696.032C973.738 -684.713 980.688 -682.04 975.085 -649.533C972.218 -632.944 963.829 -626.929 955.283 -620.784C948.727 -616.088 941.953 -611.215 951.617 -575.147C953.969 -566.368 958.555 -548.482 963.166 -530.558C978.403 -471.211 993.963 -410.547 1007.6 -393.24C1010.98 -388.932 1013.74 -385.535 1016.56 -382.08C1036.4 -357.618 1057.81 -331.224 1054.04 -307.29C1052.77 -299.239 1054.16 -283.922 1057.24 -265.914C1060.65 -246.074 1066.1 -223.575 1072.42 -203.967C1086.11 -161.46 1082.42 -123.364 1082.41 -123.257C1081.83 -117.121 1077.79 -112.152 1072.39 -110.099C1061.24 -104.896 971.142 -64.4465 941.694 -104.609C938.91 -108.383 934.998 -113.391 930.729 -118.85C901.269 -156.468 855.952 -214.343 885.214 -265.007C888.281 -270.32 886.567 -267.29 891.516 -275.78C907.679 -303.554 924.771 -332.876 923.039 -336.859C921.423 -340.576 923.591 -330.005 918.523 -327.805C899.254 -319.451 884.013 -298.764 873.533 -274.862C860.124 -244.251 854.831 -209.375 858.647 -187.25C862.762 -163.403 864.787 -145.038 862.91 -127.622C860.97 -109.449 855.007 -93.1685 843.192 -74.3595C822.071 -40.7225 795.095 -25.296 773.913 -13.1651L768.148 -9.818C767.726 -9.57209 767.287 -9.33635 766.851 -9.14556C744.37 3.54024 708.178 13.2379 708.067 13.2675C699.743 15.498 691.176 10.5404 688.946 2.21586C688.735 1.43028 688.588 0.657589 688.509 -0.133697C687.568 -5.62793 677.599 -52.2055 607.859 -68.8085C564.738 -79.072 539.322 -84.2861 510.038 -90.2657C479.357 -96.5506 444.63 -103.657 387.662 -116.695C265.319 -144.714 232.641 -195.444 232.546 -195.58C227.829 -202.766 229.826 -212.401 236.998 -217.114C244.183 -221.831 253.818 -219.834 258.535 -212.648C258.61 -212.535 284.431 -172.288 394.544 -147.078C453.794 -133.514 486.958 -126.728 516.264 -120.724C546.959 -114.443 573.604 -108.997 615.008 -99.1302C680.728 -83.4737 705.486 -44.1086 714.527 -21.2271C725.657 -24.7855 740.826 -30.1941 751.407 -36.1313C751.742 -36.3688 752.098 -36.5825 752.455 -36.7962L758.45 -40.2198C776.64 -50.6183 799.821 -63.8904 816.769 -90.8847C825.941 -105.499 830.535 -117.735 831.947 -130.935C833.436 -144.895 831.611 -160.802 827.96 -181.923C823.222 -209.31 829.264 -251.315 845.03 -287.299C858.386 -317.777 878.887 -344.63 906.139 -356.437C931.603 -367.471 945.513 -363.354 951.66 -349.181C959.603 -330.835 938.451 -294.502 918.406 -260.104C917.693 -258.849 919.381 -261.754 912.228 -249.364C893.482 -216.895 930.911 -169.108 955.25 -138.035C959.402 -132.737 963.201 -127.876 966.811 -122.949C979.429 -105.738 1031.08 -125.93 1051.65 -134.898C1051.77 -146.851 1050.71 -169.67 1042.71 -194.486C1036.02 -215.278 1030.19 -239.287 1026.55 -260.587C1022.95 -281.632 1021.48 -300.529 1023.3 -312.051C1024.92 -322.295 1008.01 -343.127 992.35 -362.432C988.904 -366.694 985.472 -370.9 983.032 -373.998C965.473 -396.311 949.079 -460.193 933.037 -522.707C929.871 -535.02 926.748 -547.227 921.442 -567.032C906.205 -623.897 921.939 -635.189 937.112 -646.094C940.423 -648.458 943.668 -650.79 944.352 -654.799C945.611 -662.064 943.221 -662.99 933.049 -666.882C923.633 -670.489 910.859 -675.383 893.204 -684.434C838.595 -712.433 852.298 -746.52 873.633 -799.536C877.952 -810.265 882.643 -821.921 886.915 -834.204L886.929 -834.207Z" fill="white"/>
<path fill-rule="evenodd" clip-rule="evenodd" d="M2100.71 65.2388C2083.23 47.7948 2066.4 19.0083 2051.19 -12.7231C2036.43 -43.5241 2023.05 -77.2835 2012.18 -105.731C2009.55 -112.633 2005.59 -122.371 2001.48 -132.554C1979.86 -185.951 1953.55 -250.958 1959.05 -323.041C1960.66 -344.212 1963.15 -365.19 1965.56 -385.453C1972.15 -440.855 1978.07 -490.687 1963.16 -509.129C1955.81 -518.222 1949.92 -522.332 1945.49 -525.428C1930.44 -535.918 1924.74 -539.913 1926.11 -580.964C1926.8 -601.281 1930.64 -612.709 1933.94 -622.532C1938.15 -635.049 1941.15 -643.977 1926.9 -679.407C1920.49 -695.355 1915.13 -709.843 1910.81 -721.552C1900.93 -748.285 1897.3 -758.081 1883.86 -769.903C1867.77 -784.041 1832.57 -795.895 1819.95 -799.825C1814.18 -796.714 1803 -785.696 1815.38 -748.628C1832.3 -697.945 1854.36 -675.082 1871.24 -657.593C1874.81 -653.898 1878.17 -650.41 1881.7 -646.438C1885.47 -642.175 1889.42 -638.728 1892.91 -635.689C1908.68 -621.923 1918.15 -613.675 1911.39 -576.193C1907.58 -554.919 1902.46 -537.209 1893.81 -525.348C1882.5 -509.866 1867.23 -503.854 1845.43 -511.233L1845.37 -511.218C1835.06 -514.703 1824.95 -520.915 1813.19 -528.166C1790.57 -542.09 1760.87 -560.366 1714.82 -564.378C1694.99 -566.111 1681.03 -565.177 1670.49 -564.481C1636.47 -562.206 1628.98 -561.72 1595.6 -613.265C1582.39 -633.671 1570.8 -645.825 1561.68 -655.404C1540.45 -677.679 1529.81 -688.831 1535.17 -736.207C1539.03 -770.477 1547.11 -787.151 1553.19 -799.65C1557.12 -807.75 1559.81 -813.301 1557.88 -823.05C1553.07 -847.39 1531.81 -862.39 1531.74 -862.43L1549.81 -887.861C1549.9 -887.797 1581.22 -865.703 1588.46 -829.102C1592.42 -809.157 1587.86 -799.766 1581.2 -786.063C1576.15 -775.653 1569.42 -761.782 1566.13 -732.761C1562.4 -699.721 1569.68 -692.084 1584.2 -676.847C1594.23 -666.314 1606.97 -652.961 1621.76 -630.114C1645.12 -594.051 1649.3 -594.315 1668.33 -595.587C1679.78 -596.351 1694.91 -597.363 1717.48 -595.403C1770.93 -590.744 1804.2 -570.264 1829.58 -554.656C1839.54 -548.534 1848.1 -543.265 1855.38 -540.799L1855.39 -540.771C1861.75 -538.622 1865.9 -539.955 1868.68 -543.743C1874.1 -551.161 1877.74 -564.679 1880.78 -581.61C1884.41 -601.769 1879.91 -605.705 1872.43 -612.238C1868.34 -615.811 1863.7 -619.841 1858.44 -625.789C1855.84 -628.711 1852.47 -632.195 1848.89 -635.918C1829.84 -655.644 1804.96 -681.433 1785.82 -738.786C1758.58 -820.324 1816.26 -831.394 1816.42 -831.421L1820.31 -832.258L1824 -831.192C1824.16 -831.146 1879.49 -815.322 1904.5 -793.349C1923.7 -776.471 1928.09 -764.618 1940.03 -732.278C1943.8 -722.089 1948.46 -709.497 1955.9 -690.96C1974.4 -644.982 1969.88 -631.526 1963.53 -612.629C1960.85 -604.689 1957.74 -595.465 1957.22 -579.919C1956.4 -555.695 1958.31 -554.374 1963.3 -550.883C1969.3 -546.713 1977.22 -541.184 1987.4 -528.594C2010.58 -499.914 2003.94 -443.951 1996.52 -381.696C1994.14 -361.603 1991.66 -340.805 1990.13 -320.719C1985.2 -256.028 2010.04 -194.631 2030.46 -144.19C2033.97 -135.513 2037.36 -127.16 2041.32 -116.774C2051.95 -88.9697 2065.01 -55.9977 2079.31 -26.1511C2093.18 2.77866 2108.1 28.5898 2122.74 43.2054L2100.74 65.2764L2100.71 65.2388Z" fill="white"/>
<path fill-rule="evenodd" clip-rule="evenodd" d="M856.984 11.7035C708.497 112.084 673.042 129.221 668.532 131.242L175.204 451.222L235.496 520.772L768.46 713.446L1134.82 450.547L1141 459.185L770.09 725.373C589.837 660.18 409.584 594.988 229.309 529.875L159.165 448.976C327.249 339.917 495.236 230.663 663.48 121.871L663.958 121.67C664.041 121.647 691.563 110.742 851.029 2.92941L856.961 11.7247L856.984 11.7035Z" fill="white"/>
<path fill-rule="evenodd" clip-rule="evenodd" d="M852.756 54.7821C438.977 349.193 359.17 403.237 343.776 413.153L293.695 531.333L283.928 527.184L335.569 405.292L338.497 404.862C338.497 404.862 338.105 407.921 846.599 46.1361L852.756 54.7821Z" fill="white"/>
<path fill-rule="evenodd" clip-rule="evenodd" d="M251.161 395.058L744.963 592.966L817.028 684.785L808.651 691.342L738.334 601.744L247.197 404.91L251.161 395.058Z" fill="white"/>
<path d="M481.345 220.959L472.573 226.938L722.444 593.51L731.216 587.53L481.345 220.959Z" fill="white"/>
<path d="M391.456 273.293L382.67 279.276L552.062 528.06L560.848 522.078L391.456 273.293Z" fill="white"/>
<path fill-rule="evenodd" clip-rule="evenodd" d="M497.097 498.014L460.89 606.834L450.811 603.507L487.031 494.684L497.097 498.014Z" fill="white"/>
<path fill-rule="evenodd" clip-rule="evenodd" d="M527.844 192.021L836.941 640.213L828.168 646.227L519.071 198.035L527.844 192.021Z" fill="white"/>
<path fill-rule="evenodd" clip-rule="evenodd" d="M605.446 140.444L725.96 333.199L518.593 473.715L512.662 464.92L711.542 330.164L596.427 146.037L605.446 140.444Z" fill="white"/>
<path fill-rule="evenodd" clip-rule="evenodd" d="M651.954 117.48L963.95 553.889L955.318 560.043L643.304 123.623L651.954 117.48Z" fill="white"/>
<path fill-rule="evenodd" clip-rule="evenodd" d="M736.366 62.319L1034.52 510.504L1025.66 516.364L727.511 68.1925L736.366 62.319Z" fill="white"/>
<path fill-rule="evenodd" clip-rule="evenodd" d="M154.652 1077.28C173.222 1066.27 179.989 1063.02 181.38 1062.37L666.064 751.305L607.052 698.444L77.4326 578.615L29.9499 611.944L27.0214 601.015L75.1881 567.207C254.159 607.66 433.114 648.163 612.073 688.679L683.531 752.711C517.742 859.087 351.895 965.359 186.219 1071.88L185.927 1072C185.927 1072 179.893 1074.57 157.493 1087.94L154.642 1077.3L154.652 1077.28Z" fill="white"/>
<path fill-rule="evenodd" clip-rule="evenodd" d="M599.225 804.076L108.518 676.657L36.2075 604.536L43.7057 597.017L113.992 667.095L601.893 793.804L599.225 804.076Z" fill="white"/>
<path fill-rule="evenodd" clip-rule="evenodd" d="M814.258 -25.4975C857.143 51.7455 1111.29 427.064 1136.8 464.707L1274.97 430.475L1336.33 117.89L1085.7 248.048L885.098 -62.456L1011.66 -112.261L1126.35 98.5689L1378.25 -40.4676L1351 98.3165L1460.04 41.6829L1683.69 267.338L1806.56 186.2L1662.18 107.466L1879.39 -9.93985L1836.71 -64.6962L1680.6 -8.61005L1677.01 -18.6249L1840.34 -77.3071L1895.5 -6.53183L1684.48 107.534L1827.16 185.334C1778.85 217.231 1730.55 249.11 1682.26 281.016L1457.98 54.7311L1348.4 111.644L1284.09 439.154C1233.47 451.701 1182.83 464.234 1132.19 476.798L1130.11 473.721C1129.31 472.534 850.127 61.011 804.98 -20.3229L814.29 -25.491L814.258 -25.4975ZM1338.94 104.563L1363.42 -20.1577L1122.13 113.024L1006.81 -98.9377L901.053 -57.3217L1089.37 234.17L1338.94 104.563Z" fill="white"/>
<path fill-rule="evenodd" clip-rule="evenodd" d="M1503.73 75.7704L1493.68 332.343L1483.08 331.951L1493.11 75.3814L1503.73 75.7704Z" fill="white"/>
<path d="M1627.82 210.782L1059.5 365.939L1062.29 376.18L1630.62 221.023L1627.82 210.782Z" fill="white"/>
<path d="M1112 -134.339L1102.51 -129.589L1366.43 397.912L1375.92 393.162L1112 -134.339Z" fill="white"/>
<path fill-rule="evenodd" clip-rule="evenodd" d="M1189.41 -172.224L1277.53 25.946L1267.81 30.2353L1179.7 -167.939L1189.41 -172.224Z" fill="white"/>
<path fill-rule="evenodd" clip-rule="evenodd" d="M1087.31 246.54L921.259 334.801L916.29 325.408L1082.34 237.147L1087.31 246.54Z" fill="white"/>
<path fill-rule="evenodd" clip-rule="evenodd" d="M252.035 -184.643C476.918 149.431 469.794 153.718 469.784 153.736C443.218 191.417 417.738 232.441 392.164 271.126L183.887 -92.8192L121.607 11.4207L307.745 349.524L298.438 354.648L109.365 11.2148C134.262 -30.4947 159.183 -72.1666 184.083 -113.862L392.841 250.885L460.589 148.415C460.589 148.415 464.339 149.788 243.226 -178.707L252.062 -184.65L252.035 -184.643Z" fill="white"/>
<path fill-rule="evenodd" clip-rule="evenodd" d="M245.023 -2.53436L483.114 -115.934L487.663 -106.34L249.573 7.05952L245.023 -2.53436Z" fill="white"/>
<path fill-rule="evenodd" clip-rule="evenodd" d="M-4.9905 183.739L88.7836 555.484L78.4963 558.107L-15.2776 186.362L-4.9905 183.739Z" fill="white"/>
<path fill-rule="evenodd" clip-rule="evenodd" d="M21.9956 328.553C39.0155 322.279 79.1673 294.282 112.28 253.798C134.114 227.119 152.722 195.13 159.292 160.606C174.034 83.0932 194.657 43.0754 200.206 33.3014L159.877 -64.0658L169.694 -68.1142L212.08 34.2265L210.634 36.549C210.574 36.6539 186.51 74.4175 169.75 162.59C162.819 199.072 143.334 232.64 120.52 260.512C86.1449 302.516 43.7935 331.841 25.6693 338.515L22.0094 328.549L21.9956 328.553Z" fill="white"/>
<path fill-rule="evenodd" clip-rule="evenodd" d="M86.9742 283.341C87.4524 283.582 253.222 367.989 310.14 330.403C366.084 293.477 529.241 106.99 545.629 88.2114L540.374 -103.787L550.988 -104.09L556.361 92.1011L555.016 93.6432C554.511 94.2367 376.157 299.537 315.986 339.265C253.895 380.261 82.6973 293.07 82.2154 292.815L87.0054 283.348L86.9742 283.341Z" fill="white"/>
<path fill-rule="evenodd" clip-rule="evenodd" d="M1078.76 617.59C1141.24 577.422 1431.56 432.642 1432.39 432.226L1432.78 432.032L1714.64 318.575L1718.58 328.466L1436.8 441.902C1426.13 447.228 1145.42 587.365 1084.53 626.534L1078.78 617.601L1078.76 617.59Z" fill="white"/>
<path fill-rule="evenodd" clip-rule="evenodd" d="M-189.032 -557.914L25.6719 200.207L15.4649 203.075L-199.286 -555.166L-189.032 -557.914Z" fill="white"/>
<path fill-rule="evenodd" clip-rule="evenodd" d="M62.5801 158.454C71.1065 126.05 68.3619 56.708 66.5286 10.8899C65.9287 -4.19379 65.4302 -16.7492 65.4701 -24.8696C65.5324 -38.8603 90.9705 -101.041 124.926 -177.469C173.561 -286.93 239.89 -426.555 273.549 -494.277C328.997 -605.874 279.852 -674.068 279.71 -674.267L288.42 -680.352C288.565 -680.14 341.343 -606.878 283.042 -489.553C249.501 -422.055 183.309 -282.688 134.64 -173.188C101.182 -97.8831 76.1243 -37.1488 76.072 -24.8299C76.0352 -17.1388 76.5301 -4.59714 77.1364 10.4553C78.9843 56.9343 81.7808 127.296 72.8637 161.164L62.5663 158.457L62.5801 158.454Z" fill="white"/>
<path fill-rule="evenodd" clip-rule="evenodd" d="M-49.7102 -595.022C-10.4919 -450.752 94.0075 -67.3155 114.546 8.01209L176.85 -110.637L35.5704 -617.887L45.8245 -620.635L188.212 -109.412C162.6 -60.6716 137.005 -11.9209 111.397 36.8335L107.848 23.8103C107.434 22.2668 -16.6026 -432.762 -59.999 -592.294L-49.7176 -595.049L-49.7102 -595.022Z" fill="white"/>
<path fill-rule="evenodd" clip-rule="evenodd" d="M555.923 -757.524L830.33 -109.127L751.102 -11.1888L444.284 -549.611L453.521 -554.834L752.613 -29.9699L818.062 -110.863L545.559 -754.747L555.923 -757.524Z" fill="white"/>
</g>
<path d="M1453.15 145.206C1466.71 148.838 1474.75 162.774 1471.12 176.328C1467.49 189.882 1435.81 209.918 1435.81 209.918C1435.81 209.918 1418.4 176.729 1422.03 163.174C1425.66 149.62 1439.6 141.575 1453.15 145.206ZM1443.59 180.907C1449.75 182.559 1456.08 178.897 1457.73 172.74C1459.38 166.584 1455.72 160.245 1449.56 158.595C1443.41 156.946 1437.07 160.605 1435.42 166.762C1433.77 172.919 1437.43 179.257 1443.59 180.907Z" fill="white"/>
<path d="M1446.81 420.864C1426.48 426.311 1414.42 447.211 1419.86 467.54C1425.31 487.869 1472.82 517.918 1472.82 517.918C1472.82 517.918 1498.94 468.141 1493.49 447.812C1488.04 427.483 1467.14 415.417 1446.81 420.864ZM1461.16 474.408C1451.91 476.885 1442.42 471.393 1439.94 462.159C1437.47 452.925 1442.96 443.419 1452.19 440.944C1461.43 438.47 1470.93 443.959 1473.41 453.193C1475.88 462.427 1470.39 471.933 1461.16 474.408Z" fill="white"/>
<path d="M211.788 115.417C231.996 103.75 257.822 110.671 269.489 130.878C281.156 151.086 267.466 211.855 267.466 211.855C267.466 211.855 207.988 193.316 196.327 173.119C184.666 152.921 191.58 127.084 211.788 115.417ZM242.505 168.621C251.688 163.319 254.842 151.578 249.535 142.386C244.228 133.193 232.482 130.055 223.3 135.356C214.117 140.658 210.969 152.409 216.27 161.591C221.572 170.774 233.313 173.928 242.505 168.621Z" fill="white"/>
</g>
</g>
<circle cx="492" cy="315" r="93" stroke="#FDC500" stroke-width="10"/>
<mask id="mask0_149_1029" style="mask-type:alpha" maskUnits="userSpaceOnUse" x="428" y="251" width="127" height="127">
<rect x="428" y="251" width="127" height="127" fill="#D9D9D9"/>
</mask>
<g mask="url(#mask0_149_1029)">
<path d="M491.5 367.417C479.241 364.33 469.121 357.296 461.139 346.316C453.158 335.336 449.167 323.143 449.167 309.738V277.458L491.5 261.583L533.834 277.458V309.738C533.834 323.143 529.843 335.336 521.861 346.316C513.88 357.296 503.759 364.33 491.5 367.417ZM491.5 356.304C500.673 353.394 508.257 347.573 514.254 338.842C520.252 330.11 523.25 320.409 523.25 309.738V284.734L491.5 272.828L459.75 284.734V309.738C459.75 320.409 462.749 330.11 468.746 338.842C474.743 347.573 482.328 353.394 491.5 356.304ZM475.625 335.667H507.375V309.208H502.084V303.917C502.084 301.006 501.047 298.515 498.975 296.442C496.902 294.37 494.411 293.333 491.5 293.333C488.59 293.333 486.098 294.37 484.026 296.442C481.953 298.515 480.917 301.006 480.917 303.917V309.208H475.625V335.667ZM486.209 309.208V303.917C486.209 302.417 486.716 301.161 487.73 300.146C488.744 299.132 490.001 298.625 491.5 298.625C493 298.625 494.256 299.132 495.271 300.146C496.285 301.161 496.792 302.417 496.792 303.917V309.208H486.209Z" fill="#FDC500"/>
<path d="M491.333 367.833C479.074 364.747 468.954 357.713 460.972 346.733C452.991 335.753 449 323.56 449 310.154V277.875L491.333 262L533.667 277.875V310.154C533.667 323.56 529.676 335.753 521.694 346.733C513.713 357.713 503.592 364.747 491.333 367.833ZM491.333 356.721C500.506 353.81 508.09 347.99 514.088 339.258C520.085 330.527 523.083 320.826 523.083 310.154V285.151L491.333 273.245L459.583 285.151V310.154C459.583 320.826 462.582 330.527 468.579 339.258C474.576 347.99 482.161 353.81 491.333 356.721Z" fill="white"/>
</g>
<path d="M464.278 460.18C463.438 460.18 462.633 460.07 461.863 459.85C461.093 459.62 460.473 459.325 460.003 458.965L460.828 457.135C461.278 457.455 461.808 457.72 462.418 457.93C463.038 458.13 463.663 458.23 464.293 458.23C464.773 458.23 465.158 458.185 465.448 458.095C465.748 457.995 465.968 457.86 466.108 457.69C466.248 457.52 466.318 457.325 466.318 457.105C466.318 456.825 466.208 456.605 465.988 456.445C465.768 456.275 465.478 456.14 465.118 456.04C464.758 455.93 464.358 455.83 463.918 455.74C463.488 455.64 463.053 455.52 462.613 455.38C462.183 455.24 461.788 455.06 461.428 454.84C461.068 454.62 460.773 454.33 460.543 453.97C460.323 453.61 460.213 453.15 460.213 452.59C460.213 451.99 460.373 451.445 460.693 450.955C461.023 450.455 461.513 450.06 462.163 449.77C462.823 449.47 463.648 449.32 464.638 449.32C465.298 449.32 465.948 449.4 466.588 449.56C467.228 449.71 467.793 449.94 468.283 450.25L467.533 452.095C467.043 451.815 466.553 451.61 466.063 451.48C465.573 451.34 465.093 451.27 464.623 451.27C464.153 451.27 463.768 451.325 463.468 451.435C463.168 451.545 462.953 451.69 462.823 451.87C462.693 452.04 462.628 452.24 462.628 452.47C462.628 452.74 462.738 452.96 462.958 453.13C463.178 453.29 463.468 453.42 463.828 453.52C464.188 453.62 464.583 453.72 465.013 453.82C465.453 453.92 465.888 454.035 466.318 454.165C466.758 454.295 467.158 454.47 467.518 454.69C467.878 454.91 468.168 455.2 468.388 455.56C468.618 455.92 468.733 456.375 468.733 456.925C468.733 457.515 468.568 458.055 468.238 458.545C467.908 459.035 467.413 459.43 466.753 459.73C466.103 460.03 465.278 460.18 464.278 460.18ZM474.233 460.12C473.313 460.12 472.503 459.94 471.803 459.58C471.113 459.22 470.578 458.73 470.198 458.11C469.818 457.48 469.628 456.765 469.628 455.965C469.628 455.155 469.813 454.44 470.183 453.82C470.563 453.19 471.078 452.7 471.728 452.35C472.378 451.99 473.113 451.81 473.933 451.81C474.723 451.81 475.433 451.98 476.063 452.32C476.703 452.65 477.208 453.13 477.578 453.76C477.948 454.38 478.133 455.125 478.133 455.995C478.133 456.085 478.128 456.19 478.118 456.31C478.108 456.42 478.098 456.525 478.088 456.625H471.533V455.26H476.858L475.958 455.665C475.958 455.245 475.873 454.88 475.703 454.57C475.533 454.26 475.298 454.02 474.998 453.85C474.698 453.67 474.348 453.58 473.948 453.58C473.548 453.58 473.193 453.67 472.883 453.85C472.583 454.02 472.348 454.265 472.178 454.585C472.008 454.895 471.923 455.265 471.923 455.695V456.055C471.923 456.495 472.018 456.885 472.208 457.225C472.408 457.555 472.683 457.81 473.033 457.99C473.393 458.16 473.813 458.245 474.293 458.245C474.723 458.245 475.098 458.18 475.418 458.05C475.748 457.92 476.048 457.725 476.318 457.465L477.563 458.815C477.193 459.235 476.728 459.56 476.168 459.79C475.608 460.01 474.963 460.12 474.233 460.12ZM472.523 450.895L474.548 448.735H477.068L474.353 450.895H472.523ZM483.591 460.12C482.721 460.12 481.946 459.945 481.266 459.595C480.586 459.235 480.051 458.74 479.661 458.11C479.281 457.48 479.091 456.765 479.091 455.965C479.091 455.155 479.281 454.44 479.661 453.82C480.051 453.19 480.586 452.7 481.266 452.35C481.946 451.99 482.721 451.81 483.591 451.81C484.441 451.81 485.181 451.99 485.811 452.35C486.441 452.7 486.906 453.205 487.206 453.865L485.391 454.84C485.181 454.46 484.916 454.18 484.596 454C484.286 453.82 483.946 453.73 483.576 453.73C483.176 453.73 482.816 453.82 482.496 454C482.176 454.18 481.921 454.435 481.731 454.765C481.551 455.095 481.461 455.495 481.461 455.965C481.461 456.435 481.551 456.835 481.731 457.165C481.921 457.495 482.176 457.75 482.496 457.93C482.816 458.11 483.176 458.2 483.576 458.2C483.946 458.2 484.286 458.115 484.596 457.945C484.916 457.765 485.181 457.48 485.391 457.09L487.206 458.08C486.906 458.73 486.441 459.235 485.811 459.595C485.181 459.945 484.441 460.12 483.591 460.12ZM491.959 460.12C491.289 460.12 490.689 459.99 490.159 459.73C489.639 459.47 489.234 459.075 488.944 458.545C488.654 458.005 488.509 457.32 488.509 456.49V451.93H490.849V456.145C490.849 456.815 490.989 457.31 491.269 457.63C491.559 457.94 491.964 458.095 492.484 458.095C492.844 458.095 493.164 458.02 493.444 457.87C493.724 457.71 493.944 457.47 494.104 457.15C494.264 456.82 494.344 456.41 494.344 455.92V451.93H496.684V460H494.464V457.78L494.869 458.425C494.599 458.985 494.199 459.41 493.669 459.7C493.149 459.98 492.579 460.12 491.959 460.12ZM498.851 460V451.93H501.086V454.21L500.771 453.55C501.011 452.98 501.396 452.55 501.926 452.26C502.456 451.96 503.101 451.81 503.861 451.81V453.97C503.761 453.96 503.671 453.955 503.591 453.955C503.511 453.945 503.426 453.94 503.336 453.94C502.696 453.94 502.176 454.125 501.776 454.495C501.386 454.855 501.191 455.42 501.191 456.19V460H498.851ZM505.253 460V451.93H507.593V460H505.253ZM506.423 450.805C505.993 450.805 505.643 450.68 505.373 450.43C505.103 450.18 504.968 449.87 504.968 449.5C504.968 449.13 505.103 448.82 505.373 448.57C505.643 448.32 505.993 448.195 506.423 448.195C506.853 448.195 507.203 448.315 507.473 448.555C507.743 448.785 507.878 449.085 507.878 449.455C507.878 449.845 507.743 450.17 507.473 450.43C507.213 450.68 506.863 450.805 506.423 450.805ZM513.065 460.12C512.115 460.12 511.375 459.88 510.845 459.4C510.315 458.91 510.05 458.185 510.05 457.225V450.145H512.39V457.195C512.39 457.535 512.48 457.8 512.66 457.99C512.84 458.17 513.085 458.26 513.395 458.26C513.765 458.26 514.08 458.16 514.34 457.96L514.97 459.61C514.73 459.78 514.44 459.91 514.1 460C513.77 460.08 513.425 460.12 513.065 460.12ZM508.805 453.91V452.11H514.4V453.91H508.805ZM520.039 460.12C519.119 460.12 518.309 459.94 517.609 459.58C516.919 459.22 516.384 458.73 516.004 458.11C515.624 457.48 515.434 456.765 515.434 455.965C515.434 455.155 515.619 454.44 515.989 453.82C516.369 453.19 516.884 452.7 517.534 452.35C518.184 451.99 518.919 451.81 519.739 451.81C520.529 451.81 521.239 451.98 521.869 452.32C522.509 452.65 523.014 453.13 523.384 453.76C523.754 454.38 523.939 455.125 523.939 455.995C523.939 456.085 523.934 456.19 523.924 456.31C523.914 456.42 523.904 456.525 523.894 456.625H517.339V455.26H522.664L521.764 455.665C521.764 455.245 521.679 454.88 521.509 454.57C521.339 454.26 521.104 454.02 520.804 453.85C520.504 453.67 520.154 453.58 519.754 453.58C519.354 453.58 518.999 453.67 518.689 453.85C518.389 454.02 518.154 454.265 517.984 454.585C517.814 454.895 517.729 455.265 517.729 455.695V456.055C517.729 456.495 517.824 456.885 518.014 457.225C518.214 457.555 518.489 457.81 518.839 457.99C519.199 458.16 519.619 458.245 520.099 458.245C520.529 458.245 520.904 458.18 521.224 458.05C521.554 457.92 521.854 457.725 522.124 457.465L523.369 458.815C522.999 459.235 522.534 459.56 521.974 459.79C521.414 460.01 520.769 460.12 520.039 460.12ZM518.329 450.895L520.354 448.735H522.874L520.159 450.895H518.329Z" fill="white"/>
<circle cx="800" cy="318" r="93" stroke="#FDC500" stroke-width="10"/>
<mask id="mask1_149_1029" style="mask-type:alpha" maskUnits="userSpaceOnUse" x="740" y="258" width="119" height="119">
<rect x="740" y="258" width="119" height="119" fill="#D9D9D9"/>
</mask>
<g mask="url(#mask1_149_1029)">
<path d="M814.375 357.167C803.301 357.167 793.922 353.324 786.236 345.639C778.551 337.953 774.708 328.574 774.708 317.5C774.708 306.509 778.551 297.15 786.236 289.423C793.922 281.697 803.301 277.833 814.375 277.833C825.366 277.833 834.725 281.697 842.451 289.423C850.178 297.15 854.041 306.509 854.041 317.5C854.041 328.574 850.178 337.953 842.451 345.639C834.725 353.324 825.366 357.167 814.375 357.167ZM814.375 347.25C822.639 347.25 829.663 344.358 835.448 338.573C841.232 332.788 844.125 325.764 844.125 317.5C844.125 309.236 841.232 302.212 835.448 296.427C829.663 290.642 822.639 287.75 814.375 287.75C806.111 287.75 799.086 290.642 793.302 296.427C787.517 302.212 784.625 309.236 784.625 317.5C784.625 325.764 787.517 332.788 793.302 338.573C799.086 344.358 806.111 347.25 814.375 347.25ZM825.655 335.97L832.721 328.904L819.333 315.517V297.667H809.416V319.607L825.655 335.97ZM749.916 302.625V292.708H769.75V302.625H749.916ZM734.958 322.458V312.542H769.75V322.458H734.958ZM749.916 342.292V332.375H769.75V342.292H749.916Z" fill="white"/>
<path d="M832.721 328.904L825.655 335.97L809.416 319.607V297.667H819.333V315.517L832.721 328.904Z" fill="#FDC500"/>
</g>
<path d="M749.391 457.18C748.561 457.18 747.796 457.05 747.096 456.79C746.406 456.52 745.801 456.14 745.281 455.65C744.771 455.16 744.371 454.585 744.081 453.925C743.801 453.265 743.661 452.54 743.661 451.75C743.661 450.96 743.801 450.235 744.081 449.575C744.371 448.915 744.776 448.34 745.296 447.85C745.816 447.36 746.426 446.985 747.126 446.725C747.826 446.455 748.596 446.32 749.436 446.32C750.366 446.32 751.201 446.475 751.941 446.785C752.691 447.095 753.321 447.545 753.831 448.135L752.271 449.575C751.891 449.175 751.476 448.88 751.026 448.69C750.576 448.49 750.086 448.39 749.556 448.39C749.046 448.39 748.581 448.47 748.161 448.63C747.741 448.79 747.376 449.02 747.066 449.32C746.766 449.62 746.531 449.975 746.361 450.385C746.201 450.795 746.121 451.25 746.121 451.75C746.121 452.24 746.201 452.69 746.361 453.1C746.531 453.51 746.766 453.87 747.066 454.18C747.376 454.48 747.736 454.71 748.146 454.87C748.566 455.03 749.026 455.11 749.526 455.11C750.006 455.11 750.471 455.035 750.921 454.885C751.381 454.725 751.826 454.46 752.256 454.09L753.636 455.845C753.066 456.275 752.401 456.605 751.641 456.835C750.891 457.065 750.141 457.18 749.391 457.18ZM751.416 455.53V451.585H753.636V455.845L751.416 455.53ZM760.678 457V455.425L760.528 455.08V452.26C760.528 451.76 760.373 451.37 760.063 451.09C759.763 450.81 759.298 450.67 758.668 450.67C758.238 450.67 757.813 450.74 757.393 450.88C756.983 451.01 756.633 451.19 756.343 451.42L755.503 449.785C755.943 449.475 756.473 449.235 757.093 449.065C757.713 448.895 758.343 448.81 758.983 448.81C760.213 448.81 761.168 449.1 761.848 449.68C762.528 450.26 762.868 451.165 762.868 452.395V457H760.678ZM758.218 457.12C757.588 457.12 757.048 457.015 756.598 456.805C756.148 456.585 755.803 456.29 755.563 455.92C755.323 455.55 755.203 455.135 755.203 454.675C755.203 454.195 755.318 453.775 755.548 453.415C755.788 453.055 756.163 452.775 756.673 452.575C757.183 452.365 757.848 452.26 758.668 452.26H760.813V453.625H758.923C758.373 453.625 757.993 453.715 757.783 453.895C757.583 454.075 757.483 454.3 757.483 454.57C757.483 454.87 757.598 455.11 757.828 455.29C758.068 455.46 758.393 455.545 758.803 455.545C759.193 455.545 759.543 455.455 759.853 455.275C760.163 455.085 760.388 454.81 760.528 454.45L760.888 455.53C760.718 456.05 760.408 456.445 759.958 456.715C759.508 456.985 758.928 457.12 758.218 457.12ZM764.986 457V448.93H767.326V457H764.986ZM766.156 447.805C765.726 447.805 765.376 447.68 765.106 447.43C764.836 447.18 764.701 446.87 764.701 446.5C764.701 446.13 764.836 445.82 765.106 445.57C765.376 445.32 765.726 445.195 766.156 445.195C766.586 445.195 766.936 445.315 767.206 445.555C767.476 445.785 767.611 446.085 767.611 446.455C767.611 446.845 767.476 447.17 767.206 447.43C766.946 447.68 766.596 447.805 766.156 447.805ZM774.403 448.81C775.043 448.81 775.613 448.94 776.113 449.2C776.623 449.45 777.023 449.84 777.313 450.37C777.603 450.89 777.748 451.56 777.748 452.38V457H775.408V452.74C775.408 452.09 775.263 451.61 774.973 451.3C774.693 450.99 774.293 450.835 773.773 450.835C773.403 450.835 773.068 450.915 772.768 451.075C772.478 451.225 772.248 451.46 772.078 451.78C771.918 452.1 771.838 452.51 771.838 453.01V457H769.498V448.93H771.733V451.165L771.313 450.49C771.603 449.95 772.018 449.535 772.558 449.245C773.098 448.955 773.713 448.81 774.403 448.81ZM787.582 457.12C786.822 457.12 786.137 456.95 785.527 456.61C784.917 456.26 784.432 455.775 784.072 455.155C783.722 454.535 783.547 453.805 783.547 452.965C783.547 452.115 783.722 451.38 784.072 450.76C784.432 450.14 784.917 449.66 785.527 449.32C786.137 448.98 786.822 448.81 787.582 448.81C788.262 448.81 788.857 448.96 789.367 449.26C789.877 449.56 790.272 450.015 790.552 450.625C790.832 451.235 790.972 452.015 790.972 452.965C790.972 453.905 790.837 454.685 790.567 455.305C790.297 455.915 789.907 456.37 789.397 456.67C788.897 456.97 788.292 457.12 787.582 457.12ZM787.987 455.2C788.367 455.2 788.712 455.11 789.022 454.93C789.332 454.75 789.577 454.495 789.757 454.165C789.947 453.825 790.042 453.425 790.042 452.965C790.042 452.495 789.947 452.095 789.757 451.765C789.577 451.435 789.332 451.18 789.022 451C788.712 450.82 788.367 450.73 787.987 450.73C787.597 450.73 787.247 450.82 786.937 451C786.627 451.18 786.377 451.435 786.187 451.765C786.007 452.095 785.917 452.495 785.917 452.965C785.917 453.425 786.007 453.825 786.187 454.165C786.377 454.495 786.627 454.75 786.937 454.93C787.247 455.11 787.597 455.2 787.987 455.2ZM790.102 457V455.35L790.147 452.95L789.997 450.565V445.87H792.337V457H790.102ZM798.508 457.12C797.588 457.12 796.778 456.94 796.078 456.58C795.388 456.22 794.853 455.73 794.473 455.11C794.093 454.48 793.903 453.765 793.903 452.965C793.903 452.155 794.088 451.44 794.458 450.82C794.838 450.19 795.353 449.7 796.003 449.35C796.653 448.99 797.388 448.81 798.208 448.81C798.998 448.81 799.708 448.98 800.338 449.32C800.978 449.65 801.483 450.13 801.853 450.76C802.223 451.38 802.408 452.125 802.408 452.995C802.408 453.085 802.403 453.19 802.393 453.31C802.383 453.42 802.373 453.525 802.363 453.625H795.808V452.26H801.133L800.233 452.665C800.233 452.245 800.148 451.88 799.978 451.57C799.808 451.26 799.573 451.02 799.273 450.85C798.973 450.67 798.623 450.58 798.223 450.58C797.823 450.58 797.468 450.67 797.158 450.85C796.858 451.02 796.623 451.265 796.453 451.585C796.283 451.895 796.198 452.265 796.198 452.695V453.055C796.198 453.495 796.293 453.885 796.483 454.225C796.683 454.555 796.958 454.81 797.308 454.99C797.668 455.16 798.088 455.245 798.568 455.245C798.998 455.245 799.373 455.18 799.693 455.05C800.023 454.92 800.323 454.725 800.593 454.465L801.838 455.815C801.468 456.235 801.003 456.56 800.443 456.79C799.883 457.01 799.238 457.12 798.508 457.12ZM811.514 457.12C810.564 457.12 809.824 456.88 809.294 456.4C808.764 455.91 808.499 455.185 808.499 454.225V447.145H810.839V454.195C810.839 454.535 810.929 454.8 811.109 454.99C811.289 455.17 811.534 455.26 811.844 455.26C812.214 455.26 812.529 455.16 812.789 454.96L813.419 456.61C813.179 456.78 812.889 456.91 812.549 457C812.219 457.08 811.874 457.12 811.514 457.12ZM807.254 450.91V449.11H812.849V450.91H807.254ZM818.488 457.12C817.568 457.12 816.758 456.94 816.058 456.58C815.368 456.22 814.833 455.73 814.453 455.11C814.073 454.48 813.883 453.765 813.883 452.965C813.883 452.155 814.068 451.44 814.438 450.82C814.818 450.19 815.333 449.7 815.983 449.35C816.633 448.99 817.368 448.81 818.188 448.81C818.978 448.81 819.688 448.98 820.318 449.32C820.958 449.65 821.463 450.13 821.833 450.76C822.203 451.38 822.388 452.125 822.388 452.995C822.388 453.085 822.383 453.19 822.373 453.31C822.363 453.42 822.353 453.525 822.343 453.625H815.788V452.26H821.113L820.213 452.665C820.213 452.245 820.128 451.88 819.958 451.57C819.788 451.26 819.553 451.02 819.253 450.85C818.953 450.67 818.603 450.58 818.203 450.58C817.803 450.58 817.448 450.67 817.138 450.85C816.838 451.02 816.603 451.265 816.433 451.585C816.263 451.895 816.178 452.265 816.178 452.695V453.055C816.178 453.495 816.273 453.885 816.463 454.225C816.663 454.555 816.938 454.81 817.288 454.99C817.648 455.16 818.068 455.245 818.548 455.245C818.978 455.245 819.353 455.18 819.673 455.05C820.003 454.92 820.303 454.725 820.573 454.465L821.818 455.815C821.448 456.235 820.983 456.56 820.423 456.79C819.863 457.01 819.218 457.12 818.488 457.12ZM834.281 448.81C834.921 448.81 835.486 448.94 835.976 449.2C836.476 449.45 836.866 449.84 837.146 450.37C837.436 450.89 837.581 451.56 837.581 452.38V457H835.241V452.74C835.241 452.09 835.106 451.61 834.836 451.3C834.566 450.99 834.186 450.835 833.696 450.835C833.356 450.835 833.051 450.915 832.781 451.075C832.511 451.225 832.301 451.455 832.151 451.765C832.001 452.075 831.926 452.47 831.926 452.95V457H829.586V452.74C829.586 452.09 829.451 451.61 829.181 451.3C828.921 450.99 828.546 450.835 828.056 450.835C827.716 450.835 827.411 450.915 827.141 451.075C826.871 451.225 826.661 451.455 826.511 451.765C826.361 452.075 826.286 452.47 826.286 452.95V457H823.946V448.93H826.181V451.135L825.761 450.49C826.041 449.94 826.436 449.525 826.946 449.245C827.466 448.955 828.056 448.81 828.716 448.81C829.456 448.81 830.101 449 830.651 449.38C831.211 449.75 831.581 450.32 831.761 451.09L830.936 450.865C831.206 450.235 831.636 449.735 832.226 449.365C832.826 448.995 833.511 448.81 834.281 448.81ZM844.449 457.12C843.769 457.12 843.174 456.97 842.664 456.67C842.154 456.37 841.754 455.915 841.464 455.305C841.184 454.685 841.044 453.905 841.044 452.965C841.044 452.015 841.179 451.235 841.449 450.625C841.719 450.015 842.109 449.56 842.619 449.26C843.129 448.96 843.739 448.81 844.449 448.81C845.209 448.81 845.889 448.985 846.489 449.335C847.099 449.675 847.579 450.155 847.929 450.775C848.289 451.395 848.469 452.125 848.469 452.965C848.469 453.815 848.289 454.55 847.929 455.17C847.579 455.79 847.099 456.27 846.489 456.61C845.889 456.95 845.209 457.12 844.449 457.12ZM839.679 459.91V448.93H841.914V450.58L841.869 452.98L842.019 455.365V459.91H839.679ZM844.044 455.2C844.434 455.2 844.779 455.11 845.079 454.93C845.389 454.75 845.634 454.495 845.814 454.165C846.004 453.825 846.099 453.425 846.099 452.965C846.099 452.495 846.004 452.095 845.814 451.765C845.634 451.435 845.389 451.18 845.079 451C844.779 450.82 844.434 450.73 844.044 450.73C843.654 450.73 843.304 450.82 842.994 451C842.684 451.18 842.439 451.435 842.259 451.765C842.079 452.095 841.989 452.495 841.989 452.965C841.989 453.425 842.079 453.825 842.259 454.165C842.439 454.495 842.684 454.75 842.994 454.93C843.304 455.11 843.654 455.2 844.044 455.2ZM852.75 457.12C852.06 457.12 851.395 457.04 850.755 456.88C850.125 456.71 849.625 456.5 849.255 456.25L850.035 454.57C850.405 454.8 850.84 454.99 851.34 455.14C851.85 455.28 852.35 455.35 852.84 455.35C853.38 455.35 853.76 455.285 853.98 455.155C854.21 455.025 854.325 454.845 854.325 454.615C854.325 454.425 854.235 454.285 854.055 454.195C853.885 454.095 853.655 454.02 853.365 453.97C853.075 453.92 852.755 453.87 852.405 453.82C852.065 453.77 851.72 453.705 851.37 453.625C851.02 453.535 850.7 453.405 850.41 453.235C850.12 453.065 849.885 452.835 849.705 452.545C849.535 452.255 849.45 451.88 849.45 451.42C849.45 450.91 849.595 450.46 849.885 450.07C850.185 449.68 850.615 449.375 851.175 449.155C851.735 448.925 852.405 448.81 853.185 448.81C853.735 448.81 854.295 448.87 854.865 448.99C855.435 449.11 855.91 449.285 856.29 449.515L855.51 451.18C855.12 450.95 854.725 450.795 854.325 450.715C853.935 450.625 853.555 450.58 853.185 450.58C852.665 450.58 852.285 450.65 852.045 450.79C851.805 450.93 851.685 451.11 851.685 451.33C851.685 451.53 851.77 451.68 851.94 451.78C852.12 451.88 852.355 451.96 852.645 452.02C852.935 452.08 853.25 452.135 853.59 452.185C853.94 452.225 854.29 452.29 854.64 452.38C854.99 452.47 855.305 452.6 855.585 452.77C855.875 452.93 856.11 453.155 856.29 453.445C856.47 453.725 856.56 454.095 856.56 454.555C856.56 455.055 856.41 455.5 856.11 455.89C855.81 456.27 855.375 456.57 854.805 456.79C854.245 457.01 853.56 457.12 852.75 457.12Z" fill="white"/>
<circle cx="1108" cy="318" r="93" stroke="#FDC500" stroke-width="10"/>
<path d="M1078.25 271.25C1073.74 271.25 1069.42 273.041 1066.23 276.229C1063.04 279.417 1061.25 283.741 1061.25 288.25C1061.25 305.25 1078.25 313.75 1078.25 313.75C1078.25 313.75 1095.25 305.25 1095.25 288.25C1095.25 283.741 1093.46 279.417 1090.27 276.229C1087.08 273.041 1082.76 271.25 1078.25 271.25ZM1078.25 296.75C1076.57 296.75 1074.93 296.251 1073.53 295.317C1072.13 294.383 1071.04 293.056 1070.4 291.503C1069.75 289.95 1069.59 288.241 1069.91 286.592C1070.24 284.943 1071.05 283.428 1072.24 282.24C1073.43 281.051 1074.94 280.241 1076.59 279.913C1078.24 279.585 1079.95 279.754 1081.5 280.397C1083.06 281.04 1084.38 282.13 1085.32 283.528C1086.25 284.925 1086.75 286.569 1086.75 288.25C1086.75 290.504 1085.85 292.666 1084.26 294.26C1082.67 295.854 1080.5 296.75 1078.25 296.75Z" fill="#FDC500"/>
<path d="M1129.25 360.5H1078.25C1073.74 360.5 1069.42 358.709 1066.23 355.521C1063.04 352.333 1061.25 348.009 1061.25 343.5C1061.25 338.991 1063.04 334.667 1066.23 331.479C1069.42 328.291 1073.74 326.5 1078.25 326.5H1142C1143.13 326.5 1144.21 326.052 1145.01 325.255C1145.8 324.458 1146.25 323.377 1146.25 322.25V284C1146.25 282.873 1145.8 281.792 1145.01 280.995C1144.21 280.198 1143.13 279.75 1142 279.75H1116.5C1115.37 279.75 1114.29 280.198 1113.49 280.995C1112.7 281.792 1112.25 282.873 1112.25 284C1112.25 285.127 1112.7 286.208 1113.49 287.005C1114.29 287.802 1115.37 288.25 1116.5 288.25H1125C1128.38 288.25 1131.62 289.593 1134.02 291.984C1136.41 294.375 1137.75 297.618 1137.75 301C1137.75 304.382 1136.41 307.625 1134.02 310.016C1131.62 312.407 1128.38 313.75 1125 313.75H1095.25V305.25H1125C1126.13 305.25 1127.21 304.802 1128.01 304.005C1128.8 303.208 1129.25 302.127 1129.25 301C1129.25 299.873 1128.8 298.792 1128.01 297.995C1127.21 297.198 1126.13 296.75 1125 296.75H1116.5C1113.12 296.75 1109.88 295.407 1107.48 293.016C1105.09 290.625 1103.75 287.382 1103.75 284C1103.75 280.618 1105.09 277.375 1107.48 274.984C1109.88 272.593 1113.12 271.25 1116.5 271.25H1142C1145.38 271.25 1148.62 272.593 1151.02 274.984C1153.41 277.375 1154.75 280.618 1154.75 284V322.25C1154.75 325.632 1153.41 328.875 1151.02 331.266C1148.62 333.657 1145.38 335 1142 335H1078.25C1076 335 1073.83 335.896 1072.24 337.49C1070.65 339.084 1069.75 341.246 1069.75 343.5C1069.75 345.754 1070.65 347.916 1072.24 349.51C1073.83 351.104 1076 352 1078.25 352H1129.25V360.5Z" fill="white"/>
<path d="M1154.75 347.75H1137.75V364.75H1154.75V347.75Z" fill="#FDC500"/>
<path d="M1083.12 451.225H1088.16V453.175H1083.12V451.225ZM1083.3 457H1080.87V446.5H1088.81V448.45H1083.3V457ZM1095.02 457V455.425L1094.87 455.08V452.26C1094.87 451.76 1094.71 451.37 1094.4 451.09C1094.1 450.81 1093.64 450.67 1093.01 450.67C1092.58 450.67 1092.15 450.74 1091.73 450.88C1091.32 451.01 1090.97 451.19 1090.68 451.42L1089.84 449.785C1090.28 449.475 1090.81 449.235 1091.43 449.065C1092.05 448.895 1092.68 448.81 1093.32 448.81C1094.55 448.81 1095.51 449.1 1096.19 449.68C1096.87 450.26 1097.21 451.165 1097.21 452.395V457H1095.02ZM1092.56 457.12C1091.93 457.12 1091.39 457.015 1090.94 456.805C1090.49 456.585 1090.14 456.29 1089.9 455.92C1089.66 455.55 1089.54 455.135 1089.54 454.675C1089.54 454.195 1089.66 453.775 1089.89 453.415C1090.13 453.055 1090.5 452.775 1091.01 452.575C1091.52 452.365 1092.19 452.26 1093.01 452.26H1095.15V453.625H1093.26C1092.71 453.625 1092.33 453.715 1092.12 453.895C1091.92 454.075 1091.82 454.3 1091.82 454.57C1091.82 454.87 1091.94 455.11 1092.17 455.29C1092.41 455.46 1092.73 455.545 1093.14 455.545C1093.53 455.545 1093.88 455.455 1094.19 455.275C1094.5 455.085 1094.73 454.81 1094.87 454.45L1095.23 455.53C1095.06 456.05 1094.75 456.445 1094.3 456.715C1093.85 456.985 1093.27 457.12 1092.56 457.12ZM1103.28 457.12C1102.41 457.12 1101.64 456.945 1100.96 456.595C1100.28 456.235 1099.74 455.74 1099.35 455.11C1098.97 454.48 1098.78 453.765 1098.78 452.965C1098.78 452.155 1098.97 451.44 1099.35 450.82C1099.74 450.19 1100.28 449.7 1100.96 449.35C1101.64 448.99 1102.41 448.81 1103.28 448.81C1104.13 448.81 1104.87 448.99 1105.5 449.35C1106.13 449.7 1106.6 450.205 1106.9 450.865L1105.08 451.84C1104.87 451.46 1104.61 451.18 1104.29 451C1103.98 450.82 1103.64 450.73 1103.27 450.73C1102.87 450.73 1102.51 450.82 1102.19 451C1101.87 451.18 1101.61 451.435 1101.42 451.765C1101.24 452.095 1101.15 452.495 1101.15 452.965C1101.15 453.435 1101.24 453.835 1101.42 454.165C1101.61 454.495 1101.87 454.75 1102.19 454.93C1102.51 455.11 1102.87 455.2 1103.27 455.2C1103.64 455.2 1103.98 455.115 1104.29 454.945C1104.61 454.765 1104.87 454.48 1105.08 454.09L1106.9 455.08C1106.6 455.73 1106.13 456.235 1105.5 456.595C1104.87 456.945 1104.13 457.12 1103.28 457.12ZM1108.19 457V448.93H1110.53V457H1108.19ZM1109.36 447.805C1108.93 447.805 1108.58 447.68 1108.31 447.43C1108.04 447.18 1107.9 446.87 1107.9 446.5C1107.9 446.13 1108.04 445.82 1108.31 445.57C1108.58 445.32 1108.93 445.195 1109.36 445.195C1109.79 445.195 1110.14 445.315 1110.41 445.555C1110.68 445.785 1110.81 446.085 1110.81 446.455C1110.81 446.845 1110.68 447.17 1110.41 447.43C1110.15 447.68 1109.8 447.805 1109.36 447.805ZM1112.7 457V445.87H1115.04V457H1112.7ZM1117.21 457V448.93H1119.55V457H1117.21ZM1118.38 447.805C1117.95 447.805 1117.6 447.68 1117.33 447.43C1117.06 447.18 1116.92 446.87 1116.92 446.5C1116.92 446.13 1117.06 445.82 1117.33 445.57C1117.6 445.32 1117.95 445.195 1118.38 445.195C1118.81 445.195 1119.16 445.315 1119.43 445.555C1119.7 445.785 1119.83 446.085 1119.83 446.455C1119.83 446.845 1119.7 447.17 1119.43 447.43C1119.17 447.68 1118.82 447.805 1118.38 447.805ZM1125.02 457.12C1124.07 457.12 1123.33 456.88 1122.8 456.4C1122.27 455.91 1122.01 455.185 1122.01 454.225V447.145H1124.35V454.195C1124.35 454.535 1124.44 454.8 1124.62 454.99C1124.8 455.17 1125.04 455.26 1125.35 455.26C1125.72 455.26 1126.04 455.16 1126.3 454.96L1126.93 456.61C1126.69 456.78 1126.4 456.91 1126.06 457C1125.73 457.08 1125.38 457.12 1125.02 457.12ZM1120.76 450.91V449.11H1126.36V450.91H1120.76ZM1132 457.12C1131.08 457.12 1130.27 456.94 1129.57 456.58C1128.88 456.22 1128.34 455.73 1127.96 455.11C1127.58 454.48 1127.39 453.765 1127.39 452.965C1127.39 452.155 1127.58 451.44 1127.95 450.82C1128.33 450.19 1128.84 449.7 1129.49 449.35C1130.14 448.99 1130.88 448.81 1131.7 448.81C1132.49 448.81 1133.2 448.98 1133.83 449.32C1134.47 449.65 1134.97 450.13 1135.34 450.76C1135.71 451.38 1135.9 452.125 1135.9 452.995C1135.9 453.085 1135.89 453.19 1135.88 453.31C1135.87 453.42 1135.86 453.525 1135.85 453.625H1129.3V452.26H1134.62L1133.72 452.665C1133.72 452.245 1133.64 451.88 1133.47 451.57C1133.3 451.26 1133.06 451.02 1132.76 450.85C1132.46 450.67 1132.11 450.58 1131.71 450.58C1131.31 450.58 1130.96 450.67 1130.65 450.85C1130.35 451.02 1130.11 451.265 1129.94 451.585C1129.77 451.895 1129.69 452.265 1129.69 452.695V453.055C1129.69 453.495 1129.78 453.885 1129.97 454.225C1130.17 454.555 1130.45 454.81 1130.8 454.99C1131.16 455.16 1131.58 455.245 1132.06 455.245C1132.49 455.245 1132.86 455.18 1133.18 455.05C1133.51 454.92 1133.81 454.725 1134.08 454.465L1135.33 455.815C1134.96 456.235 1134.49 456.56 1133.93 456.79C1133.37 457.01 1132.73 457.12 1132 457.12ZM1130.29 447.895L1132.31 445.735H1134.83L1132.12 447.895H1130.29Z" fill="white"/>
<rect width="6" height="14.02" transform="matrix(1 0 -0.374606 0.927184 758.126 59.0005)" fill="#FDC501"/>
<rect width="2" height="14.02" transform="matrix(1 0 -0.374606 0.927184 767.126 59.0005)" fill="#FDC501"/>
<path d="M781.973 71L778.933 59.8H780.645L782.917 69.128L785.525 59.8H787.301L789.829 69.16L792.133 59.8H793.845L790.757 71H788.885L786.373 62.088L783.797 71H781.973ZM795.339 71V59.48H796.939V64.28C797.206 63.8107 797.574 63.4427 798.043 63.176C798.523 62.9093 799.051 62.776 799.627 62.776C800.267 62.776 800.816 62.904 801.275 63.16C801.734 63.416 802.086 63.8053 802.331 64.328C802.576 64.8507 802.699 65.5013 802.699 66.28V71H801.115V66.456C801.115 65.688 800.955 65.112 800.635 64.728C800.315 64.3333 799.84 64.136 799.211 64.136C798.784 64.136 798.395 64.2427 798.043 64.456C797.702 64.6587 797.43 64.952 797.227 65.336C797.035 65.72 796.939 66.1947 796.939 66.76V71H795.339ZM808.394 71.192C807.615 71.192 806.927 71.0213 806.33 70.68C805.732 70.328 805.263 69.8373 804.922 69.208C804.591 68.5787 804.426 67.8427 804.426 67C804.426 66.1573 804.591 65.4213 804.922 64.792C805.263 64.1627 805.732 63.672 806.33 63.32C806.927 62.9573 807.62 62.776 808.41 62.776C809.199 62.776 809.876 62.952 810.442 63.304C811.007 63.6453 811.444 64.1093 811.754 64.696C812.063 65.272 812.218 65.912 812.218 66.616C812.218 66.7227 812.218 66.84 812.218 66.968C812.218 67.0853 812.207 67.2133 812.186 67.352H805.594V66.232H810.618C810.586 65.5707 810.362 65.0533 809.946 64.68C809.53 64.296 809.012 64.104 808.394 64.104C807.967 64.104 807.567 64.2 807.194 64.392C806.831 64.584 806.538 64.872 806.314 65.256C806.1 65.6293 805.994 66.104 805.994 66.68V67.128C805.994 67.7253 806.1 68.2267 806.314 68.632C806.538 69.0373 806.831 69.3467 807.194 69.56C807.556 69.7627 807.951 69.864 808.378 69.864C808.89 69.864 809.311 69.752 809.642 69.528C809.983 69.2933 810.234 68.984 810.394 68.6H811.994C811.844 69.1013 811.604 69.5493 811.274 69.944C810.954 70.328 810.548 70.632 810.058 70.856C809.578 71.08 809.023 71.192 808.394 71.192ZM813.995 71V62.968H815.435L815.531 64.344C815.787 63.864 816.15 63.4853 816.619 63.208C817.089 62.92 817.633 62.776 818.251 62.776C818.881 62.776 819.425 62.904 819.883 63.16C820.342 63.416 820.699 63.8053 820.955 64.328C821.211 64.84 821.339 65.4853 821.339 66.264V71H819.739V66.424C819.739 65.6773 819.574 65.112 819.243 64.728C818.913 64.3333 818.438 64.136 817.819 64.136C817.393 64.136 817.009 64.2373 816.667 64.44C816.337 64.6427 816.075 64.936 815.883 65.32C815.691 65.704 815.595 66.1787 815.595 66.744V71H813.995ZM823.386 71V62.968H824.826L824.97 64.488C825.151 64.1253 825.381 63.8213 825.658 63.576C825.946 63.32 826.282 63.1227 826.666 62.984C827.061 62.8453 827.503 62.776 827.994 62.776V64.456H827.466C827.125 64.456 826.805 64.4987 826.506 64.584C826.207 64.6693 825.941 64.808 825.706 65C825.482 65.192 825.306 65.4533 825.178 65.784C825.05 66.1147 824.986 66.5253 824.986 67.016V71H823.386ZM832.152 71.192C831.49 71.192 830.941 71.08 830.504 70.856C830.066 70.632 829.741 70.3333 829.528 69.96C829.314 69.5867 829.208 69.176 829.208 68.728C829.208 68.2053 829.341 67.7573 829.608 67.384C829.885 67 830.28 66.7067 830.792 66.504C831.314 66.3013 831.933 66.2 832.648 66.2H834.744C834.744 65.7307 834.674 65.3413 834.536 65.032C834.397 64.7227 834.189 64.4933 833.912 64.344C833.645 64.184 833.304 64.104 832.888 64.104C832.408 64.104 831.992 64.2213 831.64 64.456C831.298 64.6907 831.09 65.032 831.016 65.48H829.4C829.464 64.904 829.656 64.4187 829.976 64.024C830.306 63.6187 830.728 63.3093 831.24 63.096C831.752 62.8827 832.301 62.776 832.888 62.776C833.634 62.776 834.264 62.9093 834.776 63.176C835.298 63.4427 835.688 63.8213 835.944 64.312C836.21 64.792 836.344 65.3627 836.344 66.024V71H834.952L834.824 69.64C834.706 69.8533 834.568 70.056 834.408 70.248C834.248 70.44 834.056 70.6053 833.832 70.744C833.618 70.8827 833.368 70.9893 833.08 71.064C832.802 71.1493 832.493 71.192 832.152 71.192ZM832.456 69.896C832.797 69.896 833.106 69.8267 833.384 69.688C833.661 69.5493 833.896 69.3627 834.088 69.128C834.29 68.8827 834.44 68.6107 834.536 68.312C834.642 68.0133 834.701 67.6987 834.712 67.368V67.336H832.808C832.349 67.336 831.976 67.3947 831.688 67.512C831.41 67.6187 831.208 67.768 831.08 67.96C830.952 68.152 830.888 68.376 830.888 68.632C830.888 68.888 830.946 69.112 831.064 69.304C831.192 69.4853 831.373 69.6293 831.608 69.736C831.842 69.8427 832.125 69.896 832.456 69.896ZM843.458 71L839.73 66.6L843.106 62.968H845.042L841.026 67.208L841.042 66.008L845.474 71H843.458ZM838.386 71V59.48H839.986V71H838.386Z" fill="white"/>
<path d="M687 119L697.48 93.36H708.4L718.88 119H712.2L709.48 112.4H696.4L693.64 119H687ZM707.48 107.44L702.92 96.48L698.36 107.44H707.48ZM716.921 99.2H723.321L730.361 114.96L738.361 99.2H744.601L734.961 119H725.801L716.921 99.2ZM753.854 119.4C752.707 119.4 751.547 119.32 750.374 119.16C749.227 119.027 748.2 118.733 747.294 118.28C746.387 117.8 745.654 117.12 745.094 116.24C744.56 115.333 744.334 114.133 744.414 112.64C744.467 111.467 744.747 110.533 745.254 109.84C745.787 109.12 746.507 108.573 747.414 108.2C748.347 107.827 749.427 107.587 750.654 107.48C751.907 107.373 753.28 107.32 754.774 107.32L763.174 107.36V106.28C763.174 105.747 763.107 105.307 762.974 104.96C762.867 104.587 762.6 104.293 762.174 104.08C761.774 103.867 761.16 103.707 760.334 103.6C759.534 103.493 758.44 103.44 757.054 103.44C755.24 103.44 753.947 103.6 753.174 103.92C752.4 104.24 751.894 104.813 751.654 105.64H745.374C745.507 104.493 745.814 103.493 746.294 102.64C746.774 101.76 747.467 101.04 748.374 100.48C749.307 99.8933 750.48 99.4667 751.894 99.2C753.334 98.9067 755.054 98.76 757.054 98.76C759.454 98.76 761.414 98.92 762.934 99.24C764.48 99.56 765.694 100.027 766.574 100.64C767.454 101.227 768.054 101.947 768.374 102.8C768.694 103.653 768.854 104.613 768.854 105.68V119H763.174V116.28C762.854 116.707 762.427 117.12 761.894 117.52C761.387 117.893 760.76 118.227 760.014 118.52C759.267 118.787 758.387 119 757.374 119.16C756.36 119.32 755.187 119.4 753.854 119.4ZM757.174 111.12C755.04 111.12 753.427 111.2 752.334 111.36C751.267 111.493 750.734 111.947 750.734 112.72C750.734 113.6 751.174 114.16 752.054 114.4C752.934 114.613 754.254 114.72 756.014 114.72C757.48 114.72 758.667 114.627 759.574 114.44C760.507 114.253 761.24 114.027 761.774 113.76C762.307 113.467 762.667 113.16 762.854 112.84C763.067 112.493 763.174 112.187 763.174 111.92V111.12H757.174ZM773.543 99.2H779.463V102.96C780.237 101.68 781.263 100.667 782.543 99.92C783.823 99.1733 785.263 98.8 786.863 98.8C788.677 98.8 790.21 99 791.463 99.4C792.743 99.7733 793.783 100.307 794.583 101C795.383 101.667 795.957 102.467 796.303 103.4C796.677 104.333 796.863 105.347 796.863 106.44V119H790.983V107.12C790.983 106.027 790.53 105.187 789.623 104.6C788.743 103.987 787.423 103.68 785.663 103.68C784.517 103.68 783.557 103.8 782.783 104.04C782.01 104.253 781.383 104.547 780.903 104.92C780.45 105.267 780.103 105.68 779.863 106.16C779.65 106.64 779.517 107.147 779.463 107.68V119H773.543V99.2ZM802.652 98.96V94.28H808.332V98.96H821.332V104.04H808.332V111.2C808.332 111.707 808.359 112.173 808.412 112.6C808.492 113.027 808.692 113.387 809.012 113.68C809.359 113.973 809.879 114.213 810.572 114.4C811.265 114.56 812.252 114.64 813.532 114.64C814.652 114.64 815.532 114.547 816.172 114.36C816.839 114.173 817.332 113.92 817.652 113.6C817.999 113.253 818.225 112.84 818.332 112.36C818.465 111.853 818.559 111.307 818.612 110.72H824.532C824.505 112.027 824.319 113.2 823.972 114.24C823.625 115.28 823.039 116.173 822.212 116.92C821.385 117.64 820.265 118.2 818.852 118.6C817.439 118.973 815.665 119.16 813.532 119.16C811.132 119.16 809.212 119 807.772 118.68C806.332 118.36 805.225 117.907 804.452 117.32C803.705 116.707 803.212 115.987 802.972 115.16C802.759 114.307 802.652 113.347 802.652 112.28V104.04H799.212V98.96H802.652ZM836.315 119.4C835.168 119.4 834.008 119.32 832.835 119.16C831.688 119.027 830.661 118.733 829.755 118.28C828.848 117.8 828.115 117.12 827.555 116.24C827.021 115.333 826.795 114.133 826.875 112.64C826.928 111.467 827.208 110.533 827.715 109.84C828.248 109.12 828.968 108.573 829.875 108.2C830.808 107.827 831.888 107.587 833.115 107.48C834.368 107.373 835.741 107.32 837.235 107.32L845.635 107.36V106.28C845.635 105.747 845.568 105.307 845.435 104.96C845.328 104.587 845.061 104.293 844.635 104.08C844.235 103.867 843.621 103.707 842.795 103.6C841.995 103.493 840.901 103.44 839.515 103.44C837.701 103.44 836.408 103.6 835.635 103.92C834.861 104.24 834.355 104.813 834.115 105.64H827.835C827.968 104.493 828.275 103.493 828.755 102.64C829.235 101.76 829.928 101.04 830.835 100.48C831.768 99.8933 832.941 99.4667 834.355 99.2C835.795 98.9067 837.515 98.76 839.515 98.76C841.915 98.76 843.875 98.92 845.395 99.24C846.941 99.56 848.155 100.027 849.035 100.64C849.915 101.227 850.515 101.947 850.835 102.8C851.155 103.653 851.315 104.613 851.315 105.68V119H845.635V116.28C845.315 116.707 844.888 117.12 844.355 117.52C843.848 117.893 843.221 118.227 842.475 118.52C841.728 118.787 840.848 119 839.835 119.16C838.821 119.32 837.648 119.4 836.315 119.4ZM839.635 111.12C837.501 111.12 835.888 111.2 834.795 111.36C833.728 111.493 833.195 111.947 833.195 112.72C833.195 113.6 833.635 114.16 834.515 114.4C835.395 114.613 836.715 114.72 838.475 114.72C839.941 114.72 841.128 114.627 842.035 114.44C842.968 114.253 843.701 114.027 844.235 113.76C844.768 113.467 845.128 113.16 845.315 112.84C845.528 112.493 845.635 112.187 845.635 111.92V111.12H839.635ZM867.682 128.52C866.162 128.52 864.682 128.427 863.242 128.24C861.828 128.08 860.575 127.733 859.482 127.2C858.388 126.667 857.495 125.907 856.802 124.92C856.135 123.96 855.788 122.693 855.762 121.12H861.802C861.882 121.84 862.095 122.387 862.442 122.76C862.815 123.16 863.268 123.44 863.802 123.6C864.362 123.787 864.988 123.893 865.682 123.92C866.375 123.973 867.095 124 867.842 124C870.002 124 871.722 123.613 873.002 122.84C874.308 122.093 874.962 120.907 874.962 119.28V116.32C874.215 117.307 873.228 118.067 872.002 118.6C870.802 119.133 869.402 119.4 867.802 119.4C865.722 119.4 863.895 119.213 862.322 118.84C860.748 118.467 859.428 117.867 858.362 117.04C857.322 116.213 856.535 115.147 856.002 113.84C855.495 112.533 855.242 110.947 855.242 109.08C855.242 107.213 855.495 105.627 856.002 104.32C856.535 103.013 857.322 101.947 858.362 101.12C859.428 100.293 860.748 99.6933 862.322 99.32C863.895 98.9467 865.722 98.76 867.802 98.76C869.402 98.76 870.802 99.0133 872.002 99.52C873.228 100.027 874.215 100.787 874.962 101.8V99.2H880.682V119.92C880.682 121.52 880.322 122.867 879.602 123.96C878.908 125.053 877.962 125.933 876.762 126.6C875.562 127.293 874.175 127.787 872.602 128.08C871.055 128.373 869.415 128.52 867.682 128.52ZM874.962 106.48C874.962 105.92 874.748 105.467 874.322 105.12C873.922 104.747 873.388 104.453 872.722 104.24C872.082 104.027 871.348 103.88 870.522 103.8C869.695 103.72 868.868 103.68 868.042 103.68C866.682 103.68 865.562 103.773 864.682 103.96C863.802 104.12 863.095 104.413 862.562 104.84C862.055 105.267 861.695 105.827 861.482 106.52C861.268 107.213 861.162 108.067 861.162 109.08C861.162 110.093 861.268 110.947 861.482 111.64C861.695 112.333 862.055 112.893 862.562 113.32C863.095 113.72 863.802 114.013 864.682 114.2C865.562 114.387 866.682 114.48 868.042 114.48C868.815 114.48 869.615 114.453 870.442 114.4C871.268 114.32 872.015 114.187 872.682 114C873.348 113.813 873.895 113.56 874.322 113.24C874.748 112.893 874.962 112.467 874.962 111.96V106.48ZM897.063 119.4C894.663 119.4 892.65 119.173 891.023 118.72C889.396 118.267 888.076 117.613 887.063 116.76C886.076 115.88 885.356 114.8 884.903 113.52C884.476 112.24 884.263 110.76 884.263 109.08C884.263 107.4 884.476 105.92 884.903 104.64C885.356 103.36 886.076 102.293 887.063 101.44C888.076 100.56 889.396 99.8933 891.023 99.44C892.65 98.9867 894.663 98.76 897.063 98.76C901.33 98.76 904.556 99.52 906.743 101.04C908.93 102.56 909.996 104.827 909.943 107.84L909.903 110.12H890.223C890.25 110.973 890.383 111.707 890.623 112.32C890.863 112.933 891.25 113.44 891.783 113.84C892.316 114.24 893.01 114.533 893.863 114.72C894.743 114.907 895.81 115 897.063 115C899.01 115 900.61 114.8 901.863 114.4C903.116 114 903.836 113.32 904.023 112.36H909.783C909.623 113.613 909.21 114.693 908.543 115.6C907.903 116.48 907.036 117.2 905.943 117.76C904.85 118.32 903.556 118.733 902.063 119C900.57 119.267 898.903 119.4 897.063 119.4ZM897.063 103.2C895.17 103.2 893.65 103.44 892.503 103.92C891.383 104.4 890.69 105.293 890.423 106.6H903.863C903.81 106.493 903.77 106.36 903.743 106.2C903.743 106.04 903.716 105.907 903.663 105.8C903.556 105.267 903.29 104.84 902.863 104.52C902.436 104.173 901.903 103.907 901.263 103.72C900.65 103.533 899.97 103.4 899.223 103.32C898.503 103.24 897.783 103.2 897.063 103.2Z" fill="white"/>
</g>
<defs>
<clipPath id="clip0_149_1029">
<rect width="1600" height="594" fill="white"/>
</clipPath>
<clipPath id="clip1_149_1029">
<rect width="6286.9" height="5749.43" fill="white" transform="translate(-3133 -1296.83) rotate(-15)"/>
</clipPath>
</defs>
</svg>
