<svg width="1600" height="594" viewBox="0 0 1600 594" fill="none" xmlns="http://www.w3.org/2000/svg">
<g clip-path="url(#clip0_73_120)">
<rect width="1600" height="594" fill="#2C2D34"/>
<path d="M698 119L708.48 93.36H719.4L729.88 119H723.2L720.48 112.4H707.4L704.64 119H698ZM718.48 107.44L713.92 96.48L709.36 107.44H718.48ZM727.921 99.2H734.321L741.361 114.96L749.361 99.2H755.601L745.961 119H736.801L727.921 99.2ZM764.854 119.4C763.707 119.4 762.547 119.32 761.374 119.16C760.227 119.027 759.2 118.733 758.294 118.28C757.387 117.8 756.654 117.12 756.094 116.24C755.56 115.333 755.334 114.133 755.414 112.64C755.467 111.467 755.747 110.533 756.254 109.84C756.787 109.12 757.507 108.573 758.414 108.2C759.347 107.827 760.427 107.587 761.654 107.48C762.907 107.373 764.28 107.32 765.774 107.32L774.174 107.36V106.28C774.174 105.747 774.107 105.307 773.974 104.96C773.867 104.587 773.6 104.293 773.174 104.08C772.774 103.867 772.16 103.707 771.334 103.6C770.534 103.493 769.44 103.44 768.054 103.44C766.24 103.44 764.947 103.6 764.174 103.92C763.4 104.24 762.894 104.813 762.654 105.64H756.374C756.507 104.493 756.814 103.493 757.294 102.64C757.774 101.76 758.467 101.04 759.374 100.48C760.307 99.8933 761.48 99.4667 762.894 99.2C764.334 98.9067 766.054 98.76 768.054 98.76C770.454 98.76 772.414 98.92 773.934 99.24C775.48 99.56 776.694 100.027 777.574 100.64C778.454 101.227 779.054 101.947 779.374 102.8C779.694 103.653 779.854 104.613 779.854 105.68V119H774.174V116.28C773.854 116.707 773.427 117.12 772.894 117.52C772.387 117.893 771.76 118.227 771.014 118.52C770.267 118.787 769.387 119 768.374 119.16C767.36 119.32 766.187 119.4 764.854 119.4ZM768.174 111.12C766.04 111.12 764.427 111.2 763.334 111.36C762.267 111.493 761.734 111.947 761.734 112.72C761.734 113.6 762.174 114.16 763.054 114.4C763.934 114.613 765.254 114.72 767.014 114.72C768.48 114.72 769.667 114.627 770.574 114.44C771.507 114.253 772.24 114.027 772.774 113.76C773.307 113.467 773.667 113.16 773.854 112.84C774.067 112.493 774.174 112.187 774.174 111.92V111.12H768.174ZM784.543 99.2H790.463V102.96C791.237 101.68 792.263 100.667 793.543 99.92C794.823 99.1733 796.263 98.8 797.863 98.8C799.677 98.8 801.21 99 802.463 99.4C803.743 99.7733 804.783 100.307 805.583 101C806.383 101.667 806.957 102.467 807.303 103.4C807.677 104.333 807.863 105.347 807.863 106.44V119H801.983V107.12C801.983 106.027 801.53 105.187 800.623 104.6C799.743 103.987 798.423 103.68 796.663 103.68C795.517 103.68 794.557 103.8 793.783 104.04C793.01 104.253 792.383 104.547 791.903 104.92C791.45 105.267 791.103 105.68 790.863 106.16C790.65 106.64 790.517 107.147 790.463 107.68V119H784.543V99.2ZM813.652 98.96V94.28H819.332V98.96H832.332V104.04H819.332V111.2C819.332 111.707 819.359 112.173 819.412 112.6C819.492 113.027 819.692 113.387 820.012 113.68C820.359 113.973 820.879 114.213 821.572 114.4C822.265 114.56 823.252 114.64 824.532 114.64C825.652 114.64 826.532 114.547 827.172 114.36C827.839 114.173 828.332 113.92 828.652 113.6C828.999 113.253 829.225 112.84 829.332 112.36C829.465 111.853 829.559 111.307 829.612 110.72H835.532C835.505 112.027 835.319 113.2 834.972 114.24C834.625 115.28 834.039 116.173 833.212 116.92C832.385 117.64 831.265 118.2 829.852 118.6C828.439 118.973 826.665 119.16 824.532 119.16C822.132 119.16 820.212 119 818.772 118.68C817.332 118.36 816.225 117.907 815.452 117.32C814.705 116.707 814.212 115.987 813.972 115.16C813.759 114.307 813.652 113.347 813.652 112.28V104.04H810.212V98.96H813.652ZM847.315 119.4C846.168 119.4 845.008 119.32 843.835 119.16C842.688 119.027 841.661 118.733 840.755 118.28C839.848 117.8 839.115 117.12 838.555 116.24C838.021 115.333 837.795 114.133 837.875 112.64C837.928 111.467 838.208 110.533 838.715 109.84C839.248 109.12 839.968 108.573 840.875 108.2C841.808 107.827 842.888 107.587 844.115 107.48C845.368 107.373 846.741 107.32 848.235 107.32L856.635 107.36V106.28C856.635 105.747 856.568 105.307 856.435 104.96C856.328 104.587 856.061 104.293 855.635 104.08C855.235 103.867 854.621 103.707 853.795 103.6C852.995 103.493 851.901 103.44 850.515 103.44C848.701 103.44 847.408 103.6 846.635 103.92C845.861 104.24 845.355 104.813 845.115 105.64H838.835C838.968 104.493 839.275 103.493 839.755 102.64C840.235 101.76 840.928 101.04 841.835 100.48C842.768 99.8933 843.941 99.4667 845.355 99.2C846.795 98.9067 848.515 98.76 850.515 98.76C852.915 98.76 854.875 98.92 856.395 99.24C857.941 99.56 859.155 100.027 860.035 100.64C860.915 101.227 861.515 101.947 861.835 102.8C862.155 103.653 862.315 104.613 862.315 105.68V119H856.635V116.28C856.315 116.707 855.888 117.12 855.355 117.52C854.848 117.893 854.221 118.227 853.475 118.52C852.728 118.787 851.848 119 850.835 119.16C849.821 119.32 848.648 119.4 847.315 119.4ZM850.635 111.12C848.501 111.12 846.888 111.2 845.795 111.36C844.728 111.493 844.195 111.947 844.195 112.72C844.195 113.6 844.635 114.16 845.515 114.4C846.395 114.613 847.715 114.72 849.475 114.72C850.941 114.72 852.128 114.627 853.035 114.44C853.968 114.253 854.701 114.027 855.235 113.76C855.768 113.467 856.128 113.16 856.315 112.84C856.528 112.493 856.635 112.187 856.635 111.92V111.12H850.635ZM878.682 128.52C877.162 128.52 875.682 128.427 874.242 128.24C872.828 128.08 871.575 127.733 870.482 127.2C869.388 126.667 868.495 125.907 867.802 124.92C867.135 123.96 866.788 122.693 866.762 121.12H872.802C872.882 121.84 873.095 122.387 873.442 122.76C873.815 123.16 874.268 123.44 874.802 123.6C875.362 123.787 875.988 123.893 876.682 123.92C877.375 123.973 878.095 124 878.842 124C881.002 124 882.722 123.613 884.002 122.84C885.308 122.093 885.962 120.907 885.962 119.28V116.32C885.215 117.307 884.228 118.067 883.002 118.6C881.802 119.133 880.402 119.4 878.802 119.4C876.722 119.4 874.895 119.213 873.322 118.84C871.748 118.467 870.428 117.867 869.362 117.04C868.322 116.213 867.535 115.147 867.002 113.84C866.495 112.533 866.242 110.947 866.242 109.08C866.242 107.213 866.495 105.627 867.002 104.32C867.535 103.013 868.322 101.947 869.362 101.12C870.428 100.293 871.748 99.6933 873.322 99.32C874.895 98.9467 876.722 98.76 878.802 98.76C880.402 98.76 881.802 99.0133 883.002 99.52C884.228 100.027 885.215 100.787 885.962 101.8V99.2H891.682V119.92C891.682 121.52 891.322 122.867 890.602 123.96C889.908 125.053 888.962 125.933 887.762 126.6C886.562 127.293 885.175 127.787 883.602 128.08C882.055 128.373 880.415 128.52 878.682 128.52ZM885.962 106.48C885.962 105.92 885.748 105.467 885.322 105.12C884.922 104.747 884.388 104.453 883.722 104.24C883.082 104.027 882.348 103.88 881.522 103.8C880.695 103.72 879.868 103.68 879.042 103.68C877.682 103.68 876.562 103.773 875.682 103.96C874.802 104.12 874.095 104.413 873.562 104.84C873.055 105.267 872.695 105.827 872.482 106.52C872.268 107.213 872.162 108.067 872.162 109.08C872.162 110.093 872.268 110.947 872.482 111.64C872.695 112.333 873.055 112.893 873.562 113.32C874.095 113.72 874.802 114.013 875.682 114.2C876.562 114.387 877.682 114.48 879.042 114.48C879.815 114.48 880.615 114.453 881.442 114.4C882.268 114.32 883.015 114.187 883.682 114C884.348 113.813 884.895 113.56 885.322 113.24C885.748 112.893 885.962 112.467 885.962 111.96V106.48ZM908.063 119.4C905.663 119.4 903.65 119.173 902.023 118.72C900.396 118.267 899.076 117.613 898.063 116.76C897.076 115.88 896.356 114.8 895.903 113.52C895.476 112.24 895.263 110.76 895.263 109.08C895.263 107.4 895.476 105.92 895.903 104.64C896.356 103.36 897.076 102.293 898.063 101.44C899.076 100.56 900.396 99.8933 902.023 99.44C903.65 98.9867 905.663 98.76 908.063 98.76C912.33 98.76 915.556 99.52 917.743 101.04C919.93 102.56 920.996 104.827 920.943 107.84L920.903 110.12H901.223C901.25 110.973 901.383 111.707 901.623 112.32C901.863 112.933 902.25 113.44 902.783 113.84C903.316 114.24 904.01 114.533 904.863 114.72C905.743 114.907 906.81 115 908.063 115C910.01 115 911.61 114.8 912.863 114.4C914.116 114 914.836 113.32 915.023 112.36H920.783C920.623 113.613 920.21 114.693 919.543 115.6C918.903 116.48 918.036 117.2 916.943 117.76C915.85 118.32 914.556 118.733 913.063 119C911.57 119.267 909.903 119.4 908.063 119.4ZM908.063 103.2C906.17 103.2 904.65 103.44 903.503 103.92C902.383 104.4 901.69 105.293 901.423 106.6H914.863C914.81 106.493 914.77 106.36 914.743 106.2C914.743 106.04 914.716 105.907 914.663 105.8C914.556 105.267 914.29 104.84 913.863 104.52C913.436 104.173 912.903 103.907 912.263 103.72C911.65 103.533 910.97 103.4 910.223 103.32C909.503 103.24 908.783 103.2 908.063 103.2Z" fill="white"/>
<circle cx="492" cy="318" r="93" stroke="#FDC500" stroke-width="10"/>
<path d="M500.581 358.351C518.135 358.351 532.365 344.121 532.365 326.568C532.365 309.014 518.135 294.784 500.581 294.784C483.027 294.784 468.797 309.014 468.797 326.568C468.797 344.121 483.027 358.351 500.581 358.351Z" fill="white"/>
<path d="M505.122 267.541H496.041V294.784H505.122V267.541Z" fill="#F4EBB9"/>
<path d="M500.581 290.243C493.397 290.243 486.374 292.374 480.4 296.365C474.427 300.356 469.771 306.029 467.022 312.667C464.272 319.304 463.553 326.608 464.955 333.654C466.356 340.7 469.816 347.173 474.896 352.253C479.976 357.333 486.448 360.792 493.494 362.194C500.541 363.596 507.844 362.876 514.482 360.127C521.119 357.378 526.792 352.722 530.784 346.748C534.775 340.775 536.905 333.752 536.905 326.568C536.905 316.934 533.078 307.695 526.266 300.882C519.454 294.07 510.215 290.243 500.581 290.243ZM505.121 353.402V349.27H496.04V353.402C490.472 352.456 485.335 349.802 481.341 345.808C477.347 341.814 474.693 336.677 473.746 331.108H477.878V322.027H473.746C474.693 316.458 477.347 311.321 481.341 307.327C485.335 303.333 490.472 300.679 496.04 299.733V303.865H505.121V299.733C510.69 300.679 515.827 303.333 519.821 307.327C523.815 311.321 526.469 316.458 527.416 322.027H523.284V331.108H527.416C526.469 336.677 523.815 341.814 519.821 345.808C515.827 349.802 510.69 352.456 505.121 353.402Z" fill="#FDC500"/>
<path d="M509.662 331.108H496.041V312.946H505.122V322.027H509.662V331.108Z" fill="#2C2D34"/>
<path d="M455.176 272.081V267.541H446.094V367.432H455.176V322.027C455.176 311.189 459.481 300.795 467.145 293.131C474.808 285.468 485.202 281.162 496.04 281.162H536.905V272.081H455.176ZM455.176 293.422V281.162H467.435C462.675 284.515 458.528 288.662 455.176 293.422Z" fill="#BCBCBC"/>
<path d="M441.391 457.18C440.561 457.18 439.796 457.05 439.096 456.79C438.406 456.52 437.801 456.14 437.281 455.65C436.771 455.16 436.371 454.585 436.081 453.925C435.801 453.265 435.661 452.54 435.661 451.75C435.661 450.96 435.801 450.235 436.081 449.575C436.371 448.915 436.776 448.34 437.296 447.85C437.816 447.36 438.426 446.985 439.126 446.725C439.826 446.455 440.596 446.32 441.436 446.32C442.366 446.32 443.201 446.475 443.941 446.785C444.691 447.095 445.321 447.545 445.831 448.135L444.271 449.575C443.891 449.175 443.476 448.88 443.026 448.69C442.576 448.49 442.086 448.39 441.556 448.39C441.046 448.39 440.581 448.47 440.161 448.63C439.741 448.79 439.376 449.02 439.066 449.32C438.766 449.62 438.531 449.975 438.361 450.385C438.201 450.795 438.121 451.25 438.121 451.75C438.121 452.24 438.201 452.69 438.361 453.1C438.531 453.51 438.766 453.87 439.066 454.18C439.376 454.48 439.736 454.71 440.146 454.87C440.566 455.03 441.026 455.11 441.526 455.11C442.006 455.11 442.471 455.035 442.921 454.885C443.381 454.725 443.826 454.46 444.256 454.09L445.636 455.845C445.066 456.275 444.401 456.605 443.641 456.835C442.891 457.065 442.141 457.18 441.391 457.18ZM443.416 455.53V451.585H445.636V455.845L443.416 455.53ZM452.678 457V455.425L452.528 455.08V452.26C452.528 451.76 452.373 451.37 452.063 451.09C451.763 450.81 451.298 450.67 450.668 450.67C450.238 450.67 449.813 450.74 449.393 450.88C448.983 451.01 448.633 451.19 448.343 451.42L447.503 449.785C447.943 449.475 448.473 449.235 449.093 449.065C449.713 448.895 450.343 448.81 450.983 448.81C452.213 448.81 453.168 449.1 453.848 449.68C454.528 450.26 454.868 451.165 454.868 452.395V457H452.678ZM450.218 457.12C449.588 457.12 449.048 457.015 448.598 456.805C448.148 456.585 447.803 456.29 447.563 455.92C447.323 455.55 447.203 455.135 447.203 454.675C447.203 454.195 447.318 453.775 447.548 453.415C447.788 453.055 448.163 452.775 448.673 452.575C449.183 452.365 449.848 452.26 450.668 452.26H452.813V453.625H450.923C450.373 453.625 449.993 453.715 449.783 453.895C449.583 454.075 449.483 454.3 449.483 454.57C449.483 454.87 449.598 455.11 449.828 455.29C450.068 455.46 450.393 455.545 450.803 455.545C451.193 455.545 451.543 455.455 451.853 455.275C452.163 455.085 452.388 454.81 452.528 454.45L452.888 455.53C452.718 456.05 452.408 456.445 451.958 456.715C451.508 456.985 450.928 457.12 450.218 457.12ZM456.986 457V448.93H459.326V457H456.986ZM458.156 447.805C457.726 447.805 457.376 447.68 457.106 447.43C456.836 447.18 456.701 446.87 456.701 446.5C456.701 446.13 456.836 445.82 457.106 445.57C457.376 445.32 457.726 445.195 458.156 445.195C458.586 445.195 458.936 445.315 459.206 445.555C459.476 445.785 459.611 446.085 459.611 446.455C459.611 446.845 459.476 447.17 459.206 447.43C458.946 447.68 458.596 447.805 458.156 447.805ZM466.403 448.81C467.043 448.81 467.613 448.94 468.113 449.2C468.623 449.45 469.023 449.84 469.313 450.37C469.603 450.89 469.748 451.56 469.748 452.38V457H467.408V452.74C467.408 452.09 467.263 451.61 466.973 451.3C466.693 450.99 466.293 450.835 465.773 450.835C465.403 450.835 465.068 450.915 464.768 451.075C464.478 451.225 464.248 451.46 464.078 451.78C463.918 452.1 463.838 452.51 463.838 453.01V457H461.498V448.93H463.733V451.165L463.313 450.49C463.603 449.95 464.018 449.535 464.558 449.245C465.098 448.955 465.713 448.81 466.403 448.81ZM479.582 457.12C478.822 457.12 478.137 456.95 477.527 456.61C476.917 456.26 476.432 455.775 476.072 455.155C475.722 454.535 475.547 453.805 475.547 452.965C475.547 452.115 475.722 451.38 476.072 450.76C476.432 450.14 476.917 449.66 477.527 449.32C478.137 448.98 478.822 448.81 479.582 448.81C480.262 448.81 480.857 448.96 481.367 449.26C481.877 449.56 482.272 450.015 482.552 450.625C482.832 451.235 482.972 452.015 482.972 452.965C482.972 453.905 482.837 454.685 482.567 455.305C482.297 455.915 481.907 456.37 481.397 456.67C480.897 456.97 480.292 457.12 479.582 457.12ZM479.987 455.2C480.367 455.2 480.712 455.11 481.022 454.93C481.332 454.75 481.577 454.495 481.757 454.165C481.947 453.825 482.042 453.425 482.042 452.965C482.042 452.495 481.947 452.095 481.757 451.765C481.577 451.435 481.332 451.18 481.022 451C480.712 450.82 480.367 450.73 479.987 450.73C479.597 450.73 479.247 450.82 478.937 451C478.627 451.18 478.377 451.435 478.187 451.765C478.007 452.095 477.917 452.495 477.917 452.965C477.917 453.425 478.007 453.825 478.187 454.165C478.377 454.495 478.627 454.75 478.937 454.93C479.247 455.11 479.597 455.2 479.987 455.2ZM482.102 457V455.35L482.147 452.95L481.997 450.565V445.87H484.337V457H482.102ZM490.508 457.12C489.588 457.12 488.778 456.94 488.078 456.58C487.388 456.22 486.853 455.73 486.473 455.11C486.093 454.48 485.903 453.765 485.903 452.965C485.903 452.155 486.088 451.44 486.458 450.82C486.838 450.19 487.353 449.7 488.003 449.35C488.653 448.99 489.388 448.81 490.208 448.81C490.998 448.81 491.708 448.98 492.338 449.32C492.978 449.65 493.483 450.13 493.853 450.76C494.223 451.38 494.408 452.125 494.408 452.995C494.408 453.085 494.403 453.19 494.393 453.31C494.383 453.42 494.373 453.525 494.363 453.625H487.808V452.26H493.133L492.233 452.665C492.233 452.245 492.148 451.88 491.978 451.57C491.808 451.26 491.573 451.02 491.273 450.85C490.973 450.67 490.623 450.58 490.223 450.58C489.823 450.58 489.468 450.67 489.158 450.85C488.858 451.02 488.623 451.265 488.453 451.585C488.283 451.895 488.198 452.265 488.198 452.695V453.055C488.198 453.495 488.293 453.885 488.483 454.225C488.683 454.555 488.958 454.81 489.308 454.99C489.668 455.16 490.088 455.245 490.568 455.245C490.998 455.245 491.373 455.18 491.693 455.05C492.023 454.92 492.323 454.725 492.593 454.465L493.838 455.815C493.468 456.235 493.003 456.56 492.443 456.79C491.883 457.01 491.238 457.12 490.508 457.12ZM503.514 457.12C502.564 457.12 501.824 456.88 501.294 456.4C500.764 455.91 500.499 455.185 500.499 454.225V447.145H502.839V454.195C502.839 454.535 502.929 454.8 503.109 454.99C503.289 455.17 503.534 455.26 503.844 455.26C504.214 455.26 504.529 455.16 504.789 454.96L505.419 456.61C505.179 456.78 504.889 456.91 504.549 457C504.219 457.08 503.874 457.12 503.514 457.12ZM499.254 450.91V449.11H504.849V450.91H499.254ZM510.488 457.12C509.568 457.12 508.758 456.94 508.058 456.58C507.368 456.22 506.833 455.73 506.453 455.11C506.073 454.48 505.883 453.765 505.883 452.965C505.883 452.155 506.068 451.44 506.438 450.82C506.818 450.19 507.333 449.7 507.983 449.35C508.633 448.99 509.368 448.81 510.188 448.81C510.978 448.81 511.688 448.98 512.318 449.32C512.958 449.65 513.463 450.13 513.833 450.76C514.203 451.38 514.388 452.125 514.388 452.995C514.388 453.085 514.383 453.19 514.373 453.31C514.363 453.42 514.353 453.525 514.343 453.625H507.788V452.26H513.113L512.213 452.665C512.213 452.245 512.128 451.88 511.958 451.57C511.788 451.26 511.553 451.02 511.253 450.85C510.953 450.67 510.603 450.58 510.203 450.58C509.803 450.58 509.448 450.67 509.138 450.85C508.838 451.02 508.603 451.265 508.433 451.585C508.263 451.895 508.178 452.265 508.178 452.695V453.055C508.178 453.495 508.273 453.885 508.463 454.225C508.663 454.555 508.938 454.81 509.288 454.99C509.648 455.16 510.068 455.245 510.548 455.245C510.978 455.245 511.353 455.18 511.673 455.05C512.003 454.92 512.303 454.725 512.573 454.465L513.818 455.815C513.448 456.235 512.983 456.56 512.423 456.79C511.863 457.01 511.218 457.12 510.488 457.12ZM526.281 448.81C526.921 448.81 527.486 448.94 527.976 449.2C528.476 449.45 528.866 449.84 529.146 450.37C529.436 450.89 529.581 451.56 529.581 452.38V457H527.241V452.74C527.241 452.09 527.106 451.61 526.836 451.3C526.566 450.99 526.186 450.835 525.696 450.835C525.356 450.835 525.051 450.915 524.781 451.075C524.511 451.225 524.301 451.455 524.151 451.765C524.001 452.075 523.926 452.47 523.926 452.95V457H521.586V452.74C521.586 452.09 521.451 451.61 521.181 451.3C520.921 450.99 520.546 450.835 520.056 450.835C519.716 450.835 519.411 450.915 519.141 451.075C518.871 451.225 518.661 451.455 518.511 451.765C518.361 452.075 518.286 452.47 518.286 452.95V457H515.946V448.93H518.181V451.135L517.761 450.49C518.041 449.94 518.436 449.525 518.946 449.245C519.466 448.955 520.056 448.81 520.716 448.81C521.456 448.81 522.101 449 522.651 449.38C523.211 449.75 523.581 450.32 523.761 451.09L522.936 450.865C523.206 450.235 523.636 449.735 524.226 449.365C524.826 448.995 525.511 448.81 526.281 448.81ZM536.449 457.12C535.769 457.12 535.174 456.97 534.664 456.67C534.154 456.37 533.754 455.915 533.464 455.305C533.184 454.685 533.044 453.905 533.044 452.965C533.044 452.015 533.179 451.235 533.449 450.625C533.719 450.015 534.109 449.56 534.619 449.26C535.129 448.96 535.739 448.81 536.449 448.81C537.209 448.81 537.889 448.985 538.489 449.335C539.099 449.675 539.579 450.155 539.929 450.775C540.289 451.395 540.469 452.125 540.469 452.965C540.469 453.815 540.289 454.55 539.929 455.17C539.579 455.79 539.099 456.27 538.489 456.61C537.889 456.95 537.209 457.12 536.449 457.12ZM531.679 459.91V448.93H533.914V450.58L533.869 452.98L534.019 455.365V459.91H531.679ZM536.044 455.2C536.434 455.2 536.779 455.11 537.079 454.93C537.389 454.75 537.634 454.495 537.814 454.165C538.004 453.825 538.099 453.425 538.099 452.965C538.099 452.495 538.004 452.095 537.814 451.765C537.634 451.435 537.389 451.18 537.079 451C536.779 450.82 536.434 450.73 536.044 450.73C535.654 450.73 535.304 450.82 534.994 451C534.684 451.18 534.439 451.435 534.259 451.765C534.079 452.095 533.989 452.495 533.989 452.965C533.989 453.425 534.079 453.825 534.259 454.165C534.439 454.495 534.684 454.75 534.994 454.93C535.304 455.11 535.654 455.2 536.044 455.2ZM544.75 457.12C544.06 457.12 543.395 457.04 542.755 456.88C542.125 456.71 541.625 456.5 541.255 456.25L542.035 454.57C542.405 454.8 542.84 454.99 543.34 455.14C543.85 455.28 544.35 455.35 544.84 455.35C545.38 455.35 545.76 455.285 545.98 455.155C546.21 455.025 546.325 454.845 546.325 454.615C546.325 454.425 546.235 454.285 546.055 454.195C545.885 454.095 545.655 454.02 545.365 453.97C545.075 453.92 544.755 453.87 544.405 453.82C544.065 453.77 543.72 453.705 543.37 453.625C543.02 453.535 542.7 453.405 542.41 453.235C542.12 453.065 541.885 452.835 541.705 452.545C541.535 452.255 541.45 451.88 541.45 451.42C541.45 450.91 541.595 450.46 541.885 450.07C542.185 449.68 542.615 449.375 543.175 449.155C543.735 448.925 544.405 448.81 545.185 448.81C545.735 448.81 546.295 448.87 546.865 448.99C547.435 449.11 547.91 449.285 548.29 449.515L547.51 451.18C547.12 450.95 546.725 450.795 546.325 450.715C545.935 450.625 545.555 450.58 545.185 450.58C544.665 450.58 544.285 450.65 544.045 450.79C543.805 450.93 543.685 451.11 543.685 451.33C543.685 451.53 543.77 451.68 543.94 451.78C544.12 451.88 544.355 451.96 544.645 452.02C544.935 452.08 545.25 452.135 545.59 452.185C545.94 452.225 546.29 452.29 546.64 452.38C546.99 452.47 547.305 452.6 547.585 452.77C547.875 452.93 548.11 453.155 548.29 453.445C548.47 453.725 548.56 454.095 548.56 454.555C548.56 455.055 548.41 455.5 548.11 455.89C547.81 456.27 547.375 456.57 546.805 456.79C546.245 457.01 545.56 457.12 544.75 457.12Z" fill="white"/>
<circle cx="800" cy="315" r="93" stroke="#FDC500" stroke-width="10"/>
<mask id="mask0_73_120" style="mask-type:alpha" maskUnits="userSpaceOnUse" x="742" y="259" width="115" height="116">
<rect x="742" y="259.487" width="115" height="115" fill="#D9D9D9"/>
</mask>
<g mask="url(#mask0_73_120)">
<path d="M809.083 321.778C805.09 321.778 801.696 320.381 798.901 317.585C796.106 314.79 794.708 311.396 794.708 307.403C794.708 303.41 796.106 300.016 798.901 297.221C801.696 294.426 805.09 293.028 809.083 293.028C813.076 293.028 816.471 294.426 819.266 297.221C822.061 300.016 823.458 303.41 823.458 307.403C823.458 311.396 822.061 314.79 819.266 317.585C816.471 320.381 813.076 321.778 809.083 321.778ZM765.958 336.153V278.653H852.208V336.153H765.958ZM785.125 326.57H833.042C833.042 323.934 833.98 321.678 835.857 319.802C837.734 317.925 839.99 316.986 842.625 316.986V297.82C839.99 297.82 837.734 296.881 835.857 295.005C833.98 293.128 833.042 290.872 833.042 288.236H785.125C785.125 290.872 784.187 293.128 782.31 295.005C780.433 296.881 778.177 297.82 775.542 297.82V316.986C778.177 316.986 780.433 317.925 782.31 319.802C784.187 321.678 785.125 323.934 785.125 326.57ZM746.792 355.32V293.028H756.375V345.736H837.833V355.32H746.792Z" fill="white"/>
<path d="M746.792 293.028V355.32H837.833V345.736H756.375V293.028H746.792Z" fill="#BCBCBC"/>
<path d="M798.901 317.585C801.696 320.381 805.09 321.778 809.083 321.778C813.077 321.778 816.471 320.381 819.266 317.585C822.061 314.79 823.458 311.396 823.458 307.403C823.458 303.41 822.061 300.016 819.266 297.221C816.471 294.426 813.077 293.028 809.083 293.028C805.09 293.028 801.696 294.426 798.901 297.221C796.106 300.016 794.708 303.41 794.708 307.403C794.708 311.396 796.106 314.79 798.901 317.585Z" fill="#FDC500"/>
</g>
<path d="M760.516 453.73H765.571V455.62H760.516V453.73ZM760.696 458.05H766.411V460H758.281V449.5H766.216V451.45H760.696V458.05ZM772.021 460.12C771.151 460.12 770.376 459.945 769.696 459.595C769.016 459.235 768.481 458.74 768.091 458.11C767.711 457.48 767.521 456.765 767.521 455.965C767.521 455.155 767.711 454.44 768.091 453.82C768.481 453.19 769.016 452.7 769.696 452.35C770.376 451.99 771.151 451.81 772.021 451.81C772.871 451.81 773.611 451.99 774.241 452.35C774.871 452.7 775.336 453.205 775.636 453.865L773.821 454.84C773.611 454.46 773.346 454.18 773.026 454C772.716 453.82 772.376 453.73 772.006 453.73C771.606 453.73 771.246 453.82 770.926 454C770.606 454.18 770.351 454.435 770.161 454.765C769.981 455.095 769.891 455.495 769.891 455.965C769.891 456.435 769.981 456.835 770.161 457.165C770.351 457.495 770.606 457.75 770.926 457.93C771.246 458.11 771.606 458.2 772.006 458.2C772.376 458.2 772.716 458.115 773.026 457.945C773.346 457.765 773.611 457.48 773.821 457.09L775.636 458.08C775.336 458.73 774.871 459.235 774.241 459.595C773.611 459.945 772.871 460.12 772.021 460.12ZM780.721 460.12C779.861 460.12 779.096 459.94 778.426 459.58C777.766 459.22 777.241 458.73 776.851 458.11C776.471 457.48 776.281 456.765 776.281 455.965C776.281 455.155 776.471 454.44 776.851 453.82C777.241 453.19 777.766 452.7 778.426 452.35C779.096 451.99 779.861 451.81 780.721 451.81C781.571 451.81 782.331 451.99 783.001 452.35C783.671 452.7 784.196 453.185 784.576 453.805C784.956 454.425 785.146 455.145 785.146 455.965C785.146 456.765 784.956 457.48 784.576 458.11C784.196 458.73 783.671 459.22 783.001 459.58C782.331 459.94 781.571 460.12 780.721 460.12ZM780.721 458.2C781.111 458.2 781.461 458.11 781.771 457.93C782.081 457.75 782.326 457.495 782.506 457.165C782.686 456.825 782.776 456.425 782.776 455.965C782.776 455.495 782.686 455.095 782.506 454.765C782.326 454.435 782.081 454.18 781.771 454C781.461 453.82 781.111 453.73 780.721 453.73C780.331 453.73 779.981 453.82 779.671 454C779.361 454.18 779.111 454.435 778.921 454.765C778.741 455.095 778.651 455.495 778.651 455.965C778.651 456.425 778.741 456.825 778.921 457.165C779.111 457.495 779.361 457.75 779.671 457.93C779.981 458.11 780.331 458.2 780.721 458.2ZM791.615 451.81C792.255 451.81 792.825 451.94 793.325 452.2C793.835 452.45 794.235 452.84 794.525 453.37C794.815 453.89 794.96 454.56 794.96 455.38V460H792.62V455.74C792.62 455.09 792.475 454.61 792.185 454.3C791.905 453.99 791.505 453.835 790.985 453.835C790.615 453.835 790.28 453.915 789.98 454.075C789.69 454.225 789.46 454.46 789.29 454.78C789.13 455.1 789.05 455.51 789.05 456.01V460H786.71V451.93H788.945V454.165L788.525 453.49C788.815 452.95 789.23 452.535 789.77 452.245C790.31 451.955 790.925 451.81 791.615 451.81ZM800.98 460.12C800.12 460.12 799.355 459.94 798.685 459.58C798.025 459.22 797.5 458.73 797.11 458.11C796.73 457.48 796.54 456.765 796.54 455.965C796.54 455.155 796.73 454.44 797.11 453.82C797.5 453.19 798.025 452.7 798.685 452.35C799.355 451.99 800.12 451.81 800.98 451.81C801.83 451.81 802.59 451.99 803.26 452.35C803.93 452.7 804.455 453.185 804.835 453.805C805.215 454.425 805.405 455.145 805.405 455.965C805.405 456.765 805.215 457.48 804.835 458.11C804.455 458.73 803.93 459.22 803.26 459.58C802.59 459.94 801.83 460.12 800.98 460.12ZM800.98 458.2C801.37 458.2 801.72 458.11 802.03 457.93C802.34 457.75 802.585 457.495 802.765 457.165C802.945 456.825 803.035 456.425 803.035 455.965C803.035 455.495 802.945 455.095 802.765 454.765C802.585 454.435 802.34 454.18 802.03 454C801.72 453.82 801.37 453.73 800.98 453.73C800.59 453.73 800.24 453.82 799.93 454C799.62 454.18 799.37 454.435 799.18 454.765C799 455.095 798.91 455.495 798.91 455.965C798.91 456.425 799 456.825 799.18 457.165C799.37 457.495 799.62 457.75 799.93 457.93C800.24 458.11 800.59 458.2 800.98 458.2ZM817.304 451.81C817.944 451.81 818.509 451.94 818.999 452.2C819.499 452.45 819.889 452.84 820.169 453.37C820.459 453.89 820.604 454.56 820.604 455.38V460H818.264V455.74C818.264 455.09 818.129 454.61 817.859 454.3C817.589 453.99 817.209 453.835 816.719 453.835C816.379 453.835 816.074 453.915 815.804 454.075C815.534 454.225 815.324 454.455 815.174 454.765C815.024 455.075 814.949 455.47 814.949 455.95V460H812.609V455.74C812.609 455.09 812.474 454.61 812.204 454.3C811.944 453.99 811.569 453.835 811.079 453.835C810.739 453.835 810.434 453.915 810.164 454.075C809.894 454.225 809.684 454.455 809.534 454.765C809.384 455.075 809.309 455.47 809.309 455.95V460H806.969V451.93H809.204V454.135L808.784 453.49C809.064 452.94 809.459 452.525 809.969 452.245C810.489 451.955 811.079 451.81 811.739 451.81C812.479 451.81 813.124 452 813.674 452.38C814.234 452.75 814.604 453.32 814.784 454.09L813.959 453.865C814.229 453.235 814.659 452.735 815.249 452.365C815.849 451.995 816.534 451.81 817.304 451.81ZM822.701 460V451.93H825.041V460H822.701ZM823.871 450.805C823.441 450.805 823.091 450.68 822.821 450.43C822.551 450.18 822.416 449.87 822.416 449.5C822.416 449.13 822.551 448.82 822.821 448.57C823.091 448.32 823.441 448.195 823.871 448.195C824.301 448.195 824.651 448.315 824.921 448.555C825.191 448.785 825.326 449.085 825.326 449.455C825.326 449.845 825.191 450.17 824.921 450.43C824.661 450.68 824.311 450.805 823.871 450.805ZM831.113 460.12C830.243 460.12 829.468 459.945 828.788 459.595C828.108 459.235 827.573 458.74 827.183 458.11C826.803 457.48 826.613 456.765 826.613 455.965C826.613 455.155 826.803 454.44 827.183 453.82C827.573 453.19 828.108 452.7 828.788 452.35C829.468 451.99 830.243 451.81 831.113 451.81C831.963 451.81 832.703 451.99 833.333 452.35C833.963 452.7 834.428 453.205 834.728 453.865L832.913 454.84C832.703 454.46 832.438 454.18 832.118 454C831.808 453.82 831.468 453.73 831.098 453.73C830.698 453.73 830.338 453.82 830.018 454C829.698 454.18 829.443 454.435 829.253 454.765C829.073 455.095 828.983 455.495 828.983 455.965C828.983 456.435 829.073 456.835 829.253 457.165C829.443 457.495 829.698 457.75 830.018 457.93C830.338 458.11 830.698 458.2 831.098 458.2C831.468 458.2 831.808 458.115 832.118 457.945C832.438 457.765 832.703 457.48 832.913 457.09L834.728 458.08C834.428 458.73 833.963 459.235 833.333 459.595C832.703 459.945 831.963 460.12 831.113 460.12ZM838.79 460.12C838.1 460.12 837.435 460.04 836.795 459.88C836.165 459.71 835.665 459.5 835.295 459.25L836.075 457.57C836.445 457.8 836.88 457.99 837.38 458.14C837.89 458.28 838.39 458.35 838.88 458.35C839.42 458.35 839.8 458.285 840.02 458.155C840.25 458.025 840.365 457.845 840.365 457.615C840.365 457.425 840.275 457.285 840.095 457.195C839.925 457.095 839.695 457.02 839.405 456.97C839.115 456.92 838.795 456.87 838.445 456.82C838.105 456.77 837.76 456.705 837.41 456.625C837.06 456.535 836.74 456.405 836.45 456.235C836.16 456.065 835.925 455.835 835.745 455.545C835.575 455.255 835.49 454.88 835.49 454.42C835.49 453.91 835.635 453.46 835.925 453.07C836.225 452.68 836.655 452.375 837.215 452.155C837.775 451.925 838.445 451.81 839.225 451.81C839.775 451.81 840.335 451.87 840.905 451.99C841.475 452.11 841.95 452.285 842.33 452.515L841.55 454.18C841.16 453.95 840.765 453.795 840.365 453.715C839.975 453.625 839.595 453.58 839.225 453.58C838.705 453.58 838.325 453.65 838.085 453.79C837.845 453.93 837.725 454.11 837.725 454.33C837.725 454.53 837.81 454.68 837.98 454.78C838.16 454.88 838.395 454.96 838.685 455.02C838.975 455.08 839.29 455.135 839.63 455.185C839.98 455.225 840.33 455.29 840.68 455.38C841.03 455.47 841.345 455.6 841.625 455.77C841.915 455.93 842.15 456.155 842.33 456.445C842.51 456.725 842.6 457.095 842.6 457.555C842.6 458.055 842.45 458.5 842.15 458.89C841.85 459.27 841.415 459.57 840.845 459.79C840.285 460.01 839.6 460.12 838.79 460.12Z" fill="white"/>
<circle cx="1108" cy="318" r="93" stroke="#FDC500" stroke-width="10"/>
<path d="M1139.28 269.081H1075.72V359.892H1139.28V269.081Z" fill="#2C2D34"/>
<path d="M1143.82 364.432H1071.18V264.541H1143.82V364.432ZM1080.26 355.351H1134.74V273.622H1080.26V355.351Z" fill="white"/>
<path d="M1098.42 282.703H1116.58L1121.12 273.622H1093.88L1098.42 282.703Z" fill="#BCBCBC"/>
<path d="M1107.5 296.324C1102.68 296.324 1098.06 298.238 1094.66 301.644C1091.25 305.05 1089.34 309.67 1089.34 314.486C1089.34 332.649 1107.5 341.73 1107.5 341.73C1107.5 341.73 1125.66 332.649 1125.66 314.486C1125.66 309.67 1123.75 305.05 1120.34 301.644C1116.94 298.238 1112.32 296.324 1107.5 296.324ZM1107.5 323.568C1105.7 323.568 1103.95 323.035 1102.45 322.037C1100.96 321.039 1099.8 319.621 1099.11 317.962C1098.42 316.302 1098.24 314.476 1098.59 312.715C1098.94 310.953 1099.81 309.335 1101.08 308.065C1102.35 306.795 1103.97 305.93 1105.73 305.58C1107.49 305.23 1109.32 305.409 1110.98 306.097C1112.63 306.784 1114.05 307.948 1115.05 309.441C1116.05 310.935 1116.58 312.69 1116.58 314.486C1116.58 316.895 1115.62 319.205 1113.92 320.908C1112.22 322.611 1109.91 323.568 1107.5 323.568Z" fill="#FDC500"/>
<path d="M1016.75 451.225H1021.79V453.175H1016.75V451.225ZM1016.93 457H1014.5V446.5H1022.43V448.45H1016.93V457ZM1028.64 457V455.425L1028.49 455.08V452.26C1028.49 451.76 1028.34 451.37 1028.03 451.09C1027.73 450.81 1027.26 450.67 1026.63 450.67C1026.2 450.67 1025.78 450.74 1025.36 450.88C1024.95 451.01 1024.6 451.19 1024.31 451.42L1023.47 449.785C1023.91 449.475 1024.44 449.235 1025.06 449.065C1025.68 448.895 1026.31 448.81 1026.95 448.81C1028.18 448.81 1029.13 449.1 1029.81 449.68C1030.49 450.26 1030.83 451.165 1030.83 452.395V457H1028.64ZM1026.18 457.12C1025.55 457.12 1025.01 457.015 1024.56 456.805C1024.11 456.585 1023.77 456.29 1023.53 455.92C1023.29 455.55 1023.17 455.135 1023.17 454.675C1023.17 454.195 1023.28 453.775 1023.51 453.415C1023.75 453.055 1024.13 452.775 1024.64 452.575C1025.15 452.365 1025.81 452.26 1026.63 452.26H1028.78V453.625H1026.89C1026.34 453.625 1025.96 453.715 1025.75 453.895C1025.55 454.075 1025.45 454.3 1025.45 454.57C1025.45 454.87 1025.56 455.11 1025.79 455.29C1026.03 455.46 1026.36 455.545 1026.77 455.545C1027.16 455.545 1027.51 455.455 1027.82 455.275C1028.13 455.085 1028.35 454.81 1028.49 454.45L1028.85 455.53C1028.68 456.05 1028.37 456.445 1027.92 456.715C1027.47 456.985 1026.89 457.12 1026.18 457.12ZM1036.91 457.12C1036.04 457.12 1035.27 456.945 1034.59 456.595C1033.91 456.235 1033.37 455.74 1032.98 455.11C1032.6 454.48 1032.41 453.765 1032.41 452.965C1032.41 452.155 1032.6 451.44 1032.98 450.82C1033.37 450.19 1033.91 449.7 1034.59 449.35C1035.27 448.99 1036.04 448.81 1036.91 448.81C1037.76 448.81 1038.5 448.99 1039.13 449.35C1039.76 449.7 1040.23 450.205 1040.53 450.865L1038.71 451.84C1038.5 451.46 1038.24 451.18 1037.92 451C1037.61 450.82 1037.27 450.73 1036.9 450.73C1036.5 450.73 1036.14 450.82 1035.82 451C1035.5 451.18 1035.24 451.435 1035.05 451.765C1034.87 452.095 1034.78 452.495 1034.78 452.965C1034.78 453.435 1034.87 453.835 1035.05 454.165C1035.24 454.495 1035.5 454.75 1035.82 454.93C1036.14 455.11 1036.5 455.2 1036.9 455.2C1037.27 455.2 1037.61 455.115 1037.92 454.945C1038.24 454.765 1038.5 454.48 1038.71 454.09L1040.53 455.08C1040.23 455.73 1039.76 456.235 1039.13 456.595C1038.5 456.945 1037.76 457.12 1036.91 457.12ZM1041.81 457V448.93H1044.15V457H1041.81ZM1042.98 447.805C1042.55 447.805 1042.2 447.68 1041.93 447.43C1041.66 447.18 1041.53 446.87 1041.53 446.5C1041.53 446.13 1041.66 445.82 1041.93 445.57C1042.2 445.32 1042.55 445.195 1042.98 445.195C1043.41 445.195 1043.76 445.315 1044.03 445.555C1044.3 445.785 1044.44 446.085 1044.44 446.455C1044.44 446.845 1044.3 447.17 1044.03 447.43C1043.77 447.68 1043.42 447.805 1042.98 447.805ZM1046.33 457V445.87H1048.67V457H1046.33ZM1050.84 457V448.93H1053.18V457H1050.84ZM1052.01 447.805C1051.58 447.805 1051.23 447.68 1050.96 447.43C1050.69 447.18 1050.55 446.87 1050.55 446.5C1050.55 446.13 1050.69 445.82 1050.96 445.57C1051.23 445.32 1051.58 445.195 1052.01 445.195C1052.44 445.195 1052.79 445.315 1053.06 445.555C1053.33 445.785 1053.46 446.085 1053.46 446.455C1053.46 446.845 1053.33 447.17 1053.06 447.43C1052.8 447.68 1052.45 447.805 1052.01 447.805ZM1058.65 457.12C1057.7 457.12 1056.96 456.88 1056.43 456.4C1055.9 455.91 1055.63 455.185 1055.63 454.225V447.145H1057.97V454.195C1057.97 454.535 1058.06 454.8 1058.24 454.99C1058.42 455.17 1058.67 455.26 1058.98 455.26C1059.35 455.26 1059.66 455.16 1059.92 454.96L1060.55 456.61C1060.31 456.78 1060.02 456.91 1059.68 457C1059.35 457.08 1059.01 457.12 1058.65 457.12ZM1054.39 450.91V449.11H1059.98V450.91H1054.39ZM1065.62 457.12C1064.7 457.12 1063.89 456.94 1063.19 456.58C1062.5 456.22 1061.97 455.73 1061.59 455.11C1061.21 454.48 1061.02 453.765 1061.02 452.965C1061.02 452.155 1061.2 451.44 1061.57 450.82C1061.95 450.19 1062.47 449.7 1063.12 449.35C1063.77 448.99 1064.5 448.81 1065.32 448.81C1066.11 448.81 1066.82 448.98 1067.45 449.32C1068.09 449.65 1068.6 450.13 1068.97 450.76C1069.34 451.38 1069.52 452.125 1069.52 452.995C1069.52 453.085 1069.52 453.19 1069.51 453.31C1069.5 453.42 1069.49 453.525 1069.48 453.625H1062.92V452.26H1068.25L1067.35 452.665C1067.35 452.245 1067.26 451.88 1067.09 451.57C1066.92 451.26 1066.69 451.02 1066.39 450.85C1066.09 450.67 1065.74 450.58 1065.34 450.58C1064.94 450.58 1064.58 450.67 1064.27 450.85C1063.97 451.02 1063.74 451.265 1063.57 451.585C1063.4 451.895 1063.31 452.265 1063.31 452.695V453.055C1063.31 453.495 1063.41 453.885 1063.6 454.225C1063.8 454.555 1064.07 454.81 1064.42 454.99C1064.78 455.16 1065.2 455.245 1065.68 455.245C1066.11 455.245 1066.49 455.18 1066.81 455.05C1067.14 454.92 1067.44 454.725 1067.71 454.465L1068.95 455.815C1068.58 456.235 1068.12 456.56 1067.56 456.79C1067 457.01 1066.35 457.12 1065.62 457.12ZM1063.91 447.895L1065.94 445.735H1068.46L1065.74 447.895H1063.91ZM1078.8 457.12C1078.04 457.12 1077.35 456.95 1076.74 456.61C1076.13 456.26 1075.65 455.775 1075.29 455.155C1074.94 454.535 1074.76 453.805 1074.76 452.965C1074.76 452.115 1074.94 451.38 1075.29 450.76C1075.65 450.14 1076.13 449.66 1076.74 449.32C1077.35 448.98 1078.04 448.81 1078.8 448.81C1079.48 448.81 1080.07 448.96 1080.58 449.26C1081.09 449.56 1081.49 450.015 1081.77 450.625C1082.05 451.235 1082.19 452.015 1082.19 452.965C1082.19 453.905 1082.05 454.685 1081.78 455.305C1081.51 455.915 1081.12 456.37 1080.61 456.67C1080.11 456.97 1079.51 457.12 1078.8 457.12ZM1079.2 455.2C1079.58 455.2 1079.93 455.11 1080.24 454.93C1080.55 454.75 1080.79 454.495 1080.97 454.165C1081.16 453.825 1081.26 453.425 1081.26 452.965C1081.26 452.495 1081.16 452.095 1080.97 451.765C1080.79 451.435 1080.55 451.18 1080.24 451C1079.93 450.82 1079.58 450.73 1079.2 450.73C1078.81 450.73 1078.46 450.82 1078.15 451C1077.84 451.18 1077.59 451.435 1077.4 451.765C1077.22 452.095 1077.13 452.495 1077.13 452.965C1077.13 453.425 1077.22 453.825 1077.4 454.165C1077.59 454.495 1077.84 454.75 1078.15 454.93C1078.46 455.11 1078.81 455.2 1079.2 455.2ZM1081.32 457V455.35L1081.36 452.95L1081.21 450.565V445.87H1083.55V457H1081.32ZM1089.72 457.12C1088.8 457.12 1087.99 456.94 1087.29 456.58C1086.6 456.22 1086.07 455.73 1085.69 455.11C1085.31 454.48 1085.12 453.765 1085.12 452.965C1085.12 452.155 1085.3 451.44 1085.67 450.82C1086.05 450.19 1086.57 449.7 1087.22 449.35C1087.87 448.99 1088.6 448.81 1089.42 448.81C1090.21 448.81 1090.92 448.98 1091.55 449.32C1092.19 449.65 1092.7 450.13 1093.07 450.76C1093.44 451.38 1093.62 452.125 1093.62 452.995C1093.62 453.085 1093.62 453.19 1093.61 453.31C1093.6 453.42 1093.59 453.525 1093.58 453.625H1087.02V452.26H1092.35L1091.45 452.665C1091.45 452.245 1091.36 451.88 1091.19 451.57C1091.02 451.26 1090.79 451.02 1090.49 450.85C1090.19 450.67 1089.84 450.58 1089.44 450.58C1089.04 450.58 1088.68 450.67 1088.37 450.85C1088.07 451.02 1087.84 451.265 1087.67 451.585C1087.5 451.895 1087.41 452.265 1087.41 452.695V453.055C1087.41 453.495 1087.51 453.885 1087.7 454.225C1087.9 454.555 1088.17 454.81 1088.52 454.99C1088.88 455.16 1089.3 455.245 1089.78 455.245C1090.21 455.245 1090.59 455.18 1090.91 455.05C1091.24 454.92 1091.54 454.725 1091.81 454.465L1093.05 455.815C1092.68 456.235 1092.22 456.56 1091.66 456.79C1091.1 457.01 1090.45 457.12 1089.72 457.12ZM1102.89 457.12C1102.13 457.12 1101.45 456.95 1100.84 456.61C1100.23 456.26 1099.74 455.775 1099.38 455.155C1099.03 454.535 1098.86 453.805 1098.86 452.965C1098.86 452.115 1099.03 451.38 1099.38 450.76C1099.74 450.14 1100.23 449.66 1100.84 449.32C1101.45 448.98 1102.13 448.81 1102.89 448.81C1103.57 448.81 1104.17 448.96 1104.68 449.26C1105.19 449.56 1105.58 450.015 1105.86 450.625C1106.14 451.235 1106.28 452.015 1106.28 452.965C1106.28 453.905 1106.15 454.685 1105.88 455.305C1105.61 455.915 1105.22 456.37 1104.71 456.67C1104.21 456.97 1103.6 457.12 1102.89 457.12ZM1103.3 455.2C1103.68 455.2 1104.02 455.11 1104.33 454.93C1104.64 454.75 1104.89 454.495 1105.07 454.165C1105.26 453.825 1105.35 453.425 1105.35 452.965C1105.35 452.495 1105.26 452.095 1105.07 451.765C1104.89 451.435 1104.64 451.18 1104.33 451C1104.02 450.82 1103.68 450.73 1103.3 450.73C1102.91 450.73 1102.56 450.82 1102.25 451C1101.94 451.18 1101.69 451.435 1101.5 451.765C1101.32 452.095 1101.23 452.495 1101.23 452.965C1101.23 453.425 1101.32 453.825 1101.5 454.165C1101.69 454.495 1101.94 454.75 1102.25 454.93C1102.56 455.11 1102.91 455.2 1103.3 455.2ZM1105.41 457V455.35L1105.46 452.95L1105.31 450.565V445.87H1107.65V457H1105.41ZM1113.82 457.12C1112.9 457.12 1112.09 456.94 1111.39 456.58C1110.7 456.22 1110.16 455.73 1109.78 455.11C1109.4 454.48 1109.21 453.765 1109.21 452.965C1109.21 452.155 1109.4 451.44 1109.77 450.82C1110.15 450.19 1110.66 449.7 1111.31 449.35C1111.96 448.99 1112.7 448.81 1113.52 448.81C1114.31 448.81 1115.02 448.98 1115.65 449.32C1116.29 449.65 1116.79 450.13 1117.16 450.76C1117.53 451.38 1117.72 452.125 1117.72 452.995C1117.72 453.085 1117.71 453.19 1117.7 453.31C1117.69 453.42 1117.68 453.525 1117.67 453.625H1111.12V452.26H1116.44L1115.54 452.665C1115.54 452.245 1115.46 451.88 1115.29 451.57C1115.12 451.26 1114.88 451.02 1114.58 450.85C1114.28 450.67 1113.93 450.58 1113.53 450.58C1113.13 450.58 1112.78 450.67 1112.47 450.85C1112.17 451.02 1111.93 451.265 1111.76 451.585C1111.59 451.895 1111.51 452.265 1111.51 452.695V453.055C1111.51 453.495 1111.6 453.885 1111.79 454.225C1111.99 454.555 1112.27 454.81 1112.62 454.99C1112.98 455.16 1113.4 455.245 1113.88 455.245C1114.31 455.245 1114.68 455.18 1115 455.05C1115.33 454.92 1115.63 454.725 1115.9 454.465L1117.15 455.815C1116.78 456.235 1116.31 456.56 1115.75 456.79C1115.19 457.01 1114.55 457.12 1113.82 457.12ZM1112.11 447.895L1114.13 445.735H1116.65L1113.94 447.895H1112.11ZM1124.05 457.12C1123.37 457.12 1122.77 456.97 1122.26 456.67C1121.75 456.37 1121.35 455.915 1121.06 455.305C1120.78 454.685 1120.64 453.905 1120.64 452.965C1120.64 452.015 1120.78 451.235 1121.05 450.625C1121.32 450.015 1121.71 449.56 1122.22 449.26C1122.73 448.96 1123.34 448.81 1124.05 448.81C1124.81 448.81 1125.49 448.985 1126.09 449.335C1126.7 449.675 1127.18 450.155 1127.53 450.775C1127.89 451.395 1128.07 452.125 1128.07 452.965C1128.07 453.815 1127.89 454.55 1127.53 455.17C1127.18 455.79 1126.7 456.27 1126.09 456.61C1125.49 456.95 1124.81 457.12 1124.05 457.12ZM1119.28 459.91V448.93H1121.51V450.58L1121.47 452.98L1121.62 455.365V459.91H1119.28ZM1123.64 455.2C1124.03 455.2 1124.38 455.11 1124.68 454.93C1124.99 454.75 1125.23 454.495 1125.41 454.165C1125.6 453.825 1125.7 453.425 1125.7 452.965C1125.7 452.495 1125.6 452.095 1125.41 451.765C1125.23 451.435 1124.99 451.18 1124.68 451C1124.38 450.82 1124.03 450.73 1123.64 450.73C1123.25 450.73 1122.9 450.82 1122.59 451C1122.28 451.18 1122.04 451.435 1121.86 451.765C1121.68 452.095 1121.59 452.495 1121.59 452.965C1121.59 453.425 1121.68 453.825 1121.86 454.165C1122.04 454.495 1122.28 454.75 1122.59 454.93C1122.9 455.11 1123.25 455.2 1123.64 455.2ZM1129.63 457V445.87H1131.97V457H1129.63ZM1139.09 457V455.425L1138.94 455.08V452.26C1138.94 451.76 1138.79 451.37 1138.48 451.09C1138.18 450.81 1137.71 450.67 1137.08 450.67C1136.65 450.67 1136.23 450.74 1135.81 450.88C1135.4 451.01 1135.05 451.19 1134.76 451.42L1133.92 449.785C1134.36 449.475 1134.89 449.235 1135.51 449.065C1136.13 448.895 1136.76 448.81 1137.4 448.81C1138.63 448.81 1139.58 449.1 1140.26 449.68C1140.94 450.26 1141.28 451.165 1141.28 452.395V457H1139.09ZM1136.63 457.12C1136 457.12 1135.46 457.015 1135.01 456.805C1134.56 456.585 1134.22 456.29 1133.98 455.92C1133.74 455.55 1133.62 455.135 1133.62 454.675C1133.62 454.195 1133.73 453.775 1133.96 453.415C1134.2 453.055 1134.58 452.775 1135.09 452.575C1135.6 452.365 1136.26 452.26 1137.08 452.26H1139.23V453.625H1137.34C1136.79 453.625 1136.41 453.715 1136.2 453.895C1136 454.075 1135.9 454.3 1135.9 454.57C1135.9 454.87 1136.01 455.11 1136.24 455.29C1136.48 455.46 1136.81 455.545 1137.22 455.545C1137.61 455.545 1137.96 455.455 1138.27 455.275C1138.58 455.085 1138.8 454.81 1138.94 454.45L1139.3 455.53C1139.13 456.05 1138.82 456.445 1138.37 456.715C1137.92 456.985 1137.34 457.12 1136.63 457.12ZM1147.36 457.12C1146.49 457.12 1145.71 456.945 1145.03 456.595C1144.35 456.235 1143.82 455.74 1143.43 455.11C1143.05 454.48 1142.86 453.765 1142.86 452.965C1142.86 452.155 1143.05 451.44 1143.43 450.82C1143.82 450.19 1144.35 449.7 1145.03 449.35C1145.71 448.99 1146.49 448.81 1147.36 448.81C1148.21 448.81 1148.95 448.99 1149.58 449.35C1150.21 449.7 1150.67 450.205 1150.97 450.865L1149.16 451.84C1148.95 451.46 1148.68 451.18 1148.36 451C1148.05 450.82 1147.71 450.73 1147.34 450.73C1146.94 450.73 1146.58 450.82 1146.26 451C1145.94 451.18 1145.69 451.435 1145.5 451.765C1145.32 452.095 1145.23 452.495 1145.23 452.965C1145.23 453.435 1145.32 453.835 1145.5 454.165C1145.69 454.495 1145.94 454.75 1146.26 454.93C1146.58 455.11 1146.94 455.2 1147.34 455.2C1147.71 455.2 1148.05 455.115 1148.36 454.945C1148.68 454.765 1148.95 454.48 1149.16 454.09L1150.97 455.08C1150.67 455.73 1150.21 456.235 1149.58 456.595C1148.95 456.945 1148.21 457.12 1147.36 457.12ZM1156.22 457.12C1155.3 457.12 1154.49 456.94 1153.79 456.58C1153.1 456.22 1152.57 455.73 1152.19 455.11C1151.81 454.48 1151.62 453.765 1151.62 452.965C1151.62 452.155 1151.8 451.44 1152.17 450.82C1152.55 450.19 1153.07 449.7 1153.72 449.35C1154.37 448.99 1155.1 448.81 1155.92 448.81C1156.71 448.81 1157.42 448.98 1158.05 449.32C1158.69 449.65 1159.2 450.13 1159.57 450.76C1159.94 451.38 1160.12 452.125 1160.12 452.995C1160.12 453.085 1160.12 453.19 1160.11 453.31C1160.1 453.42 1160.09 453.525 1160.08 453.625H1153.52V452.26H1158.85L1157.95 452.665C1157.95 452.245 1157.86 451.88 1157.69 451.57C1157.52 451.26 1157.29 451.02 1156.99 450.85C1156.69 450.67 1156.34 450.58 1155.94 450.58C1155.54 450.58 1155.18 450.67 1154.87 450.85C1154.57 451.02 1154.34 451.265 1154.17 451.585C1154 451.895 1153.91 452.265 1153.91 452.695V453.055C1153.91 453.495 1154.01 453.885 1154.2 454.225C1154.4 454.555 1154.67 454.81 1155.02 454.99C1155.38 455.16 1155.8 455.245 1156.28 455.245C1156.71 455.245 1157.09 455.18 1157.41 455.05C1157.74 454.92 1158.04 454.725 1158.31 454.465L1159.55 455.815C1159.18 456.235 1158.72 456.56 1158.16 456.79C1157.6 457.01 1156.95 457.12 1156.22 457.12ZM1172.02 448.81C1172.66 448.81 1173.22 448.94 1173.71 449.2C1174.21 449.45 1174.6 449.84 1174.88 450.37C1175.17 450.89 1175.32 451.56 1175.32 452.38V457H1172.98V452.74C1172.98 452.09 1172.84 451.61 1172.57 451.3C1172.3 450.99 1171.92 450.835 1171.43 450.835C1171.09 450.835 1170.79 450.915 1170.52 451.075C1170.25 451.225 1170.04 451.455 1169.89 451.765C1169.74 452.075 1169.66 452.47 1169.66 452.95V457H1167.32V452.74C1167.32 452.09 1167.19 451.61 1166.92 451.3C1166.66 450.99 1166.28 450.835 1165.79 450.835C1165.45 450.835 1165.15 450.915 1164.88 451.075C1164.61 451.225 1164.4 451.455 1164.25 451.765C1164.1 452.075 1164.02 452.47 1164.02 452.95V457H1161.68V448.93H1163.92V451.135L1163.5 450.49C1163.78 449.94 1164.17 449.525 1164.68 449.245C1165.2 448.955 1165.79 448.81 1166.45 448.81C1167.19 448.81 1167.84 449 1168.39 449.38C1168.95 449.75 1169.32 450.32 1169.5 451.09L1168.67 450.865C1168.94 450.235 1169.37 449.735 1169.96 449.365C1170.56 448.995 1171.25 448.81 1172.02 448.81ZM1181.48 457.12C1180.56 457.12 1179.75 456.94 1179.05 456.58C1178.36 456.22 1177.82 455.73 1177.44 455.11C1177.06 454.48 1176.87 453.765 1176.87 452.965C1176.87 452.155 1177.06 451.44 1177.43 450.82C1177.81 450.19 1178.32 449.7 1178.97 449.35C1179.62 448.99 1180.36 448.81 1181.18 448.81C1181.97 448.81 1182.68 448.98 1183.31 449.32C1183.95 449.65 1184.45 450.13 1184.82 450.76C1185.19 451.38 1185.38 452.125 1185.38 452.995C1185.38 453.085 1185.37 453.19 1185.36 453.31C1185.35 453.42 1185.34 453.525 1185.33 453.625H1178.78V452.26H1184.1L1183.2 452.665C1183.2 452.245 1183.12 451.88 1182.95 451.57C1182.78 451.26 1182.54 451.02 1182.24 450.85C1181.94 450.67 1181.59 450.58 1181.19 450.58C1180.79 450.58 1180.44 450.67 1180.13 450.85C1179.83 451.02 1179.59 451.265 1179.42 451.585C1179.25 451.895 1179.17 452.265 1179.17 452.695V453.055C1179.17 453.495 1179.26 453.885 1179.45 454.225C1179.65 454.555 1179.93 454.81 1180.28 454.99C1180.64 455.16 1181.06 455.245 1181.54 455.245C1181.97 455.245 1182.34 455.18 1182.66 455.05C1182.99 454.92 1183.29 454.725 1183.56 454.465L1184.81 455.815C1184.44 456.235 1183.97 456.56 1183.41 456.79C1182.85 457.01 1182.21 457.12 1181.48 457.12ZM1191.84 448.81C1192.48 448.81 1193.05 448.94 1193.55 449.2C1194.06 449.45 1194.46 449.84 1194.75 450.37C1195.04 450.89 1195.19 451.56 1195.19 452.38V457H1192.85V452.74C1192.85 452.09 1192.7 451.61 1192.41 451.3C1192.13 450.99 1191.73 450.835 1191.21 450.835C1190.84 450.835 1190.51 450.915 1190.21 451.075C1189.92 451.225 1189.69 451.46 1189.52 451.78C1189.36 452.1 1189.28 452.51 1189.28 453.01V457H1186.94V448.93H1189.17V451.165L1188.75 450.49C1189.04 449.95 1189.46 449.535 1190 449.245C1190.54 448.955 1191.15 448.81 1191.84 448.81ZM1200.61 457.12C1199.66 457.12 1198.92 456.88 1198.39 456.4C1197.86 455.91 1197.59 455.185 1197.59 454.225V447.145H1199.93V454.195C1199.93 454.535 1200.02 454.8 1200.2 454.99C1200.38 455.17 1200.63 455.26 1200.94 455.26C1201.31 455.26 1201.62 455.16 1201.88 454.96L1202.51 456.61C1202.27 456.78 1201.98 456.91 1201.64 457C1201.31 457.08 1200.97 457.12 1200.61 457.12ZM1196.35 450.91V449.11H1201.94V450.91H1196.35Z" fill="white"/>
<g clip-path="url(#clip1_73_120)">
<g opacity="0.1">
<g opacity="0.4">
<path fill-rule="evenodd" clip-rule="evenodd" d="M-191.727 2869.48C-195.672 2877.14 -205.077 2880.13 -212.741 2876.17C-220.383 2872.24 -223.394 2862.82 -219.445 2855.18C-219.204 2854.7 -133.336 2688.76 -125.772 2625.31C-120.498 2581.04 -69.1287 2431.23 -16.3247 2277.24C12.5605 2193.03 41.8745 2107.55 64.4835 2036.85C117.268 1871.81 199.795 1684.03 261.041 1544.68C272.575 1518.43 283.329 1493.95 294.074 1469.16C355.426 1327.5 523.57 954.93 524.05 953.856C525.442 950.78 527.706 948.371 530.414 946.788L1083.57 587.056C1090.79 582.359 1100.45 584.408 1105.13 591.632C1105.39 592.022 1105.63 592.43 1105.85 592.859C1113.12 605.061 1228.22 793.388 1333.8 653.144C1457.43 488.934 1510.72 425.699 1510.88 425.51C1513.29 422.617 1516.55 420.815 1519.99 420.172C1520.17 420.124 1582.33 409.585 1739.98 300.13C1817.92 245.996 1902.02 194.14 1974.23 149.62C2052.12 101.585 2116.09 62.1392 2140.91 39.5188C2171 12.1062 2232.57 -29.7842 2298.16 -56.7107C2345.83 -76.2786 2396.03 -88.119 2438.99 -81.4315C2485.6 -74.1857 2526.03 -74.1322 2563.04 -77.8457C2600.49 -81.6008 2634.71 -89.1886 2668.29 -97.1394C2703.8 -105.545 2736.11 -109.726 2769.17 -108.645C2802.33 -107.559 2835.87 -101.211 2873.7 -88.5711C2936.62 -67.5409 3011.64 -91.0541 3026.48 -95.7098C3028.49 -96.3389 3029.07 -96.553 3029.49 -96.6638C3033.63 -97.7753 3026.44 -97.2355 3028.11 -99.8108C3039 -116.569 3060.08 -149.015 3102.34 -167.326C3105.39 -168.644 3111.1 -171.045 3116.07 -173.146C3125.92 -177.306 3128.91 -176.778 3129.62 -177.898C3130.84 -180.175 3128.12 -176.713 3127.73 -178.693C3126.49 -185.273 3124.65 -194.943 3124.56 -210.548C3124.44 -228.256 3119.88 -242.339 3115.75 -255.117C3108.3 -278.115 3101.95 -297.757 3115.57 -327.717C3132.18 -364.161 3131.57 -367.809 3128.97 -383.673L3128.82 -384.636C3127.27 -394.176 3129.28 -416.873 3131.66 -443.643C3135.39 -485.619 3140.08 -538.532 3134.08 -549.849C3122.62 -571.388 3119.22 -575.855 3095.76 -606.676L3089.74 -614.59L3089.25 -615.271C3082.29 -624.336 3072.34 -635.23 3061.89 -646.687C3028.05 -683.781 2989.49 -726.064 3001.83 -764.246C3008.19 -783.974 3014.9 -800.025 3020.84 -814.291C3026.94 -828.91 3032.2 -841.531 3035.06 -853.36C3041.29 -879.063 3061.77 -946.785 3061.82 -946.99C3064.2 -954.644 3071.91 -959.149 3079.6 -957.693C3085.55 -957.028 3130.79 -954.422 3131.81 -1029.96C3132.11 -1051.99 3131.18 -1069.29 3130.39 -1083.69C3127.36 -1139.42 3126.42 -1156.89 3189.2 -1213.61C3225.88 -1246.74 3254.56 -1274.01 3275.12 -1295.9C3294.47 -1316.51 3306.01 -1331.52 3309.56 -1341.29C3315.52 -1357.66 3326.74 -1360.1 3335.89 -1361.05C3332.57 -1362.23 3319.65 -1362.64 3306.8 -1378.12C3255.33 -1440.15 3109.84 -1627.98 3093.82 -1648.7C3067.44 -1667.47 2745.51 -1891.31 2526.17 -1792.9C2418.78 -1744.73 2337.4 -1673.5 2265.41 -1610.52C2178.48 -1534.45 2104.74 -1469.91 2012.51 -1467.21L2011.81 -1467.21C1930.1 -1464.92 1859.24 -1480.25 1798.04 -1493.48C1738.86 -1506.28 1689.17 -1517.03 1650.56 -1506.69C1627.81 -1500.59 1615.11 -1490.14 1603.15 -1480.32C1570.28 -1453.3 1542.02 -1430.05 1390.21 -1473.49C1284.92 -1503.61 1205.37 -1535.99 1145.71 -1560.26C1088.41 -1583.59 1050.2 -1599.13 1029.02 -1597.08C995.281 -1593.82 948.256 -1637.56 885.29 -1696.14C833.758 -1744.08 770.928 -1802.54 698.694 -1851.99C668.715 -1872.52 635.687 -1896.33 601.047 -1921.31C457.681 -2024.7 286.341 -2148.25 172.792 -2151C164.198 -2151.21 157.381 -2158.35 157.599 -2166.96C157.804 -2175.57 164.948 -2182.37 173.542 -2182.17C296.709 -2179.19 472.337 -2052.53 619.309 -1946.54C653.49 -1921.9 686.084 -1898.39 716.333 -1877.67C790.051 -1827.2 854.037 -1767.68 906.498 -1718.87C963.536 -1665.82 1006.14 -1626.18 1026.02 -1628.11C1054.87 -1630.91 1095.91 -1614.21 1157.43 -1589.17C1216.63 -1565.08 1295.55 -1532.96 1398.75 -1503.44C1534.84 -1464.51 1557.31 -1482.99 1583.43 -1504.46C1597.92 -1516.38 1613.33 -1529.05 1642.49 -1536.86C1688.22 -1549.11 1741.38 -1537.62 1804.66 -1523.93C1864.12 -1511.07 1932.96 -1496.19 2011.01 -1498.39L2011.61 -1498.42C2092.81 -1500.8 2162.64 -1561.92 2244.99 -1633.97C2318.63 -1698.41 2401.89 -1771.26 2513.51 -1821.33C2758.56 -1931.28 3112.79 -1673.49 3113.82 -1672.74C3115.03 -1671.87 3116.12 -1670.81 3117.08 -1669.57C3117.55 -1668.97 3277.78 -1461.82 3330.79 -1397.92C3362.84 -1359.29 3366.81 -1345.57 3356.61 -1336.04C3356.28 -1335.7 3355.92 -1335.38 3355.55 -1335.06C3350.69 -1331.02 3346.43 -1330.65 3341.36 -1330.19C3340.16 -1330.09 3339.05 -1331.39 3338.79 -1330.67C3333.72 -1316.74 3320.01 -1298.24 3297.75 -1274.55C3276.7 -1252.13 3247.41 -1224.29 3210.03 -1190.51C3158.32 -1143.8 3159.08 -1129.87 3161.49 -1085.45C3162.29 -1070.43 3163.28 -1052.39 3162.97 -1029.59C3161.79 -942.092 3112.79 -928.092 3088.2 -926.598C3082.17 -906.46 3069.75 -864.459 3065.3 -846.058C3061.83 -831.702 3056.14 -818.062 3049.55 -802.294C3043.82 -788.557 3037.37 -773.092 3031.41 -754.624C3024.65 -733.712 3056.77 -698.52 3084.92 -667.644C3095.55 -655.999 3105.67 -644.9 3113.91 -634.154L3114.44 -633.484L3120.47 -625.57C3145.4 -592.825 3149.02 -588.065 3161.59 -564.443C3171.9 -545.034 3166.75 -487.005 3162.66 -440.987C3160.46 -416.262 3158.6 -395.305 3159.52 -389.717L3159.68 -388.754C3163.53 -365.294 3164.41 -359.903 3143.9 -314.847C3135.28 -295.919 3139.92 -281.551 3145.38 -264.711C3150.2 -249.799 3155.52 -233.365 3155.67 -210.818C3155.75 -198.329 3157.3 -190.19 3158.36 -184.639C3160.06 -175.655 3161.05 -170.456 3156.96 -162.994L3156.91 -162.92C3152.38 -154.676 3145.18 -151.637 3128.06 -144.406C3125.32 -143.26 3122.06 -141.883 3114.69 -138.682C3081.1 -124.127 3063.4 -96.8881 3054.28 -82.8176C3048.63 -74.1564 3044.92 -68.4493 3037.57 -66.481C3036.31 -66.1412 3036.07 -66.0782 3035.72 -65.9548C3019.3 -60.8155 2936.28 -34.79 2863.83 -58.9962C2828.83 -70.6839 2798.14 -76.5534 2768.16 -77.5305C2738.12 -78.5202 2708.42 -74.639 2675.52 -66.8453C2640.74 -58.6179 2605.28 -50.7567 2566.17 -46.821C2526.64 -42.8611 2483.62 -42.8987 2434.25 -50.572C2397.46 -56.2836 2352.91 -45.5143 2309.93 -27.8666C2247.99 -2.43794 2190.08 36.9057 2161.87 62.6185C2134.81 87.3014 2069.76 127.406 1990.58 176.23C1918.09 220.928 1833.67 272.987 1757.69 325.756C1621.28 420.479 1551.1 444.233 1531.51 449.525C1518.16 465.657 1463.84 532.224 1358.65 671.935C1241.4 827.701 1120.33 671.064 1087.39 621.824L550.641 970.898C532.09 1012.03 379.273 1350.95 322.665 1481.65C313.482 1502.84 301.939 1529.11 289.541 1557.32C228.605 1695.96 146.494 1882.76 94.16 2046.39C72.0079 2115.65 42.3479 2202.15 13.1367 2287.35C-39.1095 2439.73 -89.9371 2587.98 -94.8456 2629.09C-103.09 2698.22 -191.488 2869.05 -191.736 2869.55L-191.727 2869.48Z" fill="white"/>
<path fill-rule="evenodd" clip-rule="evenodd" d="M503.331 -1315.78C501.583 -1318.66 500.895 -1321.89 501.123 -1325.01C494.768 -1326.29 488.662 -1327.96 483.572 -1330.14C470.565 -1335.74 457.083 -1339.25 443.565 -1340.86C413.015 -1344.51 382.581 -1338.34 357.036 -1324.91C331.855 -1311.66 311.564 -1291.41 300.901 -1266.65C297.171 -1257.97 294.604 -1248.64 293.424 -1238.76C286.01 -1176.63 265.871 -1149.03 236.353 -1108.58C222.036 -1088.97 205.354 -1066.1 186.578 -1033.58C170.324 -1005.43 163.658 -985.875 158.131 -969.622C143.707 -927.306 135.963 -904.551 25.7689 -834.639C-85.8125 -763.838 -218.818 -775.527 -287.133 -781.522C-297.331 -782.423 -306.014 -783.184 -312.54 -783.503C-299.625 -709.944 -225.724 -349.906 -222.837 -335.878L-222.72 -335.333C-221.048 -326.889 -226.545 -318.68 -234.989 -317.008L-337.612 -296.955C-326.405 -239.749 -287.607 -41.2575 -286.062 -28.3772C-284.674 -16.8578 -219.031 193.008 -201.706 248.295L-148.619 238.251L-197.205 -88.0078C-198.327 -94.4577 -195.284 -101.182 -189.185 -104.441C-181.587 -108.501 -172.135 -105.641 -168.072 -98.0297L-25.1475 168.547C-12.2107 174.269 23.0391 189.005 29.1524 183.098C36.6143 175.884 51.5344 161.443 65.5008 145.041C78.666 129.563 90.9863 112.421 94.5317 98.915C96.6883 90.7001 99.2673 76.1238 102.287 58.9476C110.523 12.1745 121.994 -53.0142 142.191 -80.8939C166.731 -114.782 278.509 -293.839 278.83 -294.353L431.525 -547.449C414.526 -586.027 337.675 -763.243 338.253 -814.065C338.743 -858.379 355.394 -865.366 384.748 -877.707C397.295 -882.975 412.974 -889.569 430.915 -902.989C454.654 -920.738 452.17 -927.695 449.584 -934.92C445.653 -945.95 441.604 -957.258 450.72 -974.783C459.246 -991.145 471.266 -992.593 485.761 -985.029C495.855 -979.771 506.215 -969.002 517.509 -957.286C533.868 -940.28 552.777 -920.648 562.193 -924.264C578.558 -930.555 594.089 -939.355 605.807 -952.406C614.803 -962.439 621.708 -975.205 625.231 -991.66C609.45 -975.304 590.349 -955.901 569.924 -954.343C544.725 -952.407 533.623 -966.389 531.264 -997.133C529.41 -1021.36 533.794 -1058.86 539.945 -1111.49C540.814 -1118.88 541.661 -1126.14 544.228 -1148.87L544.593 -1152.03C550.571 -1204.86 553.048 -1226.76 549.631 -1240.78C547.397 -1249.95 541.768 -1258.05 532.134 -1271.9C524.732 -1282.54 515.237 -1296.21 503.354 -1315.8L503.331 -1315.78ZM536.651 -1321.09C541.867 -1320.86 545.173 -1320.87 545.145 -1320.87C542.546 -1320.86 540.075 -1320.22 537.913 -1319.08L536.655 -1321.07L536.651 -1321.09ZM557.209 -1290.29L557.688 -1289.6C569.396 -1272.75 576.249 -1262.89 579.821 -1248.23C584.61 -1228.6 581.959 -1205.14 575.562 -1148.58L570.837 -1107.89C564.904 -1057.15 560.676 -1021 562.325 -999.517C563.074 -989.776 564.598 -985.192 567.522 -985.414C576.527 -986.099 591.514 -1001.67 603.791 -1014.39C616.816 -1027.91 627.763 -1039.27 640.05 -1038.23C653.422 -1037.12 660.309 -1027.23 658.311 -1003.43C655.696 -972.288 644.654 -949.107 628.948 -931.589C613.476 -914.356 593.762 -903.032 573.284 -895.166C544.634 -884.166 518.024 -911.809 494.997 -935.729C488.248 -942.724 481.9 -949.325 476.897 -953.553C477.086 -950.753 478.052 -948.028 479.021 -945.348C485.534 -927.107 491.785 -909.623 449.602 -878.068C428.598 -862.351 410.913 -854.924 396.76 -848.975C379.487 -841.717 369.702 -837.604 369.425 -813.717C368.879 -763.495 463.016 -553.302 463.282 -552.694C465.433 -547.864 464.927 -542.528 462.392 -538.318L305.252 -277.828C304.936 -277.3 192.858 -97.764 167.435 -62.6494C151.564 -40.7299 140.791 20.446 133.057 64.3519C129.94 82.1008 127.272 97.1736 124.732 106.88C119.803 125.587 104.945 146.762 89.2371 165.211C74.3207 182.754 58.6717 197.893 50.8353 205.473C27.7583 227.787 -42.7217 194.749 -42.924 194.656C-46.1261 193.18 -48.5932 190.754 -50.1371 187.859L-50.1783 187.87L-153.179 -4.24597L-115.553 248.476C-114.316 256.786 -119.875 264.539 -128.069 266.099L-209.512 281.511C-217.706 283.071 -225.605 277.905 -227.57 269.908C-232.99 252.659 -315.186 -9.39122 -317.027 -24.6444C-318.702 -38.6128 -371.069 -305.495 -371.213 -306.254C-372.885 -314.699 -367.389 -322.907 -358.944 -324.579L-256.449 -344.613C-272.554 -423.24 -344.767 -776.596 -345.556 -794.702C-346.139 -808.343 -337.724 -814.039 -321.776 -814.723C-313.03 -815.102 -300.52 -814.007 -284.454 -812.596C-219.692 -806.905 -93.6467 -795.832 9.10969 -861.033C110.048 -925.082 116.569 -944.186 128.663 -979.703C134.725 -997.488 142.011 -1018.87 159.546 -1049.24C178.807 -1082.6 196.257 -1106.51 211.22 -1127.01C237.876 -1163.54 256.06 -1188.46 262.505 -1242.52C264.035 -1255.28 267.408 -1267.5 272.365 -1278.99C285.938 -1310.53 311.311 -1336.07 342.592 -1352.52C373.51 -1368.78 410.349 -1376.23 447.308 -1371.82C463.591 -1369.87 479.95 -1365.6 495.897 -1358.74C622.998 -1304.03 581.345 -1292.66 557.219 -1290.3L557.209 -1290.29ZM637.492 -1007.21C637.19 -1007.23 636.901 -1007.15 636.61 -1006.97C638.908 -1006.99 640.06 -1006.99 637.492 -1007.21Z" fill="white"/>
<path fill-rule="evenodd" clip-rule="evenodd" d="M-328.38 -799.068C-320.147 -801.584 -311.451 -796.971 -308.935 -788.738C-306.422 -780.519 -311.045 -771.806 -319.264 -769.293C-331.312 -765.577 -348.347 -746.404 -372.926 -740.556C-404.296 -733.096 -438.24 -725.537 -456.728 -721.765C-468.856 -719.284 -491.684 -710.596 -516.016 -700.354C-554.01 -684.369 -595.03 -664.795 -606.089 -658.656C-607.516 -657.919 -608.88 -657.11 -610.307 -656.373C-647.397 -636.021 -875.692 -510.489 -1015.33 -376.186C-1085.36 -308.822 -1162 -218.846 -1235.18 -122.348C-1315.55 -16.4096 -1391.74 97.3332 -1450.55 197.69L-1474.73 238.986C-1565.15 393.456 -1573.63 407.945 -1641.55 490.104C-1673.98 529.327 -1740.91 595.241 -1809.67 659.442C-1896.88 740.863 -1987.53 819.882 -2014.45 838.101C-2060.01 868.951 -2098.61 896.842 -2098.72 896.93C-2099.61 897.582 -2100.55 898.114 -2101.51 898.535C-2107.54 901.717 -2152.94 927.234 -2170.63 982.553C-2181.05 1015.15 -2189.93 1044.83 -2196.24 1067.79C-2202.59 1090.9 -2206.46 1107.18 -2206.79 1112.65C-2207.04 1116.84 -2211.46 1136.53 -2218.15 1166.47C-2240.98 1268.48 -2291.29 1493.24 -2287.76 1566.93C-2284.34 1638.88 -2245.69 1824.86 -2217.43 1960.93C-2207.9 2006.77 -2199.54 2047.04 -2194.26 2074.39C-2190.55 2093.66 -2200.45 2167.33 -2200.43 2167.12C-2199.81 2162.3 -2197.03 2158.29 -2193.2 2155.92C-2191.7 2154.97 -1672.01 1832.14 -1436.13 1704.65C-1384.03 1676.48 -1329.38 1646.09 -1272.93 1614.68C-1066.15 1499.66 -835.377 1371.29 -690.548 1329.09C-586.616 1298.82 -471.896 1276.56 -365.641 1255.94C-284.046 1240.11 -207.487 1225.27 -144.985 1208.52C-87.21 1193.04 -47.1925 1186.48 -15.1788 1181.26C30.1886 1173.83 58.5506 1169.2 102.519 1142.82C138.066 1121.51 254.409 1038.93 383.589 947.251C536.183 838.931 706.613 717.958 783.945 669.451C925.792 580.451 1014.37 501.928 1014.62 501.699C1016.42 500.094 1018.5 498.989 1020.68 498.361C1021.43 498.161 1283.68 423.621 1357.7 391.07C1383.64 379.659 1404.16 366.435 1425.55 352.653C1465.68 326.788 1508.63 299.104 1592.55 276.618C1631.68 266.133 1656.47 261.677 1674.72 258.397C1712.98 251.513 1719.63 250.322 1785.59 198.407L1820.74 170.687C1912.81 98.0825 2019.25 14.1674 2093.75 -36.4166C2135.91 -65.0396 2198.92 -81.8059 2265.15 -87.8658C2336.68 -94.4027 2412.67 -88.5304 2470.23 -71.6775C2478.49 -69.2518 2483.2 -60.5885 2480.78 -52.3311C2478.35 -44.0875 2469.69 -39.3593 2461.43 -41.785C2407.55 -57.5715 2335.89 -63.0076 2268.03 -56.8061C2206.52 -51.1957 2148.73 -36.1094 2111.27 -10.6805C2038.48 38.736 1932.1 122.619 1840.07 195.185L1804.81 222.934C1732.7 279.673 1724.93 281.074 1680.29 289.093C1662.64 292.27 1638.69 296.577 1600.62 306.777C1521.12 328.078 1480.43 354.315 1442.4 378.819C1419.75 393.412 1398 407.421 1370.17 419.681C1299.78 450.655 1063.31 518.535 1032.52 527.331C1016.46 541.238 930.037 614.544 800.483 695.834C723.493 744.13 553.682 864.657 401.621 972.598C271.426 1065 154.163 1148.23 118.527 1169.6C69.6034 1198.92 38.9499 1203.93 -10.1247 1211.97C-41.0613 1217.03 -79.7364 1223.36 -136.919 1238.68C-199.738 1255.51 -277.135 1270.53 -359.606 1286.51C-465.564 1307.08 -579.95 1329.26 -681.923 1358.96C-823.011 1400.08 -1052.32 1527.65 -1257.8 1641.93C-1315.49 1674.04 -1371.34 1705.1 -1421.33 1732.12C-1641.88 1851.32 -2112.55 2142.61 -2170.79 2178.71C-2175.14 2201.03 -2191.21 2255.01 -2224.89 2080.3C-2230.53 2051.04 -2238.68 2011.87 -2247.93 1967.31C-2276.45 1830.07 -2315.4 1642.51 -2318.94 1568.46C-2322.64 1490.9 -2271.66 1263.09 -2248.52 1159.69C-2242.14 1131.17 -2237.93 1112.42 -2237.85 1110.85C-2237.39 1103.13 -2233.14 1084.56 -2226.25 1059.54C-2219.61 1035.41 -2210.62 1005.25 -2200.34 973.067C-2179.33 907.406 -2125.43 876.035 -2116.23 871.073C-2110.74 867.122 -2076.4 842.469 -2031.85 812.317C-2006.1 794.887 -1917.16 717.226 -1830.92 636.7C-1763.07 573.363 -1697.18 508.498 -1665.55 470.257C-1599.23 390.032 -1590.85 375.717 -1501.56 223.191L-1477.38 181.895C-1418 80.5733 -1341.07 -34.2686 -1259.93 -141.228C-1185.77 -238.991 -1108.05 -330.248 -1036.88 -398.698C-894.525 -535.622 -663.081 -662.913 -625.258 -683.668C-623.914 -684.442 -622.538 -685.151 -621.198 -685.938C-609.701 -692.313 -567.214 -712.59 -527.991 -729.112C-502.04 -740.039 -477.25 -749.399 -462.991 -752.304C-444.04 -756.17 -410.386 -763.652 -380.14 -770.841C-356.184 -776.536 -339.825 -795.528 -328.38 -799.068Z" fill="white"/>
<path fill-rule="evenodd" clip-rule="evenodd" d="M-2235.62 1096.4C-2243.69 1093.48 -2247.87 1084.55 -2244.94 1076.47C-2242 1068.4 -2233.09 1064.23 -2225.01 1067.16C-2159.85 1090.87 -2007.36 1081.65 -1892.46 1074.7C-1846.96 1071.95 -1807.24 1069.55 -1780.12 1069.67C-1741.36 1069.84 -1764.33 1069.68 -1704.24 1069.9C-1580.32 1070.32 -1389.04 1070.95 -1373.68 1072.45C-1367 1073.1 -1302.58 1057.21 -1231.21 1038.89C-1164.14 1021.64 -1080.92 999.355 -1044.29 989.539C-973.408 970.547 -30.7562 681.758 -28.0496 680.945C-19.8303 678.432 -11.1206 683.041 -8.60444 691.274C-6.07802 699.49 -10.7145 708.207 -18.9339 710.719C-21.6509 711.551 -967.374 1001.28 -1036.22 1019.73C-1069.43 1028.63 -1144.89 1048.84 -1223.4 1069.03C-1297.63 1088.09 -1365.75 1104.51 -1376.62 1103.45C-1389.45 1102.2 -1580.54 1101.54 -1704.33 1101.14L-1780.24 1100.8C-1805.99 1100.68 -1845.4 1103.06 -1890.58 1105.79C-2008.24 1112.9 -2164.37 1122.34 -2235.62 1096.41L-2235.62 1096.4Z" fill="white"/>
<path fill-rule="evenodd" clip-rule="evenodd" d="M1457.4 -1188.12C1457.71 -1196.71 1464.94 -1203.42 1473.53 -1203.11C1482.13 -1202.8 1488.85 -1195.57 1488.53 -1186.98C1483.28 -1043.7 1516.11 -984.052 1547.26 -927.461C1551.6 -919.584 1555.91 -911.758 1560.85 -902.254C1576.51 -872.209 1557.02 -852.17 1523.44 -834.663C1509.72 -827.517 1493.71 -820.848 1477.04 -813.915C1455.27 -804.862 1432.33 -795.301 1413.55 -784.155C1383.92 -766.555 1365.36 -744.165 1385.26 -710.633C1406.92 -674.189 1431.73 -637.053 1455.33 -601.722C1509.35 -520.904 1557.31 -449.142 1551.64 -406.69C1548.58 -383.802 1531.65 -351.451 1514.03 -317.762C1489.34 -270.584 1463.08 -220.382 1477.13 -211.135C1498.68 -196.937 1526.24 -183.109 1560.42 -172.415C1589.32 -163.362 1622.8 -156.588 1661.17 -153.707C1744.63 -147.441 1817.64 -179.251 1817.86 -179.338C1825.77 -182.714 1834.94 -179.027 1838.32 -171.113C1840.93 -165.003 1839.33 -158.133 1834.79 -153.772C1831.45 -149.656 1815.13 -125.327 1852.49 -81.1241C1905.62 -18.2371 1920.11 102.006 1920.14 102.352C1921.22 110.883 1915.15 118.682 1906.62 119.743C1898.07 120.807 1890.29 114.753 1889.23 106.219C1889.19 105.891 1875.79 -5.28229 1828.71 -60.9855C1801.61 -93.0465 1795.96 -119.775 1797.79 -139.323C1766.14 -129.836 1714.64 -118.476 1658.9 -122.654C1617.73 -125.744 1581.93 -132.992 1551.13 -142.642C1513.92 -154.296 1483.72 -169.47 1460.01 -185.082C1422.39 -209.851 1455.41 -272.955 1486.43 -332.242C1502.74 -363.424 1518.42 -393.387 1520.74 -410.805C1524.86 -441.629 1479.98 -508.794 1429.43 -584.441C1405.61 -620.07 1380.58 -657.517 1358.48 -694.77C1325.84 -749.706 1353.11 -784.533 1397.67 -811.009C1418.09 -823.127 1442.26 -833.194 1465.19 -842.734C1481.27 -849.421 1496.72 -855.866 1509.11 -862.318C1526.44 -871.349 1537.51 -879.793 1533.25 -887.945C1529.47 -895.219 1524.74 -903.803 1519.96 -912.465C1486.8 -972.725 1451.84 -1036.21 1457.41 -1188.14L1457.4 -1188.12Z" fill="white"/>
<path fill-rule="evenodd" clip-rule="evenodd" d="M38.7213 732.997C36.2955 741.254 -14.6683 711.865 -22.9295 709.426C-31.1694 707.01 -35.9012 698.337 -33.4755 690.079C-31.9303 684.82 -29.1413 677.588 -18.7189 681.147C-3.79567 686.233 20.1678 703.447 22.4493 695.258C45.7912 611.747 68.4274 530.73 128.658 473.969C160.231 444.223 201.553 414.42 239.186 387.275C280.943 357.164 317.933 330.487 328.38 313.743C339.752 295.54 361.741 260.4 394.104 220.811C426.541 181.114 469.175 137.296 521.421 102.394C622.584 34.828 705.182 -23.6279 705.418 -23.7945C707.505 -25.2694 709.84 -26.1462 712.215 -26.4872C712.394 -26.5353 774.678 -34.8927 864.807 -67.4479C946.8 -97.0696 1124.32 -155.921 1207.18 -183.398L1229.96 -190.949C1300.32 -214.308 1314.02 -210.887 1337.03 -205.117L1337.68 -204.951C1344.26 -203.304 1349.18 -203.366 1355.11 -203.448C1365.62 -203.59 1378.66 -203.775 1405.63 -197.663C1435.81 -190.83 1444.9 -214.286 1444.93 -214.339C1448.17 -222.326 1457.26 -226.165 1465.23 -222.938C1473.21 -219.701 1477.07 -210.615 1473.83 -202.628C1473.78 -202.495 1455.08 -154.501 1398.74 -167.263C1375.51 -172.517 1364.5 -172.359 1355.63 -172.241C1347.54 -172.126 1340.85 -172.034 1330.09 -174.719L1329.45 -174.888C1311.99 -179.25 1301.6 -181.858 1239.79 -161.335L1216.88 -153.751C1134.83 -126.551 959.08 -68.2759 875.322 -38.0188C795.08 -9.02868 735.464 1.50952 720.327 3.89619C704.582 14.9838 629.434 67.7799 538.721 128.366C489.366 161.325 448.975 202.873 418.196 240.546C387.329 278.331 365.872 312.589 354.794 330.344C341.141 352.216 301.775 380.608 257.33 412.651C220.563 439.165 180.167 468.292 150.025 496.709C96.1283 547.504 74.6304 624.39 52.4875 703.665C48.7792 716.948 42.9704 718.534 38.7149 733.028L38.7213 732.997Z" fill="white"/>
<path fill-rule="evenodd" clip-rule="evenodd" d="M1295.14 -179.032C1287.79 -183.518 1285.47 -193.105 1289.97 -200.455C1294.46 -207.803 1304.05 -210.106 1311.4 -205.62C1354.23 -179.399 1353.41 -159.356 1352.06 -126.675C1351.66 -116.61 1351.18 -105.035 1352.55 -91.7813C1356.22 -56.2944 1393.01 -27.9509 1443.75 11.1571L1444.16 11.4617C1445.65 10.3983 1447.35 9.57379 1449.21 9.07525C1456.04 7.24356 1486.34 1.12008 1522.57 -5.6916C1550.72 -10.99 1583.22 -16.8322 1611.59 -21.4801C1622.2 -23.2161 1632.14 -24.0028 1641.35 -23.9154C1664.44 -23.705 1683.27 -18.0273 1697.24 -8.27022C1712.26 2.21355 1721.49 17.0517 1724.37 34.7585C1725.05 38.89 1725.37 43.1625 1725.33 47.5448C1725.14 68.9272 1703.64 91.7791 1675.86 111.615C1638.39 138.407 1587.51 161.833 1569.11 165.375C1544.78 170.062 1538.12 158.85 1525.19 137.113C1515.59 120.984 1500.88 96.2523 1464.56 66.9597C1451.99 56.8259 1437.92 45.9873 1424.72 35.8157C1367.85 -8.00364 1326.63 -39.7684 1321.58 -88.5642C1319.94 -104.42 1320.45 -117.023 1320.9 -127.957C1321.79 -149.334 1322.32 -162.429 1295.14 -179.063L1295.14 -179.032ZM1474.86 35.422L1484.09 42.8016C1524.93 75.7184 1541.3 103.266 1552 121.23C1557.51 130.52 1560.38 135.307 1563.17 134.765C1578.82 131.753 1623.65 110.686 1657.83 86.2677C1678.29 71.6432 1694.12 56.9581 1694.2 47.3037C1694.23 44.6971 1694.05 42.2047 1693.67 39.854C1692.15 30.5278 1687.31 22.7249 1679.44 17.2399C1670.54 11.0281 1657.68 7.39912 1641.11 7.259C1633.64 7.19075 1625.49 7.84035 1616.69 9.28286C1590.27 13.6141 1557.69 19.4783 1528.4 24.9931C1507.19 28.9771 1488.11 32.7141 1474.88 35.4321L1474.86 35.422Z" fill="white"/>
<path fill-rule="evenodd" clip-rule="evenodd" d="M1322.09 -164.318C1316.31 -170.686 1316.77 -180.531 1323.14 -186.328C1329.51 -192.111 1339.35 -191.647 1345.15 -185.282C1368.87 -159.215 1388.68 -137.888 1408.88 -122.401L1409.76 -121.675C1428.56 -107.437 1448.25 -98.0879 1472.93 -94.2875C1497.94 -90.4406 1519.7 -94.1293 1539.82 -97.5412C1563.92 -101.636 1586.01 -105.382 1610.71 -98.1003C1625.04 -93.8767 1647.75 -93.0472 1671.2 -93.8952C1709.47 -95.2728 1748.59 -101.071 1759.05 -103.873C1779.6 -109.38 1835.09 -103.983 1835.24 -103.965C1843.8 -103.139 1850.07 -95.5578 1849.26 -86.9953C1848.45 -78.4466 1840.85 -72.172 1832.29 -72.9797C1832.15 -73.0016 1782.5 -77.8218 1767.13 -73.7042C1755.55 -70.6022 1713.11 -64.2086 1672.35 -62.7407C1646.02 -61.7992 1619.89 -62.8929 1601.92 -68.1977C1584.04 -73.4657 1565.43 -70.3112 1545.14 -66.8687C1522.46 -63.0227 1497.95 -58.8619 1468.2 -63.4457C1437.97 -68.0942 1413.93 -79.5405 1390.94 -96.9576C1390.57 -97.1971 1390.22 -97.4439 1389.87 -97.7183C1367.69 -114.73 1346.9 -137.078 1322.11 -164.322L1322.09 -164.318Z" fill="white"/>
<path fill-rule="evenodd" clip-rule="evenodd" d="M886.928 -834.207C889.748 -842.319 898.608 -846.629 906.72 -843.809C914.828 -841.004 919.141 -832.129 916.318 -824.031C911.7 -810.725 906.929 -798.87 902.541 -787.96C887.654 -750.956 878.076 -727.163 907.409 -712.127C922.823 -704.218 935.133 -699.51 944.204 -696.032C973.738 -684.713 980.688 -682.04 975.084 -649.533C972.217 -632.944 963.828 -626.929 955.283 -620.784C948.727 -616.088 941.952 -611.215 951.617 -575.147C953.969 -566.368 958.555 -548.482 963.165 -530.558C978.403 -471.211 993.963 -410.547 1007.6 -393.24C1010.98 -388.932 1013.74 -385.535 1016.55 -382.08C1036.4 -357.618 1057.8 -331.224 1054.04 -307.29C1052.77 -299.239 1054.16 -283.922 1057.24 -265.914C1060.65 -246.074 1066.1 -223.575 1072.42 -203.967C1086.11 -161.46 1082.42 -123.364 1082.41 -123.257C1081.83 -117.121 1077.79 -112.152 1072.39 -110.099C1061.24 -104.896 971.141 -64.4465 941.694 -104.609C938.91 -108.383 934.998 -113.391 930.728 -118.85C901.268 -156.468 855.951 -214.343 885.214 -265.007C888.281 -270.32 886.567 -267.29 891.515 -275.78C907.678 -303.554 924.771 -332.876 923.039 -336.859C921.422 -340.576 923.59 -330.005 918.522 -327.805C899.253 -319.451 884.012 -298.764 873.533 -274.862C860.124 -244.251 854.83 -209.375 858.646 -187.25C862.761 -163.403 864.787 -145.038 862.91 -127.622C860.969 -109.449 855.006 -93.1685 843.191 -74.3595C822.07 -40.7225 795.094 -25.296 773.912 -13.1651L768.147 -9.818C767.726 -9.57209 767.287 -9.33635 766.85 -9.14556C744.369 3.54024 708.177 13.2379 708.067 13.2675C699.742 15.498 691.176 10.5404 688.945 2.21586C688.735 1.43028 688.587 0.657589 688.508 -0.133697C687.568 -5.62793 677.598 -52.2055 607.858 -68.8085C564.737 -79.072 539.322 -84.2861 510.037 -90.2657C479.356 -96.5506 444.629 -103.657 387.662 -116.695C265.319 -144.714 232.641 -195.444 232.545 -195.58C227.828 -202.766 229.826 -212.401 236.997 -217.114C244.183 -221.831 253.817 -219.834 258.535 -212.648C258.609 -212.535 284.431 -172.288 394.544 -147.078C453.794 -133.514 486.958 -126.728 516.263 -120.724C546.958 -114.443 573.603 -108.997 615.008 -99.1302C680.727 -83.4737 705.485 -44.1086 714.527 -21.2271C725.656 -24.7855 740.825 -30.1941 751.406 -36.1313C751.741 -36.3688 752.098 -36.5825 752.454 -36.7962L758.45 -40.2198C776.64 -50.6183 799.82 -63.8904 816.769 -90.8847C825.94 -105.499 830.535 -117.735 831.946 -130.935C833.435 -144.895 831.61 -160.802 827.96 -181.923C823.221 -209.31 829.264 -251.315 845.029 -287.299C858.385 -317.777 878.887 -344.63 906.138 -356.437C931.603 -367.471 945.513 -363.354 951.659 -349.181C959.603 -330.835 938.451 -294.502 918.405 -260.104C917.692 -258.849 919.381 -261.754 912.228 -249.364C893.482 -216.895 930.911 -169.108 955.249 -138.035C959.402 -132.737 963.201 -127.876 966.81 -122.949C979.428 -105.738 1031.08 -125.93 1051.65 -134.898C1051.77 -146.851 1050.71 -169.67 1042.71 -194.486C1036.02 -215.278 1030.19 -239.287 1026.55 -260.587C1022.95 -281.632 1021.48 -300.529 1023.29 -312.051C1024.92 -322.295 1008.01 -343.127 992.35 -362.432C988.903 -366.694 985.472 -370.9 983.032 -373.998C965.472 -396.311 949.079 -460.193 933.037 -522.707C929.871 -535.02 926.748 -547.227 921.441 -567.032C906.204 -623.897 921.939 -635.189 937.112 -646.094C940.422 -648.458 943.668 -650.79 944.351 -654.799C945.61 -662.064 943.22 -662.99 933.049 -666.882C923.632 -670.489 910.858 -675.383 893.203 -684.434C838.594 -712.433 852.298 -746.52 873.633 -799.536C877.952 -810.265 882.643 -821.921 886.915 -834.204L886.928 -834.207Z" fill="white"/>
<path fill-rule="evenodd" clip-rule="evenodd" d="M2100.71 65.2387C2083.23 47.7947 2066.4 19.0083 2051.19 -12.7232C2036.43 -43.5242 2023.05 -77.2836 2012.18 -105.731C2009.55 -112.633 2005.59 -122.372 2001.48 -132.554C1979.86 -185.951 1953.55 -250.958 1959.05 -323.041C1960.66 -344.212 1963.15 -365.19 1965.56 -385.453C1972.15 -440.855 1978.07 -490.687 1963.16 -509.129C1955.81 -518.222 1949.92 -522.332 1945.49 -525.428C1930.44 -535.918 1924.74 -539.913 1926.11 -580.964C1926.8 -601.282 1930.64 -612.709 1933.94 -622.532C1938.15 -635.049 1941.15 -643.977 1926.9 -679.407C1920.49 -695.355 1915.13 -709.843 1910.81 -721.552C1900.93 -748.285 1897.3 -758.081 1883.86 -769.903C1867.77 -784.041 1832.57 -795.895 1819.95 -799.825C1814.18 -796.714 1803 -785.696 1815.38 -748.628C1832.3 -697.945 1854.36 -675.082 1871.24 -657.593C1874.81 -653.898 1878.17 -650.41 1881.7 -646.438C1885.47 -642.175 1889.42 -638.728 1892.91 -635.689C1908.68 -621.923 1918.15 -613.676 1911.39 -576.193C1907.58 -554.919 1902.46 -537.209 1893.81 -525.348C1882.5 -509.867 1867.23 -503.854 1845.43 -511.233L1845.37 -511.218C1835.06 -514.703 1824.95 -520.915 1813.19 -528.166C1790.57 -542.09 1760.87 -560.367 1714.82 -564.378C1694.99 -566.111 1681.03 -565.177 1670.49 -564.481C1636.47 -562.206 1628.98 -561.72 1595.6 -613.265C1582.39 -633.671 1570.8 -645.825 1561.68 -655.404C1540.45 -677.679 1529.81 -688.831 1535.17 -736.207C1539.03 -770.477 1547.11 -787.151 1553.19 -799.65C1557.12 -807.75 1559.81 -813.302 1557.88 -823.05C1553.07 -847.391 1531.81 -862.39 1531.74 -862.43L1549.81 -887.861C1549.9 -887.797 1581.22 -865.703 1588.46 -829.102C1592.42 -809.157 1587.86 -799.766 1581.2 -786.063C1576.15 -775.653 1569.42 -761.782 1566.13 -732.761C1562.4 -699.721 1569.68 -692.084 1584.2 -676.847C1594.23 -666.314 1606.97 -652.961 1621.76 -630.114C1645.12 -594.051 1649.3 -594.315 1668.33 -595.587C1679.78 -596.351 1694.91 -597.364 1717.48 -595.403C1770.93 -590.744 1804.2 -570.264 1829.58 -554.656C1839.54 -548.534 1848.1 -543.265 1855.38 -540.799L1855.39 -540.771C1861.75 -538.622 1865.9 -539.955 1868.68 -543.743C1874.1 -551.161 1877.74 -564.679 1880.78 -581.61C1884.41 -601.769 1879.91 -605.705 1872.43 -612.238C1868.34 -615.811 1863.7 -619.841 1858.44 -625.789C1855.84 -628.711 1852.47 -632.195 1848.89 -635.918C1829.84 -655.644 1804.96 -681.433 1785.82 -738.786C1758.58 -820.324 1816.26 -831.394 1816.42 -831.421L1820.31 -832.258L1824 -831.192C1824.16 -831.146 1879.49 -815.322 1904.5 -793.349C1923.7 -776.471 1928.09 -764.618 1940.03 -732.278C1943.8 -722.089 1948.46 -709.497 1955.9 -690.96C1974.4 -644.982 1969.88 -631.526 1963.53 -612.629C1960.85 -604.689 1957.74 -595.465 1957.22 -579.919C1956.4 -555.695 1958.31 -554.374 1963.3 -550.883C1969.3 -546.713 1977.22 -541.184 1987.4 -528.594C2010.58 -499.914 2003.94 -443.951 1996.52 -381.696C1994.14 -361.603 1991.66 -340.805 1990.13 -320.719C1985.2 -256.028 2010.04 -194.631 2030.46 -144.19C2033.97 -135.513 2037.36 -127.16 2041.32 -116.774C2051.95 -88.9698 2065.01 -55.9977 2079.31 -26.1512C2093.18 2.7786 2108.1 28.5897 2122.74 43.2054L2100.74 65.2764L2100.71 65.2387Z" fill="white"/>
<path fill-rule="evenodd" clip-rule="evenodd" d="M856.984 11.7036C708.497 112.084 673.042 129.221 668.532 131.242L175.204 451.222L235.496 520.772L768.46 713.446L1134.82 450.547L1141 459.185L770.09 725.373C589.837 660.181 409.584 594.988 229.309 529.875L159.165 448.976C327.249 339.917 495.236 230.663 663.48 121.872L663.958 121.67C664.041 121.648 691.563 110.743 851.029 2.92957L856.961 11.7248L856.984 11.7036Z" fill="white"/>
<path fill-rule="evenodd" clip-rule="evenodd" d="M852.756 54.7824C438.977 349.193 359.17 403.237 343.776 413.153L293.695 531.333L283.928 527.185L335.569 405.292L338.497 404.862C338.497 404.862 338.105 407.922 846.599 46.1364L852.756 54.7824Z" fill="white"/>
<path fill-rule="evenodd" clip-rule="evenodd" d="M251.161 395.059L744.963 592.967L817.028 684.785L808.651 691.343L738.334 601.745L247.197 404.91L251.161 395.059Z" fill="white"/>
<path d="M481.344 220.959L472.573 226.938L722.443 593.51L731.215 587.531L481.344 220.959Z" fill="white"/>
<path d="M391.456 273.293L382.67 279.276L552.062 528.061L560.848 522.078L391.456 273.293Z" fill="white"/>
<path fill-rule="evenodd" clip-rule="evenodd" d="M497.096 498.014L460.89 606.834L450.81 603.508L487.031 494.684L497.096 498.014Z" fill="white"/>
<path fill-rule="evenodd" clip-rule="evenodd" d="M527.844 192.021L836.94 640.213L828.167 646.227L519.071 198.036L527.844 192.021Z" fill="white"/>
<path fill-rule="evenodd" clip-rule="evenodd" d="M605.446 140.444L725.96 333.199L518.593 473.716L512.661 464.92L711.542 330.164L596.427 146.037L605.446 140.444Z" fill="white"/>
<path fill-rule="evenodd" clip-rule="evenodd" d="M651.954 117.48L963.95 553.89L955.318 560.043L643.304 123.623L651.954 117.48Z" fill="white"/>
<path fill-rule="evenodd" clip-rule="evenodd" d="M736.365 62.3193L1034.51 510.505L1025.66 516.365L727.511 68.1928L736.365 62.3193Z" fill="white"/>
<path fill-rule="evenodd" clip-rule="evenodd" d="M154.652 1077.28C173.222 1066.27 179.989 1063.02 181.38 1062.37L666.063 751.306L607.052 698.444L77.4323 578.615L29.9497 611.945L27.0212 601.015L75.1879 567.207C254.159 607.661 433.114 648.163 612.072 688.679L683.531 752.711C517.741 859.087 351.895 965.36 186.219 1071.88L185.927 1072C185.927 1072 179.893 1074.57 157.492 1087.94L154.641 1077.3L154.652 1077.28Z" fill="white"/>
<path fill-rule="evenodd" clip-rule="evenodd" d="M599.224 804.077L108.518 676.657L36.2074 604.537L43.7056 597.018L113.992 667.095L601.893 793.804L599.224 804.077Z" fill="white"/>
<path fill-rule="evenodd" clip-rule="evenodd" d="M814.258 -25.4974C857.142 51.7455 1111.29 427.064 1136.8 464.707L1274.97 430.475L1336.33 117.89L1085.7 248.048L885.097 -62.456L1011.65 -112.261L1126.35 98.5689L1378.25 -40.4675L1351 98.3165L1460.04 41.6829L1683.69 267.338L1806.56 186.2L1662.18 107.466L1879.39 -9.93982L1836.71 -64.6962L1680.59 -8.61002L1677.01 -18.6249L1840.33 -77.307L1895.5 -6.5318L1684.48 107.534L1827.16 185.334C1778.85 217.231 1730.55 249.11 1682.26 281.017L1457.98 54.7312L1348.4 111.644L1284.09 439.154C1233.47 451.701 1182.83 464.234 1132.19 476.798L1130.11 473.722C1129.31 472.534 850.127 61.0111 804.979 -20.3228L814.289 -25.491L814.258 -25.4974ZM1338.94 104.563L1363.42 -20.1576L1122.13 113.024L1006.8 -98.9377L901.053 -57.3217L1089.37 234.17L1338.94 104.563Z" fill="white"/>
<path fill-rule="evenodd" clip-rule="evenodd" d="M1503.73 75.7705L1493.68 332.343L1483.08 331.951L1493.11 75.3814L1503.73 75.7705Z" fill="white"/>
<path d="M1627.82 210.782L1059.5 365.939L1062.29 376.18L1630.62 221.023L1627.82 210.782Z" fill="white"/>
<path d="M1112 -134.338L1102.51 -129.588L1366.43 397.913L1375.92 393.163L1112 -134.338Z" fill="white"/>
<path fill-rule="evenodd" clip-rule="evenodd" d="M1189.41 -172.224L1277.53 25.9462L1267.81 30.2355L1179.7 -167.938L1189.41 -172.224Z" fill="white"/>
<path fill-rule="evenodd" clip-rule="evenodd" d="M1087.31 246.54L921.258 334.802L916.289 325.409L1082.34 237.147L1087.31 246.54Z" fill="white"/>
<path fill-rule="evenodd" clip-rule="evenodd" d="M252.034 -184.642C476.917 149.432 469.794 153.719 469.784 153.736C443.217 191.417 417.738 232.441 392.164 271.127L183.887 -92.819L121.607 11.421L307.745 349.525L298.438 354.648L109.365 11.215C134.261 -30.4945 159.183 -72.1664 184.083 -113.862L392.841 250.885L460.588 148.415C460.588 148.415 464.339 149.789 243.225 -178.707L252.062 -184.65L252.034 -184.642Z" fill="white"/>
<path fill-rule="evenodd" clip-rule="evenodd" d="M245.023 -2.5342L483.113 -115.934L487.663 -106.34L249.573 7.05967L245.023 -2.5342Z" fill="white"/>
<path fill-rule="evenodd" clip-rule="evenodd" d="M-4.99087 183.739L88.7832 555.484L78.4959 558.108L-15.278 186.362L-4.99087 183.739Z" fill="white"/>
<path fill-rule="evenodd" clip-rule="evenodd" d="M21.9948 328.553C39.0147 322.279 79.1666 294.282 112.28 253.798C134.113 227.119 152.722 195.131 159.292 160.606C174.033 83.0933 194.656 43.0755 200.206 33.3014L159.876 -64.0657L169.693 -68.1141L212.079 34.2266L210.633 36.5491C210.573 36.654 186.51 74.4176 169.75 162.59C162.818 199.072 143.333 232.64 120.519 260.512C86.1441 302.516 43.7928 331.841 25.6686 338.515L22.0086 328.55L21.9948 328.553Z" fill="white"/>
<path fill-rule="evenodd" clip-rule="evenodd" d="M86.974 283.342C87.4522 283.583 253.222 367.989 310.14 330.403C366.083 293.477 529.241 106.99 545.628 88.2118L540.374 -103.787L550.987 -104.09L556.361 92.1015L555.016 93.6436C554.51 94.237 376.157 299.537 315.986 339.265C253.895 380.261 82.6971 293.07 82.2152 292.815L87.0052 283.348L86.974 283.342Z" fill="white"/>
<path fill-rule="evenodd" clip-rule="evenodd" d="M1078.76 617.591C1141.24 577.423 1431.56 432.642 1432.39 432.226L1432.78 432.033L1714.64 318.575L1718.58 328.466L1436.8 441.902C1426.13 447.228 1145.42 587.365 1084.53 626.534L1078.78 617.601L1078.76 617.591Z" fill="white"/>
<path fill-rule="evenodd" clip-rule="evenodd" d="M-189.033 -557.914L25.6712 200.207L15.4642 203.075L-199.287 -555.166L-189.033 -557.914Z" fill="white"/>
<path fill-rule="evenodd" clip-rule="evenodd" d="M62.58 158.454C71.1064 126.05 68.3617 56.7081 66.5284 10.89C65.9286 -4.19367 65.4301 -16.7491 65.47 -24.8695C65.5323 -38.8602 90.9704 -101.041 124.925 -177.468C173.56 -286.93 239.89 -426.555 273.549 -494.277C328.997 -605.874 279.852 -674.068 279.71 -674.266L288.419 -680.352C288.565 -680.14 341.343 -606.878 283.042 -489.553C249.501 -422.055 183.309 -282.688 134.64 -173.188C101.182 -97.883 76.1242 -37.1486 76.0719 -24.8298C76.0351 -17.1386 76.53 -4.59702 77.1363 10.4554C78.9842 56.9344 81.7807 127.296 72.8636 161.164L62.5662 158.458L62.58 158.454Z" fill="white"/>
<path fill-rule="evenodd" clip-rule="evenodd" d="M-49.711 -595.021C-10.4928 -450.752 94.0066 -67.3154 114.545 8.01227L176.849 -110.637L35.5696 -617.887L45.8236 -620.635L188.212 -109.412C162.599 -60.6714 137.004 -11.9208 111.396 36.8337L107.847 23.8105C107.434 22.2669 -16.6035 -432.762 -59.9999 -592.294L-49.7184 -595.049L-49.711 -595.021Z" fill="white"/>
<path fill-rule="evenodd" clip-rule="evenodd" d="M555.923 -757.524L830.33 -109.127L751.102 -11.1888L444.284 -549.611L453.521 -554.834L752.613 -29.9699L818.062 -110.863L545.559 -754.747L555.923 -757.524Z" fill="white"/>
</g>
<path d="M1453.15 145.207C1466.71 148.838 1474.75 162.774 1471.12 176.328C1467.49 189.882 1435.81 209.918 1435.81 209.918C1435.81 209.918 1418.4 176.729 1422.03 163.175C1425.66 149.62 1439.6 141.575 1453.15 145.207ZM1443.59 180.907C1449.75 182.559 1456.08 178.897 1457.73 172.741C1459.38 166.584 1455.72 160.245 1449.56 158.595C1443.41 156.946 1437.07 160.605 1435.42 166.762C1433.77 172.919 1437.43 179.257 1443.59 180.907Z" fill="white"/>
<path d="M1446.81 420.864C1426.48 426.311 1414.42 447.211 1419.86 467.54C1425.31 487.869 1472.82 517.918 1472.82 517.918C1472.82 517.918 1498.94 468.141 1493.49 447.812C1488.04 427.483 1467.14 415.417 1446.81 420.864ZM1461.16 474.408C1451.91 476.886 1442.42 471.393 1439.94 462.159C1437.47 452.925 1442.96 443.419 1452.19 440.944C1461.43 438.47 1470.93 443.959 1473.41 453.193C1475.88 462.427 1470.39 471.933 1461.16 474.408Z" fill="white"/>
<path d="M211.789 115.417C231.996 103.75 257.823 110.67 269.49 130.878C281.157 151.086 267.467 211.855 267.467 211.855C267.467 211.855 207.989 193.316 196.328 173.118C184.666 152.921 191.581 127.084 211.789 115.417ZM242.506 168.621C251.688 163.319 254.843 151.578 249.535 142.385C244.228 133.193 232.483 130.054 223.3 135.356C214.118 140.658 210.969 152.408 216.271 161.591C221.572 170.774 233.313 173.928 242.506 168.621Z" fill="white"/>
</g>
</g>
<rect width="6" height="14.02" transform="matrix(1 0 -0.374606 0.927184 753.252 59.0004)" fill="#FDC501"/>
<rect width="2" height="14.02" transform="matrix(1 0 -0.374606 0.927184 762.252 59.0004)" fill="#FDC501"/>
<path d="M777.02 71L773.98 59.8H775.692L777.964 69.128L780.572 59.8H782.348L784.876 69.16L787.18 59.8H788.892L785.804 71H783.932L781.42 62.088L778.844 71H777.02ZM797.587 71V59.8H799.187V71H797.587ZM790.467 71V59.8H792.067V71H790.467ZM791.795 65.944V64.632H797.923V65.944H791.795ZM801.514 71V59.8H808.57V61.112H803.114V64.696H808.09V65.976H803.114V69.688H808.57V71H801.514ZM810.654 71V59.8H812.254L817.966 68.392V59.8H819.566V71H817.966L812.254 62.424V71H810.654ZM821.889 71V59.8H825.681C826.566 59.8 827.291 59.9493 827.857 60.248C828.422 60.5467 828.838 60.9467 829.105 61.448C829.382 61.9387 829.521 62.4987 829.521 63.128C829.521 63.7253 829.382 64.28 829.105 64.792C828.827 65.2933 828.401 65.6987 827.825 66.008C827.259 66.3067 826.529 66.456 825.633 66.456H823.489V71H821.889ZM827.761 71L825.361 66.024H827.121L829.633 71H827.761ZM823.489 65.24H825.569C826.358 65.24 826.939 65.048 827.313 64.664C827.686 64.2693 827.873 63.768 827.873 63.16C827.873 62.5413 827.691 62.0507 827.329 61.688C826.966 61.3253 826.374 61.144 825.553 61.144H823.489V65.24ZM830.856 71L834.968 59.8H836.712L840.808 71H839.112L835.832 61.72L832.52 71H830.856ZM832.712 68.232L833.16 66.952H838.424L838.872 68.232H832.712ZM842.42 71V59.8H844.02V64.664L848.5 59.8H850.484L846.34 64.248L850.58 71H848.628L845.204 65.496L844.02 66.76V71H842.42Z" fill="white"/>
</g>
<defs>
<clipPath id="clip0_73_120">
<rect width="1600" height="594" fill="white"/>
</clipPath>
<clipPath id="clip1_73_120">
<rect width="6286.9" height="5749.43" fill="white" transform="translate(-3133 -1296.83) rotate(-15)"/>
</clipPath>
</defs>
</svg>
