<svg width="42" height="42" viewBox="0 0 42 42" fill="none" xmlns="http://www.w3.org/2000/svg">
<rect width="42" height="42" rx="20" fill="#FDC500"/>
<mask id="mask0_179_3155" style="mask-type:alpha" maskUnits="userSpaceOnUse" x="9" y="9" width="24" height="24">
<rect x="9" y="9" width="24" height="24" fill="#D9D9D9"/>
</mask>
<g mask="url(#mask0_179_3155)">
<path d="M13 29C12.45 29 11.9792 28.8042 11.5875 28.4125C11.1958 28.0208 11 27.55 11 27V15C11 14.45 11.1958 13.9792 11.5875 13.5875C11.9792 13.1958 12.45 13 13 13H29C29.55 13 30.0208 13.1958 30.4125 13.5875C30.8042 13.9792 31 14.45 31 15V27C31 27.55 30.8042 28.0208 30.4125 28.4125C30.0208 28.8042 29.55 29 29 29H13ZM29 17L21.525 21.675C21.4417 21.725 21.3542 21.7625 21.2625 21.7875C21.1708 21.8125 21.0833 21.825 21 21.825C20.9167 21.825 20.8292 21.8125 20.7375 21.7875C20.6458 21.7625 20.5583 21.725 20.475 21.675L13 17V27H29V17ZM21 20L29 15H13L21 20ZM13 17.25V15.775V15.8V15.7875V17.25Z" fill="#1D1D1B"/>
</g>
</svg>
