<svg width="83" height="77" viewBox="0 0 83 77" fill="none" xmlns="http://www.w3.org/2000/svg">
<path d="M82.5377 25.3067C82.4515 27.2872 82.1989 29.2368 81.6507 31.1062C81.3734 32.0872 81.0038 33.0558 80.5356 33.9813C78.6506 37.788 76.7162 41.5638 74.751 45.3952C73.4697 47.8815 72.1822 50.3926 70.8823 52.9345C70.3464 52.0214 69.9336 51.2995 69.5209 50.5777C67.605 47.2584 65.6953 43.9453 63.7671 40.6507L63.7301 39.2748C65.0177 36.8193 66.2744 34.3576 67.5373 31.8898C67.8822 31.2173 68.2211 30.5509 68.566 29.8723C72.521 22.1293 67.642 13.3746 58.9743 12.6774L58.654 12.6527C51.0275 12.264 44.787 20.0995 47.1341 27.4353C47.8364 29.6255 48.9638 31.6923 50.0603 33.7221C54.8099 42.5201 59.5534 51.3304 64.4632 60.0358C65.5475 61.9545 65.6399 63.3859 64.5187 65.2923C62.5905 68.5561 60.9888 71.9988 59.2392 75.3612L58.6787 76.3422C58.0133 75.1329 57.4035 74.0286 56.7874 72.9304C51.6312 63.7006 46.3949 54.5139 41.3495 45.2286C39.3166 41.4898 37.5178 37.609 35.9407 33.6604C30.2732 19.4702 38.1523 4.15711 52.8078 0.665076C56.9291 -0.322071 61.0073 -0.173999 64.7651 0.868675L65.7384 1.16482C75.6381 4.37921 83.0244 13.9052 82.5377 25.3006" fill="url(#paint0_linear_50_51)"/>
<path d="M33.1624 76.41C31.5854 73.4547 30.0884 70.6784 28.6099 67.902C19.1722 50.2321 9.7284 32.5683 0.278393 14.9108C-0.0727478 14.2506 -0.10355 13.7509 0.253751 13.0784C2.48996 8.83364 4.67689 4.56423 6.94391 0.189941L7.40594 0.868605C18.2913 21.3334 29.1828 41.8043 40.0559 62.2815L40.1852 63.3612C37.9059 67.6552 35.5896 71.9308 33.1624 76.41Z" fill="url(#paint1_linear_50_51)"/>
<path d="M64.2598 26.8244L63.6684 27.9843C63.2926 28.7185 62.923 29.4465 62.541 30.1807L58.1117 37.4486C56.584 34.6599 55.0747 31.8588 53.5592 29.0578C52.9247 27.8856 52.2655 26.6887 51.8651 25.4239C50.5037 21.1791 54.1136 16.6506 58.5245 16.8789L58.7031 16.8912C63.7115 17.2923 66.5391 22.3576 64.2536 26.8306" fill="#FF6A00"/>
<defs>
<linearGradient id="paint0_linear_50_51" x1="58.3277" y1="0" x2="58.3277" y2="76.3422" gradientUnits="userSpaceOnUse">
<stop stop-color="#FF6A00"/>
<stop offset="1" stop-color="#FDC500"/>
</linearGradient>
<linearGradient id="paint1_linear_50_51" x1="20.0926" y1="0.189941" x2="20.0926" y2="76.41" gradientUnits="userSpaceOnUse">
<stop stop-color="#FF6A00"/>
<stop offset="1" stop-color="#FDC500"/>
</linearGradient>
</defs>
</svg>
