<svg width="196" height="196" viewBox="0 0 196 196" fill="none" xmlns="http://www.w3.org/2000/svg">
<circle cx="98" cy="98" r="93" stroke="#FDC500" stroke-width="10"/>
<path d="M106.581 138.351C124.135 138.351 138.365 124.121 138.365 106.568C138.365 89.0139 124.135 74.7838 106.581 74.7838C89.0272 74.7838 74.7971 89.0139 74.7971 106.568C74.7971 124.121 89.0272 138.351 106.581 138.351Z" fill="white"/>
<path d="M111.122 47.5405H102.041V74.7838H111.122V47.5405Z" fill="#F4EBB9"/>
<path d="M106.581 70.2433C99.3967 70.2433 92.3737 72.3737 86.4002 76.365C80.4267 80.3564 75.7709 86.0295 73.0216 92.6669C70.2723 99.3043 69.553 106.608 70.9546 113.654C72.3562 120.7 75.8157 127.173 80.8958 132.253C85.9758 137.333 92.4482 140.792 99.4944 142.194C106.541 143.596 113.844 142.876 120.482 140.127C127.119 137.378 132.792 132.722 136.784 126.748C140.775 120.775 142.905 113.752 142.905 106.568C142.905 96.9338 139.078 87.6946 132.266 80.8824C125.454 74.0703 116.215 70.2433 106.581 70.2433V70.2433ZM111.121 133.402V129.27H102.04V133.402C96.4717 132.456 91.3348 129.802 87.3407 125.808C83.3465 121.814 80.6927 116.677 79.7463 111.108H83.8782V102.027H79.7463C80.6927 96.4584 83.3465 91.3215 87.3407 87.3273C91.3348 83.3332 96.4717 80.6793 102.04 79.733V83.8649H111.121V79.733C116.69 80.6793 121.827 83.3332 125.821 87.3273C129.815 91.3215 132.469 96.4584 133.416 102.027H129.284V111.108H133.416C132.469 116.677 129.815 121.814 125.821 125.808C121.827 129.802 116.69 132.456 111.121 133.402Z" fill="#FDC500"/>
<path d="M115.662 111.108H102.041V92.9459H111.122V102.027H115.662V111.108Z" fill="#2C2D34"/>
<path d="M61.1756 52.0811V47.5405H52.0945V147.432H61.1756V102.027C61.1756 91.189 65.481 80.7948 73.1446 73.1312C80.8083 65.4675 91.2024 61.1621 102.04 61.1621H142.905V52.0811H61.1756ZM61.1756 73.4216V61.1621H73.435C68.6752 64.5147 64.5281 68.6618 61.1756 73.4216V73.4216Z" fill="#BCBCBC"/>
</svg>
