<svg width="110" height="110" viewBox="0 0 110 110" fill="none" xmlns="http://www.w3.org/2000/svg">
<rect x="0.5" y="0.5" width="109" height="109" rx="54.5" fill="white"/>
<rect x="0.5" y="0.5" width="109" height="109" rx="54.5" stroke="#1D1D1B"/>
<g clip-path="url(#clip0_101_188)">
<path d="M83.3731 39.8989V38.1111H79.7973V25.9932H77.8108V56.5858C77.8108 59.4994 77.1155 62.1812 75.7249 64.6313C74.3344 67.0813 72.414 69.0016 69.964 70.3922C67.5139 71.7828 64.8983 72.4781 62.1172 72.4781H42.4505V68.7036H45.2317V66.9158H42.4505V63.1414H60.1307C62.5145 63.1414 64.501 62.3136 66.0903 60.6582C67.6795 59.0028 68.4741 57.0493 68.4741 54.7979V25.9932H66.6862V38.1111H47.2182C43.9073 38.1111 40.8944 38.9057 38.1795 40.4949C35.4646 42.0841 33.3125 44.2362 31.7233 46.9511C30.134 49.6661 29.3394 52.6127 29.3394 55.7912V61.3535H25.7637V63.1414H29.3394V72.4781H25.7637V74.2659H29.3394V83.6026H31.326V55.7912C31.326 52.8776 32.0212 50.1958 33.4118 47.7457C34.8024 45.2957 36.7227 43.3754 39.1728 41.9848C41.6228 40.5942 44.3046 39.8989 47.2182 39.8989H66.6862V43.6734H65.693V45.4612H66.6862V49.2356H49.0061C46.6223 49.2356 44.6357 50.0634 43.0465 51.7188C41.4573 53.3742 40.6627 55.3277 40.6627 57.5791V83.6026H42.4505V74.2659H62.1172C65.0308 74.2659 67.8119 73.5375 70.4606 72.0807C70.4606 72.6105 70.4606 73.074 70.4606 73.4713C70.4606 75.5903 71.1228 77.4444 72.4472 79.0336L76.2216 83.404C76.354 83.5364 76.5858 83.6026 76.9169 83.6026C77.2479 83.6026 77.4797 83.5364 77.6121 83.404L81.3865 79.0336C82.7109 77.4444 83.3731 75.5903 83.3731 73.4713C83.3731 71.6172 82.744 70.0611 81.4859 68.803C80.2277 67.5448 78.7378 66.9158 77.0162 66.9158H76.4202C78.6716 63.8698 79.7973 60.4264 79.7973 56.5858V51.0235H83.3731V49.2356H79.7973V39.8989H83.3731ZM49.0061 51.0235H66.6862V54.7979C66.6862 56.652 66.0571 58.2081 64.799 59.4663C63.5409 60.7244 61.9848 61.3535 60.1307 61.3535H42.4505V57.5791C42.4505 55.725 43.0796 54.1689 44.3377 52.9107C45.5959 51.6526 47.152 51.0235 49.0061 51.0235ZM81.5852 73.4713C81.5852 75.0605 81.0555 76.4511 79.996 77.643L77.0162 81.2188L73.8377 77.643C72.7782 76.4511 72.2485 75.0605 72.2485 73.4713C72.2485 72.147 72.712 71.0213 73.6391 70.0942C74.5661 69.1672 75.6587 68.7036 76.9169 68.7036C78.175 68.7036 79.2676 69.1672 80.1946 70.0942C81.1217 71.0213 81.5852 72.147 81.5852 73.4713ZM40.2654 46.2558C39.2059 47.0505 38.2788 47.9775 37.4842 49.037L39.0734 50.0303C39.7356 49.1032 40.5302 48.3086 41.4573 47.6464L40.2654 46.2558ZM35.1004 59.9629H36.8882V63.5387H35.1004V59.9629ZM35.1004 56.3872H36.8882C36.8882 55.1952 37.0869 54.0695 37.4842 53.01L35.6963 52.4141C35.299 53.7384 35.1004 55.0628 35.1004 56.3872ZM35.1004 67.3131H36.8882V70.8888H35.1004V67.3131ZM35.1004 74.4646H36.8882V78.239H35.1004V74.4646ZM58.5414 43.6734H62.1172V45.4612H58.5414V43.6734ZM51.1913 43.6734H54.767V45.4612H51.1913V43.6734ZM47.4169 43.6734C46.2249 43.6734 44.9668 43.9382 43.6425 44.468L44.2384 46.0572C45.2979 45.7923 46.4236 45.5937 47.6155 45.4612L47.4169 43.6734ZM35.1004 81.8148H36.8882V83.6026H35.1004V81.8148ZM73.0431 60.9562L71.2552 60.1616C70.8579 61.221 70.262 62.2143 69.4674 63.1414L70.8579 64.3333C71.785 63.4062 72.5134 62.2805 73.0431 60.9562ZM74.0364 55.7912V53.4074H72.2485V56.9831L74.0364 57.1818V55.7912ZM72.2485 30.9595H74.0364V34.734H72.2485V30.9595ZM72.2485 45.8585H74.0364V49.6329H72.2485V45.8585ZM72.2485 38.5084H74.0364V42.0841H72.2485V38.5084ZM72.2485 25.9932H74.0364V27.1851H72.2485V25.9932ZM56.3563 66.9158H60.1307V68.7036H56.3563V66.9158ZM64.1037 68.505C65.4281 68.1077 66.62 67.5779 67.6795 66.9158L66.8849 65.3265C65.8254 65.8563 64.7659 66.2536 63.7064 66.5185L64.1037 68.505ZM49.0061 66.9158H52.7805V68.7036H49.0061V66.9158ZM31.5246 42.2828C31.657 42.5476 31.8888 42.6801 32.2199 42.6801C32.551 42.6801 32.7827 42.5476 32.9152 42.2828L36.6896 37.9124C38.0139 36.3232 38.6761 34.4691 38.6761 32.3501C38.6761 30.6285 38.0471 29.1386 36.7889 27.8804C35.5308 26.6223 34.0078 25.9932 32.2199 25.9932C30.432 25.9932 28.909 26.6223 27.6509 27.8804C26.3927 29.1386 25.7637 30.6285 25.7637 32.3501C25.7637 34.4691 26.4258 36.3232 27.7502 37.9124L31.5246 42.2828ZM32.3192 27.7811C33.5111 27.7811 34.5706 28.2446 35.4977 29.1717C36.4247 30.0987 36.8882 31.2244 36.8882 32.5488C36.8882 34.138 36.3585 35.5286 35.299 36.7205L32.3192 40.2962L29.1408 36.7205C28.0813 35.5286 27.5516 34.138 27.5516 32.5488C27.5516 31.2244 28.0151 30.0987 28.9421 29.1717C29.8692 28.2446 30.9949 27.7811 32.3192 27.7811ZM32.3192 35.3299C32.9814 35.3299 33.6105 35.0319 34.2064 34.436C34.8024 33.84 35.1004 33.1778 35.1004 32.4494C35.1004 31.7211 34.8024 31.0589 34.2064 30.4629C33.6105 29.867 32.9483 29.569 32.2199 29.569C31.4915 29.569 30.8293 29.867 30.2334 30.4629C29.6374 31.0589 29.3394 31.7211 29.3394 32.4494C29.3394 33.1778 29.6374 33.84 30.2334 34.436C30.8293 35.0319 31.5246 35.3299 32.3192 35.3299ZM32.3192 31.5555C32.4517 31.5555 32.6172 31.6548 32.8159 31.8535C33.0145 32.0521 33.1138 32.2508 33.1138 32.4494C33.1138 32.6481 33.0145 32.8468 32.8159 33.0454C32.6172 33.2441 32.4186 33.3434 32.2199 33.3434C32.0212 33.3434 31.8226 33.2441 31.6239 33.0454C31.4253 32.8468 31.326 32.6481 31.326 32.4494C31.326 32.2508 31.4253 32.0521 31.6239 31.8535C31.8226 31.6548 31.9881 31.5555 32.1206 31.5555H32.3192ZM77.0162 76.2525C77.6784 76.2525 78.3074 75.9876 78.9034 75.4579C79.4993 74.9281 79.7973 74.2659 79.7973 73.4713C79.7973 72.6767 79.4993 72.0145 78.9034 71.4848C78.3074 70.955 77.6452 70.6902 76.9169 70.6902C76.1885 70.6902 75.5263 70.955 74.9303 71.4848C74.3344 72.0145 74.0364 72.6767 74.0364 73.4713C74.0364 74.2659 74.3344 74.9281 74.9303 75.4579C75.5263 75.9876 76.1553 76.2525 76.8175 76.2525H77.0162ZM77.0162 72.4781C77.1486 72.4781 77.3142 72.5774 77.5128 72.776C77.7115 72.9747 77.8108 73.2065 77.8108 73.4713C77.8108 73.7362 77.7115 73.9348 77.5128 74.0673C77.3142 74.1997 77.1155 74.2659 76.9169 74.2659C76.7182 74.2659 76.5195 74.1997 76.3209 74.0673C76.1222 73.9348 76.0229 73.7362 76.0229 73.4713C76.0229 73.2065 76.1222 72.9747 76.3209 72.776C76.5195 72.5774 76.6851 72.4781 76.8175 72.4781H77.0162Z" fill="#1D1D1B"/>
</g>
<defs>
<clipPath id="clip0_101_188">
<rect width="59.5959" height="59.5959" fill="white" transform="matrix(1 0 0 -1 24.7705 84.5961)"/>
</clipPath>
</defs>
</svg>
