<svg width="196" height="196" viewBox="0 0 196 196" fill="none" xmlns="http://www.w3.org/2000/svg">
<circle cx="98" cy="98" r="93" stroke="#FDC500" stroke-width="10"/>
<mask id="mask0_114_124" style="mask-type:alpha" maskUnits="userSpaceOnUse" x="40" y="42" width="115" height="116">
<rect x="40" y="42.4866" width="115" height="115" fill="#D9D9D9"/>
</mask>
<g mask="url(#mask0_114_124)">
<path d="M107.083 104.778C103.09 104.778 99.696 103.381 96.9009 100.585C94.1057 97.7904 92.7082 94.3963 92.7082 90.4032C92.7082 86.4101 94.1057 83.016 96.9009 80.2209C99.696 77.4258 103.09 76.0282 107.083 76.0282C111.076 76.0282 114.47 77.4258 117.265 80.2209C120.061 83.016 121.458 86.4101 121.458 90.4032C121.458 94.3963 120.061 97.7904 117.265 100.585C114.47 103.381 111.076 104.778 107.083 104.778ZM63.9582 119.153V61.6532H150.208V119.153H63.9582ZM83.1248 109.57H131.042C131.042 106.934 131.98 104.678 133.857 102.802C135.733 100.925 137.989 99.9865 140.625 99.9865V80.8199C137.989 80.8199 135.733 79.8815 133.857 78.0048C131.98 76.128 131.042 73.8719 131.042 71.2365H83.1248C83.1248 73.8719 82.1865 76.128 80.3097 78.0048C78.433 79.8815 76.1769 80.8199 73.5415 80.8199V99.9865C76.1769 99.9865 78.433 100.925 80.3097 102.802C82.1865 104.678 83.1248 106.934 83.1248 109.57ZM44.7915 138.32V76.0282H54.3748V128.737H135.833V138.32H44.7915Z" fill="white"/>
<path d="M44.7915 76.0282V138.32H135.833V128.737H54.3748V76.0282H44.7915Z" fill="#BCBCBC"/>
<path d="M96.9012 100.585C99.6963 103.381 103.09 104.778 107.083 104.778C111.077 104.778 114.471 103.381 117.266 100.585C120.061 97.7902 121.458 94.3961 121.458 90.4031C121.458 86.41 120.061 83.0159 117.266 80.2208C114.471 77.4256 111.077 76.0281 107.083 76.0281C103.09 76.0281 99.6963 77.4256 96.9012 80.2208C94.1061 83.0159 92.7085 86.41 92.7085 90.4031C92.7085 94.3961 94.1061 97.7902 96.9012 100.585Z" fill="#FDC500"/>
</g>
</svg>
