<svg width="111" height="111" viewBox="0 0 111 111" fill="none" xmlns="http://www.w3.org/2000/svg">
<rect x="0.839844" y="0.889648" width="109" height="109" rx="54.5" fill="white"/>
<rect x="0.839844" y="0.889648" width="109" height="109" rx="54.5" stroke="#1D1D1B"/>
<path d="M78.731 78.5897H76.9314C76.1315 78.5897 75.4649 78.2897 74.9317 77.6897C74.3984 77.0897 74.1318 76.4563 74.1318 75.7897V71.9897C74.1318 71.723 74.1985 71.4897 74.3318 71.2897C74.4651 71.0897 74.6651 70.9897 74.9317 70.9897C75.1983 70.9897 75.4316 71.0897 75.6316 71.2897C75.8315 71.4897 75.9315 71.723 75.9315 71.9897V75.7897C75.9315 76.0563 76.0315 76.2563 76.2315 76.3897C76.4314 76.523 76.6647 76.5897 76.9314 76.5897H78.731C78.9977 76.5897 79.231 76.523 79.4309 76.3897C79.6309 76.2563 79.7309 76.0563 79.7309 75.7897V71.9897C79.7309 71.723 79.8309 71.4897 80.0308 71.2897C80.2308 71.0897 80.4641 70.9897 80.7307 70.9897C80.9973 70.9897 81.1973 71.0897 81.3306 71.2897C81.4639 71.4897 81.5306 71.723 81.5306 71.9897V75.7897C81.5306 76.4563 81.264 77.0897 80.7307 77.6897C80.1975 78.2897 79.5309 78.5897 78.731 78.5897ZM82.5304 78.5897H56.3348C56.0682 78.5897 55.8349 78.4897 55.6349 78.2897C55.4349 78.0897 55.3349 77.8563 55.3349 77.5897C55.3349 77.323 55.4349 77.0897 55.6349 76.8897C55.8349 76.6897 56.0682 76.5897 56.3348 76.5897H82.5304C82.797 76.5897 83.0303 76.6897 83.2303 76.8897C83.4303 77.0897 83.5303 77.323 83.5303 77.5897C83.5303 77.8563 83.4303 78.0897 83.2303 78.2897C83.0303 78.4897 82.797 78.5897 82.5304 78.5897ZM82.5304 72.7897H56.3348C56.0682 72.7897 55.8349 72.723 55.6349 72.5897C55.4349 72.4563 55.3349 72.2563 55.3349 71.9897C55.3349 71.723 55.4349 71.4897 55.6349 71.2897C55.8349 71.0897 56.0682 70.9897 56.3348 70.9897H82.5304C82.797 70.9897 83.0303 71.0897 83.2303 71.2897C83.4303 71.4897 83.5303 71.723 83.5303 71.9897C83.5303 72.2563 83.4303 72.4897 83.2303 72.6897C83.0303 72.8897 82.797 72.9897 82.5304 72.9897V72.7897ZM82.5304 67.5897C82.2638 67.5897 82.0305 67.4897 81.8305 67.2897C81.6306 67.0897 81.5306 66.8563 81.5306 66.5897V64.3897C81.5306 63.323 81.0973 62.4563 80.2308 61.7897C79.3643 61.123 77.7312 60.623 75.3316 60.2897C72.932 59.9563 69.3993 59.7897 64.7334 59.7897C64.4668 59.7897 64.2335 59.6897 64.0335 59.4897C63.8335 59.2897 63.7335 59.0563 63.7335 58.7897C63.7335 58.523 63.8335 58.323 64.0335 58.1897C64.2335 58.0563 64.4668 57.9897 64.7334 57.9897C69.3993 57.9897 72.932 58.123 75.3316 58.3897C78.1311 58.7897 80.1975 59.4563 81.5306 60.3897C82.8637 61.323 83.5303 62.6563 83.5303 64.3897V66.5897C83.5303 66.8563 83.4303 67.0897 83.2303 67.2897C83.0303 67.4897 82.797 67.5897 82.5304 67.5897ZM82.5304 69.1897H74.9317C74.6651 69.1897 74.4651 69.0897 74.3318 68.8897C74.1985 68.6897 74.1318 68.4563 74.1318 68.1897V66.3897C74.1318 65.5897 74.3984 64.923 74.9317 64.3897C75.4649 63.8563 76.1315 63.5897 76.9314 63.5897H82.5304C82.797 63.5897 83.0303 63.6563 83.2303 63.7897C83.4303 63.923 83.5303 64.123 83.5303 64.3897V68.1897C83.5303 68.4563 83.4303 68.6897 83.2303 68.8897C83.0303 69.0897 82.797 69.1897 82.5304 69.1897ZM75.9315 67.1897H81.5306V65.3897H76.9314C76.6647 65.3897 76.4314 65.4897 76.2315 65.6897C76.0315 65.8897 75.9315 66.123 75.9315 66.3897V67.1897ZM71.3323 69.1897C71.0657 69.1897 70.8324 69.0897 70.6324 68.8897C70.4324 68.6897 70.3325 68.4563 70.3325 68.1897C70.3325 67.3897 70.0658 66.723 69.5326 66.1897C68.9993 65.6563 68.3328 65.3897 67.5329 65.3897H60.934C60.6674 65.3897 60.4341 65.2897 60.2341 65.0897C60.0342 64.8897 59.9342 64.6563 59.9342 64.3897C59.9342 64.123 60.0342 63.923 60.2341 63.7897C60.4341 63.6563 60.6674 63.5897 60.934 63.5897H67.5329C68.866 63.5897 69.9658 64.023 70.8324 64.8897C71.6989 65.7563 72.1321 66.8563 72.1321 68.1897C72.1321 68.4563 72.0655 68.6897 71.9322 68.8897C71.7989 69.0897 71.5989 69.1897 71.3323 69.1897ZM78.931 60.9897C78.3978 60.9897 78.0645 60.7897 77.9312 60.3897L74.7317 50.5897C74.5984 50.323 74.3651 50.023 74.0318 49.6897C73.6986 49.3563 73.3986 49.1897 73.132 49.1897C70.7324 48.923 68.1995 48.723 65.5332 48.5897C65.2666 48.5897 65.0667 48.4897 64.9333 48.2897C64.8 48.0897 64.7334 47.8563 64.7334 47.5897C64.7334 47.323 64.8334 47.123 65.0333 46.9897C65.2333 46.8563 65.4666 46.7897 65.7332 46.7897C68.3994 46.7897 70.9324 46.9897 73.3319 47.3897C73.9985 47.3897 74.6317 47.6563 75.2316 48.1897C75.8315 48.723 76.2648 49.323 76.5314 49.9897L79.7309 59.7897C79.8642 60.0563 79.8642 60.323 79.7309 60.5897C79.5976 60.8563 79.3976 60.9897 79.131 60.9897H78.931ZM61.7339 35.3897C61.4673 35.3897 61.234 35.323 61.034 35.1897C60.834 35.0563 60.734 34.8563 60.734 34.5897C60.734 34.323 60.8007 34.123 60.934 33.9897L63.3336 30.9897C63.7335 30.5897 63.9002 30.123 63.8335 29.5897C63.7669 29.0563 63.5336 28.623 63.1336 28.2897C62.7337 27.9563 62.3005 27.823 61.8339 27.8897C61.3673 27.9563 60.934 28.1897 60.5341 28.5897L58.9343 30.5897C58.6677 30.723 58.4011 30.823 58.1345 30.8897C57.8679 30.9563 57.6679 30.8897 57.5346 30.6897C57.4013 30.4897 57.3013 30.2563 57.2346 29.9897C57.168 29.723 57.2013 29.523 57.3346 29.3897L59.1343 27.3897C59.8009 26.5897 60.6341 26.1563 61.6339 26.0897C62.6337 26.023 63.5336 26.323 64.3335 26.9897C65.1333 27.6563 65.5666 28.4897 65.6332 29.4897C65.6999 30.4897 65.3999 31.3897 64.7334 32.1897L62.3338 35.1897C62.2005 35.323 62.0005 35.3897 61.7339 35.3897ZM54.3351 67.1897H44.9367C44.6701 67.1897 44.4701 67.123 44.3368 66.9897C44.2035 66.8563 44.1368 66.6563 44.1368 66.3897C44.1368 66.123 44.2035 65.8897 44.3368 65.6897C44.4701 65.4897 44.6701 65.3897 44.9367 65.3897H54.3351C55.135 65.3897 55.8015 65.123 56.3348 64.5897C56.868 64.0563 57.1346 63.3897 57.1346 62.5897V60.1897C57.1346 59.923 57.2346 59.723 57.4346 59.5897C57.6346 59.4563 57.8679 59.3897 58.1345 59.3897C58.4011 59.3897 58.6344 59.4563 58.8344 59.5897C59.0343 59.723 59.1343 59.923 59.1343 60.1897V62.5897C59.1343 63.923 58.6677 65.023 57.7345 65.8897C56.8014 66.7563 55.6682 67.1897 54.3351 67.1897ZM33.7385 49.3897C33.4719 49.3897 33.272 49.323 33.1386 49.1897C33.0053 49.0563 32.872 48.8563 32.7387 48.5897V26.9897C32.872 25.6563 33.3719 24.523 34.2385 23.5897C35.105 22.6563 36.2048 22.1897 37.5379 22.1897H54.3351C55.6682 22.1897 56.8014 22.6563 57.7345 23.5897C58.6677 24.523 59.1343 25.6563 59.1343 26.9897V39.1897C59.1343 39.4563 59.0343 39.6563 58.8344 39.7897C58.6344 39.923 58.4011 39.9897 58.1345 39.9897C57.8679 39.9897 57.6346 39.923 57.4346 39.7897C57.2346 39.6563 57.1346 39.4563 57.1346 39.1897V26.9897C57.1346 26.1897 56.868 25.523 56.3348 24.9897C55.8015 24.4563 55.135 24.1897 54.3351 24.1897H37.5379C36.738 24.1897 36.0715 24.4563 35.5382 24.9897C35.005 25.523 34.7384 26.1897 34.7384 26.9897V48.5897C34.7384 48.8563 34.6384 49.0563 34.4384 49.1897C34.2385 49.323 34.0052 49.3897 33.7385 49.3897ZM46.9363 78.5897C46.6697 78.5897 46.4364 78.4897 46.2365 78.2897C46.0365 78.0897 45.9365 77.8563 45.9365 77.5897V73.7897C45.9365 73.523 46.0032 73.2897 46.1365 73.0897C46.2698 72.8897 46.4698 72.7897 46.7364 72.7897C49.136 72.523 51.069 71.4563 52.5354 69.5897C52.6687 69.323 52.8687 69.1897 53.1353 69.1897C53.4019 69.1897 53.6352 69.2563 53.8352 69.3897C54.0352 69.523 54.1685 69.723 54.2351 69.9897C54.3018 70.2563 54.2018 70.4563 53.9352 70.5897C52.3354 72.723 50.3358 74.0563 47.9362 74.5897V77.5897C47.9362 77.8563 47.8362 78.0897 47.6362 78.2897C47.4363 78.4897 47.203 78.5897 46.9363 78.5897ZM58.7344 45.9897C57.8012 45.9897 56.968 45.6563 56.2348 44.9897C55.5016 44.323 55.1017 43.4897 55.035 42.4897C54.9683 41.4897 55.2683 40.5897 55.9348 39.7897L56.1348 39.3897C56.8014 38.5897 57.6679 38.1563 58.7344 38.0897C59.8009 38.023 60.734 38.323 61.5339 38.9897C62.3338 39.6563 62.767 40.4897 62.8337 41.4897C62.9004 42.4897 62.6004 43.3897 61.9338 44.1897L61.5339 44.5897C60.8674 45.523 59.9342 45.9897 58.7344 45.9897ZM59.1343 39.9897C59.001 39.9897 58.9343 39.9897 58.9343 39.9897C58.4011 39.9897 58.0012 40.1897 57.7345 40.5897L57.3346 40.9897C56.9347 41.3897 56.768 41.8563 56.8347 42.3897C56.9014 42.923 57.1346 43.323 57.5346 43.5897C57.9345 43.8563 58.4011 43.9897 58.9343 43.9897C59.4676 43.9897 59.8675 43.7897 60.1341 43.3897L60.5341 42.9897C60.8007 42.5897 60.934 42.123 60.934 41.5897C60.934 41.0563 60.734 40.6563 60.3341 40.3897C59.9342 40.123 59.5342 39.9897 59.1343 39.9897ZM58.3344 53.3897C57.4013 53.3897 56.5681 53.0897 55.8349 52.4897C55.1017 51.8897 54.6684 51.0563 54.5351 49.9897C54.4018 48.923 54.6684 47.9897 55.3349 47.1897L56.9347 45.5897C57.6012 44.7897 58.4344 44.3563 59.4343 44.2897C60.4341 44.223 61.334 44.523 62.1338 45.1897C62.9337 45.8563 63.3669 46.723 63.4336 47.7897C63.5003 48.8563 63.2003 49.7897 62.5337 50.5897L61.134 52.1897C60.3341 52.9897 59.4009 53.3897 58.3344 53.3897ZM59.7342 46.1897C59.6009 46.1897 59.5342 46.1897 59.5342 46.1897C59.001 46.1897 58.6011 46.3897 58.3344 46.7897L56.9347 48.5897C56.5347 48.9897 56.3681 49.423 56.4348 49.8897C56.5014 50.3563 56.7347 50.7563 57.1346 51.0897C57.5346 51.423 57.9678 51.5897 58.4344 51.5897C58.901 51.5897 59.3343 51.3897 59.7342 50.9897L61.134 49.1897C61.4006 48.923 61.5339 48.523 61.5339 47.9897C61.5339 47.4563 61.334 46.9897 60.934 46.5897C60.5341 46.323 60.1341 46.1897 59.7342 46.1897ZM58.1345 61.1897C57.2013 61.1897 56.3681 60.8563 55.6349 60.1897C54.9017 59.523 54.5018 58.6897 54.4351 57.6897C54.3684 56.6897 54.6684 55.7897 55.3349 54.9897L56.7347 53.3897C57.4013 52.5897 58.2678 52.1563 59.3343 52.0897C60.4008 52.023 61.334 52.323 62.1338 52.9897C62.9337 53.6563 63.3669 54.4897 63.4336 55.4897C63.5003 56.4897 63.2003 57.3897 62.5337 58.1897L60.934 59.7897C60.2675 60.723 59.3343 61.1897 58.1345 61.1897ZM59.5342 53.9897C59.001 53.9897 58.5344 54.1897 58.1345 54.5897L56.7347 56.1897C56.4681 56.5897 56.3348 57.0563 56.3348 57.5897C56.3348 58.123 56.5347 58.5563 56.9347 58.8897C57.3346 59.223 57.8012 59.3563 58.3344 59.2897C58.8677 59.223 59.2676 58.9897 59.5342 58.5897L61.134 56.9897C61.4006 56.5897 61.5006 56.123 61.4339 55.5897C61.3673 55.0563 61.1673 54.6563 60.834 54.3897C60.5008 54.123 60.0675 53.9897 59.5342 53.9897ZM28.1395 78.5897C27.8729 78.5897 27.6396 78.4897 27.4396 78.2897C27.2396 78.0897 27.1396 77.8563 27.1396 77.5897V38.1897C27.1396 37.923 27.2396 37.723 27.4396 37.5897C27.6396 37.4563 27.8729 37.3897 28.1395 37.3897H28.3394C30.3391 37.2563 31.9055 37.6897 33.0387 38.6897C34.1718 39.6897 34.7384 41.4563 34.7384 43.9897V52.3897C36.2048 53.4563 37.5379 54.8563 38.7377 56.5897C40.7374 59.523 41.8705 62.723 42.1371 66.1897C42.1371 66.4563 42.0705 66.6897 41.9372 66.8897C41.8039 67.0897 41.6039 67.223 41.3373 67.2897C41.0707 67.3563 40.8374 67.2897 40.6374 67.0897C40.4374 66.8897 40.3374 66.6563 40.3374 66.3897C39.9375 62.7897 38.6711 59.5897 36.5381 56.7897C35.3383 55.323 34.2718 54.2563 33.3386 53.5897C33.072 53.4563 32.872 53.1897 32.7387 52.7897V43.9897C32.872 42.123 32.4721 40.7897 31.5389 39.9897C31.0057 39.4563 30.2058 39.1897 29.1393 39.1897V77.5897C29.1393 77.8563 29.0393 78.0897 28.8394 78.2897C28.6394 78.4897 28.4061 78.5897 28.1395 78.5897ZM45.9365 52.1897C45.6699 52.1897 45.4699 52.123 45.3366 51.9897C44.1368 50.6563 42.937 49.123 41.7372 47.3897C39.6042 44.0563 38.5377 41.1897 38.5377 38.7897C38.5377 36.7897 39.271 35.0897 40.7374 33.6897C42.2038 32.2897 43.9368 31.5897 45.9365 31.5897C47.9362 31.5897 49.6692 32.2897 51.1356 33.6897C52.6021 35.0897 53.3353 36.7897 53.3353 38.7897C53.3353 41.1897 52.2688 44.0563 50.1358 47.3897C49.0693 49.123 47.9362 50.6563 46.7364 51.9897C46.4698 52.123 46.2031 52.1897 45.9365 52.1897ZM45.9365 33.5897C44.4701 33.5897 43.1703 34.0897 42.0372 35.0897C40.904 36.0897 40.3374 37.3897 40.3374 38.9897C40.3374 40.5897 41.0707 42.5897 42.5371 44.9897C43.4703 46.5897 44.6034 48.1897 45.9365 49.7897C47.2696 48.1897 48.4028 46.5897 49.3359 44.9897C50.8024 42.5897 51.5356 40.5897 51.5356 38.9897C51.5356 37.3897 51.0023 36.0897 49.9358 35.0897C48.8694 34.0897 47.5362 33.5897 45.9365 33.5897ZM45.9365 41.7897C45.1366 41.7897 44.4701 41.523 43.9368 40.9897C43.4036 40.4563 43.137 39.7897 43.137 38.9897C43.137 38.1897 43.4036 37.523 43.9368 36.9897C44.4701 36.4563 45.1366 36.1897 45.9365 36.1897C46.7364 36.1897 47.4029 36.4563 47.9362 36.9897C48.4694 37.523 48.736 38.1897 48.736 38.9897C48.736 39.7897 48.4694 40.4563 47.9362 40.9897C47.4029 41.523 46.7364 41.7897 45.9365 41.7897ZM45.9365 38.1897C45.6699 38.1897 45.4366 38.2563 45.2366 38.3897C45.0367 38.523 44.9367 38.723 44.9367 38.9897C44.9367 39.2563 45.0367 39.4897 45.2366 39.6897C45.4366 39.8897 45.6699 39.9897 45.9365 39.9897C46.2031 39.9897 46.4364 39.8897 46.6364 39.6897C46.8364 39.4897 46.9363 39.2563 46.9363 38.9897C46.9363 38.723 46.8364 38.523 46.6364 38.3897C46.4364 38.2563 46.2031 38.1897 45.9365 38.1897ZM69.3326 44.7897H64.7334C64.4668 44.7897 64.2335 44.6897 64.0335 44.4897C63.8335 44.2897 63.7335 44.0563 63.7335 43.7897C63.7335 43.523 63.8335 43.323 64.0335 43.1897C64.2335 43.0563 64.4668 42.9897 64.7334 42.9897H69.3326C69.5992 42.9897 69.8325 43.0563 70.0325 43.1897C70.2325 43.323 70.3325 43.523 70.3325 43.7897C70.3325 44.0563 70.2325 44.2897 70.0325 44.4897C69.8325 44.6897 69.5992 44.7897 69.3326 44.7897ZM48.736 27.7897H43.137C42.8704 27.7897 42.6371 27.723 42.4371 27.5897C42.2371 27.4563 42.1371 27.2563 42.1371 26.9897C42.1371 26.723 42.2371 26.4897 42.4371 26.2897C42.6371 26.0897 42.8704 25.9897 43.137 25.9897H48.736C49.0027 25.9897 49.236 26.0897 49.4359 26.2897C49.6359 26.4897 49.7359 26.723 49.7359 26.9897C49.7359 27.2563 49.6359 27.4563 49.4359 27.5897C49.236 27.723 49.0027 27.7897 48.736 27.7897ZM46.9363 63.5897H44.9367C44.6701 63.5897 44.4701 63.4897 44.3368 63.2897C44.2035 63.0897 44.1368 62.8563 44.1368 62.5897C44.1368 62.323 44.2035 62.0897 44.3368 61.8897C44.4701 61.6897 44.6701 61.5897 44.9367 61.5897H46.9363C47.203 61.5897 47.4029 61.6897 47.5362 61.8897C47.6696 62.0897 47.7695 62.323 47.8362 62.5897C47.9029 62.8563 47.8362 63.0897 47.6362 63.2897C47.4363 63.4897 47.203 63.5897 46.9363 63.5897Z" fill="#1D1D1B"/>
</svg>
