<svg width="196" height="196" viewBox="0 0 196 196" fill="none" xmlns="http://www.w3.org/2000/svg">
<circle cx="98" cy="98" r="93" stroke="#FDC500" stroke-width="10"/>
<path d="M129.284 49.0811H65.7163V139.892H129.284V49.0811Z" fill="#2C2D34"/>
<path d="M133.824 144.432H61.1758V44.5405H133.824V144.432ZM70.2569 135.351H124.743V53.6216H70.2569V135.351Z" fill="white"/>
<path d="M88.419 62.7027H106.581L111.122 53.6216H83.8784L88.419 62.7027Z" fill="#BCBCBC"/>
<path d="M97.5001 76.3243C92.6831 76.3243 88.0635 78.2378 84.6575 81.6439C81.2514 85.05 79.3379 89.6696 79.3379 94.4865C79.3379 112.649 97.5001 121.73 97.5001 121.73C97.5001 121.73 115.662 112.649 115.662 94.4865C115.662 89.6696 113.749 85.05 110.343 81.6439C106.937 78.2378 102.317 76.3243 97.5001 76.3243V76.3243ZM97.5001 103.568C95.704 103.568 93.9483 103.035 92.4549 102.037C90.9615 101.039 89.7976 99.621 89.1102 97.9617C88.4229 96.3023 88.2431 94.4764 88.5935 92.7149C88.9439 90.9533 89.8087 89.3352 91.0788 88.0652C92.3488 86.7952 93.9669 85.9303 95.7284 85.5799C97.49 85.2295 99.3159 85.4094 100.975 86.0967C102.635 86.784 104.053 87.9479 105.051 89.4413C106.049 90.9347 106.581 92.6904 106.581 94.4865C106.581 96.895 105.624 99.2048 103.921 100.908C102.218 102.611 99.9085 103.568 97.5001 103.568Z" fill="#FDC500"/>
</svg>
