<svg width="110" height="111" viewBox="0 0 110 111" fill="none" xmlns="http://www.w3.org/2000/svg">
<rect x="0.5" y="0.889648" width="109" height="109" rx="54.5" fill="white"/>
<rect x="0.5" y="0.889648" width="109" height="109" rx="54.5" stroke="#1D1D1B"/>
<path d="M69.99 69.9896C69.19 69.9896 68.5233 70.2896 67.99 70.8896C67.4567 71.4896 67.19 72.1563 67.19 72.8896C67.19 73.623 67.4567 74.2896 67.99 74.8896C68.5233 75.4896 69.19 75.7896 69.99 75.7896C70.79 75.7896 71.4567 75.4896 71.99 74.8896C72.5233 74.2896 72.79 73.623 72.79 72.8896C72.79 72.1563 72.5233 71.4896 71.99 70.8896C71.4567 70.2896 70.79 69.9896 69.99 69.9896ZM69.99 73.7896C69.7233 73.7896 69.49 73.6896 69.29 73.4896C69.09 73.2896 68.99 73.0896 68.99 72.8896C68.99 72.6896 69.09 72.4896 69.29 72.2896C69.49 72.0896 69.7233 71.9896 69.99 71.9896C70.2567 71.9896 70.49 72.0896 70.69 72.2896C70.89 72.4896 70.99 72.6896 70.99 72.8896C70.99 73.0896 70.89 73.2896 70.69 73.4896C70.49 73.6896 70.2567 73.7896 69.99 73.7896ZM38.19 69.9896C37.39 69.9896 36.7233 70.2896 36.19 70.8896C35.6567 71.4896 35.39 72.1563 35.39 72.8896C35.39 73.623 35.6567 74.2896 36.19 74.8896C36.7233 75.4896 37.3567 75.7896 38.09 75.7896C38.8233 75.7896 39.49 75.4896 40.09 74.8896C40.69 74.2896 40.99 73.623 40.99 72.8896C40.99 72.1563 40.69 71.4896 40.09 70.8896C39.49 70.2896 38.8567 69.9896 38.19 69.9896ZM38.19 73.7896C37.9233 73.7896 37.69 73.6896 37.49 73.4896C37.29 73.2896 37.19 73.0896 37.19 72.8896C37.19 72.6896 37.29 72.4896 37.49 72.2896C37.69 72.0896 37.9233 71.9896 38.19 71.9896C38.4567 71.9896 38.6567 72.0896 38.79 72.2896C38.9233 72.4896 38.99 72.6896 38.99 72.8896C38.99 73.0896 38.9233 73.2896 38.79 73.4896C38.6567 73.6896 38.4567 73.7896 38.19 73.7896ZM45.59 64.3896H47.59V66.3896H45.59V64.3896ZM47.59 62.5896H49.39V64.3896H47.59V62.5896ZM49.39 64.3896H51.19V66.3896H49.39V64.3896ZM51.19 62.5896H53.19V64.3896H51.19V62.5896ZM53.19 64.3896H54.99V66.3896H53.19V64.3896ZM54.99 62.5896H56.79V64.3896H54.99V62.5896ZM56.79 64.3896H58.79V66.3896H56.79V64.3896ZM58.79 62.5896H60.59V64.3896H58.79V62.5896ZM60.59 64.3896H62.59V66.3896H60.59V64.3896ZM55.99 29.7896H57.79V35.3896H59.59V29.7896H61.59V27.7896H55.99V29.7896ZM66.19 27.7896C65.39 27.7896 64.7233 28.0896 64.19 28.6896C63.6567 29.2896 63.39 29.9896 63.39 30.7896V35.3896H65.39V33.5896H67.19V35.3896H68.99V30.7896C68.99 29.9896 68.7233 29.323 68.19 28.7896C67.6567 28.2563 66.99 27.9896 66.19 27.9896V27.7896ZM65.39 31.5896V30.7896C65.39 30.523 65.4567 30.2896 65.59 30.0896C65.7233 29.8896 65.9233 29.7896 66.19 29.7896C66.4567 29.7896 66.69 29.8896 66.89 30.0896C67.09 30.2896 67.19 30.523 67.19 30.7896V31.5896H65.39ZM74.59 27.7896C74.59 28.723 74.3233 29.523 73.79 30.1896C73.1233 29.523 72.79 28.7896 72.79 27.9896H70.99C70.99 29.323 71.4567 30.523 72.39 31.5896C71.4567 32.6563 70.99 33.923 70.99 35.3896H72.79C72.79 34.4563 73.1233 33.6563 73.79 32.9896C74.3233 33.6563 74.59 34.4563 74.59 35.3896H76.59C76.59 33.923 76.0567 32.6563 74.99 31.5896C76.0567 30.523 76.59 29.2563 76.59 27.7896H74.59ZM78.39 27.7896H80.39V35.3896H78.39V27.7896ZM71.79 45.7896C72.0567 45.7896 72.29 45.6896 72.49 45.4896C72.69 45.2896 72.79 45.0563 72.79 44.7896V41.9896H83.19C83.4567 41.9896 83.6567 41.8896 83.79 41.6896C83.9233 41.4896 83.99 41.2563 83.99 40.9896V22.1896C83.99 21.923 83.9233 21.723 83.79 21.5896C83.6567 21.4563 83.4567 21.3896 83.19 21.3896H53.19C52.9233 21.3896 52.69 21.4563 52.49 21.5896C52.29 21.723 52.19 21.923 52.19 22.1896V40.9896C52.19 41.2563 52.29 41.4896 52.49 41.6896C52.69 41.8896 52.9233 41.9896 53.19 41.9896H63.39V44.7896C63.39 45.0563 63.49 45.2896 63.69 45.4896C63.89 45.6896 64.1233 45.7896 64.39 45.7896H65.39V50.7896L65.19 50.5896C63.59 49.123 61.79 48.1896 59.79 47.7896V44.7896C59.79 44.523 59.69 44.2896 59.49 44.0896C59.29 43.8896 59.0567 43.7896 58.79 43.7896H43.79C43.5233 43.7896 43.29 43.8896 43.09 44.0896C42.89 44.2896 42.79 44.523 42.79 44.7896V47.9896C39.99 48.6563 37.79 50.1896 36.19 52.5896L31.99 58.7896H30.59C29.2567 58.7896 28.1567 59.2563 27.29 60.1896C26.4233 61.123 25.99 62.2563 25.99 63.5896V70.9896C25.99 71.7896 26.2567 72.4563 26.79 72.9896C27.3233 73.523 27.99 73.7896 28.79 73.7896H31.59C31.8567 75.3896 32.59 76.723 33.79 77.7896C34.99 78.8563 36.4233 79.3896 38.09 79.3896C39.7567 79.3896 41.19 78.8563 42.39 77.7896C43.59 76.723 44.3233 75.3896 44.59 73.7896H63.59C63.7233 75.3896 64.4233 76.723 65.69 77.7896C66.9567 78.8563 68.39 79.3896 69.99 79.3896C71.59 79.3896 73.0233 78.8563 74.29 77.7896C75.5567 76.723 76.2567 75.3896 76.39 73.7896H81.19C81.99 73.7896 82.6567 73.523 83.19 72.9896C83.7233 72.4563 83.99 71.7896 83.99 70.9896V63.5896C83.99 62.2563 83.5567 61.123 82.69 60.1896C81.8233 59.2563 80.7233 58.7896 79.39 58.7896H74.19L70.99 55.9896V45.7896H71.79ZM53.99 23.1896H82.19V39.9896H53.99V23.1896ZM70.99 41.9896V43.7896H65.39V41.9896H70.99ZM44.59 45.7896H57.79V47.5896H44.59V45.7896ZM49.39 58.7896V49.3896H51.19V58.7896H49.39ZM37.79 53.5896C38.59 52.2563 39.69 51.223 41.09 50.4896C42.49 49.7563 43.99 49.3896 45.59 49.3896H47.59V58.7896H34.19L37.79 53.5896ZM29.59 60.7896V63.5896C29.59 64.123 29.4233 64.623 29.09 65.0896C28.7567 65.5563 28.3233 65.923 27.79 66.1896V63.5896C27.79 62.923 27.9567 62.3563 28.29 61.8896C28.6233 61.423 29.0567 61.0563 29.59 60.7896ZM38.19 77.5896C36.8567 77.5896 35.7233 77.123 34.79 76.1896C33.8567 75.2563 33.39 74.1563 33.39 72.8896C33.39 71.623 33.8567 70.523 34.79 69.5896C35.7233 68.6563 36.8233 68.1896 38.09 68.1896C39.3567 68.1896 40.4567 68.6563 41.39 69.5896C42.3233 70.523 42.79 71.623 42.79 72.8896C42.79 74.1563 42.3233 75.2563 41.39 76.1896C40.4567 77.123 39.39 77.5896 38.19 77.5896ZM69.99 77.5896C68.6567 77.5896 67.5567 77.123 66.69 76.1896C65.8233 75.2563 65.39 74.1563 65.39 72.8896C65.39 71.623 65.8233 70.523 66.69 69.5896C67.5567 68.6563 68.6567 68.1896 69.99 68.1896C71.3233 68.1896 72.4233 68.6563 73.29 69.5896C74.1567 70.523 74.59 71.623 74.59 72.8896C74.59 74.1563 74.1567 75.2563 73.29 76.1896C72.4233 77.123 71.3233 77.5896 69.99 77.5896ZM81.19 71.9896H76.39C76.2567 70.3896 75.5567 69.0563 74.29 67.9896C73.0233 66.923 71.59 66.3896 69.99 66.3896C68.39 66.3896 66.9567 66.923 65.69 67.9896C64.4233 69.0563 63.7233 70.3896 63.59 71.9896H44.59C44.3233 70.3896 43.59 69.0563 42.39 67.9896C41.19 66.923 39.7567 66.3896 38.09 66.3896C36.4233 66.3896 34.99 66.923 33.79 67.9896C32.59 69.0563 31.8567 70.3896 31.59 71.9896H28.79C28.5233 71.9896 28.29 71.8896 28.09 71.6896C27.89 71.4896 27.79 71.2563 27.79 70.9896V68.1896C28.8567 67.923 29.7567 67.3563 30.49 66.4896C31.2233 65.623 31.59 64.6563 31.59 63.5896V60.7896H76.59V62.5896C76.59 63.6563 76.9567 64.5563 77.69 65.2896C78.4233 66.023 79.3233 66.3896 80.39 66.3896H82.19V70.9896C82.19 71.2563 82.09 71.4896 81.89 71.6896C81.69 71.8896 81.4567 71.9896 81.19 71.9896ZM82.19 63.5896V64.3896H80.39C79.8567 64.3896 79.39 64.223 78.99 63.8896C78.59 63.5563 78.39 63.123 78.39 62.5896V60.7896H79.39C80.19 60.7896 80.8567 61.0563 81.39 61.5896C81.9233 62.123 82.19 62.7896 82.19 63.5896ZM53.19 58.7896V49.3896H57.59C59.99 49.3896 62.0567 50.2563 63.79 51.9896L71.39 58.7896H53.19ZM68.99 54.1896L67.19 52.3896V45.7896H68.99V54.1896Z" fill="#1D1D1B"/>
</svg>
