<svg width="85" height="76" viewBox="0 0 85 76" fill="none" xmlns="http://www.w3.org/2000/svg">
<g clip-path="url(#clip0_2_57)">
<path d="M84.5379 25.3067C84.4516 27.2872 84.199 29.2368 83.6508 31.1062C83.3736 32.0872 83.0039 33.0558 82.5358 33.9813C80.6507 37.788 78.7163 41.5638 76.7512 45.3952C75.4698 47.8815 74.1823 50.3926 72.8825 52.9345C72.3465 52.0214 71.9338 51.2995 71.521 50.5777C69.6051 47.2584 67.6954 43.9453 65.7672 40.6507L65.7303 39.2748C67.0178 36.8193 68.2745 34.3576 69.5374 31.8898C69.8824 31.2173 70.2212 30.5509 70.5662 29.8723C74.5211 22.1293 69.6421 13.3746 60.9745 12.6774L60.6541 12.6527C53.0276 12.264 46.7871 20.0995 49.1342 27.4353C49.8365 29.6255 50.9639 31.6923 52.0604 33.7221C56.8101 42.5201 61.5535 51.3304 66.4634 60.0358C67.5476 61.9545 67.64 63.3859 66.5188 65.2923C64.5906 68.5561 62.9889 71.9988 61.2394 75.3612L60.6788 76.3422C60.0135 75.1329 59.4036 74.0286 58.7875 72.9304C53.6313 63.7006 48.395 54.5139 43.3497 45.2286C41.3167 41.4898 39.5179 37.609 37.9409 33.6604C32.2733 19.4702 40.1524 4.15711 54.8079 0.665076C58.9292 -0.322071 63.0074 -0.173999 66.7652 0.868675L67.7385 1.16482C77.6383 4.37921 85.0245 13.9052 84.5379 25.3006" fill="white"/>
<path d="M35.1624 76.41C33.5854 73.4547 32.0884 70.6784 30.6099 67.902C21.1722 50.2321 11.7284 32.5683 2.27839 14.9108C1.92725 14.2506 1.89645 13.7509 2.25375 13.0784C4.48996 8.83364 6.67689 4.56423 8.94391 0.189941L9.40594 0.868605C20.2913 21.3334 31.1828 41.8043 42.0559 62.2815L42.1852 63.3612C39.9059 67.6552 37.5896 71.9308 35.1624 76.41Z" fill="white"/>
<path d="M66.26 26.8244L65.6686 27.9843C65.2928 28.7185 64.9232 29.4465 64.5413 30.1807L60.112 37.4486C58.5842 34.6599 57.0749 31.8588 55.5595 29.0578C54.9249 27.8856 54.2658 26.6887 53.8654 25.4239C52.5039 21.1791 56.1139 16.6506 60.5247 16.8789L60.7034 16.8912C65.7117 17.2923 68.5393 22.3576 66.2538 26.8306" fill="white"/>
</g>
<defs>
<clipPath id="clip0_2_57">
<rect width="85" height="76" fill="white"/>
</clipPath>
</defs>
</svg>
