<svg width="42" height="42" viewBox="0 0 42 42" fill="none" xmlns="http://www.w3.org/2000/svg">
<rect y="-0.000976562" width="42" height="42" rx="20" fill="#FDC500"/>
<mask id="mask0_198_1442" style="mask-type:alpha" maskUnits="userSpaceOnUse" x="9" y="8" width="24" height="25">
<rect x="9" y="8.99902" width="24" height="24" fill="#D9D9D9"/>
</mask>
<g mask="url(#mask0_198_1442)">
<path d="M28.95 29.999C26.8667 29.999 24.8083 29.5449 22.775 28.6365C20.7417 27.7282 18.8917 26.4407 17.225 24.774C15.5583 23.1074 14.2708 21.2574 13.3625 19.224C12.4542 17.1907 12 15.1324 12 13.049C12 12.749 12.1 12.499 12.3 12.299C12.5 12.099 12.75 11.999 13.05 11.999H17.1C17.3333 11.999 17.5417 12.0782 17.725 12.2365C17.9083 12.3949 18.0167 12.5824 18.05 12.799L18.7 16.299C18.7333 16.5657 18.725 16.7907 18.675 16.974C18.625 17.1574 18.5333 17.3157 18.4 17.449L15.975 19.899C16.3083 20.5157 16.7042 21.1115 17.1625 21.6865C17.6208 22.2615 18.125 22.8157 18.675 23.349C19.1917 23.8657 19.7333 24.3449 20.3 24.7865C20.8667 25.2282 21.4667 25.6324 22.1 25.999L24.45 23.649C24.6 23.499 24.7958 23.3865 25.0375 23.3115C25.2792 23.2365 25.5167 23.2157 25.75 23.249L29.2 23.949C29.4333 24.0157 29.625 24.1365 29.775 24.3115C29.925 24.4865 30 24.6824 30 24.899V28.949C30 29.249 29.9 29.499 29.7 29.699C29.5 29.899 29.25 29.999 28.95 29.999ZM15.025 17.999L16.675 16.349L16.25 13.999H14.025C14.1083 14.6824 14.225 15.3574 14.375 16.024C14.525 16.6907 14.7417 17.349 15.025 17.999ZM23.975 26.949C24.625 27.2324 25.2875 27.4574 25.9625 27.624C26.6375 27.7907 27.3167 27.899 28 27.949V25.749L25.65 25.274L23.975 26.949Z" fill="#1D1D1B"/>
</g>
</svg>
