<svg width="225" height="30" viewBox="0 0 225 30" fill="none" xmlns="http://www.w3.org/2000/svg">
<path d="M0.0390625 3.04H8.79906L15.7591 23.16L23.1191 3.04H31.4791L38.4391 22.04L44.9991 3.04H53.7591L44.8791 29H32.7991L27.2791 14.24L21.7591 29H8.91906L0.0390625 3.04ZM55.99 0.32H63.59V12.12C65.19 9.58667 67.5633 8.32 70.71 8.32C72.55 8.32 74.11 8.53333 75.39 8.96C76.67 9.38667 77.71 9.97333 78.51 10.72C79.31 11.44 79.8967 12.3067 80.27 13.32C80.6433 14.3067 80.83 15.36 80.83 16.48V29H73.31V17.6C73.31 16.5867 72.9233 15.7867 72.15 15.2C71.4033 14.6133 70.27 14.32 68.75 14.32C67.7633 14.32 66.95 14.4133 66.31 14.6C65.67 14.76 65.1633 15 64.79 15.32C64.4167 15.6133 64.1367 15.9867 63.95 16.44C63.7633 16.8667 63.6433 17.3467 63.59 17.88V29H55.99V0.32ZM97.9353 29.4C95.1353 29.4 92.842 29.1333 91.0553 28.6C89.2953 28.0667 87.9086 27.3333 86.8953 26.4C85.882 25.4667 85.1753 24.36 84.7753 23.08C84.402 21.7733 84.2153 20.36 84.2153 18.84C84.2153 17.32 84.402 15.92 84.7753 14.64C85.1753 13.3333 85.882 12.2133 86.8953 11.28C87.9086 10.3467 89.2953 9.61333 91.0553 9.08C92.842 8.54667 95.1353 8.28 97.9353 8.28C100.735 8.28 103.029 8.54667 104.815 9.08C106.629 9.61333 108.042 10.36 109.055 11.32C110.095 12.2533 110.802 13.36 111.175 14.64C111.549 15.92 111.709 17.32 111.655 18.84L111.615 20.08L91.7753 20.12C91.8286 20.6533 91.9353 21.1733 92.0953 21.68C92.2553 22.16 92.5486 22.5867 92.9753 22.96C93.4286 23.3333 94.042 23.64 94.8153 23.88C95.6153 24.0933 96.6553 24.2 97.9353 24.2C99.1886 24.2 100.202 24.1333 100.975 24C101.775 23.8667 102.402 23.6933 102.855 23.48C103.309 23.24 103.629 22.9733 103.815 22.68C104.002 22.3867 104.122 22.0933 104.175 21.8H111.495C111.309 23 110.949 24.0667 110.415 25C109.882 25.9333 109.082 26.7333 108.015 27.4C106.975 28.04 105.629 28.5333 103.975 28.88C102.349 29.2267 100.335 29.4 97.9353 29.4ZM97.9353 13.52C96.9753 13.52 96.1486 13.5867 95.4553 13.72C94.7886 13.8533 94.2286 14.0267 93.7753 14.24C93.322 14.4533 92.962 14.72 92.6953 15.04C92.4286 15.3333 92.2286 15.6667 92.0953 16.04H103.815C103.602 15.48 103.269 15.04 102.815 14.72C102.362 14.3733 101.855 14.12 101.295 13.96C100.762 13.7733 100.202 13.6533 99.6153 13.6C99.0286 13.5467 98.4686 13.52 97.9353 13.52ZM115.365 8.72H122.965V12.12C124.565 9.58667 126.938 8.32 130.085 8.32C131.925 8.32 133.485 8.53333 134.765 8.96C136.045 9.38667 137.085 9.97333 137.885 10.72C138.685 11.44 139.272 12.3067 139.645 13.32C140.018 14.3067 140.205 15.36 140.205 16.48V29H132.685V17.6C132.685 16.5867 132.298 15.7867 131.525 15.2C130.778 14.6133 129.645 14.32 128.125 14.32C127.138 14.32 126.325 14.4133 125.685 14.6C125.045 14.76 124.538 15 124.165 15.32C123.792 15.6133 123.512 15.9867 123.325 16.44C123.138 16.8667 123.018 17.3467 122.965 17.88V29H115.365V8.72ZM144.193 29.4V8.72H151.433V12.2C151.966 11 152.74 10.0533 153.753 9.36C154.793 8.64 156.233 8.28 158.073 8.28C159.753 8.28 161.246 8.44 162.553 8.76C163.86 9.08 164.966 9.62667 165.873 10.4C166.806 11.1733 167.513 12.2 167.993 13.48C168.473 14.7333 168.726 16.3067 168.753 18.2L160.833 18.16C160.833 16.7467 160.486 15.76 159.793 15.2C159.1 14.6133 158.073 14.32 156.713 14.32C155.726 14.32 154.9 14.4267 154.233 14.64C153.593 14.8267 153.073 15.08 152.673 15.4C152.273 15.72 151.98 16.0933 151.793 16.52C151.606 16.92 151.486 17.3467 151.433 17.8V29.4H144.193ZM179.4 29.4C178.2 29.4 177 29.3333 175.8 29.2C174.6 29.0667 173.52 28.76 172.56 28.28C171.6 27.8 170.814 27.1067 170.2 26.2C169.614 25.2667 169.32 24.0267 169.32 22.48C169.32 21.2533 169.574 20.2667 170.08 19.52C170.614 18.7467 171.32 18.16 172.2 17.76C173.107 17.3333 174.187 17.0533 175.44 16.92C176.694 16.76 178.067 16.68 179.56 16.68L187.96 16.72V16.24C187.96 15.76 187.88 15.3733 187.72 15.08C187.587 14.76 187.32 14.52 186.92 14.36C186.547 14.1733 186 14.0533 185.28 14C184.587 13.9467 183.68 13.92 182.56 13.92C181.094 13.92 180.04 14.0533 179.4 14.32C178.76 14.56 178.334 14.9867 178.12 15.6H170.12C170.254 14.4 170.574 13.3467 171.08 12.44C171.614 11.5333 172.374 10.7733 173.36 10.16C174.347 9.52 175.6 9.05333 177.12 8.76C178.64 8.44 180.454 8.28 182.56 8.28C185.12 8.28 187.214 8.44 188.84 8.76C190.494 9.08 191.787 9.54667 192.72 10.16C193.654 10.7467 194.294 11.48 194.64 12.36C194.987 13.2133 195.16 14.1733 195.16 15.24V29H187.96V27.2C187.187 27.84 186.12 28.3733 184.76 28.8C183.427 29.2 181.64 29.4 179.4 29.4ZM183 21.12C181.214 21.12 179.867 21.1733 178.96 21.28C178.054 21.3867 177.6 21.72 177.6 22.28C177.6 22.9467 177.96 23.36 178.68 23.52C179.4 23.68 180.494 23.76 181.96 23.76C183.187 23.76 184.187 23.6933 184.96 23.56C185.734 23.4 186.334 23.2133 186.76 23C187.214 22.76 187.52 22.52 187.68 22.28C187.867 22.0133 187.96 21.7867 187.96 21.6V21.12H183ZM199.428 1.88H206.868V15.56H210.548L215.908 8.72H224.908L217.268 19.12L224.988 29H215.668L210.668 22.12H206.868V29.04L199.428 29V1.88Z" fill="#1D1D1B"/>
</svg>
