<svg width="239" height="29" viewBox="0 0 239 29" fill="none" xmlns="http://www.w3.org/2000/svg">
<path d="M39.1757 0L33.5691 16.8217L27.9625 0H20.6008L14.9942 16.8217L9.39935 0H0L9.39935 28.2406H18.7987L24.2758 11.7728L29.7646 28.2406H39.1757L48.5751 0H39.1757Z" fill="black"/>
<path d="M67.0324 7.06606C61.9322 7.06606 59.5883 9.41355 59.5883 9.41355V0H50.9663V28.2406H59.5883V18.0485C59.5883 14.1203 61.9322 12.5514 65.0653 12.5514C68.1985 12.5514 69.765 14.1203 69.765 18.0485V28.2406H78.387V18.0485C78.387 10.2039 74.0878 7.06606 67.0206 7.06606" fill="black"/>
<path d="M110.495 17.0694C110.495 9.22483 105.395 6.26395 95.9958 6.26395C86.5965 6.26395 81.4963 9.22483 81.4963 17.0694C81.4963 24.9141 86.6318 28.2406 96.0312 28.2406C102.627 28.2406 106.019 27.0492 108.835 24.0057L103.251 20.7499C102.262 21.4223 101.332 22.7435 96.0312 22.7435C92.4622 22.7435 90.6483 21.3987 90.2243 18.6384H110.425L110.484 17.0694H110.495ZM90.3892 14.7102C91.0135 12.5042 92.4622 11.7611 95.9958 11.7611C99.5294 11.7611 100.978 12.5042 101.602 14.7102H90.3892Z" fill="black"/>
<path d="M131.096 7.06613C125.607 7.06613 122.486 9.41362 122.486 9.41362V7.8447H113.864V28.2407H122.486V18.0486C122.486 14.1204 125.23 12.5515 128.364 12.5515C131.497 12.5515 134.229 14.1204 134.229 18.0486V28.2407H142.851V18.0486C142.851 10.204 138.152 7.06613 131.096 7.06613Z" fill="black"/>
<path d="M174.488 19.2282C177.174 17.3053 178.929 14.1557 178.929 10.5932C178.929 4.76576 174.194 0 168.352 0H146.809V28.2406H155.419V21.1864H165.796L169.518 28.2406H179.223L174.477 19.2164L174.488 19.2282ZM166.785 14.1203H155.419V7.06606H166.785C168.729 7.06606 170.319 8.64677 170.319 10.5814C170.319 12.516 168.74 14.1203 166.785 14.1203Z" fill="black"/>
<path d="M195.773 6.26395C191.78 6.26395 186.562 7.24304 182.828 8.59963L184.583 14.026C187.398 13.2002 189.542 12.3273 195.054 12.1622C198.187 12.056 201.25 12.5868 201.25 13.6603C201.25 14.4388 200.614 14.9107 195.773 14.9107C186.374 14.9107 181.674 16.8571 181.674 21.5757C181.674 27.0846 187.151 28.2525 192.64 28.2525C196.421 28.2525 198.906 27.4621 201.25 25.8932L202.039 27.4621H209.872V15.7011C209.872 7.85646 205.95 6.27574 195.773 6.27574M190.284 21.1864C190.284 18.7563 194.984 19.6175 201.25 18.8389C200.213 23.4631 190.284 23.8996 190.284 21.1864Z" fill="black"/>
<path d="M228.976 16.7981L238.175 7.84462H228.493L222.274 13.5423V0H213.935V28.2524H222.274V23.1446L223.723 21.788L229.33 28.2524H239L228.976 16.7981Z" fill="black"/>
</svg>
